<svg width="16" height="17" viewBox="0 0 16 17" fill="none" xmlns="http://www.w3.org/2000/svg">
<path fill-rule="evenodd" clip-rule="evenodd" d="M4.99992 1.33331C5.36811 1.33331 5.66658 1.63179 5.66658 1.99998V2.33332L10.3333 2.33333V1.99998C10.3333 1.63179 10.6317 1.33331 10.9999 1.33331C11.3681 1.33331 11.6666 1.63179 11.6666 1.99998V2.33333L12.4999 2.33333C13.9727 2.33334 15.1666 3.52724 15.1666 5V13C15.1666 14.4727 13.9727 15.6666 12.4999 15.6666L3.49992 15.6666C2.02716 15.6666 0.833252 14.4727 0.833252 13L0.833252 6.50011L0.833252 4.99998C0.833252 3.52722 2.02716 2.33331 3.49992 2.33332L4.33325 2.33332V1.99998C4.33325 1.63179 4.63173 1.33331 4.99992 1.33331ZM4.33325 3.66665L3.49992 3.66665C2.76354 3.66665 2.16659 4.2636 2.16659 4.99998V5.83331H13.8333V5C13.8333 4.26362 13.2363 3.66667 12.4999 3.66667L11.6666 3.66667V3.99998C11.6666 4.36817 11.3681 4.66665 10.9999 4.66665C10.6317 4.66665 10.3333 4.36817 10.3333 3.99998V3.66666L5.66658 3.66665V3.99998C5.66658 4.36817 5.36811 4.66665 4.99992 4.66665C4.63173 4.66665 4.33325 4.36817 4.33325 3.99998V3.66665ZM13.8333 7.16665H2.16659L2.16659 13C2.16659 13.7364 2.76354 14.3333 3.49992 14.3333L12.4999 14.3333C13.2363 14.3333 13.8333 13.7364 13.8333 13V7.16665Z" fill="#787A80"/>
</svg>
