<svg width="85" height="82" viewBox="0 0 85 82" fill="none" xmlns="http://www.w3.org/2000/svg">
<path d="M41 81.3333C63.2387 81.3333 81.3334 63.2403 81.3334 41C81.3334 37.1613 80.7975 33.3784 79.7365 29.7555C79.2138 27.974 77.3535 26.9508 75.5671 27.4735C73.784 27.9946 72.764 29.8614 73.2851 31.6429C74.1639 34.6528 74.6111 37.8022 74.6111 41C74.6111 59.5329 59.5329 74.6111 41 74.6111C22.4671 74.6111 7.38891 59.5329 7.38891 41C7.38891 22.4671 22.4671 7.38888 41 7.38888C47.7354 7.38888 54.2155 9.35828 59.7397 13.0829C61.2775 14.1209 63.3683 13.7131 64.4047 12.1753C65.4419 10.6359 65.0374 8.54672 63.498 7.50951C56.8594 3.03322 49.0803 0.666656 41 0.666656C18.7614 0.666656 0.666687 18.7597 0.666687 41C0.666687 63.2403 18.7614 81.3333 41 81.3333Z" fill="#1E212C"/>
<path d="M78.7402 5.40687L40.9993 43.146L28.9251 31.0735C27.4928 29.6421 25.1725 29.6421 23.7402 31.0735C22.3088 32.5058 22.3088 34.8261 23.7402 36.2584L38.4069 50.9251C39.1239 51.6421 40.0603 51.9993 40.9993 51.9993C41.9384 51.9993 42.8748 51.6421 43.5918 50.9251L83.9251 10.5918C85.3565 9.15948 85.3565 6.83916 83.9251 5.40687C82.4928 3.97547 80.1725 3.97547 78.7402 5.40687Z" fill="#1E212C"/>
</svg>
