<svg width="106" height="78" viewBox="0 0 106 78" fill="none" xmlns="http://www.w3.org/2000/svg">
<path d="M100.848 57.1478C100.848 57.1478 100.848 57.1478 100.848 57.1478L62.6828 33.2956C62.0174 32.8798 61.2484 32.6591 60.4638 32.6591H57.1874V30.8794C63.6672 29.0499 68.4301 23.0837 68.4301 16.0262C68.4301 7.51801 61.5082 0.595947 53 0.595947C44.4915 0.595947 37.5697 7.51801 37.5697 16.0262C37.5697 18.3389 39.4444 20.2136 41.7571 20.2136C44.0697 20.2136 45.9444 18.3389 45.9444 16.0262C45.9444 12.1358 49.1093 8.97066 53 8.97066C56.8904 8.97066 60.0553 12.1358 60.0553 16.0262C60.0553 19.9167 56.8902 23.0818 53 23.0818C50.6874 23.0818 48.8126 24.9566 48.8126 27.2692V32.6591H45.5362C44.7516 32.6591 43.9826 32.8798 43.3172 33.2956L5.15165 57.1478C1.92595 59.1642 0 62.6387 0 66.443C0 72.4869 4.91715 77.4041 10.9611 77.4041H95.0387C101.083 77.4041 106 72.4869 106 66.443C106 62.6387 104.074 59.1642 100.848 57.1478V57.1478ZM95.0387 69.0293H10.9611C9.53497 69.0293 8.37472 67.8691 8.37472 66.443C8.37472 65.5455 8.82911 64.7252 9.59025 64.2495L46.7369 41.0339H59.2629L96.4095 64.2495C97.1709 64.7252 97.6253 65.5455 97.6253 66.443C97.6253 67.8691 96.4648 69.0293 95.0387 69.0293V69.0293Z" fill="#1E212C"/>
</svg>
