<svg width="81" height="83" viewBox="0 0 81 83" fill="none" xmlns="http://www.w3.org/2000/svg">
<path fill-rule="evenodd" clip-rule="evenodd" d="M43.6684 8.85869C41.5932 8.29682 39.406 8.29682 37.3308 8.85869C35.1703 9.44365 33.0752 10.9762 27.1004 15.6232L16.592 23.7964C12.7466 26.7873 11.4556 27.8359 10.5429 29.0698C9.66593 30.2555 9.01261 31.5913 8.61507 33.0116C8.20139 34.4895 8.16628 36.1524 8.16628 41.024V67.7793C8.16628 70.8935 8.21015 71.5547 8.34031 71.9838C8.73215 73.2755 9.74299 74.2863 11.0347 74.6782C11.4638 74.8083 12.1249 74.8522 15.2392 74.8522H17.7652C18.2823 74.8522 18.3946 74.851 18.4688 74.8473C20.545 74.7453 22.2052 73.0851 22.3072 71.0089C22.3109 70.9347 22.3121 70.8224 22.3121 70.3053V58.6855C22.3121 48.6409 30.4549 40.498 40.4996 40.498C50.5443 40.498 58.6871 48.6408 58.6871 58.6855V70.3053C58.6871 70.8224 58.6883 70.9347 58.692 71.0089C58.794 73.0851 60.4542 74.7453 62.5305 74.8473C62.6046 74.851 62.7169 74.8522 63.234 74.8522H65.76C68.8743 74.8522 69.5354 74.8083 69.9645 74.6782C71.2562 74.2863 72.2671 73.2755 72.6589 71.9838C72.7891 71.5547 72.8329 70.8935 72.8329 67.7793V41.024C72.8329 36.1524 72.7978 34.4895 72.3842 33.0116C71.9866 31.5913 71.3333 30.2555 70.4563 29.0698C69.5437 27.8359 68.2526 26.7873 64.4072 23.7964L53.8989 15.6232C47.9241 10.9762 45.8289 9.44365 43.6684 8.85869ZM35.2182 1.0563C38.6769 0.119841 42.3223 0.119841 45.781 1.0563C49.7147 2.12138 53.1662 4.80864 58.1738 8.70736C58.3998 8.88333 58.629 9.06177 58.8615 9.24264L69.3699 17.4158C69.5151 17.5288 69.6585 17.6402 69.7999 17.7501C73.0507 20.2768 75.2996 22.0247 76.9552 24.263C78.4169 26.2393 79.5057 28.4656 80.1683 30.8327C80.9187 33.5138 80.9178 36.3621 80.9164 40.4794C80.9163 40.6585 80.9163 40.84 80.9163 41.024V67.7793C80.9163 67.9505 80.9165 68.12 80.9167 68.2878C80.9194 70.5967 80.9218 72.5909 80.3942 74.3302C79.2187 78.2054 76.1861 81.2379 72.311 82.4134C70.5717 82.9411 68.5775 82.9387 66.2686 82.9359C66.1007 82.9357 65.9312 82.9355 65.76 82.9355L63.1493 82.9356C62.7647 82.9356 62.4343 82.9357 62.1338 82.9209C55.9052 82.6149 50.9244 77.6341 50.6184 71.4055C50.6036 71.105 50.6037 70.7746 50.6038 70.39L50.6038 58.6855C50.6038 53.1052 46.08 48.5814 40.4996 48.5814C34.9192 48.5814 30.3954 53.1052 30.3954 58.6855L30.3955 70.3901C30.3955 70.7746 30.3956 71.1051 30.3808 71.4055C30.0748 77.6341 25.094 82.6149 18.8654 82.9209C18.5649 82.9357 18.2345 82.9356 17.8499 82.9356L15.2392 82.9355C15.068 82.9355 14.8985 82.9357 14.7306 82.9359C12.4218 82.9387 10.4275 82.9411 8.68824 82.4134C4.81307 81.2379 1.78056 78.2054 0.605042 74.3302C0.0774283 72.5909 0.0797983 70.5967 0.0825427 68.2878C0.0827421 68.12 0.0829435 67.9505 0.0829435 67.7793V41.024C0.0829435 40.84 0.0828823 40.6585 0.0828221 40.4794C0.0814384 36.3621 0.0804806 33.5137 0.830928 30.8327C1.4935 28.4656 2.58237 26.2393 4.04405 24.263C5.69959 22.0247 7.9485 20.2767 11.1994 17.7501C11.3408 17.6401 11.4841 17.5288 11.6293 17.4158L22.1377 9.24263C22.3702 9.06176 22.5994 8.88332 22.8254 8.70734C27.833 4.80863 31.2845 2.12137 35.2182 1.0563Z" fill="#1E212C"/>
</svg>
