<svg width="16" height="16" viewBox="0 0 16 16" fill="none" xmlns="http://www.w3.org/2000/svg">
<path fill-rule="evenodd" clip-rule="evenodd" d="M5.66683 1.94784C5.11454 1.94784 4.66683 2.39555 4.66683 2.94784V13.052C4.66683 13.6043 5.11454 14.052 5.66683 14.052H10.3335C10.8858 14.052 11.3335 13.6043 11.3335 13.052V2.94784C11.3335 2.39555 10.8858 1.94784 10.3335 1.94784H10.2779L10.1155 2.33747C10.012 2.58588 9.76928 2.74769 9.50016 2.74769H6.50016C6.23105 2.74769 5.98832 2.58588 5.8848 2.33747L5.72242 1.94784H5.66683ZM3.3335 2.94784C3.3335 1.65917 4.37817 0.614502 5.66683 0.614502H10.3335C11.6222 0.614502 12.6668 1.65917 12.6668 2.94784V13.052C12.6668 14.3407 11.6222 15.3853 10.3335 15.3853H5.66683C4.37816 15.3853 3.3335 14.3407 3.3335 13.052V2.94784Z" fill="white"/>
</svg>
