<svg width="75" height="81" viewBox="0 0 75 81" fill="none" xmlns="http://www.w3.org/2000/svg">
<path fill-rule="evenodd" clip-rule="evenodd" d="M37.5006 8.05208C30.3324 8.05208 24.5214 13.8631 24.5214 21.0313C24.5214 28.1994 30.3324 34.0104 37.5006 34.0104C44.6688 34.0104 50.4798 28.1994 50.4798 21.0313C50.4798 13.8631 44.6688 8.05208 37.5006 8.05208ZM17.1048 21.0313C17.1048 9.76694 26.2363 0.635416 37.5006 0.635416C48.7649 0.635416 57.8964 9.76694 57.8964 21.0313C57.8964 32.2956 48.7649 41.4271 37.5006 41.4271C26.2363 41.4271 17.1048 32.2956 17.1048 21.0313Z" fill="#1E212C"/>
<path fill-rule="evenodd" clip-rule="evenodd" d="M15.6365 52.5521C13.0654 52.5521 11.0559 53.804 10.2401 55.6026C9.11108 58.0921 8.08869 61.056 7.84743 63.8668C7.73958 65.1234 8.26352 66.0495 8.98545 66.4979C12.8019 68.8687 21.6452 72.9479 37.5006 72.9479C53.356 72.9479 62.1993 68.8687 66.0157 66.4979C66.7377 66.0495 67.2616 65.1234 67.1538 63.8668C66.9125 61.056 65.8901 58.0921 64.7611 55.6026C63.9453 53.804 61.9358 52.5521 59.3647 52.5521H15.6365ZM3.48565 52.5393C5.74011 47.5683 10.7743 45.1354 15.6365 45.1354H59.3647C64.2269 45.1354 69.2611 47.5683 71.5156 52.5393C72.8104 55.3945 74.2 59.2327 74.5433 63.2326C74.8559 66.875 73.342 70.678 69.9294 72.798C64.91 75.916 54.7058 80.3646 37.5006 80.3646C20.2954 80.3646 10.0912 75.916 5.07183 72.798C1.6592 70.678 0.145305 66.875 0.457934 63.2326C0.801243 59.2327 2.19075 55.3945 3.48565 52.5393Z" fill="#1E212C"/>
</svg>
