<svg width="16" height="16" viewBox="0 0 16 16" fill="none" xmlns="http://www.w3.org/2000/svg">
<path fill-rule="evenodd" clip-rule="evenodd" d="M15.1668 12.0001V4.66675C15.1668 3.56218 14.2714 2.66675 13.1668 2.66675L2.83349 2.66676C1.72892 2.66676 0.833496 3.56219 0.833496 4.66676V12.0001C0.833496 13.1046 1.72893 14.0001 2.8335 14.0001L13.1668 14.0001C14.2714 14.0001 15.1668 13.1046 15.1668 12.0001ZM13.8335 6.17306V12.0001C13.8335 12.3683 13.535 12.6667 13.1668 12.6667L2.8335 12.6667C2.46531 12.6667 2.16683 12.3683 2.16683 12.0001L2.16683 6.17297L6.87561 9.37494C7.55433 9.83647 8.44613 9.83647 9.12485 9.37494L13.8335 6.17306ZM13.8259 4.56582C13.7773 4.24552 13.5007 4.00008 13.1668 4.00008L2.83349 4.00009C2.49965 4.00009 2.22311 4.24549 2.17443 4.56574L7.62535 8.27237C7.85159 8.42621 8.14886 8.42621 8.3751 8.27237L13.8259 4.56582Z" fill="white"/>
</svg>
