<svg width="75" height="75" viewBox="0 0 75 75" fill="none" xmlns="http://www.w3.org/2000/svg">
<path d="M21.9375 67.7604C20.0275 67.7604 18.4792 69.3088 18.4792 71.2188C18.4792 73.1288 20.0275 74.6771 21.9375 74.6771H57.3855C66.9354 74.6771 74.6771 66.9354 74.6771 57.3854V17.6146C74.6771 8.06467 66.9354 0.322937 57.3854 0.322937H21.9375C20.0275 0.322937 18.4792 1.87128 18.4792 3.78127C18.4792 5.69125 20.0275 7.2396 21.9375 7.2396L57.3854 7.2396C63.1154 7.2396 67.7605 11.8846 67.7605 17.6146V57.3854C67.7605 63.1154 63.1154 67.7604 57.3855 67.7604H21.9375Z" fill="#1E212C"/>
<path d="M59.1146 37.5C59.1146 38.4172 58.7503 39.2969 58.1017 39.9454L42.5392 55.5079C41.1886 56.8585 38.9989 56.8585 37.6484 55.5079C36.2978 54.1574 36.2978 51.9677 37.6484 50.6171L47.3071 40.9584L3.78127 40.9584C1.87128 40.9584 0.322937 39.41 0.322937 37.5C0.322937 35.59 1.87128 34.0417 3.78127 34.0417L47.3071 34.0417L37.6484 24.3829C36.2978 23.0324 36.2978 20.8427 37.6484 19.4921C38.9989 18.1415 41.1886 18.1415 42.5392 19.4921L58.1017 35.0546C58.7503 35.7032 59.1146 36.5828 59.1146 37.5Z" fill="#1E212C"/>
</svg>
