<svg width="32" height="35" viewBox="0 0 32 35" fill="none" xmlns="http://www.w3.org/2000/svg">
<path d="M10.3998 2.91669H21.5998C25.8665 2.91669 29.3332 6.70835 29.3332 11.375V23.625C29.3332 25.8683 28.5184 28.0197 27.0681 29.606C25.6178 31.1922 23.6508 32.0834 21.5998 32.0834H10.3998C6.13317 32.0834 2.6665 28.2917 2.6665 23.625V11.375C2.6665 9.13173 3.48126 6.98032 4.93155 5.39408C6.38183 3.80783 8.34883 2.91669 10.3998 2.91669ZM10.1332 5.83335C8.86013 5.83335 7.63923 6.38648 6.73906 7.37104C5.83888 8.35561 5.33317 9.69097 5.33317 11.0834V23.9167C5.33317 26.8188 7.47984 29.1667 10.1332 29.1667H21.8665C23.1395 29.1667 24.3604 28.6136 25.2606 27.629C26.1608 26.6444 26.6665 25.3091 26.6665 23.9167V11.0834C26.6665 8.18127 24.5198 5.83335 21.8665 5.83335H10.1332ZM22.9998 8.02085C23.4419 8.02085 23.8658 8.21291 24.1784 8.55477C24.4909 8.89664 24.6665 9.3603 24.6665 9.84377C24.6665 10.3272 24.4909 10.7909 24.1784 11.1328C23.8658 11.4746 23.4419 11.6667 22.9998 11.6667C22.5578 11.6667 22.1339 11.4746 21.8213 11.1328C21.5088 10.7909 21.3332 10.3272 21.3332 9.84377C21.3332 9.3603 21.5088 8.89664 21.8213 8.55477C22.1339 8.21291 22.5578 8.02085 22.9998 8.02085ZM15.9998 10.2084C17.7679 10.2084 19.4636 10.9766 20.7139 12.344C21.9641 13.7115 22.6665 15.5662 22.6665 17.5C22.6665 19.4339 21.9641 21.2886 20.7139 22.656C19.4636 24.0235 17.7679 24.7917 15.9998 24.7917C14.2317 24.7917 12.536 24.0235 11.2858 22.656C10.0355 21.2886 9.33317 19.4339 9.33317 17.5C9.33317 15.5662 10.0355 13.7115 11.2858 12.344C12.536 10.9766 14.2317 10.2084 15.9998 10.2084ZM15.9998 13.125C14.939 13.125 13.9216 13.586 13.1714 14.4064C12.4213 15.2269 11.9998 16.3397 11.9998 17.5C11.9998 18.6603 12.4213 19.7731 13.1714 20.5936C13.9216 21.4141 14.939 21.875 15.9998 21.875C17.0607 21.875 18.0781 21.4141 18.8283 20.5936C19.5784 19.7731 19.9998 18.6603 19.9998 17.5C19.9998 16.3397 19.5784 15.2269 18.8283 14.4064C18.0781 13.586 17.0607 13.125 15.9998 13.125Z" fill="white"/>
</svg>
