<svg width="34" height="35" viewBox="0 0 34 35" fill="none" xmlns="http://www.w3.org/2000/svg">
<path d="M26.9876 7.1604C25.6888 5.80988 24.1418 4.73908 22.4368 4.01048C20.7318 3.28187 18.9029 2.91003 17.0568 2.91665C9.3218 2.91665 3.01763 9.40623 3.01763 17.3687C3.01763 19.9208 3.6693 22.4 4.88763 24.5875L2.9043 32.0833L10.3418 30.0708C12.396 31.2229 14.7051 31.8354 17.0568 31.8354C24.7918 31.8354 31.096 25.3458 31.096 17.3833C31.096 13.5187 29.6368 9.88748 26.9876 7.1604ZM17.0568 29.3854C14.9601 29.3854 12.906 28.8021 11.1068 27.7083L10.6818 27.4458L6.2618 28.6416L7.43763 24.2083L7.1543 23.7562C5.98944 21.8414 5.37091 19.628 5.3693 17.3687C5.3693 10.7479 10.611 5.35207 17.0426 5.35207C20.1593 5.35207 23.0918 6.60624 25.2876 8.88124C26.3749 9.99535 27.2365 11.3205 27.8226 12.78C28.4087 14.2394 28.7075 15.8041 28.7018 17.3833C28.7301 24.0042 23.4885 29.3854 17.0568 29.3854ZM23.4601 20.4021C23.106 20.2271 21.3776 19.3521 21.066 19.2208C20.7401 19.1042 20.5135 19.0458 20.2726 19.3958C20.0318 19.7604 19.366 20.5771 19.1676 20.8104C18.9693 21.0583 18.7568 21.0875 18.4026 20.8979C18.0485 20.7229 16.9151 20.3292 15.5835 19.1042C14.5351 18.1417 13.841 16.9604 13.6285 16.5958C13.4301 16.2312 13.6001 16.0416 13.7843 15.8521C13.9401 15.6917 14.1385 15.4291 14.3085 15.225C14.4785 15.0208 14.5493 14.8604 14.6626 14.6271C14.776 14.3792 14.7193 14.175 14.6343 14C14.5493 13.825 13.841 12.0458 13.5576 11.3167C13.2743 10.6167 12.9768 10.7042 12.7643 10.6896H12.0843C11.8435 10.6896 11.4751 10.7771 11.1493 11.1417C10.8376 11.5062 9.93096 12.3812 9.93096 14.1604C9.93096 15.9396 11.1918 17.6604 11.3618 17.8937C11.5318 18.1417 13.841 21.7875 17.3543 23.3479C18.1901 23.7271 18.8418 23.9458 19.3518 24.1062C20.1876 24.3833 20.9526 24.3396 21.5618 24.2521C22.2418 24.15 23.6443 23.3771 23.9276 22.5312C24.2251 21.6854 24.2251 20.9708 24.126 20.8104C24.0268 20.65 23.8143 20.5771 23.4601 20.4021Z" fill="white"/>
</svg>
