<svg width="300" height="300" viewBox="0 0 300 300" fill="none" xmlns="http://www.w3.org/2000/svg">
<rect width="300" height="300" rx="40" fill="#BBC6C8"/>
<path d="M76.4062 198.973L69.0625 222H62.2656L72.793 193.562H77.0898L76.4062 198.973ZM82.5 222L75.1367 198.973L74.375 193.562H78.7305L89.2969 222H82.5ZM82.1875 211.414V216.336H67.3633V211.414H82.1875ZM103.371 212.117H96.2227V207.176H103.371C104.426 207.176 105.272 207 105.91 206.648C106.561 206.297 107.036 205.815 107.336 205.203C107.648 204.578 107.805 203.875 107.805 203.094C107.805 202.286 107.648 201.538 107.336 200.848C107.036 200.145 106.561 199.578 105.91 199.148C105.272 198.719 104.426 198.504 103.371 198.504H98.5273V222H92.1602V193.562H103.371C105.637 193.562 107.577 193.973 109.191 194.793C110.819 195.613 112.062 196.74 112.922 198.172C113.794 199.591 114.23 201.219 114.23 203.055C114.23 204.891 113.794 206.486 112.922 207.84C112.062 209.194 110.819 210.249 109.191 211.004C107.577 211.746 105.637 212.117 103.371 212.117ZM121.645 193.562H126.918L133.754 213.895L140.57 193.562H145.844L135.883 222H131.605L121.645 193.562ZM118.598 193.562H123.969L124.965 214.637V222H118.598V193.562ZM143.52 193.562H148.91V222H142.523V214.637L143.52 193.562ZM166.305 198.973L158.961 222H152.164L162.691 193.562H166.988L166.305 198.973ZM172.398 222L165.035 198.973L164.273 193.562H168.629L179.195 222H172.398ZM172.086 211.414V216.336H157.262V211.414H172.086ZM205.066 217.078V222H184.832V217.078H205.066ZM186.824 217.078V228.973H180.906L180.516 217.078H186.824ZM209.5 217.078L208.895 228.992H203.133V217.078H209.5ZM201.961 193.562V198.504H187.977V193.562H201.961ZM206.355 193.562V222H200.027V193.562H206.355ZM187.391 193.562H193.738L192.938 205.184C192.807 207.137 192.586 208.849 192.273 210.32C191.974 211.779 191.616 213.055 191.199 214.148C190.783 215.242 190.32 216.186 189.812 216.98C189.318 217.775 188.79 218.471 188.23 219.07C187.684 219.656 187.137 220.184 186.59 220.652C186.043 221.108 185.509 221.557 184.988 222H181.219V217.078H182.566C182.957 216.779 183.354 216.368 183.758 215.848C184.174 215.327 184.572 214.624 184.949 213.738C185.327 212.853 185.659 211.714 185.945 210.32C186.232 208.927 186.44 207.215 186.57 205.184L187.391 193.562ZM224.844 198.973L217.5 222H210.703L221.23 193.562H225.527L224.844 198.973ZM230.938 222L223.574 198.973L222.812 193.562H227.168L237.734 222H230.938ZM230.625 211.414V216.336H215.801V211.414H230.625Z" fill="black"/>
<path d="M61.6284 245V239.258H62.5964V241.623H63.2344L65.0384 239.258H66.1384L63.9934 242.041L66.3914 245H65.2694L63.2344 242.514H62.5964V245H61.6284ZM72.0507 245.11C71.6181 245.11 71.2257 245.033 70.8737 244.879C70.5217 244.718 70.2174 244.501 69.9607 244.23C69.7041 243.951 69.5061 243.632 69.3667 243.273C69.2274 242.914 69.1577 242.536 69.1577 242.14C69.1577 241.737 69.2274 241.355 69.3667 240.996C69.5061 240.637 69.7041 240.321 69.9607 240.05C70.2174 239.771 70.5217 239.555 70.8737 239.401C71.2331 239.24 71.6254 239.159 72.0507 239.159C72.4834 239.159 72.8757 239.24 73.2277 239.401C73.5797 239.555 73.8841 239.771 74.1407 240.05C74.4047 240.321 74.6064 240.637 74.7457 240.996C74.8851 241.355 74.9547 241.737 74.9547 242.14C74.9547 242.536 74.8851 242.914 74.7457 243.273C74.6064 243.632 74.4084 243.951 74.1517 244.23C73.8951 244.501 73.5871 244.718 73.2277 244.879C72.8757 245.033 72.4834 245.11 72.0507 245.11ZM70.1477 242.151C70.1477 242.547 70.2321 242.906 70.4007 243.229C70.5767 243.552 70.8077 243.808 71.0937 243.999C71.3797 244.182 71.6987 244.274 72.0507 244.274C72.4027 244.274 72.7217 244.179 73.0077 243.988C73.3011 243.797 73.5321 243.541 73.7007 243.218C73.8767 242.888 73.9647 242.525 73.9647 242.129C73.9647 241.733 73.8767 241.374 73.7007 241.051C73.5321 240.728 73.3011 240.472 73.0077 240.281C72.7217 240.09 72.4027 239.995 72.0507 239.995C71.6987 239.995 71.3797 240.094 71.0937 240.292C70.8077 240.483 70.5767 240.739 70.4007 241.062C70.2321 241.385 70.1477 241.748 70.1477 242.151ZM78.6167 245V239.258H79.5847V241.634H82.5767V239.258H83.5447V245H82.5767V242.492H79.5847V245H78.6167ZM87.5942 245V239.258H88.5622V241.634H91.5542V239.258H92.5222V245H91.5542V242.492H88.5622V245H87.5942ZM99.0908 245.11C98.6581 245.11 98.2658 245.033 97.9138 244.879C97.5618 244.718 97.2574 244.501 97.0008 244.23C96.7441 243.951 96.5461 243.632 96.4068 243.273C96.2674 242.914 96.1978 242.536 96.1978 242.14C96.1978 241.737 96.2674 241.355 96.4068 240.996C96.5461 240.637 96.7441 240.321 97.0008 240.05C97.2574 239.771 97.5618 239.555 97.9138 239.401C98.2731 239.24 98.6654 239.159 99.0908 239.159C99.5234 239.159 99.9158 239.24 100.268 239.401C100.62 239.555 100.924 239.771 101.181 240.05C101.445 240.321 101.646 240.637 101.786 240.996C101.925 241.355 101.995 241.737 101.995 242.14C101.995 242.536 101.925 242.914 101.786 243.273C101.646 243.632 101.448 243.951 101.192 244.23C100.935 244.501 100.627 244.718 100.268 244.879C99.9158 245.033 99.5234 245.11 99.0908 245.11ZM97.1878 242.151C97.1878 242.547 97.2721 242.906 97.4408 243.229C97.6168 243.552 97.8478 243.808 98.1338 243.999C98.4198 244.182 98.7388 244.274 99.0908 244.274C99.4428 244.274 99.7618 244.179 100.048 243.988C100.341 243.797 100.572 243.541 100.741 243.218C100.917 242.888 101.005 242.525 101.005 242.129C101.005 241.733 100.917 241.374 100.741 241.051C100.572 240.728 100.341 240.472 100.048 240.281C99.7618 240.09 99.4428 239.995 99.0908 239.995C98.7388 239.995 98.4198 240.094 98.1338 240.292C97.8478 240.483 97.6168 240.739 97.4408 241.062C97.2721 241.385 97.1878 241.748 97.1878 242.151ZM105.591 242.437V241.557H108.836V242.437H105.591ZM115.36 245.11C114.927 245.11 114.531 245.033 114.172 244.879C113.82 244.718 113.512 244.498 113.248 244.219C112.991 243.94 112.79 243.621 112.643 243.262C112.504 242.903 112.434 242.521 112.434 242.118C112.434 241.575 112.555 241.08 112.797 240.633C113.039 240.186 113.38 239.83 113.82 239.566C114.26 239.295 114.77 239.159 115.349 239.159C115.914 239.159 116.405 239.287 116.823 239.544C117.248 239.793 117.564 240.131 117.769 240.556L116.823 240.853C116.676 240.582 116.471 240.373 116.207 240.226C115.943 240.072 115.65 239.995 115.327 239.995C114.975 239.995 114.652 240.087 114.359 240.27C114.073 240.453 113.846 240.706 113.677 241.029C113.508 241.344 113.424 241.707 113.424 242.118C113.424 242.521 113.508 242.888 113.677 243.218C113.853 243.541 114.084 243.797 114.37 243.988C114.663 244.179 114.986 244.274 115.338 244.274C115.565 244.274 115.782 244.234 115.987 244.153C116.2 244.072 116.383 243.966 116.537 243.834C116.698 243.695 116.808 243.544 116.867 243.383L117.813 243.669C117.696 243.948 117.516 244.197 117.274 244.417C117.039 244.63 116.757 244.798 116.427 244.923C116.104 245.048 115.749 245.11 115.36 245.11ZM121.399 245V239.258H126.162V245H125.194V240.116H122.367V245H121.399ZM132.734 245.11C132.302 245.11 131.909 245.033 131.557 244.879C131.205 244.718 130.901 244.501 130.644 244.23C130.388 243.951 130.19 243.632 130.05 243.273C129.911 242.914 129.841 242.536 129.841 242.14C129.841 241.737 129.911 241.355 130.05 240.996C130.19 240.637 130.388 240.321 130.644 240.05C130.901 239.771 131.205 239.555 131.557 239.401C131.917 239.24 132.309 239.159 132.734 239.159C133.167 239.159 133.559 239.24 133.911 239.401C134.263 239.555 134.568 239.771 134.824 240.05C135.088 240.321 135.29 240.637 135.429 240.996C135.569 241.355 135.638 241.737 135.638 242.14C135.638 242.536 135.569 242.914 135.429 243.273C135.29 243.632 135.092 243.951 134.835 244.23C134.579 244.501 134.271 244.718 133.911 244.879C133.559 245.033 133.167 245.11 132.734 245.11ZM130.831 242.151C130.831 242.547 130.916 242.906 131.084 243.229C131.26 243.552 131.491 243.808 131.777 243.999C132.063 244.182 132.382 244.274 132.734 244.274C133.086 244.274 133.405 244.179 133.691 243.988C133.985 243.797 134.216 243.541 134.384 243.218C134.56 242.888 134.648 242.525 134.648 242.129C134.648 241.733 134.56 241.374 134.384 241.051C134.216 240.728 133.985 240.472 133.691 240.281C133.405 240.09 133.086 239.995 132.734 239.995C132.382 239.995 132.063 240.094 131.777 240.292C131.491 240.483 131.26 240.739 131.084 241.062C130.916 241.385 130.831 241.748 130.831 242.151ZM142.402 245.11C141.933 245.11 141.515 244.993 141.148 244.758C140.782 244.523 140.492 244.226 140.279 243.867V247.343H139.311V239.258H140.169V240.336C140.397 239.984 140.694 239.702 141.06 239.489C141.427 239.269 141.827 239.159 142.259 239.159C142.655 239.159 143.018 239.24 143.348 239.401C143.678 239.562 143.964 239.782 144.206 240.061C144.448 240.34 144.635 240.659 144.767 241.018C144.907 241.37 144.976 241.74 144.976 242.129C144.976 242.672 144.866 243.17 144.646 243.625C144.434 244.08 144.133 244.443 143.744 244.714C143.356 244.978 142.908 245.11 142.402 245.11ZM142.105 244.274C142.391 244.274 142.648 244.215 142.875 244.098C143.11 243.973 143.308 243.812 143.469 243.614C143.638 243.409 143.766 243.178 143.854 242.921C143.942 242.664 143.986 242.4 143.986 242.129C143.986 241.843 143.935 241.572 143.832 241.315C143.737 241.058 143.598 240.831 143.414 240.633C143.238 240.435 143.029 240.281 142.787 240.171C142.553 240.054 142.296 239.995 142.017 239.995C141.841 239.995 141.658 240.028 141.467 240.094C141.284 240.16 141.108 240.255 140.939 240.38C140.771 240.497 140.628 240.633 140.51 240.787C140.393 240.941 140.316 241.106 140.279 241.282V242.921C140.389 243.17 140.536 243.398 140.719 243.603C140.903 243.808 141.115 243.973 141.357 244.098C141.599 244.215 141.849 244.274 142.105 244.274ZM150.062 245V240.116H148.082V239.258H153.01V240.116H151.03V245H150.062ZM156.471 245V239.269H157.439V243.702L160.651 239.258H161.531V245H160.563V240.655L157.395 245H156.471ZM165.567 245V239.258H168.537C168.882 239.258 169.168 239.328 169.395 239.467C169.622 239.599 169.791 239.771 169.901 239.984C170.018 240.197 170.077 240.424 170.077 240.666C170.077 240.974 170.004 241.253 169.857 241.502C169.71 241.744 169.498 241.927 169.219 242.052C169.549 242.147 169.817 242.32 170.022 242.569C170.227 242.811 170.33 243.112 170.33 243.471C170.33 243.794 170.253 244.069 170.099 244.296C169.945 244.523 169.729 244.699 169.45 244.824C169.171 244.941 168.849 245 168.482 245H165.567ZM166.491 244.318H168.46C168.636 244.318 168.794 244.274 168.933 244.186C169.08 244.098 169.193 243.981 169.274 243.834C169.355 243.687 169.395 243.533 169.395 243.372C169.395 243.196 169.355 243.038 169.274 242.899C169.201 242.752 169.094 242.639 168.955 242.558C168.823 242.47 168.669 242.426 168.493 242.426H166.491V244.318ZM166.491 241.788H168.284C168.46 241.788 168.614 241.744 168.746 241.656C168.878 241.561 168.981 241.44 169.054 241.293C169.127 241.146 169.164 240.992 169.164 240.831C169.164 240.589 169.083 240.38 168.922 240.204C168.768 240.028 168.566 239.94 168.317 239.94H166.491V241.788ZM174.05 245V239.258H175.018V241.634H178.01V239.258H178.978V245H178.01V242.492H175.018V245H174.05ZM183.028 245V239.258H183.996V241.216H185.162C185.836 241.216 186.346 241.388 186.691 241.733C187.043 242.07 187.219 242.514 187.219 243.064C187.219 243.431 187.142 243.761 186.988 244.054C186.841 244.347 186.621 244.578 186.328 244.747C186.034 244.916 185.668 245 185.228 245H183.028ZM183.996 244.241H185.096C185.367 244.241 185.583 244.19 185.745 244.087C185.913 243.977 186.038 243.834 186.119 243.658C186.199 243.482 186.24 243.291 186.24 243.086C186.24 242.888 186.203 242.705 186.13 242.536C186.056 242.367 185.935 242.232 185.767 242.129C185.598 242.026 185.367 241.975 185.074 241.975H183.996V244.241ZM188.209 245V239.269H189.177V245H188.209ZM193.23 245V239.269H194.198V243.702L197.41 239.258H198.29V245H197.322V240.655L194.154 245H193.23ZM195.771 238.609C195.243 238.609 194.843 238.484 194.572 238.235C194.301 237.978 194.165 237.663 194.165 237.289H194.847C194.847 237.494 194.917 237.667 195.056 237.806C195.203 237.938 195.441 238.004 195.771 238.004C196.094 238.004 196.321 237.942 196.453 237.817C196.585 237.685 196.666 237.509 196.695 237.289H197.377C197.377 237.663 197.241 237.978 196.97 238.235C196.699 238.484 196.299 238.609 195.771 238.609ZM207.608 245V239.258H208.576V241.623H209.214L211.018 239.258H212.118L209.973 242.041L212.371 245H211.249L209.214 242.514H208.576V245H207.608ZM215.317 245.044V244.175C215.508 244.175 215.676 244.127 215.823 244.032C215.977 243.929 216.113 243.761 216.23 243.526C216.347 243.284 216.439 242.954 216.505 242.536C216.578 242.111 216.626 241.572 216.648 240.919L216.714 239.258H220.619V245H219.651V240.116H217.572L217.55 241.007C217.521 241.792 217.455 242.444 217.352 242.965C217.249 243.486 217.106 243.896 216.923 244.197C216.74 244.498 216.512 244.714 216.241 244.846C215.977 244.978 215.669 245.044 215.317 245.044ZM225.397 247.409C225.273 247.409 225.144 247.391 225.012 247.354C224.888 247.317 224.759 247.262 224.627 247.189L224.957 246.529C225.023 246.566 225.086 246.591 225.144 246.606C225.21 246.628 225.273 246.639 225.331 246.639C225.507 246.639 225.672 246.555 225.826 246.386C225.988 246.225 226.138 245.975 226.277 245.638L226.552 244.945L224.033 239.258H225.056L226.992 244.021L228.741 239.258H229.698L227.014 245.935C226.882 246.265 226.732 246.536 226.563 246.749C226.395 246.969 226.211 247.134 226.013 247.244C225.815 247.354 225.61 247.409 225.397 247.409ZM235.883 245.11C234.937 245.11 234.222 244.824 233.738 244.252C233.254 243.68 233.012 242.873 233.012 241.832C233.012 241.121 233.07 240.523 233.188 240.039C233.305 239.548 233.481 239.144 233.716 238.829C233.95 238.506 234.24 238.246 234.585 238.048C234.929 237.843 235.325 237.674 235.773 237.542L238.204 236.805L238.259 237.641L235.894 238.356C235.49 238.488 235.153 238.657 234.882 238.862C234.61 239.067 234.398 239.331 234.244 239.654C234.09 239.977 233.987 240.391 233.936 240.897C234.126 240.508 234.412 240.208 234.794 239.995C235.175 239.775 235.619 239.665 236.125 239.665C236.667 239.665 237.133 239.779 237.522 240.006C237.918 240.226 238.218 240.538 238.424 240.941C238.636 241.337 238.743 241.795 238.743 242.316C238.743 242.873 238.633 243.361 238.413 243.779C238.193 244.197 237.87 244.523 237.445 244.758C237.019 244.993 236.499 245.11 235.883 245.11ZM235.883 244.274C236.477 244.274 236.935 244.102 237.258 243.757C237.588 243.405 237.753 242.939 237.753 242.36C237.753 241.795 237.591 241.337 237.269 240.985C236.946 240.633 236.484 240.457 235.883 240.457C235.531 240.457 235.212 240.53 234.926 240.677C234.647 240.824 234.423 241.04 234.255 241.326C234.093 241.605 234.013 241.949 234.013 242.36C234.013 242.727 234.082 243.057 234.222 243.35C234.368 243.636 234.581 243.863 234.86 244.032C235.138 244.193 235.479 244.274 235.883 244.274Z" fill="black"/>
<path d="M104.44 31.0072C104.185 31.1489 103.945 31.3517 103.672 31.4217C101.868 31.8847 100.837 32.8466 100.773 34.2642C100.737 35.0789 100.851 35.8775 101.909 36.2831C101.969 34.0202 103.486 33.5159 105.271 33.3562C105.885 33.3006 106.415 33.1678 106.689 32.4948C106.796 32.2346 107.11 32.0606 107.419 31.7573C108.307 34.2642 110.036 33.2808 111.666 33.0816C111.269 33.428 110.871 33.7725 110.338 34.2355C110.951 34.3127 111.429 34.3647 111.906 34.4329C112.699 34.5442 113.485 34.7165 114.281 34.7631C114.77 34.7918 115.31 34.7308 115.755 34.5406C116.552 34.1978 117.296 33.7277 118.062 33.3095C118.108 33.3903 118.156 33.4693 118.202 33.55C117.679 33.9035 117.124 34.2194 116.646 34.6285C116.39 34.8475 116.267 35.2243 116.086 35.5294C116.476 35.6945 116.86 35.9726 117.257 35.9942C117.722 36.0193 118.199 35.8183 118.668 35.716C118.688 35.7932 118.708 35.8685 118.727 35.9457C117.496 36.3818 116.262 36.8178 115.03 37.2539C115.018 37.34 115.005 37.4244 114.993 37.5105C115.682 37.7582 116.404 37.9358 117.049 38.2678C117.978 38.7452 118.526 38.1942 119.041 37.6146C119.923 36.6186 120.742 35.5671 121.609 34.5567C121.821 34.3091 122.113 34.1296 122.367 33.9197C122.549 34.2122 122.864 34.4939 122.889 34.8008C123.056 36.9112 122.972 38.9928 121.803 40.8663C121.693 41.0439 121.582 41.2198 121.474 41.3992C121.189 41.8676 121.305 42.2265 121.824 42.3593C122.737 42.5926 123.663 42.7721 124.548 42.9659C124.008 43.7178 122.958 43.131 121.94 43.3983C122.992 44.2077 124.071 44.0013 125.096 44.0354C125.114 44.1305 125.133 44.2256 125.151 44.3207C124.468 44.4679 123.784 44.6132 123.101 44.7604C123.077 44.8304 123.052 44.8986 123.029 44.9685C123.736 45.1875 124.443 45.4064 125.379 45.6971C124.373 45.6971 123.599 45.6971 122.775 45.6971C122.876 45.9232 122.985 46.1709 123.109 46.4472C121.945 45.7599 120.826 45.0995 119.687 44.4266C119.614 44.6132 119.558 44.685 119.576 44.7155C120.698 46.6805 121.798 48.6599 122.96 50.5998C123.553 51.5885 123.585 52.7729 122.947 53.715C122.317 54.6482 121.792 55.5831 121.75 56.8088C121.689 58.5351 121.319 60.2489 121.216 61.9752C121.168 62.7846 121.346 63.6387 121.58 64.4247C122.125 66.2534 122.761 68.0551 123.375 69.8639C123.528 70.3144 123.668 70.7863 123.921 71.1793C125.131 73.051 124.466 76.0012 122.574 77.1856C122.187 77.4278 121.796 77.7778 121.593 78.1762C121.089 79.1649 120.399 79.793 119.261 79.8433C119.13 79.8486 119.001 79.9527 118.729 80.0766C119.163 80.5413 119.619 80.8931 119.897 81.3542C121.143 83.4072 122.894 84.1716 125.302 84.3673C128.827 84.6526 132.315 85.0994 135.845 84.5413C138.905 84.0586 141.662 82.7342 144.428 81.435C144.568 81.3686 144.672 81.2161 144.987 80.92C143.728 80.92 142.7 80.92 141.669 80.92C141.662 80.85 141.657 80.7782 141.649 80.7082C142.696 80.4552 143.744 80.2004 144.791 79.9473C144.78 79.8379 144.77 79.7284 144.761 79.6189C144.036 79.5274 143.312 79.4359 142.644 79.3516C143.755 78.8868 144.86 78.422 145.968 77.959C145.957 77.8549 145.948 77.7509 145.937 77.6486C143.91 77.6486 141.883 77.6486 139.743 77.6486C141.272 75.8612 143.581 76.6849 145.368 75.9635C145.357 75.863 145.346 75.7643 145.336 75.6638C144.629 75.592 143.924 75.5203 143.218 75.4485C143.21 75.4018 143.203 75.3552 143.194 75.3103C143.969 75.2403 144.745 75.1703 145.519 75.1003C145.523 75.0609 145.528 75.0214 145.531 74.9801C144.519 74.815 143.504 74.6481 142.491 74.483C142.495 74.4274 142.5 74.3718 142.504 74.3161C143.751 74.2569 144.999 74.1977 146.247 74.1385C146.249 74.0272 146.252 73.9178 146.254 73.8065C145.811 73.758 145.366 73.7114 144.923 73.6629C144.917 73.6181 144.91 73.575 144.905 73.5301C145.291 73.4602 145.677 73.392 146.064 73.322C146.071 73.2645 146.08 73.2071 146.087 73.1497C145.579 73.0761 145.074 73.0043 144.567 72.9308C147.228 72.5988 149.565 71.6351 151.653 69.505C149.574 69.304 148.143 70.1367 146.827 71.2995C146.758 71.2224 146.69 71.147 146.621 71.0699C147.317 70.3359 148.011 69.6019 148.707 68.8662C148.666 68.798 148.625 68.728 148.584 68.6598C147.949 69.0474 147.315 69.4368 146.68 69.8245C146.628 69.7814 146.576 69.7401 146.525 69.697C146.973 69.2394 147.34 68.606 147.883 68.3512C150.907 66.9317 153.527 64.6742 156.873 63.9295C157.133 63.872 157.384 63.7141 157.64 63.7123C159.543 63.7033 160.937 62.4472 162.553 61.7401C162.535 61.663 162.516 61.5876 162.498 61.5104C161.047 61.9232 159.598 62.3377 158.148 62.7505C158.105 62.6105 158.06 62.4705 158.018 62.3305C160.074 61.6307 162.129 60.929 164.182 60.2309C164.146 60.1986 164.006 60.073 163.863 59.9456C163.897 59.8541 163.931 59.7626 163.965 59.6693C164.814 59.9384 165.721 60.0946 166.497 60.5055C167.48 61.0241 168.413 60.7711 169.071 60.2202C170.187 59.287 171.387 58.3736 171.924 56.8716C172.332 55.7339 173.233 54.9963 174.539 54.4311C174.459 54.9335 174.432 55.2906 174.342 55.6316C174.16 56.3243 173.874 56.9954 173.772 57.6971C173.724 58.0255 174.003 58.4005 174.135 58.7559C174.454 58.6069 174.876 58.5405 175.073 58.2929C175.885 57.27 176.627 56.1897 177.403 55.1381C177.478 55.0358 177.619 54.982 177.914 54.7774C177.971 56.4965 177.855 57.986 177.129 59.4055C176.488 60.6562 176.319 61.8927 177.231 63.1488C178.015 64.2327 178.679 65.4045 179.409 66.5315C179.84 67.1955 179.925 67.8756 179.495 68.5503C179.018 69.2951 179.05 69.9985 179.507 70.7307C180.801 72.798 182.06 74.885 183.378 76.9361C184.066 78.0057 184.473 78.9819 183.998 80.3493C183.633 81.3973 183.396 82.4328 182.535 83.19C182.513 83.2098 182.497 83.2367 182.478 83.26C181.949 83.8863 178.731 84.3529 178.088 83.845C177.805 83.6207 177.505 83.2582 177.453 82.9209C177.188 81.1838 175.853 80.5252 174.498 80.0299C172.925 79.4538 171.362 78.9442 170.168 77.6737C170 77.496 169.648 77.496 169.381 77.4153C169.292 77.715 169.134 78.0129 169.123 78.3161C169.043 80.7028 169.119 83.1021 168.883 85.4709C168.724 87.0536 168.203 88.6149 167.708 90.1402C167.414 91.0447 167.348 91.8719 167.663 92.7548C167.843 93.2609 168.066 93.7795 168.098 94.3017C168.155 95.2492 168.646 95.6135 169.509 95.6817C174.751 96.1034 179.989 96.3188 185.198 95.312C185.513 95.251 185.813 95.1128 186.121 95.0088C186.116 94.9083 186.109 94.8078 186.104 94.7073C185.221 94.6032 184.34 94.4973 183.457 94.3932C183.45 94.2784 183.444 94.1635 183.437 94.0487C185.162 93.9733 186.865 93.8226 188.369 92.9522C188.352 92.8643 188.336 92.7764 188.318 92.6902C187.668 92.7979 187.02 92.9056 186.371 93.0132C186.344 92.9271 186.315 92.841 186.289 92.753C187.305 92.3439 188.323 91.9365 189.475 91.4718C188.202 91.1918 187.027 90.9334 185.853 90.6768C185.856 90.5745 185.86 90.4722 185.863 90.3699C187.063 89.7095 188.679 90.1259 189.85 88.9164C188.756 88.6669 187.802 88.4498 186.846 88.2327C186.864 88.1232 186.881 88.0137 186.899 87.906C188.108 87.9025 189.37 88.3726 190.756 87.4305C188.902 87.12 187.278 86.8473 185.653 86.5745C185.653 86.5063 185.651 86.4381 185.651 86.3699C186.947 86.3699 188.245 86.3699 189.541 86.3699C189.539 86.2748 189.539 86.1797 189.537 86.0846C187.618 85.8065 185.707 85.3578 183.733 86.0272C184.644 84.8643 185.942 84.588 187.237 84.3996C188.515 84.2129 189.813 84.1519 191.135 83.8899C190.71 83.8163 190.283 83.7428 189.857 83.6692C189.856 83.6351 189.854 83.601 189.852 83.5669C191.23 83.3103 192.609 83.0537 193.987 82.797C193.969 82.6553 193.951 82.5153 193.934 82.3735C192.584 82.5081 191.237 82.6427 189.888 82.7773C189.882 82.7145 189.879 82.6517 189.873 82.5889C191.981 81.584 194.09 80.5808 196.198 79.5759C196.146 79.4449 196.096 79.3139 196.045 79.1829C194.8 79.6118 193.556 80.0407 192.312 80.4696C193.978 78.8635 196.048 78.1151 198.218 77.5714C198.209 77.4942 198.2 77.4171 198.191 77.3399C197.522 77.4135 196.853 77.4888 196.183 77.5624C198.156 76.2919 200.375 76.7046 202.511 76.5754C202.516 76.4534 202.522 76.3332 202.527 76.2112C201.228 76.064 199.927 75.9186 198.627 75.7715C199.845 75.1344 201.165 75.0986 202.47 75.0304C203.654 74.9676 204.845 75.0393 206.028 74.9801C206.733 74.946 207.45 74.8437 208.127 74.6499C209.115 74.3664 210.076 74.1367 211.08 74.544C211.667 74.7827 212.016 74.4543 212.333 74.0021C213.039 72.9972 214.011 72.3834 215.453 71.881C215.296 73.1156 215.272 74.1241 215.019 75.0698C214.784 75.9474 214.91 76.5019 215.661 77.0528C217.488 78.3915 219.184 79.8756 220.515 81.7508C220.923 82.3251 221.489 82.7935 222.016 83.2726C223.751 84.8536 225.496 86.4256 227.252 87.9832C227.717 88.396 228.238 88.7459 228.74 89.1156C229.7 89.8226 230.022 90.6517 229.625 91.7732C229.328 92.6131 229.061 93.5588 228.482 94.1743C227.963 94.727 227.067 95.0626 226.288 95.19C225.307 95.3497 224.371 94.9083 223.872 93.9967C223.449 93.225 222.835 93.0797 222.066 92.9433C220.499 92.6633 218.954 92.2506 217.399 91.9096C216.884 91.7966 216.359 91.6925 215.834 91.6638C215.126 91.6243 214.394 91.7643 213.705 91.6404C212.719 91.4628 212.043 91.8522 211.646 92.6508C211.187 93.5749 210.836 94.5619 210.523 95.5507C210.11 96.8571 209.725 98.1797 209.432 99.5166C209.125 100.911 209.044 102.361 208.675 103.734C208.221 105.421 208.465 107.011 208.803 108.669C209.456 111.874 209.262 114.98 207.262 117.758C206.884 118.282 206.596 118.874 206.156 119.624C207.326 120.058 208.367 120.534 209.456 120.834C211.455 121.385 213.476 121.862 215.499 122.311C216.793 122.598 217.664 123.316 218.224 124.512C218.888 125.93 219.049 127.321 218.824 128.927C218.557 130.851 218.778 132.846 218.823 134.809C218.837 135.432 219.059 136.06 219.009 136.672C218.968 137.176 218.778 137.756 218.456 138.129C217.845 138.833 217.068 139.387 216.412 140.055C216.108 140.363 215.905 140.783 215.697 141.175C215.175 142.151 214.362 142.756 213.346 143.114C212.644 143.362 212.155 143.089 212.205 142.364C212.29 141.124 212.457 139.877 212.735 138.668C212.819 138.3 213.388 138.052 213.714 137.727C214.008 137.433 214.414 137.149 214.52 136.785C214.857 135.646 215.122 134.479 215.327 133.309C215.506 132.283 215.628 131.238 215.667 130.199C215.722 128.744 214.049 126.991 212.625 126.766C209.095 126.21 205.582 127.054 202.059 126.849C201.899 126.84 201.733 126.944 201.45 127.032C201.657 127.366 201.792 127.653 201.988 127.89C203.161 129.316 204.35 130.729 205.528 132.152C206.21 132.977 206.881 133.883 206.327 134.985C205.669 136.295 205.074 137.733 203.244 137.855C200.453 138.041 197.853 138.912 195.379 140.216C193.837 141.029 193.403 140.911 192.2 139.734C191.96 139.499 191.515 139.385 191.159 139.375C189.904 139.335 188.802 139.005 187.793 138.19C187.182 137.697 186.362 137.48 185.676 137.069C184.592 136.421 184.592 135.73 185.716 135.211C186.735 134.741 187.803 134.354 188.884 134.049C189.906 133.76 190.628 134.273 190.794 135.35C190.893 135.996 191.221 136.423 191.81 136.36C195.071 136.01 198.492 136.765 201.602 134.852C201.425 134.657 201.253 134.382 201.009 134.206C198.184 132.177 195.359 130.151 192.513 128.154C191.612 127.522 190.785 126.912 190.721 125.652C190.71 125.431 190.217 125.106 189.907 125.053C188.684 124.835 187.417 124.821 186.217 124.521C184.236 124.026 182.298 123.36 180.335 122.784C179.454 122.526 178.571 122.255 177.67 122.092C175.614 121.717 174.634 122.659 174.991 124.749C175.228 126.126 175.664 127.468 176.015 128.825C176.045 128.94 176.129 129.045 176.139 129.16C176.403 132.302 177.793 135.276 177.514 138.499C177.467 139.036 177.471 139.574 177.432 140.11C177.371 140.965 177.07 141.18 176.271 140.826C175.68 140.566 175.096 140.234 174.598 139.825C173.564 138.978 172.592 138.056 171.586 137.175C171.211 136.846 171.179 136.57 171.469 136.114C172.046 135.206 172.113 134.023 173.117 133.318C173.53 133.027 173.096 131.825 172.517 131.244C172.013 130.736 171.62 131.075 171.182 131.344C170.072 132.028 168.996 132.792 167.82 133.334C166.547 133.919 165.974 133.48 165.956 132.082C165.937 130.497 166.293 128.995 167.092 127.621C167.574 126.793 168.217 126.226 169.258 126.395C169.837 126.488 169.986 126.145 169.999 125.661C170.04 124.017 169.431 122.626 168.331 121.447C167.704 120.776 167.026 120.152 166.391 119.486C165.595 118.653 164.94 118.783 164.006 119.43C162.631 120.383 162.4 121.611 162.336 123.163C162.222 125.905 161.87 128.64 161.553 131.369C161.462 132.157 161.606 132.6 162.42 132.805C163.308 133.029 164.18 133.336 165.041 133.652C166.117 134.045 166.77 134.766 167.03 135.962C167.275 137.083 167.667 138.205 168.197 139.22C168.484 139.768 169.162 140.137 169.717 140.505C170.552 141.062 171.535 141.431 172.27 142.09C173.226 142.948 174.148 143.918 174.817 145.008C175.824 146.65 176.599 148.437 177.549 150.314C182.893 150.16 188.482 150 194.113 149.839C193.82 150.097 193.533 150.346 193.246 150.598C193.262 150.695 193.279 150.791 193.295 150.888C193.882 150.915 194.475 151.018 195.053 150.958C197.111 150.745 199.161 150.474 201.215 150.233C201.408 150.212 201.708 150.187 201.79 150.293C202.472 151.193 203.398 150.962 204.248 150.802C205.845 150.503 207.418 150.083 209.01 149.756C209.675 149.62 210.366 149.618 211.039 149.508C212.205 149.318 212.883 150.203 213.675 150.754C214.285 151.179 214.834 151.387 215.562 151.258C216.742 151.05 217.824 151.206 218.819 152.022C219.268 152.39 219.955 152.462 220.656 152.712C219.931 153.577 219.429 154.429 218.214 154.644C215.795 155.071 213.404 155.669 211.003 156.204C210.848 156.238 210.708 156.337 210.56 156.405C210.562 156.484 210.564 156.563 210.565 156.642C211.087 156.712 211.61 156.78 212.331 156.877C211.706 157.196 211.213 157.451 210.718 157.704C210.733 157.792 210.747 157.88 210.763 157.968C211.258 158.048 211.754 158.127 212.354 158.224C212.139 158.504 211.991 158.698 211.806 158.94C211.938 159.01 212.061 159.138 212.171 159.127C213.931 158.965 215.69 158.79 217.448 158.608C217.767 158.576 218.084 158.447 218.395 158.463C219.691 158.533 221.01 158.522 222.276 158.766C224.127 159.125 225.965 159.606 227.763 160.177C228.733 160.485 229.531 160.552 230.309 159.818C230.483 159.653 230.762 159.536 231.003 159.515C233.438 159.294 235.842 159.626 238.245 159.949C238.503 159.983 238.749 160.118 239 160.205C239 160.265 239 160.326 239 160.385C238.023 160.347 237.044 160.256 236.07 160.286C234.507 160.335 232.891 160.236 231.401 160.616C229.084 161.209 226.772 161.593 224.392 161.67C224.038 161.681 223.687 161.885 223.336 162C218.531 162 213.725 162 208.919 162C208.324 161.498 207.798 160.948 206.877 161.051C205.654 161.187 205.63 161.106 205.84 159.877C205.847 159.832 205.793 159.775 205.768 159.725C205.754 159.64 205.742 159.554 205.727 159.47C204.521 159.665 203.319 159.899 202.105 160.04C201.513 160.109 200.898 159.981 200.295 159.987C199.784 159.992 198.997 159.868 198.809 160.139C197.899 161.438 196.723 161.489 195.388 161.189C195.333 161.176 195.27 161.191 195.21 161.194C192.1 161.313 188.992 161.442 185.881 161.539C185.561 161.55 185.231 161.374 184.911 161.275C184.423 161.124 183.948 160.921 183.453 160.816C182.745 160.665 182.022 160.582 181.307 160.466C180.96 160.41 180.616 160.322 180.267 160.292C179.181 160.195 178.094 160.107 177.006 160.039C176.734 160.022 176.456 160.092 176.351 160.103C176.191 160.575 176.127 161.121 175.977 161.146C174.979 161.313 173.856 161.677 172.984 161.37C172.163 161.081 171.449 160.929 170.622 161.031C169.621 161.155 168.619 161.264 167.615 161.34C166.711 161.408 165.686 161.704 164.92 161.39C163.642 160.866 162.42 161.135 161.166 161.081C159.999 161.031 158.835 160.889 157.676 160.735C156.658 160.598 155.645 160.225 154.634 160.245C151.539 160.311 148.447 160.516 145.323 160.668C145.298 160.292 145.284 160.083 145.264 159.796C144.246 159.872 143.307 159.954 142.363 160.003C142.045 160.019 141.575 160.078 141.427 159.9C140.857 159.222 140.161 159.423 139.46 159.423C138.816 159.423 138.168 159.344 137.529 159.244C135.973 159 134.446 158.971 132.769 159.66C133.23 159.839 133.506 159.947 133.926 160.11C132.49 160.913 130.879 160.019 129.339 160.979C130.003 161.205 130.416 161.345 130.859 161.498C130.69 161.691 130.557 161.844 130.421 161.998C129.887 161.998 129.354 161.998 128.82 161.998C128.401 161.826 127.994 161.625 127.565 161.489C126.388 161.114 125.206 160.753 124.019 160.415C123.526 160.275 123.013 160.127 122.508 160.119C120.765 160.1 119.021 160.123 117.278 160.166C115.308 160.214 113.3 160.085 111.38 160.435C109.737 160.735 108.151 160.534 106.54 160.563C105.757 160.577 104.972 160.459 104.19 160.491C103.163 160.534 102.138 160.665 101.118 160.758C101.045 160.493 100.96 160.345 100.972 160.207C101.059 159.276 100.566 159.136 99.7797 159.197C97.6224 159.366 95.4616 159.488 93.3007 159.61C92.0316 159.681 90.6895 160.001 89.5058 159.703C87.8042 159.276 86.1026 159.202 84.433 159.333C82.217 159.509 80.0259 159.59 77.7991 159.522C74.3051 159.416 70.8039 159.649 67.3046 159.631C65.1758 159.62 65.5798 159.585 64.8251 157.46C65.9518 157.46 67.0678 157.426 68.1803 157.472C68.862 157.501 69.396 157.408 69.7128 156.704C69.9478 156.18 70.3091 155.956 70.9837 156.044C71.6868 156.134 72.4451 155.972 73.1499 155.8C73.8174 155.637 74.4386 155.29 75.099 155.077C75.6312 154.904 76.2506 154.921 76.724 154.657C77.8561 154.029 78.9614 154.318 79.8318 154.939C81.2451 155.943 82.6548 155.556 84.1037 155.337C84.2354 155.317 84.344 155.125 84.522 154.958C84.1696 154.752 83.8955 154.592 83.4522 154.334C84.7018 153.909 86.2717 154.583 86.7202 152.688C88.7796 152.688 90.8248 152.719 92.8682 152.67C93.5339 152.654 93.808 152.934 93.9717 153.474C92.8824 153.996 91.6809 154.197 90.9618 155.375C91.7557 155.525 92.5282 155.497 93.2971 155.54C93.6424 155.559 94.1871 155.628 94.2797 155.836C94.5128 156.363 94.8653 156.433 95.2711 156.281C97.0457 155.615 98.8701 155.037 100.54 154.162C101.36 153.731 102.104 153.419 103.005 153.41C103.539 153.404 104.093 153.435 104.598 153.298C104.997 153.191 105.337 152.855 105.7 152.618C105.949 152.455 106.193 152.148 106.442 152.143C108.334 152.112 110.23 152.109 112.122 152.168C112.75 152.188 113.403 152.329 113.991 152.559C115.101 152.993 115.205 153 115.845 151.935C119.318 151.935 122.842 151.935 126.474 151.935C126.337 151.721 126.304 151.631 126.24 151.581C124.897 150.497 123.987 149.219 124.229 147.353C124.254 147.156 123.978 146.842 123.766 146.7C122.059 145.566 121.333 144.245 121.299 142.093C121.37 142.264 121.429 142.4 121.486 142.537C121.883 143.493 122.155 144.532 122.707 145.388C123.517 146.646 124.98 146.515 125.754 145.248C125.906 145.001 126.064 144.719 126.292 144.559C127.447 143.748 127.615 143.551 126.894 142.345C125.552 140.098 124.06 137.941 122.613 135.761C122.533 135.64 122.253 135.552 122.107 135.594C121.321 135.816 120.546 136.084 119.639 136.376C119.963 137.494 120.306 138.682 120.65 139.87C119.153 135.253 116.49 131.432 113.049 128.112C112.216 127.31 111.867 126.287 111.704 125.157C111.638 124.704 111.383 124.281 111.177 123.744C110.871 123.981 110.73 124.048 110.648 124.159C109.874 125.212 109.075 126.251 108.357 127.342C108.072 127.777 107.934 128.324 107.793 128.837C107.551 129.727 107.32 130.626 107.154 131.534C106.944 132.697 106.673 133.873 106.656 135.045C106.597 138.897 107.834 142.436 109.381 145.901C109.735 146.696 109.74 147.651 109.906 148.532C108.98 148.529 108.046 148.6 107.129 148.5C106.234 148.403 105.743 147.796 105.623 146.87C105.575 146.495 105.363 146.147 105.265 145.776C105.08 145.072 104.895 144.367 104.769 143.653C104.692 143.219 104.797 142.748 104.699 142.321C103.817 138.481 102.957 134.634 101.98 130.817C101.553 129.15 101.729 127.71 102.512 126.169C103.454 124.319 104.174 122.346 104.876 120.385C105.276 119.26 104.988 118.985 103.838 118.774C101.131 118.273 98.4269 117.758 95.7303 117.198C95.0628 117.06 94.6962 117.171 94.6428 117.887C94.5698 118.847 94.0892 119.569 93.3808 120.17C92.4214 120.984 91.8963 122.034 91.8536 123.292C91.8038 124.757 92.1384 126.142 92.8895 127.407C93.4822 128.407 94.2512 129.329 94.6819 130.393C95.5185 132.45 97.229 133.621 98.7544 135.025C99.486 135.698 100.157 136.617 100.449 137.551C100.814 138.718 100.825 140.015 100.876 141.263C100.997 144.125 101.056 146.989 101.131 149.851C101.168 151.312 100.858 152.651 99.6747 153.634C98.9787 154.212 98.2062 154.312 97.4604 153.783C96.4743 153.083 95.4295 152.354 95.2711 151.028C95.1198 149.763 94.8065 148.487 95.9475 147.357C97.5103 145.806 97.3127 143.296 95.5968 141.788C94.6855 140.988 94.0501 140.058 93.8009 138.879C93.3167 136.591 91.9729 134.878 90.216 133.473C87.0905 130.975 84.4027 128.116 82.5516 124.514C82.427 124.272 82.1796 124.096 81.9251 123.822C81.4605 125.58 81.0386 127.158 80.6257 128.737C80.2394 130.212 79.604 131.54 78.4435 132.563C77.6105 133.297 76.571 133.695 75.6223 133.562C77.8757 132.442 79.709 131.093 80.0597 128.464C77.8258 130.443 74.6896 131.168 72.9844 133.839C72.9061 133.769 72.8295 133.697 72.7512 133.627C73.5629 132.715 74.3727 131.802 75.3339 130.722C74.4279 131.156 73.7017 131.502 72.9773 131.85C72.9417 131.777 72.9061 131.703 72.8705 131.63C74.0007 130.908 75.3535 130.442 75.9961 129.04C73.8014 129.236 71.7687 129.038 69.7645 128.425C71.8096 128.744 73.8263 128.92 75.4692 127.326C77.064 125.779 77.2883 123.768 77.2954 121.715C77.21 121.684 77.1263 121.652 77.0409 121.621C76.6831 122.714 76.3236 123.805 75.9658 124.898C75.9071 124.879 75.8465 124.859 75.7878 124.839C75.843 124.157 75.8982 123.475 75.9587 122.723C75.0812 123.062 75.0527 123.079 74.8925 124.295C74.7341 125.503 74.0719 126.327 73.0698 126.919C73.3582 126.379 73.7729 125.918 74.0577 125.386C74.3336 124.871 74.476 124.283 74.6985 123.669C72.9986 124.01 71.5177 124.308 70.035 124.606C70.0154 124.502 69.9976 124.396 69.9781 124.292C70.3501 124.229 70.7345 124.204 71.0923 124.096C72.0784 123.796 73.0574 123.473 74.031 123.138C74.5792 122.949 74.7412 122.515 74.5472 121.998C74.2446 121.194 74.0274 120.308 73.529 119.64C72.34 118.043 71.0229 116.539 69.7235 115.028C69.3017 114.537 68.7695 114.142 68.2871 113.702C68.223 114.921 68.9208 115.604 69.6577 116.276C68.1874 115.859 67.4594 114.792 67.1106 113.394C66.9593 112.785 66.8827 112.155 66.6887 111.563C66.5623 111.174 66.2882 110.831 66.08 110.469C65.9839 110.528 65.886 110.587 65.7898 110.646C65.441 114.616 68.1483 116.81 70.8235 119.027C67.0572 116.988 64.8643 113.815 64.9105 109.846C64.9248 108.561 65.0209 107.274 64.9657 105.993C64.8803 104.005 65.0387 102.059 65.6012 100.148C65.6741 99.9024 65.6368 99.6261 65.6635 99.1433C64.0401 100.97 63.8426 102.962 63.8159 105.013C63.1146 102.994 63.6325 101.13 64.4762 99.2923C62.1516 101.401 60.7401 103.759 62.4952 107.036C62.3901 107.03 62.2851 107.023 62.1801 107.018C61.7867 106.381 61.3934 105.744 61 105.108C61 104.331 61 103.552 61 102.775C61.1299 102.618 61.3151 102.479 61.3827 102.298C62.1196 100.285 63.5435 98.7414 64.8821 97.1532C65.9411 95.8952 66.7528 94.544 67.0892 92.9199C67.2583 92.1016 67.4114 91.278 67.6161 90.4686C68.1109 88.5018 68.9759 86.824 71.0816 86.169C72.6462 85.6808 74.1289 86.0039 75.5849 86.6194C76.0833 86.8293 76.5354 87.0088 77.0444 86.5314C78.8368 84.8464 80.8624 83.5149 83.1408 82.5745C83.5715 82.3969 83.9524 82.0828 84.3369 81.8029C86.3464 80.3368 88.4984 79.1631 90.9084 78.5117C92.2007 78.1618 93.2046 76.7675 92.9981 75.1129C92.6492 75.592 92.3004 76.0712 91.9497 76.5485C91.8856 76.4965 91.8216 76.4426 91.7575 76.3906C91.8874 75.9904 92.0174 75.5885 92.1989 75.0286C90.597 76.0461 89.351 77.3614 87.5301 77.5624C88.2545 77.0079 89.0662 76.579 89.7568 76.0048C90.4243 75.4503 90.9672 74.7432 91.5652 74.1044C91.4958 74.0362 91.4246 73.9662 91.3552 73.898C89.5041 75.3157 87.7152 76.8697 85.1895 76.8177C87.6405 76.0604 89.7141 74.7935 91.0971 72.5467C89.577 73.5212 88.057 74.4974 86.5369 75.4718C86.4604 75.3713 86.3838 75.2708 86.3055 75.1685C89.319 73.2394 91.8216 70.8617 93.331 67.3193C90.7927 69.1084 88.445 70.763 85.9976 72.4875C86.3785 71.9833 86.6544 71.4826 87.0549 71.1183C88.1299 70.1367 89.1837 69.1031 90.3816 68.2919C92.756 66.6822 94.164 64.3853 95.2818 61.8388C95.4099 61.5463 95.4562 61.2197 95.595 60.7101C94.3046 61.8191 93.2081 62.7594 92.1117 63.7015C92.0547 63.6334 91.9978 63.567 91.9408 63.4988C92.5531 62.8402 93.1654 62.1816 93.7795 61.5248C93.703 61.4494 93.6264 61.3759 93.5481 61.3005C92.6421 61.9914 91.7735 62.7415 90.8212 63.3606C89.2335 64.3942 88.0089 65.6468 87.7579 67.6369C87.7419 67.759 87.6618 67.872 87.5675 68.0927C86.8786 66.3216 88.0338 65.1802 88.6622 63.8649C87.3094 64.5432 86.4087 65.6145 85.7448 66.9245C86.1524 63.7374 88.8117 62.4203 91.0366 60.6598C90.5311 60.1933 90.0452 59.872 89.7337 59.4252C89.2584 58.7451 88.6871 58.8222 87.8078 59.4755C87.1261 59.9833 87.7099 60.4104 87.9876 60.8285C88.1602 61.0869 88.3738 61.3202 88.5678 61.5643C88.518 61.6199 88.4664 61.6755 88.4165 61.7294C88.0463 61.3848 87.5977 61.0941 87.3201 60.685C86.8235 59.9546 86.4087 60.1071 85.9175 60.6491C85.0578 61.5984 84.8887 62.6177 85.654 63.7572C84.6537 63.2942 84.6947 62.4723 84.6751 61.5589C84.3315 61.9842 83.9898 62.4113 83.6463 62.8366C83.8581 61.3687 84.6947 60.2938 85.7608 59.5239C87.0442 58.5979 87.0371 57.0708 87.9822 55.9115C86.4105 55.9223 86.1328 56.2794 86.0207 58.169C85.0845 57.6415 84.8993 57.0385 85.3176 56.1233C85.4689 55.7913 85.622 55.3678 85.5455 55.0394C85.2269 53.663 85.6914 52.4445 86.1578 51.2117C86.3002 50.8348 86.4248 50.4508 86.5618 50.056C86.617 50.1045 86.7541 50.248 86.7665 50.2373C88.073 49.1641 89.3724 48.0785 90.6699 46.9946C90.6397 46.9246 90.6094 46.8546 90.5809 46.7846C89.901 47.1238 89.1712 47.3894 88.5554 47.8218C87.9324 48.2579 87.4233 48.8573 86.8644 49.3849C86.9943 48.9416 87.2257 48.5755 87.5194 48.2723C88.8206 46.9228 90.4528 46.1834 92.2238 45.6864C92.9305 45.4872 93.6104 45.1929 94.3028 44.9416C94.2547 44.825 94.2049 44.7083 94.1568 44.5917C90.8782 44.9237 87.66 45.3921 85.533 48.5271C85.9353 47.7429 86.4319 47.0322 86.9427 46.3324C87.0976 46.1224 87.3735 45.9735 87.4607 45.7456C87.7971 44.8591 88.0801 43.9493 88.3578 43.122C87.5764 43.262 87.4233 43.4396 86.6562 45.3221C86.3215 44.2705 86.7772 43.5904 87.3628 43.0053C88.3062 42.0614 89.5308 41.6935 90.7981 41.4477C91.6169 41.288 92.4356 41.1355 93.2562 40.9793C93.2526 40.9004 93.2473 40.8232 93.2437 40.7442C92.8343 40.7084 92.425 40.6743 92.117 40.6473C94.9151 40.0031 97.7897 39.3391 100.792 38.6465C99.4771 37.3095 97.8627 36.572 96.1522 35.9744C97.8912 35.7124 99.26 36.6815 100.862 37.3203C100.598 36.6007 100.351 36.0318 100.182 35.4414C99.7014 33.7582 100.153 32.6348 101.617 31.6981C101.925 31.5007 102.19 31.2351 102.475 31C103.135 31.0072 103.786 31.0072 104.44 31.0072ZM132.182 131.457C133.985 132.748 135.827 133.988 137.564 135.366C137.967 135.685 138.009 136.468 138.212 137.038C138.397 137.553 138.435 138.219 138.785 138.558C139.702 139.445 140.526 140.329 140.654 141.675C140.66 141.724 140.791 141.758 140.864 141.801C141.359 140.76 141.252 139.791 140.451 139.03C139.312 137.946 138.874 136.695 138.985 135.095C139.06 133.997 138.887 132.814 138.542 131.764C137.717 129.273 136.292 127.113 134.553 125.155C133.214 123.648 131.933 122.086 130.621 120.556C130.498 120.414 130.329 120.312 130.171 120.182C129.793 120.73 129.501 121.259 129.11 121.7C128.07 122.872 127.828 124.297 127.784 125.776C127.728 127.691 128.405 129.184 130.226 130.068C130.947 130.418 131.555 131.01 132.214 131.491C131.707 131.21 131.196 130.931 130.69 130.644C129.891 130.189 129.512 130.323 129.199 131.165C129.117 131.384 129.056 131.649 128.896 131.791C128.241 132.369 128.223 132.782 128.923 133.385C130.544 134.781 132.153 136.193 133.821 137.53C134.245 137.869 134.87 137.957 135.405 138.153C135.64 138.239 135.982 138.226 136.103 138.389C136.808 139.335 137.337 139.516 138.202 139.175C137.956 138.341 137.557 137.544 137.532 136.737C137.513 136.064 137.397 135.588 136.886 135.195C135.873 134.416 134.857 133.643 133.855 132.853C133.285 132.401 132.739 131.922 132.182 131.457ZM124.601 131.615C124.523 131.701 124.443 131.786 124.364 131.872C124.779 132.294 125.156 132.762 125.616 133.128C127.586 134.702 127.67 134.957 126.858 137.284C126.379 138.659 126.337 140.001 127.024 141.354C127.328 141.952 127.383 142.671 127.623 143.308C127.759 143.669 127.978 144.179 128.268 144.272C129.708 144.733 130.55 145.844 131.331 147.001C131.824 147.732 132.212 148.545 132.557 149.359C132.944 150.271 132.556 151.053 131.849 151.71C133.164 151.62 134.371 151.538 135.578 151.455C135.589 151.574 135.598 151.69 135.608 151.809C133.693 152.374 131.708 152.493 129.736 152.511C129.556 153.749 129.726 153.934 130.838 153.849C131.132 153.828 131.443 153.79 131.719 153.864C131.906 153.914 132.153 154.131 132.178 154.302C132.203 154.474 132.032 154.756 131.867 154.858C131.655 154.991 131.352 155.075 131.109 155.037C129.192 154.747 127.495 155.854 125.626 155.915C125.329 155.924 124.864 156.457 124.813 156.799C124.761 157.139 125.046 157.654 125.342 157.891C125.662 158.145 126.16 158.249 126.589 158.275C129.745 158.465 132.903 158.621 136.059 158.784C136.621 158.813 137.192 158.775 137.744 158.867C141.356 159.461 144.958 159.1 148.563 158.802C148.753 158.786 148.938 158.678 149.125 158.614C149.111 158.563 149.097 158.515 149.082 158.465C147.876 158.355 146.671 158.246 145.464 158.136C145.471 158.022 145.476 157.907 145.483 157.79C145.985 157.79 146.485 157.781 146.987 157.792C147.742 157.806 148.522 157.97 149.248 157.833C151.475 157.413 153.678 157.293 155.953 157.501C158.659 157.749 161.393 157.716 164.114 157.756C164.481 157.761 164.851 157.474 165.426 157.237C164.208 156.582 162.934 156.604 162.254 155.265C163.354 155.114 164.351 154.976 165.453 154.826C165.294 154.382 165.17 154.036 165.017 153.607C166.179 153.35 167.263 152.782 168.37 153.79C168.665 154.059 169.26 154.158 169.682 154.095C171.727 153.795 173.76 153.415 175.794 153.058C175.915 153.036 176.025 152.95 176.344 152.796C175.653 152.554 175.118 152.455 174.687 152.186C174.299 151.942 173.838 151.554 173.745 151.152C173.583 150.438 173.219 150.131 172.571 150.022C172.161 149.952 171.752 149.882 171.35 149.781C170.481 149.564 170.127 148.963 170.367 148.094C170.525 147.52 170.812 146.969 170.88 146.388C170.921 146.041 170.753 145.483 170.495 145.322C169.502 144.699 168.434 144.198 167.38 143.646C167.179 143.988 167.049 144.211 166.926 144.421C165.67 144.096 164.913 143.436 164.536 142.102C164.255 141.108 163.714 140.398 162.847 139.911C160.467 138.574 158.103 137.205 155.688 135.933C154.495 135.305 153.685 134.569 153.945 133.087C154.102 132.193 153.652 131.726 152.849 131.411C151.637 130.933 150.446 130.393 149.276 129.817C148.532 129.451 148.362 128.821 148.828 128.1C149.492 127.073 150.166 126.056 150.862 125.053C151.484 124.157 152.137 123.285 152.826 122.334C152.087 121.873 151.443 121.508 150.839 121.085C148.748 119.619 146.434 118.372 144.657 116.584C142.997 114.914 141.32 114.382 139.136 114.643C138.045 114.772 136.925 114.666 135.865 114.666C136.534 116.211 137.271 117.517 137.675 118.921C138.771 122.72 139.916 126.468 142.118 129.817C142.771 130.811 143.061 132.046 143.545 133.158C143.695 133.503 143.889 133.86 144.15 134.119C145.241 135.192 145.581 136.444 145.065 137.883C144.786 138.662 144.983 139.247 145.483 139.854C146.685 141.304 147.806 142.806 148.187 144.728C148.244 145.013 148.44 145.268 148.525 145.551C148.897 146.8 149.369 148.037 149.558 149.315C149.636 149.848 149.237 150.614 148.815 151.023C148.285 151.54 147.539 151.872 146.836 152.157C145.118 152.855 143.378 152.76 141.794 151.827C141.252 151.507 140.713 150.761 140.637 150.151C140.482 148.9 140.576 147.604 140.688 146.337C140.79 145.18 140.665 144.896 139.567 144.649C137.292 144.136 135.891 142.553 134.882 140.588C134.66 140.154 135.085 139.351 134.836 138.967C134.537 138.508 133.714 138.424 133.325 137.988C130.939 135.321 127.894 133.573 124.92 131.723C124.827 131.662 124.708 131.649 124.601 131.615ZM100.13 82.0308C100.043 82.0685 99.9559 82.1062 99.8669 82.142C98.1938 80.274 97.2095 78.0218 96.5473 75.5867C95.7107 75.6889 95.4081 76.3081 95.3494 76.9002C95.1643 78.7612 94.9258 80.6418 95.0183 82.4992C95.1821 85.7329 95.7303 88.9092 97.537 91.7122C97.6099 91.8235 97.5779 92.0047 97.5939 92.1537C97.5281 92.1896 97.4622 92.2255 97.3964 92.2613C96.59 91.2331 95.7837 90.2066 95.0077 89.216C94.6641 91.059 97.3287 96.5233 98.9769 97.1496C99.6035 95.8253 98.5391 94.7324 98.5231 93.4673C100.559 94.657 100.339 97.1801 101.732 98.7432C101.517 98.8221 101.401 98.8311 101.296 98.8006C100.463 98.5547 100.093 98.8634 100.326 99.6978C100.485 100.265 100.716 100.85 101.063 101.313C101.261 101.577 101.759 101.611 102.122 101.747C102.156 101.419 102.232 101.087 102.209 100.764C102.186 100.448 102.058 100.139 101.946 99.7086C102.797 100.064 103.482 100.315 104.135 100.633C104.703 100.909 104.511 101.255 104.085 101.467C103.265 101.876 103.35 102.429 103.745 103.084C103.87 103.292 103.948 103.529 104.082 103.832C101.941 103.179 101.803 103.213 101.472 104.295C102.014 104.71 102.51 105.089 103.005 105.473C103.357 105.745 103.683 106.058 104.057 106.298C105.474 107.204 106.889 106.621 107.225 104.974C107.428 103.981 107.64 102.976 107.69 101.97C107.77 100.346 107.718 98.7162 107.722 97.0886C107.722 96.762 107.722 96.4354 107.722 95.9868C107.989 96.1501 108.186 96.1985 108.217 96.3008C108.647 97.7059 109.21 99.0967 109.415 100.538C109.561 101.566 109.181 102.664 109.121 103.736C109.107 104.005 109.365 104.468 109.589 104.538C110.39 104.787 111.232 104.904 111.899 105.038C113.61 104.089 114.907 102.862 115.192 100.715C115.717 101.04 116.095 101.255 116.451 101.498C117.33 102.097 118.131 102.815 119.304 102.813C120.605 102.811 120.776 102.68 120.797 101.338C120.801 101.076 120.833 100.816 120.86 100.446C122.627 100.861 122.009 99.0698 122.679 98.456C124.38 99.2833 125.206 99.0195 125.233 97.5336C125.26 96.1142 125.044 94.6857 124.85 93.2717C124.788 92.8141 124.457 92.3941 124.249 91.9563C124.19 91.9778 124.131 91.9976 124.072 92.0191C123.923 92.8535 123.773 93.6862 123.626 94.5206C123.531 94.5117 123.437 94.5027 123.343 94.4937C123.243 94.1564 123.092 93.8262 123.053 93.4834C122.882 91.9652 122.227 90.7127 121.208 89.5911C120.806 89.1496 120.516 88.5431 120.349 87.9617C120.053 86.937 119.966 85.8513 119.653 84.8338C119.293 83.6674 118.688 82.6212 117.592 81.8603C117.517 83.1954 117.789 84.4606 117.253 85.6414C116.962 84.1896 116.878 82.7163 115.824 81.4673C115.662 81.7185 115.548 81.8944 115.379 82.1546C114.754 80.5001 114.687 78.7091 113.201 77.4207C112.852 80.7459 113.176 84.003 112.115 87.1093C111.917 86.5261 111.919 85.9518 111.917 85.3776C111.915 84.195 112.028 82.9998 111.887 81.8334C111.421 77.9483 110.442 74.2049 108.43 70.8114C108.158 70.352 107.658 70.029 107.263 69.6414C107.131 69.6917 106.997 69.7437 106.866 69.7939C106.762 70.9729 106.657 72.152 106.554 73.3309C106.481 73.3615 106.406 73.392 106.333 73.4225C106.018 72.972 105.705 72.5198 105.315 71.9617C105.315 72.3063 105.28 72.5162 105.321 72.71C105.709 74.5135 106.102 76.317 106.511 78.1169C106.727 79.0662 106.86 80.0568 107.234 80.9415C108.218 83.2726 109.361 85.5373 110.344 87.8702C110.735 88.8015 110.872 89.8405 111.125 90.8311C111.033 90.8796 110.94 90.928 110.847 90.9765C110.636 90.8114 110.395 90.6714 110.216 90.4758C109.833 90.0595 109.496 89.6019 109.114 89.1855C106.627 86.483 105.299 83.3121 105.433 79.6064C105.513 77.3579 104.625 75.3803 103.907 73.3184C103.797 73.8442 103.688 74.37 103.578 74.894C103.233 74.7361 103.089 74.6086 103.058 74.4579C102.782 73.0546 102.391 71.6585 102.293 70.2408C102.133 67.9187 102.158 65.584 102.131 63.2529C102.129 63.0376 102.305 62.8204 102.4 62.6033C102.548 62.7612 102.772 62.894 102.829 63.0806C103.382 64.8411 103.911 66.6087 104.44 68.3763C104.518 68.6365 104.564 68.9075 104.625 69.173C104.735 69.1551 104.844 69.1372 104.954 69.1192C104.762 67.5598 104.632 65.9878 104.363 64.4427C103.984 62.2695 103.366 60.1322 103.099 57.9483C102.775 55.2924 103.292 52.7316 104.486 50.3001C105.07 49.1103 105.65 47.8811 105.369 46.4454C105.298 46.0794 105.419 45.5733 105.641 45.2718C106.104 44.6419 106.693 44.1054 107.231 43.5311C107.191 43.4558 107.152 43.3786 107.113 43.3032C106.519 43.4324 105.926 43.5598 105.298 43.6962C105.454 44.0892 105.55 44.3279 105.605 44.4679C105.228 44.9057 104.596 45.3382 104.657 45.6182C104.87 46.6034 104.246 46.781 103.626 47.0789C102.661 47.5401 102.104 48.8483 102.442 49.8514C103.797 49.5177 103.808 47.89 104.926 47.0107C104.982 48.2166 104.539 48.947 104.032 49.6415C103.297 50.6464 102.731 51.6944 102.742 53.0026C102.745 53.3346 102.492 53.6684 102.357 54.0022C102.259 53.9752 102.163 53.9501 102.065 53.9232C102.021 53.611 102.024 53.2826 101.921 52.9901C101.8 52.6491 101.588 52.3422 101.415 52.021C101.108 52.2238 100.679 52.353 100.513 52.6401C99.8153 53.8532 99.1692 55.1004 98.5569 56.3602C98.2596 56.9721 97.9837 57.6235 97.8591 58.2875C97.0493 62.6428 97.0546 67.0232 97.5067 71.4162C97.6633 72.9308 97.6171 74.4902 97.9748 75.951C98.3913 77.6468 99.1532 79.2565 99.7583 80.9074C99.899 81.2753 100.009 81.6557 100.13 82.0308ZM74.3603 96.1267C74.2588 96.1483 74.1556 96.168 74.0541 96.1896C74.2392 98.1061 74.3104 100.042 74.6397 101.934C75.0278 104.164 75.2058 106.338 74.7839 108.597C74.4422 110.429 74.6807 112.299 75.4514 114.032C75.9569 115.168 76.8237 116.008 77.7564 116.764C77.8169 116.713 77.8792 116.665 77.9398 116.615C77.6372 116.024 77.3346 115.432 76.9608 114.702C78.488 115.064 79.4741 115.947 79.766 117.176C80.0045 118.181 80.5118 118.982 81.2665 119.655C81.4872 119.85 81.7275 120.058 81.8592 120.313C82.548 121.648 83.3668 122.734 85.145 122.169C85.2589 123.274 84.3582 123.342 83.8314 123.771C83.9079 124.001 83.9435 124.247 84.061 124.442C85.8409 127.438 87.8078 130.262 90.8889 132.08C92.0458 132.764 93.0907 133.544 93.7261 134.822C94.4826 136.34 95.3654 137.796 96.1931 139.278C96.7342 140.245 97.5103 140.911 98.6299 141.013C98.9627 141.044 99.4433 140.913 99.6302 140.676C99.8278 140.424 99.753 139.958 99.8135 139.461C98.6156 140.064 97.6687 139.892 96.8552 139.254C96.5028 138.98 96.3515 138.442 96.1095 138.023C96.2038 137.941 96.2963 137.858 96.3907 137.774C96.8357 137.964 97.27 138.183 97.7274 138.337C98.265 138.52 98.8844 138.533 99.0392 137.889C99.2511 137.001 98.1279 136.136 96.9798 136.424C97.3697 136.911 97.7007 137.325 98.1119 137.839C97.1525 137.901 96.3853 137.634 96.0489 136.922C95.8247 136.448 96.0383 135.764 96.0525 135.174C96.0596 134.854 96.1949 134.429 96.0436 134.235C95.4402 133.471 94.8047 132.708 94.0661 132.085C93.484 131.595 93.0479 131.222 93.2028 130.339C93.2776 129.916 92.9518 129.386 92.724 128.952C92.3235 128.188 91.8198 127.479 91.4246 126.713C90.4207 124.764 89.4524 122.797 88.4503 120.798C88.3631 120.81 88.146 120.843 87.7864 120.897C87.9466 120.329 88.0997 119.886 88.1958 119.43C88.299 118.939 88.502 118.395 88.3845 117.948C88.267 117.505 87.6832 116.769 87.5159 116.823C86.4248 117.178 86.5867 116.432 86.4817 115.831C86.2948 114.761 85.6113 114.05 84.6413 113.706C83.8403 113.422 83.0037 113.39 82.395 114.219C82.3131 114.33 82.0105 114.429 81.9607 114.381C81.8361 114.255 81.6865 113.988 81.7417 113.876C81.9785 113.408 82.2419 112.934 82.5801 112.538C83.1799 111.834 83.4042 111.089 83.0019 110.23C82.8008 109.799 82.5908 109.351 82.2864 108.997C80.542 106.966 79.1697 104.726 78.3224 102.165C77.6799 100.224 76.53 98.5099 76.1295 96.4318C75.576 93.557 76.482 91.1362 77.8632 88.771C77.9718 88.5844 78.1872 88.4606 78.3527 88.308C78.4542 88.6597 78.3972 88.9253 78.3011 89.1784C78.1338 89.6234 77.9148 90.0523 77.7653 90.5027C76.6867 93.7795 77.0605 97.0294 78.2566 100.15C78.908 101.851 79.8799 103.461 80.9069 104.974C81.7346 106.192 83.7798 107.039 84.8175 106.89C82.7563 104.873 80.8001 102.827 80.9176 99.4358C81.4071 99.7355 81.6972 99.924 81.998 100.094C83.9079 101.182 86.1364 99.9796 86.1702 97.8082C86.1862 96.7351 86.1168 95.6566 86.0154 94.587C85.7359 91.6799 85.2091 88.7764 86.4746 85.9357C86.6437 85.5552 86.5066 84.7459 86.2183 84.5252C85.9139 84.2937 85.2482 84.4785 84.7605 84.579C84.3992 84.6526 84.0681 84.8823 83.7246 85.042C83.6925 84.9882 83.6605 84.9325 83.6285 84.8787C83.8492 84.4857 84.0681 84.0927 84.3867 83.5238C82.4929 83.4879 81.1294 84.396 79.8621 85.2825C75.9088 88.0496 74.1538 91.8235 75.309 96.7871C75.1363 96.8697 74.9637 96.9522 74.7892 97.033C74.6415 96.7351 74.5009 96.4318 74.3603 96.1267ZM205.695 103.888C205.377 103.741 205.135 103.692 204.982 103.547C204.202 102.819 203.401 102.104 202.691 101.309C201.561 100.044 200.532 98.6857 199.391 97.4296C198.289 96.2183 196.963 95.3659 195.309 95.0429C193.216 94.6355 191.175 94.928 189.135 95.3461C184.938 96.2039 180.693 96.6615 176.419 96.6292C174.085 96.6113 171.755 96.2595 169.425 96.046C168.514 95.9634 168.179 96.3385 168.527 97.1855C169.577 99.7463 169.612 102.28 168.439 104.809C168.345 105.013 168.318 105.25 168.217 105.643C168.751 105.643 169.182 105.663 169.611 105.64C172.044 105.503 174.399 105.871 176.681 106.731C177.83 107.165 178.968 107.42 180.162 106.522C180.018 107.025 179.874 107.527 179.73 108.03C179.801 108.087 179.87 108.146 179.941 108.204C180.475 107.725 181.077 107.303 181.531 106.757C182.624 105.444 183.991 104.778 185.666 104.559C186.401 104.464 187.163 104.172 187.791 103.773C188.391 103.391 188.848 103.262 189.491 103.619C190.217 104.023 190.954 104.125 191.509 103.253C191.605 103.102 191.963 102.946 192.079 103.011C193.284 103.694 194.557 103.459 195.824 103.364C196.49 103.314 197.008 103.572 197.202 104.242C197.381 104.861 197.798 105.115 198.353 105.356C198.99 105.632 199.638 105.993 200.131 106.474C201.578 107.886 202.951 109.376 204.353 110.835C204.457 110.941 204.574 111.034 204.692 111.125C206.016 112.145 206.92 113.421 207.143 115.127C207.173 115.355 207.264 115.576 207.393 116.033C207.62 115.522 207.79 115.222 207.888 114.899C208.518 112.853 208.465 110.775 208.15 108.685C207.979 107.543 207.673 106.393 207.707 105.257C207.76 103.475 208.205 101.699 208.207 99.9204C208.21 97.234 207.986 94.5458 207.835 91.8594C207.801 91.2456 207.666 90.6391 207.577 90.029C207.493 90.0397 207.41 90.0505 207.326 90.0613C206.5 93.6718 206.658 97.3111 207.223 100.959C207.15 100.97 207.078 100.983 207.005 100.993C206.742 100.231 206.477 99.4681 206.213 98.7055C206.146 98.7252 206.076 98.7467 206.009 98.7665C206.092 99.7607 206.178 100.757 206.267 101.819C205.984 101.754 205.804 101.711 205.549 101.654C205.601 102.399 205.644 103.072 205.695 103.888ZM151.176 84.2075C150.339 84.4947 149.567 84.8643 148.757 85.0007C148.159 85.1012 147.897 85.2089 147.851 85.8818C147.79 86.7701 147.653 87.8055 146.607 88.0442C145.669 88.2578 144.665 88.1824 143.691 88.2362C143.67 88.1322 143.648 88.0281 143.627 87.924C144.168 87.2259 145.494 87.2923 145.528 86.291C144.636 86.7773 143.682 87.3121 142.712 87.8181C141.934 88.2237 141.185 88.6418 140.961 89.5929C140.754 90.474 141.085 91.2277 141.811 91.5453C142.568 91.8755 143.066 91.6799 143.579 90.7396C143.889 90.1707 144.227 90.1133 144.713 90.4704C145.893 91.3336 146.651 92.4623 146.911 93.9231C147.103 95.0106 147.288 96.0998 147.52 97.1783C147.714 98.0846 148.255 98.6229 149.218 98.7503C150.143 98.8724 150.136 99.0177 149.819 99.9347C149.595 100.586 149.389 101.322 149.467 101.986C149.68 103.788 150.067 105.566 150.352 107.359C150.535 108.504 151.514 109.352 152.616 109.094C153.527 108.88 154.308 108.091 155.359 108.502C155.378 108.509 155.417 108.484 155.437 108.464C155.912 107.994 156.386 108.204 156.907 108.405C157.493 108.631 158.18 109.045 158.703 108.371C159.248 107.669 158.655 107.093 158.319 106.513C158.288 106.461 158.26 106.402 158.214 106.37C156.934 105.48 157.452 103.967 156.923 102.901C157.801 102.747 158.655 102.749 159.367 102.427C160.045 102.122 160.337 102.174 160.7 102.806C161.328 103.902 161.957 103.978 163.059 103.351C163.429 103.142 163.952 103.052 164.372 103.12C165.138 103.244 165.511 102.932 165.65 102.246C165.762 101.692 165.769 101.114 165.898 100.565C166.031 99.9921 166.175 99.3964 166.458 98.8921C166.807 98.2748 167.151 98.3394 167.451 98.9764C167.564 99.2133 167.681 99.4484 167.797 99.6853C167.864 99.6584 167.932 99.6332 168 99.6063C167.831 97.8674 167.663 96.1285 167.494 94.3896C167.398 94.4578 167.302 94.5242 167.206 94.5924C166.925 94.4022 166.617 94.2407 166.369 94.011C166.133 93.7921 165.967 93.496 165.755 93.2483C165.294 92.7046 164.935 92.8212 164.593 93.4027C164.068 94.2963 163.1 94.5476 161.989 94.0756C162.361 93.4188 163.664 93.4027 163.276 92.1537C161.377 92.5 160.681 91.1936 160.266 89.8585C159.524 89.8172 158.959 89.7849 158.226 89.7436C158.897 90.5763 159.5 91.3282 160.15 92.1339C159.933 92.1788 159.867 92.2147 159.823 92.1985C159.575 92.1016 159.317 92.0155 159.089 91.8827C155.798 89.9518 152.238 88.3044 151.176 84.2075ZM111.94 63.567C111.855 63.7015 111.771 63.8379 111.686 63.9725C110.758 63.7105 109.831 63.4485 108.784 63.1524C108.877 63.5095 108.895 63.8128 109.027 64.0533C109.94 65.7222 110.92 67.3552 111.785 69.0492C112.223 69.9034 112.478 70.8563 112.789 71.7715C112.93 72.1878 113.008 72.6257 113.124 73.0833C114.187 72.326 114.359 73.7293 115.153 73.8729C114.87 73.182 114.633 72.6042 114.397 72.0281C114.48 71.9546 114.562 71.8792 114.646 71.8056C115.032 72.0389 115.418 72.2704 115.854 72.5342C115.99 72.2596 116.061 71.9276 116.264 71.7536C116.552 71.5077 116.924 71.3301 117.289 71.2224C117.426 71.1829 117.641 71.4216 117.823 71.5328C117.72 71.6908 117.65 71.9312 117.506 71.9904C116.946 72.2201 116.901 72.6042 117.143 73.069C117.462 73.6809 117.463 74.1277 116.486 74.2121C117.796 74.6194 118.523 75.2547 118.567 76.6006C118.578 76.9074 119.29 77.2915 119.742 77.426C119.902 77.4745 120.331 76.9236 120.488 76.5772C120.639 76.2417 120.625 75.8164 120.639 75.4305C120.674 74.422 121.077 73.706 122.111 73.4691C122.679 73.3399 122.983 72.9846 123.01 72.4032C123.033 71.8989 123.136 71.3695 123.026 70.8922C122.65 69.2664 122.351 67.5975 121.744 66.056C120.178 62.0793 119.24 57.9752 118.884 53.7258C118.863 53.4692 118.968 53.2036 118.978 52.9416C119 52.4338 119.037 51.9205 118.994 51.4163C118.957 50.9802 118.822 50.5513 118.722 50.1206C118.485 49.1103 118.321 48.0713 117.978 47.0986C117.714 46.3503 116.828 46.1099 116.299 46.4867C114.781 47.5706 114.719 47.8649 115.635 49.5697C115.748 49.7797 115.862 49.9896 115.986 50.1942C116.992 51.8452 117.809 53.541 117.657 55.5724C117.611 56.1861 117.837 56.816 117.852 57.4405C117.884 58.9174 117.862 60.3942 117.862 61.8711C117.656 61.8029 117.597 61.733 117.577 61.654C117.115 59.7787 116.889 57.8209 115.648 56.2202C115.527 56.0623 115.607 55.7608 115.523 55.5562C115.424 55.3158 115.255 54.9228 115.103 54.9174C114.373 54.8905 114.046 54.5208 113.891 53.846C113.85 53.6666 113.549 53.3938 113.427 53.4225C113.217 53.4728 112.917 53.7061 112.893 53.8945C112.791 54.6554 112.706 55.4324 112.752 56.1951C112.816 57.2592 112.999 58.318 113.144 59.3768C113.176 59.6065 113.249 59.8308 113.313 60.0551C113.642 61.1964 113.993 62.3341 114.292 63.4844C114.35 63.7087 114.215 63.9833 114.13 64.4499C113.879 64.0999 113.761 63.9743 113.686 63.8272C113.257 62.9819 112.78 62.1529 112.435 61.2736C112.173 60.606 112.04 59.8756 111.939 59.1596C111.89 58.824 112.045 58.458 112.122 58.1062C112.396 56.8375 112.173 56.4104 110.968 55.8756C110.561 55.6962 110.157 55.5096 109.76 55.3068C107.976 54.3916 107.117 52.1843 107.761 50.1942C108.71 51.3858 109.438 51.7823 110.434 51.6065C110.278 51.5096 110.148 51.445 110.038 51.3588C109.31 50.7828 109.35 50.4741 110.159 50.0058C110.321 49.9125 110.45 49.6522 110.474 49.4531C110.527 49.0098 110.463 48.5522 110.527 48.1126C110.559 47.8918 110.748 47.5491 110.906 47.5257C111.157 47.4863 111.625 47.6083 111.675 47.7662C111.798 48.152 111.789 48.6078 111.723 49.0152C111.677 49.3041 111.445 49.5607 111.278 49.8694C112.248 50.0273 112.654 49.7797 112.595 48.9972C112.528 48.082 112.312 47.1794 112.15 46.2714C112.077 45.8622 112.412 45.2377 111.6 45.2036C110.871 45.1731 110.087 44.956 109.822 46.0148C109.671 46.6177 109.482 47.2296 109.199 47.7788C108.717 48.7173 108.338 48.816 107.387 48.4086C106.155 50.3736 105.794 54.3934 106.736 55.5778C106.794 55.0968 106.853 54.6069 106.912 54.117C107.019 54.1116 107.124 54.1062 107.231 54.1027C107.371 54.4723 107.526 54.8384 107.651 55.2153C107.791 55.6388 107.948 55.8613 108.382 55.4593C108.526 55.3265 108.804 55.3409 109.019 55.287C109.003 55.5329 109.085 55.8756 108.955 56.0084C108.339 56.6419 108.756 56.9972 109.242 57.3597C109.552 57.5912 109.89 57.7904 110.169 58.0542C110.878 58.7271 111.364 59.5311 111.467 60.5378C111.082 60.2363 110.837 59.8236 110.493 59.5221C109.9 59.0017 109.279 58.4939 108.606 58.0883C108.074 57.7653 107.779 58.0793 107.763 58.6697C107.74 59.5006 108.071 59.689 109.374 59.4449C109.327 61.3364 110.746 62.3808 111.94 63.567ZM101.318 113.893C100.958 112.968 100.72 112.17 100.349 111.439C99.4522 109.666 99.1407 107.762 99.1158 105.817C99.0802 102.962 98.2276 100.358 96.93 97.8692C96.8392 97.6934 96.6879 97.548 96.5651 97.3883C96.5972 98.02 96.7894 98.544 96.9816 99.068C97.1721 99.5884 97.359 100.112 97.5476 100.633C97.464 100.658 97.3821 100.685 97.2985 100.71C94.2423 96.0711 91.875 91.1595 91.6489 85.4009C91.5012 85.4278 91.3517 85.4547 91.2039 85.4816C91.284 87.0716 91.3659 88.6633 91.4567 90.4471C90.4635 89.4404 90.063 88.3367 90.022 87.1506C89.9829 86.0056 90.1466 84.8536 90.2374 83.4718C89.3457 84.6992 88.5482 85.7975 87.7508 86.8939C87.8523 86.9783 87.952 87.0626 88.0534 87.147C88.3079 86.7342 88.5643 86.3197 88.8188 85.9069C88.9487 85.9805 89.0769 86.0523 89.2068 86.1259C89.2068 86.6158 89.2015 87.1075 89.2086 87.5974C89.2228 88.5503 89.0822 89.5426 89.2923 90.4507C89.885 93.0115 90.6539 95.5238 92.0725 97.7777C92.2256 98.0218 92.2772 98.3286 92.4374 98.7755C91.8732 98.5224 91.5172 98.3627 91.1594 98.203C91.0811 98.2622 91.0028 98.3196 90.9262 98.3789C91.3356 99.2205 91.7432 100.064 92.19 100.983C91.0882 101.108 91.0847 101.794 91.3517 102.487C92.1811 104.647 93.6709 106.194 95.7962 107.093C95.9332 107.152 96.2234 107.138 96.2714 107.057C96.3533 106.915 96.3604 106.67 96.2963 106.512C96.0685 105.961 95.7944 105.43 95.5416 104.889C95.1839 104.127 94.8297 103.364 94.4292 102.504C95.7944 102.774 98.1422 107.07 97.8841 108.376C97.5441 108.398 96.9959 108.353 96.9692 108.45C96.8552 108.877 96.8552 109.347 96.8855 109.797C96.9033 110.065 97.0582 110.323 97.1739 110.65C96.1361 110.399 95.2747 110.19 94.4114 109.982C94.3669 110.102 94.3224 110.223 94.2779 110.343C95.8852 112.726 98.2578 113.684 101.318 113.893ZM110.611 114.826C110.57 114.734 110.554 114.639 110.5 114.58C108.74 112.642 106.654 111.136 104.36 109.916C104.116 109.787 103.763 109.726 103.503 109.794C103.16 109.885 102.695 110.068 102.581 110.339C102.473 110.603 102.649 111.107 102.866 111.36C103.206 111.757 103.56 112.046 103.313 112.66C103.24 112.841 103.43 113.169 103.567 113.39C103.815 113.79 104.114 114.16 104.416 114.578C104.221 114.713 104.046 114.833 103.681 115.086C104.356 115.784 104.91 116.475 105.588 117.004C105.892 117.243 106.657 117.358 106.837 117.167C107.108 116.882 107.168 116.259 107.102 115.813C106.955 114.806 107.282 114.329 108.297 114.427C109.051 114.503 109.794 114.682 110.611 114.826ZM171.75 119.111C171.255 119.526 170.871 119.843 170.492 120.166C170.02 120.566 169.593 122.104 169.856 122.664C170.463 123.954 170.545 125.291 170.378 126.684C170.175 128.372 171.017 128.613 172.421 128.853C173.274 128.999 173.971 127.99 173.914 126.817C173.89 126.314 173.795 125.806 173.656 125.324C173.329 124.177 172.953 123.045 172.603 121.905C172.323 121.004 172.051 120.103 171.75 119.111ZM215.295 123.664C215.439 124.17 215.426 124.758 215.706 124.992C216.491 125.647 217.397 126.154 218.23 126.704C218.499 125.196 217.315 123.405 215.661 122.915C212.712 122.041 209.761 121.175 206.815 120.286C205.786 119.976 204.798 119.608 204.36 118.438C204.271 118.199 203.816 118.097 203.529 117.934C203.357 118.251 203.043 118.567 203.036 118.888C203.013 119.85 203.634 120.439 204.464 120.731C205.998 121.27 207.559 121.731 209.109 122.226C209.453 122.336 209.795 122.451 210.136 122.564C210.119 122.635 210.103 122.705 210.085 122.777C209.403 122.731 208.721 122.686 208.038 122.639C208.025 122.725 208.013 122.809 207.999 122.896C209.12 123.655 210.428 123.705 211.735 123.716C212.952 123.725 214.17 123.682 215.295 123.664ZM128.093 100.977C126.904 101.887 125.888 102.635 124.911 103.434C124.699 103.608 124.505 103.969 124.519 104.233C124.592 105.568 124.094 106.677 123.346 107.723C123.158 107.987 123.061 108.319 122.894 108.681C123.35 108.757 123.659 108.807 124.04 108.87C123.88 109.839 124.443 110.375 125.099 110.899C125.559 111.265 125.959 111.718 126.347 112.164C127.159 113.096 127.944 114.05 128.782 115.045C128.839 114.872 128.878 114.815 128.871 114.765C128.853 114.648 128.818 114.533 128.779 114.42C128.166 112.66 126.557 111.355 126.495 109.342C125.076 107.136 125.71 104.997 126.721 102.883C126.869 102.574 127.162 102.336 127.536 101.889C127.615 102.546 127.623 102.937 127.718 103.305C127.775 103.529 127.921 103.822 128.104 103.902C128.691 104.159 129.314 104.329 130.224 104.633C129.428 103.267 128.731 102.07 128.093 100.977ZM147.367 145.826C147.272 145.788 147.176 145.749 147.082 145.711C145.863 146.614 144.533 146.946 143.057 146.673C142.94 146.651 142.627 146.996 142.621 147.177C142.586 148.247 142.593 149.32 142.639 150.389C142.65 150.621 142.828 150.91 143.015 151.059C144.106 151.92 146.208 151.877 147.258 150.971C147.463 150.795 147.694 150.485 147.683 150.248C147.616 148.773 147.48 147.299 147.367 145.826ZM145.257 81.5588C145.304 81.6575 145.352 81.7544 145.398 81.8531C146.941 81.4709 148.522 81.2035 150.015 80.6795C151.772 80.064 153.42 79.0321 154.387 77.444C156.063 74.6894 157.47 71.7661 158.988 68.9128C158.936 68.8626 158.883 68.8123 158.831 68.7621C155.17 73.959 151.156 78.7773 145.257 81.5588ZM140.934 83.6566C139.526 84.0712 138.141 84.6849 136.703 84.8589C134.158 85.1676 131.582 85.2179 129.017 85.3578C128.488 85.3865 127.946 85.2663 127.429 85.3471C126.655 85.4691 126.303 86.0918 126.698 86.7145C127.187 87.4861 126.856 87.6961 126.173 87.8361C125.973 87.8773 125.778 87.9635 125.592 88.0532C124.824 88.4283 124.752 88.9343 125.439 89.4565C125.733 89.679 126.116 89.8405 126.481 89.8998C127.161 90.011 127.572 89.7239 127.479 88.954C127.431 88.5521 127.374 88.1519 127.331 87.8379C128.497 87.6656 129.615 87.583 130.688 87.321C132.374 86.9101 134.019 86.3251 135.704 85.9087C137.582 85.4458 139.398 84.8787 140.934 83.6566ZM121.415 121.772C122.716 120.06 122.499 116.945 121.103 115.276C119.806 113.724 119.742 113.733 117.951 114.607C117.346 114.901 117.22 115.185 117.595 115.759C118.508 117.153 119.389 118.569 120.281 119.976C120.642 120.545 121 121.115 121.415 121.772ZM213.264 78.169C213.662 78.6912 213.994 79.1613 214.364 79.5974C214.593 79.8666 214.835 80.3062 215.247 79.732C215.329 79.6172 215.656 79.5615 215.8 79.6297C217.11 80.2542 218.591 80.588 219.262 82.1779C219.695 83.2044 220.165 84.4121 220.992 85.0276C222.477 86.1313 224.242 86.8509 225.892 87.7302C225.962 87.6387 226.03 87.5489 226.099 87.4574C225.779 87.2008 225.439 86.9639 225.141 86.6822C223.272 84.8984 221.434 83.0824 219.542 81.3237C218.135 80.0155 216.713 78.7163 215.209 77.5265C214.147 76.6867 213.643 76.9451 213.264 78.169ZM176.875 133.824C176.636 133.16 176.332 132.511 176.177 131.827C176.015 131.106 176.04 130.343 175.897 129.616C175.787 129.053 175.705 128.444 174.977 128.22C174.219 127.988 174.007 128.599 173.624 128.968C173.518 129.072 173.402 129.166 173.302 129.277C172.499 130.172 172.473 130.479 173.08 131.518C173.215 131.75 173.393 131.985 173.43 132.238C173.628 133.607 174.667 134.092 175.744 134.542C176.652 134.922 176.782 134.827 176.875 133.824ZM105.264 136.372C105.098 136.859 104.942 137.096 104.952 137.322C105.063 139.38 105.201 141.437 105.342 143.495C105.354 143.667 105.445 143.836 105.504 144.005C105.922 145.214 106.004 145.246 107.156 144.701C107.261 144.651 107.38 144.609 107.494 144.606C108.436 144.575 108.364 144.076 108.094 143.402C107.567 142.079 107.077 140.74 106.588 139.402C106.383 138.842 106.257 138.253 106.033 137.702C105.876 137.311 105.613 136.963 105.264 136.372ZM140.393 101.453C141.514 102.472 142.607 103.456 143.687 104.452C144.371 105.081 145.167 105.32 146.058 105.114C146.471 105.019 146.909 104.785 146.569 104.238C145.482 102.492 142.997 100.708 140.393 101.453ZM66.8827 100.532C66.945 99.8611 66.986 99.4107 67.0376 98.8365C65.5745 101.555 65.069 106.58 67.2868 108.658C67.091 108.137 66.9272 107.705 66.7635 107.274C66.8685 107.265 66.9735 107.256 67.0785 107.246C67.1123 106.883 67.2441 106.494 67.1586 106.162C66.9094 105.202 66.8845 104.272 67.0945 103.339C67.1782 103.317 67.2619 103.296 67.3473 103.273C67.5377 103.561 67.73 103.85 68.013 104.281C68.013 103.335 68.3423 102.172 67.9382 101.788C67.2797 101.159 67.4826 100.723 67.7424 100.08C67.4701 100.224 67.285 100.321 66.8827 100.532ZM154.289 80.0927C152.48 81.1963 151.77 82.6786 152.183 84.2668C152.487 85.4368 153.798 86.2515 155.777 86.3717C154.401 84.457 153.81 82.4274 154.289 80.0927ZM85.3586 110.187C88.3026 113.049 91.7183 115.063 95.6769 116.116C92.3484 113.939 89.1534 111.533 85.3586 110.187ZM144.131 99.3999C142.395 97.1281 139.8 96.1537 137.894 97.015C138.782 98.8221 141.398 99.8432 144.131 99.3999ZM170.833 129.657C170.422 128.94 169.952 128.331 169.71 127.642C169.447 126.897 169.137 126.687 168.471 127.116C167.332 127.85 166.325 130.404 166.627 131.78C167.587 131.472 168.009 131.036 169.03 129.282C169.571 129.896 170.152 130.407 170.833 129.657ZM125.432 147.079C126.742 148.862 129.076 148.32 129.734 147.177C129.923 146.851 129.946 146.127 129.731 145.925C129.266 145.483 128.599 145.259 128.006 144.959C127.974 144.943 127.846 145.047 127.814 145.119C127.36 146.169 126.559 146.817 125.432 147.079ZM128.004 129.167C128.061 129.106 128.116 129.045 128.173 128.984C128.154 128.907 128.157 128.807 128.109 128.753C126.426 126.833 127.324 123.247 128.547 121.688C128.951 121.173 129.359 120.656 129.708 120.105C129.843 119.892 129.827 119.578 129.879 119.31C129.807 119.292 129.738 119.272 129.667 119.255C128.606 120.511 127.545 121.765 126.627 122.854C126.76 123.42 127.004 123.848 126.883 124.094C126.753 124.36 126.28 124.451 125.872 124.663C126.201 124.866 126.461 125.027 126.57 125.094C126.415 125.977 125.979 126.872 126.223 127.497C126.49 128.184 127.383 128.622 128.004 129.167ZM174.771 138.748C175.449 137.623 175.319 135.872 174.497 134.813C174.141 134.354 173.763 133.799 173.041 134.144C172.528 134.388 172.127 135.486 172.409 136.035C172.969 137.126 173.786 138.002 174.771 138.748ZM112.332 111.743C110.887 112.091 110.043 111.145 109.037 110.553C107.944 109.91 106.814 109.333 105.677 108.773C105.447 108.66 105.116 108.757 104.831 108.757C104.81 108.837 104.79 108.916 104.769 108.997C107.008 110.81 109.954 111.612 111.821 114.047C112.004 113.22 112.15 112.561 112.332 111.743ZM195.612 138.271C195.617 138.224 195.623 138.18 195.63 138.133C196.21 137.808 196.792 137.481 197.372 137.157C197.34 137.076 197.308 136.997 197.276 136.916C197.024 136.886 196.769 136.826 196.516 136.83C195.747 136.843 194.975 136.839 194.209 136.916C193.321 137.006 193.227 137.205 193.506 138.088C193.531 138.165 193.503 138.258 193.499 138.345C193.467 139.287 193.772 139.655 194.708 139.382C196.046 138.992 197.324 138.382 198.627 137.865C198.611 137.817 198.593 137.767 198.577 137.718C197.588 137.901 196.6 138.086 195.612 138.271ZM75.3962 130.711C78.6695 129.193 81.3715 126.544 80.453 124.24C78.8137 126.336 77.1423 128.475 75.3962 130.711ZM135.733 139.581C135.628 139.603 135.523 139.626 135.42 139.647C135.457 139.926 135.398 140.29 135.55 140.469C136.34 141.397 137.146 142.321 138.029 143.158C138.511 143.615 139.156 143.899 139.78 144.295C140.482 141.578 140.195 140.096 138.969 139.924C138.997 140.198 139.058 140.459 139.044 140.713C139.015 141.193 138.942 141.668 138.889 142.145C138.372 141.993 137.814 141.921 137.354 141.664C136.988 141.46 136.719 141.049 136.45 140.697C136.181 140.347 135.97 139.954 135.733 139.581ZM114.349 35.5204C113.104 35.0556 112.011 35.2907 110.952 35.5904C110.531 35.7088 110.18 36.0803 109.795 36.3369C110.109 36.6761 110.394 37.0475 110.744 37.3418C110.986 37.5446 111.305 37.681 111.611 37.7653C111.809 37.8192 112.124 37.8102 112.25 37.6882C112.942 37.0206 113.594 36.3082 114.349 35.5204ZM113.508 73.5858C113.857 75.2565 114.413 76.8482 115.377 78.2569C115.632 78.6302 116.04 78.9442 116.444 79.147C116.686 79.2672 117.17 79.2385 117.35 79.068C117.693 78.7414 117.898 78.2659 118.234 77.7383C115.276 77.9375 115.007 75.1309 113.508 73.5858ZM113.989 43.6909C113.955 43.5975 113.921 43.506 113.886 43.4127C112.709 43.1722 111.568 43.3786 110.44 43.7537C110.248 43.8183 110.045 43.9152 109.854 43.9008C108.573 43.8039 107.248 44.7604 106.978 46.0847C106.916 46.3916 107.117 46.7541 107.197 47.0897C107.503 46.8654 107.962 46.7092 108.09 46.4078C108.703 44.9865 109.892 44.1538 111.381 44.2238C111.766 44.2418 112.168 44.3153 112.533 44.2328C113.033 44.1179 113.505 43.8775 113.989 43.6909ZM206.646 83.6548C206.212 86.4991 205.703 89.3417 206 92.2506C206.641 89.4242 207.751 86.6409 206.646 83.6548ZM97.9873 42.318C96.412 42.318 94.8297 42.2355 93.2633 42.3557C92.5585 42.4096 92.1206 43.0592 91.8678 44.1036C94.0269 43.3086 96.1486 43.3876 97.9873 42.318ZM94.6072 56.9721C94.3402 57.06 94.0732 57.1426 93.808 57.2359C92.8593 57.5697 91.9159 57.9196 90.9601 58.2354C90.5489 58.3718 89.9989 58.3306 90.2036 59.0304C90.3727 59.6065 91.3232 60.3027 91.6774 60.0425C92.8094 59.2099 93.9201 58.3395 94.6072 56.9721ZM174.691 62.5261C175.686 64.606 176.88 66.3556 178.014 68.3063C178.471 66.3503 176.497 62.7666 174.691 62.5261ZM175.659 77.112C176.009 77.6019 176.246 77.9734 176.524 78.3089C176.859 78.7127 177.195 79.1308 177.604 79.4467C177.781 79.5831 178.22 79.5849 178.393 79.4539C178.535 79.3462 178.539 78.9245 178.468 78.684C178.3 78.1133 178.024 77.575 177.848 77.0079C177.702 76.5413 177.64 76.0586 178.229 75.7894C178.307 75.7535 178.315 75.5615 178.387 75.3408C177.914 75.4557 177.556 75.54 177.113 75.6477C177.514 76.8913 176.618 76.99 175.659 77.112ZM90.0078 56.6329C92.2701 56.6922 94.7264 55.1148 94.7389 53.8783C93.4822 54.3575 92.2131 54.7577 91.0313 55.3373C90.5881 55.5562 90.3442 56.1897 90.0078 56.6329ZM88.0552 45.2664C89.917 45.2575 91.7682 44.0372 91.923 42.7182C90.0487 42.4742 88.0267 43.8057 88.0552 45.2664ZM181.785 76.5647C181.924 76.4947 182.061 76.4247 182.2 76.3529C181.328 73.8226 179.37 71.8846 178.288 69.4673C178.455 72.3655 180.664 74.1762 181.785 76.5647ZM176.983 139.854C177.02 139.256 177.101 138.659 177.086 138.061C177.067 137.264 177.038 136.455 176.875 135.68C176.823 135.436 176.326 135.289 176.033 135.097C175.892 135.351 175.664 135.595 175.627 135.865C175.426 137.361 176.711 138.422 176.983 139.854ZM217.699 133.435C217.653 133.541 217.607 133.645 217.562 133.751C217.27 134.431 217.457 135.412 216.393 135.624C216.35 135.633 216.327 136.096 216.409 136.302C216.514 136.568 216.751 136.778 216.898 137.033C217.256 137.648 217.609 137.489 217.86 136.99C218.449 135.809 218.333 134.616 217.699 133.435ZM119.874 48.0462C119.558 46.7882 119.041 45.5572 117.903 44.6491C117.031 43.9546 116.937 43.9529 116.317 44.7424C117.52 45.8604 118.711 46.9658 119.874 48.0462ZM203.163 130.513C203.3 130.883 203.625 131.31 203.538 131.615C203.15 132.957 204.279 133.336 204.932 134.005C205.048 134.124 205.43 134.149 205.551 134.049C205.681 133.941 205.749 133.58 205.669 133.42C205.088 132.259 204.366 131.204 203.163 130.513ZM199.341 96.5646C199.386 94.5565 197.333 93.2196 195.518 94.0774C196.223 94.4668 196.881 94.7844 197.49 95.1792C198.102 95.5794 198.665 96.055 199.341 96.5646ZM170.917 142.727C170.63 141.7 167.047 139.258 166.003 139.298C166.887 140.11 167.656 140.83 168.445 141.53C168.559 141.63 168.756 141.634 168.915 141.684C169.265 141.795 169.634 141.873 169.961 142.031C170.237 142.165 170.468 142.395 170.917 142.727ZM122.405 128.672C121.548 130.571 122.186 132.211 124.008 132.778C123.462 131.382 122.971 130.122 122.405 128.672ZM107.204 145.853C107.134 146.002 107.067 146.151 106.997 146.302C107.339 146.533 107.734 146.712 108.007 147.009C108.3 147.328 108.421 147.813 108.731 148.105C108.857 148.223 109.279 148.021 109.568 147.965C109.286 147.202 109.101 146.379 108.667 145.718C108.539 145.523 107.711 145.795 107.204 145.853ZM173.007 63.2009C172.996 63.1004 172.985 62.9999 172.975 62.9012C172.599 62.8097 172.138 62.5333 171.868 62.6625C171.232 62.9694 170.687 63.4683 170.107 63.89C170.096 63.9833 170.084 64.0766 170.073 64.1699C170.57 64.3242 171.056 64.5557 171.563 64.6168C172.622 64.7442 172.248 63.4162 173.007 63.2009ZM114.137 108.242C115.319 107.626 116.038 106.095 115.584 104.984C115.231 105.686 114.865 106.417 114.455 107.229C113.756 106.465 113.243 105.905 112.731 105.345C112.711 105.379 112.691 105.412 112.67 105.446C113.149 106.357 113.626 107.269 114.137 108.242ZM212.449 84.0658C212.44 83.933 212.486 83.7122 212.4 83.5848C212.222 83.321 211.975 83.1039 211.754 82.8688C211.546 83.1129 211.258 83.3264 211.155 83.6082C211.048 83.8971 211.03 84.2937 211.146 84.5682C211.274 84.8751 211.598 85.0976 211.838 85.3578C212.034 85.0922 212.249 84.8374 212.417 84.5521C212.482 84.439 212.44 84.2614 212.449 84.0658ZM106.134 33.882C104.769 33.699 104.078 34.4042 103.441 35.1256C103.01 35.6137 102.836 36.2185 103.274 36.9381C103.37 35.1776 105.221 35.1489 106.134 33.882ZM122.049 50.6931C121.427 51.6872 120.881 51.0843 120.326 50.7972C120.276 50.8546 120.228 50.912 120.178 50.9676C120.555 51.6657 120.933 52.3656 121.315 53.0708C122.358 52.5486 122.353 51.8075 122.049 50.6931ZM105.454 35.2279C105.394 35.1866 105.333 35.1471 105.273 35.1059C105.006 35.3212 104.712 35.5114 104.475 35.7573C104.048 36.2005 103.706 36.703 104.096 37.3382C104.205 37.5159 104.477 37.7582 104.603 37.7205C104.813 37.6595 105.071 37.4226 105.123 37.2144C105.28 36.5648 105.349 35.8919 105.454 35.2279ZM77.4004 126.059C76.4019 127.018 75.3873 127.992 74.4368 128.902C75.8394 129.017 77.5232 127.461 77.4004 126.059ZM178.797 73.1784C178.473 73.0725 178.104 72.8249 177.937 72.9236C177.295 73.3022 177.099 72.9577 176.91 72.4427C176.826 72.2112 176.686 72.0012 176.572 71.7823C176.486 72.1968 176.586 72.5432 176.679 72.8931C177.165 74.7145 177.209 74.7289 178.617 73.5463C178.658 73.514 178.67 73.4458 178.797 73.1784ZM96.5705 39.9475C96.5936 40.0875 96.6167 40.2256 96.6399 40.3656C98.0567 40.3871 99.4344 40.1897 100.769 39.7555C100.746 39.6209 100.723 39.4845 100.702 39.3499C99.3223 39.5491 97.9464 39.7483 96.5705 39.9475ZM91.1665 79.61C91.1096 79.4933 91.0526 79.3767 90.9957 79.26C89.319 80.0586 87.6422 80.859 85.9655 81.6575C86.0154 81.767 86.0652 81.8747 86.115 81.9841C87.7971 81.1927 89.4827 80.4014 91.1665 79.61ZM87.644 57.8317C88.9914 58.0596 89.472 57.069 88.9309 55.3911C88.4468 56.3081 88.0623 57.0367 87.644 57.8317ZM162.236 81.0438C161.446 82.2048 161.72 84.6023 162.541 85.4027C162.446 84.0478 162.348 82.6391 162.236 81.0438ZM125.233 136.229C125.596 136.2 125.975 136.168 126.353 136.137C126.443 135.064 126.162 134.589 125.233 134.316C125.233 134.964 125.233 135.595 125.233 136.229ZM172.893 144.48C172.807 144.538 172.722 144.593 172.636 144.651C173.083 145.261 173.53 145.871 174.009 146.526C174.504 145.751 174.121 145.133 172.893 144.48ZM160.065 110.104C160.042 110.3 160.018 110.497 159.995 110.693C160.689 110.783 161.384 110.872 162.078 110.962C162.101 110.795 162.126 110.628 162.149 110.461C161.455 110.341 160.761 110.223 160.065 110.104ZM116.218 36.2902C115.454 35.6119 114.973 35.8255 114.263 37.1229C114.972 36.8214 115.541 36.5792 116.218 36.2902ZM108.464 33.4567C108.393 33.6272 108.322 33.7995 108.25 33.9699C108.603 34.1476 108.946 34.3683 109.32 34.467C109.393 34.4868 109.589 34.0309 109.73 33.7941C109.308 33.6828 108.886 33.5698 108.464 33.4567ZM101.195 107.827C102.069 107.718 102.649 107.646 103.227 107.572C103.243 107.481 103.261 107.389 103.277 107.298C102.834 107.165 102.389 106.941 101.946 106.942C101.747 106.942 101.549 107.391 101.195 107.827ZM175.289 75.8146C175.342 75.7482 175.395 75.6818 175.449 75.6136C175.091 74.7648 174.634 74.5279 173.891 74.9711C174.404 75.2816 174.847 75.549 175.289 75.8146Z" fill="black"/>
</svg>
