<svg width="300" height="300" viewBox="0 0 300 300" fill="none" xmlns="http://www.w3.org/2000/svg">
<rect width="300" height="300" rx="40" fill="#3C3D46"/>
<path d="M76.4062 201.973L69.0625 225H62.2656L72.793 196.562H77.0898L76.4062 201.973ZM82.5 225L75.1367 201.973L74.375 196.562H78.7305L89.2969 225H82.5ZM82.1875 214.414V219.336H67.3633V214.414H82.1875ZM103.371 215.117H96.2227V210.176H103.371C104.426 210.176 105.272 210 105.91 209.648C106.561 209.297 107.036 208.815 107.336 208.203C107.648 207.578 107.805 206.875 107.805 206.094C107.805 205.286 107.648 204.538 107.336 203.848C107.036 203.145 106.561 202.578 105.91 202.148C105.272 201.719 104.426 201.504 103.371 201.504H98.5273V225H92.1602V196.562H103.371C105.637 196.562 107.577 196.973 109.191 197.793C110.819 198.613 112.062 199.74 112.922 201.172C113.794 202.591 114.23 204.219 114.23 206.055C114.23 207.891 113.794 209.486 112.922 210.84C112.062 212.194 110.819 213.249 109.191 214.004C107.577 214.746 105.637 215.117 103.371 215.117ZM121.645 196.562H126.918L133.754 216.895L140.57 196.562H145.844L135.883 225H131.605L121.645 196.562ZM118.598 196.562H123.969L124.965 217.637V225H118.598V196.562ZM143.52 196.562H148.91V225H142.523V217.637L143.52 196.562ZM166.305 201.973L158.961 225H152.164L162.691 196.562H166.988L166.305 201.973ZM172.398 225L165.035 201.973L164.273 196.562H168.629L179.195 225H172.398ZM172.086 214.414V219.336H157.262V214.414H172.086ZM205.066 220.078V225H184.832V220.078H205.066ZM186.824 220.078V231.973H180.906L180.516 220.078H186.824ZM209.5 220.078L208.895 231.992H203.133V220.078H209.5ZM201.961 196.562V201.504H187.977V196.562H201.961ZM206.355 196.562V225H200.027V196.562H206.355ZM187.391 196.562H193.738L192.938 208.184C192.807 210.137 192.586 211.849 192.273 213.32C191.974 214.779 191.616 216.055 191.199 217.148C190.783 218.242 190.32 219.186 189.812 219.98C189.318 220.775 188.79 221.471 188.23 222.07C187.684 222.656 187.137 223.184 186.59 223.652C186.043 224.108 185.509 224.557 184.988 225H181.219V220.078H182.566C182.957 219.779 183.354 219.368 183.758 218.848C184.174 218.327 184.572 217.624 184.949 216.738C185.327 215.853 185.659 214.714 185.945 213.32C186.232 211.927 186.44 210.215 186.57 208.184L187.391 196.562ZM224.844 201.973L217.5 225H210.703L221.23 196.562H225.527L224.844 201.973ZM230.938 225L223.574 201.973L222.812 196.562H227.168L237.734 225H230.938ZM230.625 214.414V219.336H215.801V214.414H230.625Z" fill="white"/>
<path d="M61.6284 248V242.258H62.5964V244.623H63.2344L65.0384 242.258H66.1384L63.9934 245.041L66.3914 248H65.2694L63.2344 245.514H62.5964V248H61.6284ZM72.0507 248.11C71.6181 248.11 71.2257 248.033 70.8737 247.879C70.5217 247.718 70.2174 247.501 69.9607 247.23C69.7041 246.951 69.5061 246.632 69.3667 246.273C69.2274 245.914 69.1577 245.536 69.1577 245.14C69.1577 244.737 69.2274 244.355 69.3667 243.996C69.5061 243.637 69.7041 243.321 69.9607 243.05C70.2174 242.771 70.5217 242.555 70.8737 242.401C71.2331 242.24 71.6254 242.159 72.0507 242.159C72.4834 242.159 72.8757 242.24 73.2277 242.401C73.5797 242.555 73.8841 242.771 74.1407 243.05C74.4047 243.321 74.6064 243.637 74.7457 243.996C74.8851 244.355 74.9547 244.737 74.9547 245.14C74.9547 245.536 74.8851 245.914 74.7457 246.273C74.6064 246.632 74.4084 246.951 74.1517 247.23C73.8951 247.501 73.5871 247.718 73.2277 247.879C72.8757 248.033 72.4834 248.11 72.0507 248.11ZM70.1477 245.151C70.1477 245.547 70.2321 245.906 70.4007 246.229C70.5767 246.552 70.8077 246.808 71.0937 246.999C71.3797 247.182 71.6987 247.274 72.0507 247.274C72.4027 247.274 72.7217 247.179 73.0077 246.988C73.3011 246.797 73.5321 246.541 73.7007 246.218C73.8767 245.888 73.9647 245.525 73.9647 245.129C73.9647 244.733 73.8767 244.374 73.7007 244.051C73.5321 243.728 73.3011 243.472 73.0077 243.281C72.7217 243.09 72.4027 242.995 72.0507 242.995C71.6987 242.995 71.3797 243.094 71.0937 243.292C70.8077 243.483 70.5767 243.739 70.4007 244.062C70.2321 244.385 70.1477 244.748 70.1477 245.151ZM78.6167 248V242.258H79.5847V244.634H82.5767V242.258H83.5447V248H82.5767V245.492H79.5847V248H78.6167ZM87.5942 248V242.258H88.5622V244.634H91.5542V242.258H92.5222V248H91.5542V245.492H88.5622V248H87.5942ZM99.0908 248.11C98.6581 248.11 98.2658 248.033 97.9138 247.879C97.5618 247.718 97.2574 247.501 97.0008 247.23C96.7441 246.951 96.5461 246.632 96.4068 246.273C96.2674 245.914 96.1978 245.536 96.1978 245.14C96.1978 244.737 96.2674 244.355 96.4068 243.996C96.5461 243.637 96.7441 243.321 97.0008 243.05C97.2574 242.771 97.5618 242.555 97.9138 242.401C98.2731 242.24 98.6654 242.159 99.0908 242.159C99.5234 242.159 99.9158 242.24 100.268 242.401C100.62 242.555 100.924 242.771 101.181 243.05C101.445 243.321 101.646 243.637 101.786 243.996C101.925 244.355 101.995 244.737 101.995 245.14C101.995 245.536 101.925 245.914 101.786 246.273C101.646 246.632 101.448 246.951 101.192 247.23C100.935 247.501 100.627 247.718 100.268 247.879C99.9158 248.033 99.5234 248.11 99.0908 248.11ZM97.1878 245.151C97.1878 245.547 97.2721 245.906 97.4408 246.229C97.6168 246.552 97.8478 246.808 98.1338 246.999C98.4198 247.182 98.7388 247.274 99.0908 247.274C99.4428 247.274 99.7618 247.179 100.048 246.988C100.341 246.797 100.572 246.541 100.741 246.218C100.917 245.888 101.005 245.525 101.005 245.129C101.005 244.733 100.917 244.374 100.741 244.051C100.572 243.728 100.341 243.472 100.048 243.281C99.7618 243.09 99.4428 242.995 99.0908 242.995C98.7388 242.995 98.4198 243.094 98.1338 243.292C97.8478 243.483 97.6168 243.739 97.4408 244.062C97.2721 244.385 97.1878 244.748 97.1878 245.151ZM105.591 245.437V244.557H108.836V245.437H105.591ZM115.36 248.11C114.927 248.11 114.531 248.033 114.172 247.879C113.82 247.718 113.512 247.498 113.248 247.219C112.991 246.94 112.79 246.621 112.643 246.262C112.504 245.903 112.434 245.521 112.434 245.118C112.434 244.575 112.555 244.08 112.797 243.633C113.039 243.186 113.38 242.83 113.82 242.566C114.26 242.295 114.77 242.159 115.349 242.159C115.914 242.159 116.405 242.287 116.823 242.544C117.248 242.793 117.564 243.131 117.769 243.556L116.823 243.853C116.676 243.582 116.471 243.373 116.207 243.226C115.943 243.072 115.65 242.995 115.327 242.995C114.975 242.995 114.652 243.087 114.359 243.27C114.073 243.453 113.846 243.706 113.677 244.029C113.508 244.344 113.424 244.707 113.424 245.118C113.424 245.521 113.508 245.888 113.677 246.218C113.853 246.541 114.084 246.797 114.37 246.988C114.663 247.179 114.986 247.274 115.338 247.274C115.565 247.274 115.782 247.234 115.987 247.153C116.2 247.072 116.383 246.966 116.537 246.834C116.698 246.695 116.808 246.544 116.867 246.383L117.813 246.669C117.696 246.948 117.516 247.197 117.274 247.417C117.039 247.63 116.757 247.798 116.427 247.923C116.104 248.048 115.749 248.11 115.36 248.11ZM121.399 248V242.258H126.162V248H125.194V243.116H122.367V248H121.399ZM132.734 248.11C132.302 248.11 131.909 248.033 131.557 247.879C131.205 247.718 130.901 247.501 130.644 247.23C130.388 246.951 130.19 246.632 130.05 246.273C129.911 245.914 129.841 245.536 129.841 245.14C129.841 244.737 129.911 244.355 130.05 243.996C130.19 243.637 130.388 243.321 130.644 243.05C130.901 242.771 131.205 242.555 131.557 242.401C131.917 242.24 132.309 242.159 132.734 242.159C133.167 242.159 133.559 242.24 133.911 242.401C134.263 242.555 134.568 242.771 134.824 243.05C135.088 243.321 135.29 243.637 135.429 243.996C135.569 244.355 135.638 244.737 135.638 245.14C135.638 245.536 135.569 245.914 135.429 246.273C135.29 246.632 135.092 246.951 134.835 247.23C134.579 247.501 134.271 247.718 133.911 247.879C133.559 248.033 133.167 248.11 132.734 248.11ZM130.831 245.151C130.831 245.547 130.916 245.906 131.084 246.229C131.26 246.552 131.491 246.808 131.777 246.999C132.063 247.182 132.382 247.274 132.734 247.274C133.086 247.274 133.405 247.179 133.691 246.988C133.985 246.797 134.216 246.541 134.384 246.218C134.56 245.888 134.648 245.525 134.648 245.129C134.648 244.733 134.56 244.374 134.384 244.051C134.216 243.728 133.985 243.472 133.691 243.281C133.405 243.09 133.086 242.995 132.734 242.995C132.382 242.995 132.063 243.094 131.777 243.292C131.491 243.483 131.26 243.739 131.084 244.062C130.916 244.385 130.831 244.748 130.831 245.151ZM142.402 248.11C141.933 248.11 141.515 247.993 141.148 247.758C140.782 247.523 140.492 247.226 140.279 246.867V250.343H139.311V242.258H140.169V243.336C140.397 242.984 140.694 242.702 141.06 242.489C141.427 242.269 141.827 242.159 142.259 242.159C142.655 242.159 143.018 242.24 143.348 242.401C143.678 242.562 143.964 242.782 144.206 243.061C144.448 243.34 144.635 243.659 144.767 244.018C144.907 244.37 144.976 244.74 144.976 245.129C144.976 245.672 144.866 246.17 144.646 246.625C144.434 247.08 144.133 247.443 143.744 247.714C143.356 247.978 142.908 248.11 142.402 248.11ZM142.105 247.274C142.391 247.274 142.648 247.215 142.875 247.098C143.11 246.973 143.308 246.812 143.469 246.614C143.638 246.409 143.766 246.178 143.854 245.921C143.942 245.664 143.986 245.4 143.986 245.129C143.986 244.843 143.935 244.572 143.832 244.315C143.737 244.058 143.598 243.831 143.414 243.633C143.238 243.435 143.029 243.281 142.787 243.171C142.553 243.054 142.296 242.995 142.017 242.995C141.841 242.995 141.658 243.028 141.467 243.094C141.284 243.16 141.108 243.255 140.939 243.38C140.771 243.497 140.628 243.633 140.51 243.787C140.393 243.941 140.316 244.106 140.279 244.282V245.921C140.389 246.17 140.536 246.398 140.719 246.603C140.903 246.808 141.115 246.973 141.357 247.098C141.599 247.215 141.849 247.274 142.105 247.274ZM150.062 248V243.116H148.082V242.258H153.01V243.116H151.03V248H150.062ZM156.471 248V242.269H157.439V246.702L160.651 242.258H161.531V248H160.563V243.655L157.395 248H156.471ZM165.567 248V242.258H168.537C168.882 242.258 169.168 242.328 169.395 242.467C169.622 242.599 169.791 242.771 169.901 242.984C170.018 243.197 170.077 243.424 170.077 243.666C170.077 243.974 170.004 244.253 169.857 244.502C169.71 244.744 169.498 244.927 169.219 245.052C169.549 245.147 169.817 245.32 170.022 245.569C170.227 245.811 170.33 246.112 170.33 246.471C170.33 246.794 170.253 247.069 170.099 247.296C169.945 247.523 169.729 247.699 169.45 247.824C169.171 247.941 168.849 248 168.482 248H165.567ZM166.491 247.318H168.46C168.636 247.318 168.794 247.274 168.933 247.186C169.08 247.098 169.193 246.981 169.274 246.834C169.355 246.687 169.395 246.533 169.395 246.372C169.395 246.196 169.355 246.038 169.274 245.899C169.201 245.752 169.094 245.639 168.955 245.558C168.823 245.47 168.669 245.426 168.493 245.426H166.491V247.318ZM166.491 244.788H168.284C168.46 244.788 168.614 244.744 168.746 244.656C168.878 244.561 168.981 244.44 169.054 244.293C169.127 244.146 169.164 243.992 169.164 243.831C169.164 243.589 169.083 243.38 168.922 243.204C168.768 243.028 168.566 242.94 168.317 242.94H166.491V244.788ZM174.05 248V242.258H175.018V244.634H178.01V242.258H178.978V248H178.01V245.492H175.018V248H174.05ZM183.028 248V242.258H183.996V244.216H185.162C185.836 244.216 186.346 244.388 186.691 244.733C187.043 245.07 187.219 245.514 187.219 246.064C187.219 246.431 187.142 246.761 186.988 247.054C186.841 247.347 186.621 247.578 186.328 247.747C186.034 247.916 185.668 248 185.228 248H183.028ZM183.996 247.241H185.096C185.367 247.241 185.583 247.19 185.745 247.087C185.913 246.977 186.038 246.834 186.119 246.658C186.199 246.482 186.24 246.291 186.24 246.086C186.24 245.888 186.203 245.705 186.13 245.536C186.056 245.367 185.935 245.232 185.767 245.129C185.598 245.026 185.367 244.975 185.074 244.975H183.996V247.241ZM188.209 248V242.269H189.177V248H188.209ZM193.23 248V242.269H194.198V246.702L197.41 242.258H198.29V248H197.322V243.655L194.154 248H193.23ZM195.771 241.609C195.243 241.609 194.843 241.484 194.572 241.235C194.301 240.978 194.165 240.663 194.165 240.289H194.847C194.847 240.494 194.917 240.667 195.056 240.806C195.203 240.938 195.441 241.004 195.771 241.004C196.094 241.004 196.321 240.942 196.453 240.817C196.585 240.685 196.666 240.509 196.695 240.289H197.377C197.377 240.663 197.241 240.978 196.97 241.235C196.699 241.484 196.299 241.609 195.771 241.609ZM207.608 248V242.258H208.576V244.623H209.214L211.018 242.258H212.118L209.973 245.041L212.371 248H211.249L209.214 245.514H208.576V248H207.608ZM215.317 248.044V247.175C215.508 247.175 215.676 247.127 215.823 247.032C215.977 246.929 216.113 246.761 216.23 246.526C216.347 246.284 216.439 245.954 216.505 245.536C216.578 245.111 216.626 244.572 216.648 243.919L216.714 242.258H220.619V248H219.651V243.116H217.572L217.55 244.007C217.521 244.792 217.455 245.444 217.352 245.965C217.249 246.486 217.106 246.896 216.923 247.197C216.74 247.498 216.512 247.714 216.241 247.846C215.977 247.978 215.669 248.044 215.317 248.044ZM225.397 250.409C225.273 250.409 225.144 250.391 225.012 250.354C224.888 250.317 224.759 250.262 224.627 250.189L224.957 249.529C225.023 249.566 225.086 249.591 225.144 249.606C225.21 249.628 225.273 249.639 225.331 249.639C225.507 249.639 225.672 249.555 225.826 249.386C225.988 249.225 226.138 248.975 226.277 248.638L226.552 247.945L224.033 242.258H225.056L226.992 247.021L228.741 242.258H229.698L227.014 248.935C226.882 249.265 226.732 249.536 226.563 249.749C226.395 249.969 226.211 250.134 226.013 250.244C225.815 250.354 225.61 250.409 225.397 250.409ZM235.883 248.11C234.937 248.11 234.222 247.824 233.738 247.252C233.254 246.68 233.012 245.873 233.012 244.832C233.012 244.121 233.07 243.523 233.188 243.039C233.305 242.548 233.481 242.144 233.716 241.829C233.95 241.506 234.24 241.246 234.585 241.048C234.929 240.843 235.325 240.674 235.773 240.542L238.204 239.805L238.259 240.641L235.894 241.356C235.49 241.488 235.153 241.657 234.882 241.862C234.61 242.067 234.398 242.331 234.244 242.654C234.09 242.977 233.987 243.391 233.936 243.897C234.126 243.508 234.412 243.208 234.794 242.995C235.175 242.775 235.619 242.665 236.125 242.665C236.667 242.665 237.133 242.779 237.522 243.006C237.918 243.226 238.218 243.538 238.424 243.941C238.636 244.337 238.743 244.795 238.743 245.316C238.743 245.873 238.633 246.361 238.413 246.779C238.193 247.197 237.87 247.523 237.445 247.758C237.019 247.993 236.499 248.11 235.883 248.11ZM235.883 247.274C236.477 247.274 236.935 247.102 237.258 246.757C237.588 246.405 237.753 245.939 237.753 245.36C237.753 244.795 237.591 244.337 237.269 243.985C236.946 243.633 236.484 243.457 235.883 243.457C235.531 243.457 235.212 243.53 234.926 243.677C234.647 243.824 234.423 244.04 234.255 244.326C234.093 244.605 234.013 244.949 234.013 245.36C234.013 245.727 234.082 246.057 234.222 246.35C234.368 246.636 234.581 246.863 234.86 247.032C235.138 247.193 235.479 247.274 235.883 247.274Z" fill="white"/>
<path d="M104.44 34.0072C104.185 34.1489 103.945 34.3517 103.672 34.4217C101.868 34.8847 100.837 35.8466 100.773 37.2642C100.737 38.0789 100.851 38.8775 101.909 39.2831C101.969 37.0202 103.486 36.5159 105.271 36.3562C105.885 36.3006 106.415 36.1678 106.689 35.4948C106.796 35.2346 107.11 35.0606 107.419 34.7573C108.307 37.2642 110.036 36.2808 111.666 36.0816C111.269 36.428 110.871 36.7725 110.338 37.2355C110.951 37.3127 111.429 37.3647 111.906 37.4329C112.699 37.5442 113.485 37.7165 114.281 37.7631C114.77 37.7918 115.31 37.7308 115.755 37.5406C116.552 37.1978 117.296 36.7277 118.062 36.3095C118.108 36.3903 118.156 36.4693 118.202 36.55C117.679 36.9035 117.124 37.2194 116.646 37.6285C116.39 37.8475 116.267 38.2243 116.086 38.5294C116.476 38.6945 116.86 38.9726 117.257 38.9942C117.722 39.0193 118.199 38.8183 118.668 38.716C118.688 38.7932 118.708 38.8685 118.727 38.9457C117.496 39.3818 116.262 39.8178 115.03 40.2539C115.018 40.34 115.005 40.4244 114.993 40.5105C115.682 40.7582 116.404 40.9358 117.049 41.2678C117.978 41.7452 118.526 41.1942 119.041 40.6146C119.923 39.6186 120.742 38.5671 121.609 37.5567C121.821 37.3091 122.113 37.1296 122.367 36.9197C122.549 37.2122 122.864 37.4939 122.889 37.8008C123.056 39.9112 122.972 41.9928 121.803 43.8663C121.693 44.0439 121.582 44.2198 121.474 44.3992C121.189 44.8676 121.305 45.2265 121.824 45.3593C122.737 45.5926 123.663 45.7721 124.548 45.9659C124.008 46.7178 122.958 46.131 121.94 46.3983C122.992 47.2077 124.071 47.0013 125.096 47.0354C125.114 47.1305 125.133 47.2256 125.151 47.3207C124.468 47.4679 123.784 47.6132 123.101 47.7604C123.077 47.8304 123.052 47.8986 123.029 47.9685C123.736 48.1875 124.443 48.4064 125.379 48.6971C124.373 48.6971 123.599 48.6971 122.775 48.6971C122.876 48.9232 122.985 49.1709 123.109 49.4472C121.945 48.7599 120.826 48.0995 119.687 47.4266C119.614 47.6132 119.558 47.685 119.576 47.7155C120.698 49.6805 121.798 51.6599 122.96 53.5998C123.553 54.5885 123.585 55.7729 122.947 56.715C122.317 57.6482 121.792 58.5831 121.75 59.8088C121.689 61.5351 121.319 63.2489 121.216 64.9752C121.168 65.7846 121.346 66.6387 121.58 67.4247C122.125 69.2534 122.761 71.0551 123.375 72.8639C123.528 73.3144 123.668 73.7863 123.921 74.1793C125.131 76.051 124.466 79.0012 122.574 80.1856C122.187 80.4278 121.796 80.7778 121.593 81.1762C121.089 82.1649 120.399 82.793 119.261 82.8433C119.13 82.8486 119.001 82.9527 118.729 83.0766C119.163 83.5413 119.619 83.8931 119.897 84.3542C121.143 86.4072 122.894 87.1716 125.302 87.3673C128.827 87.6526 132.315 88.0994 135.845 87.5413C138.905 87.0586 141.662 85.7342 144.428 84.435C144.568 84.3686 144.672 84.2161 144.987 83.92C143.728 83.92 142.7 83.92 141.669 83.92C141.662 83.85 141.657 83.7782 141.649 83.7082C142.696 83.4552 143.744 83.2004 144.791 82.9473C144.78 82.8379 144.77 82.7284 144.761 82.6189C144.036 82.5274 143.312 82.4359 142.644 82.3516C143.755 81.8868 144.86 81.422 145.968 80.959C145.957 80.8549 145.948 80.7509 145.937 80.6486C143.91 80.6486 141.883 80.6486 139.743 80.6486C141.272 78.8612 143.581 79.6849 145.368 78.9635C145.357 78.863 145.346 78.7643 145.336 78.6638C144.629 78.592 143.924 78.5203 143.218 78.4485C143.21 78.4018 143.203 78.3552 143.194 78.3103C143.969 78.2403 144.745 78.1703 145.519 78.1003C145.523 78.0609 145.528 78.0214 145.531 77.9801C144.519 77.815 143.504 77.6481 142.491 77.483C142.495 77.4274 142.5 77.3718 142.504 77.3161C143.751 77.2569 144.999 77.1977 146.247 77.1385C146.249 77.0272 146.252 76.9178 146.254 76.8065C145.811 76.758 145.366 76.7114 144.923 76.6629C144.917 76.6181 144.91 76.575 144.905 76.5301C145.291 76.4602 145.677 76.392 146.064 76.322C146.071 76.2645 146.08 76.2071 146.087 76.1497C145.579 76.0761 145.074 76.0043 144.567 75.9308C147.228 75.5988 149.565 74.6351 151.653 72.505C149.574 72.304 148.143 73.1367 146.827 74.2995C146.758 74.2224 146.69 74.147 146.621 74.0699C147.317 73.3359 148.011 72.6019 148.707 71.8662C148.666 71.798 148.625 71.728 148.584 71.6598C147.949 72.0474 147.315 72.4368 146.68 72.8245C146.628 72.7814 146.576 72.7401 146.525 72.697C146.973 72.2394 147.34 71.606 147.883 71.3512C150.907 69.9317 153.527 67.6742 156.873 66.9295C157.133 66.872 157.384 66.7141 157.64 66.7123C159.543 66.7033 160.937 65.4472 162.553 64.7401C162.535 64.663 162.516 64.5876 162.498 64.5104C161.047 64.9232 159.598 65.3377 158.148 65.7505C158.105 65.6105 158.06 65.4705 158.018 65.3305C160.074 64.6307 162.129 63.929 164.182 63.2309C164.146 63.1986 164.006 63.073 163.863 62.9456C163.897 62.8541 163.931 62.7626 163.965 62.6693C164.814 62.9384 165.721 63.0946 166.497 63.5055C167.48 64.0241 168.413 63.7711 169.071 63.2202C170.187 62.287 171.387 61.3736 171.924 59.8716C172.332 58.7339 173.233 57.9963 174.539 57.4311C174.459 57.9335 174.432 58.2906 174.342 58.6316C174.16 59.3243 173.874 59.9954 173.772 60.6971C173.724 61.0255 174.003 61.4005 174.135 61.7559C174.454 61.6069 174.876 61.5405 175.073 61.2929C175.885 60.27 176.627 59.1897 177.403 58.1381C177.478 58.0358 177.619 57.982 177.914 57.7774C177.971 59.4965 177.855 60.986 177.129 62.4055C176.488 63.6562 176.319 64.8927 177.231 66.1488C178.015 67.2327 178.679 68.4045 179.409 69.5315C179.84 70.1955 179.925 70.8756 179.495 71.5503C179.018 72.2951 179.05 72.9985 179.507 73.7307C180.801 75.798 182.06 77.885 183.378 79.9361C184.066 81.0057 184.473 81.9819 183.998 83.3493C183.633 84.3973 183.396 85.4328 182.535 86.19C182.513 86.2098 182.497 86.2367 182.478 86.26C181.949 86.8863 178.731 87.3529 178.088 86.845C177.805 86.6207 177.505 86.2582 177.453 85.9209C177.188 84.1838 175.853 83.5252 174.498 83.0299C172.925 82.4538 171.362 81.9442 170.168 80.6737C170 80.496 169.648 80.496 169.381 80.4153C169.292 80.715 169.134 81.0129 169.123 81.3161C169.043 83.7028 169.119 86.1021 168.883 88.4709C168.724 90.0536 168.203 91.6149 167.708 93.1402C167.414 94.0447 167.348 94.8719 167.663 95.7548C167.843 96.2609 168.066 96.7795 168.098 97.3017C168.155 98.2492 168.646 98.6135 169.509 98.6817C174.751 99.1034 179.989 99.3188 185.198 98.312C185.513 98.251 185.813 98.1128 186.121 98.0088C186.116 97.9083 186.109 97.8078 186.104 97.7073C185.221 97.6032 184.34 97.4973 183.457 97.3932C183.45 97.2784 183.444 97.1635 183.437 97.0487C185.162 96.9733 186.865 96.8226 188.369 95.9522C188.352 95.8643 188.336 95.7764 188.318 95.6902C187.668 95.7979 187.02 95.9056 186.371 96.0132C186.344 95.9271 186.315 95.841 186.289 95.753C187.305 95.3439 188.323 94.9365 189.475 94.4718C188.202 94.1918 187.027 93.9334 185.853 93.6768C185.856 93.5745 185.86 93.4722 185.863 93.3699C187.063 92.7095 188.679 93.1259 189.85 91.9164C188.756 91.6669 187.802 91.4498 186.846 91.2327C186.864 91.1232 186.881 91.0137 186.899 90.906C188.108 90.9025 189.37 91.3726 190.756 90.4305C188.902 90.12 187.278 89.8473 185.653 89.5745C185.653 89.5063 185.651 89.4381 185.651 89.3699C186.947 89.3699 188.245 89.3699 189.541 89.3699C189.539 89.2748 189.539 89.1797 189.537 89.0846C187.618 88.8065 185.707 88.3578 183.733 89.0272C184.644 87.8643 185.942 87.588 187.237 87.3996C188.515 87.2129 189.813 87.1519 191.135 86.8899C190.71 86.8163 190.283 86.7428 189.857 86.6692C189.856 86.6351 189.854 86.601 189.852 86.5669C191.23 86.3103 192.609 86.0537 193.987 85.797C193.969 85.6553 193.951 85.5153 193.934 85.3735C192.584 85.5081 191.237 85.6427 189.888 85.7773C189.882 85.7145 189.879 85.6517 189.873 85.5889C191.981 84.584 194.09 83.5808 196.198 82.5759C196.146 82.4449 196.096 82.3139 196.045 82.1829C194.8 82.6118 193.556 83.0407 192.312 83.4696C193.978 81.8635 196.048 81.1151 198.218 80.5714C198.209 80.4942 198.2 80.4171 198.191 80.3399C197.522 80.4135 196.853 80.4888 196.183 80.5624C198.156 79.2919 200.375 79.7046 202.511 79.5754C202.516 79.4534 202.522 79.3332 202.527 79.2112C201.228 79.064 199.927 78.9186 198.627 78.7715C199.845 78.1344 201.165 78.0986 202.47 78.0304C203.654 77.9676 204.845 78.0393 206.028 77.9801C206.733 77.946 207.45 77.8437 208.127 77.6499C209.115 77.3664 210.076 77.1367 211.08 77.544C211.667 77.7827 212.016 77.4543 212.333 77.0021C213.039 75.9972 214.011 75.3834 215.453 74.881C215.296 76.1156 215.272 77.1241 215.019 78.0698C214.784 78.9474 214.91 79.5019 215.661 80.0528C217.488 81.3915 219.184 82.8756 220.515 84.7508C220.923 85.3251 221.489 85.7935 222.016 86.2726C223.751 87.8536 225.496 89.4256 227.252 90.9832C227.717 91.396 228.238 91.7459 228.74 92.1156C229.7 92.8226 230.022 93.6517 229.625 94.7732C229.328 95.6131 229.061 96.5588 228.482 97.1743C227.963 97.727 227.067 98.0626 226.288 98.19C225.307 98.3497 224.371 97.9083 223.872 96.9967C223.449 96.225 222.835 96.0797 222.066 95.9433C220.499 95.6633 218.954 95.2506 217.399 94.9096C216.884 94.7966 216.359 94.6925 215.834 94.6638C215.126 94.6243 214.394 94.7643 213.705 94.6404C212.719 94.4628 212.043 94.8522 211.646 95.6508C211.187 96.5749 210.836 97.5619 210.523 98.5507C210.11 99.8571 209.725 101.18 209.432 102.517C209.125 103.911 209.044 105.361 208.675 106.734C208.221 108.421 208.465 110.011 208.803 111.669C209.456 114.874 209.262 117.98 207.262 120.758C206.884 121.282 206.596 121.874 206.156 122.624C207.326 123.058 208.367 123.534 209.456 123.834C211.455 124.385 213.476 124.862 215.499 125.311C216.793 125.598 217.664 126.316 218.224 127.512C218.888 128.93 219.049 130.321 218.824 131.927C218.557 133.851 218.778 135.846 218.823 137.809C218.837 138.432 219.059 139.06 219.009 139.672C218.968 140.176 218.778 140.756 218.456 141.129C217.845 141.833 217.068 142.387 216.412 143.055C216.108 143.363 215.905 143.783 215.697 144.175C215.175 145.151 214.362 145.756 213.346 146.114C212.644 146.362 212.155 146.089 212.205 145.364C212.29 144.124 212.457 142.877 212.735 141.668C212.819 141.3 213.388 141.052 213.714 140.727C214.008 140.433 214.414 140.149 214.52 139.785C214.857 138.646 215.122 137.479 215.327 136.309C215.506 135.283 215.628 134.238 215.667 133.199C215.722 131.744 214.049 129.991 212.625 129.766C209.095 129.21 205.582 130.054 202.059 129.849C201.899 129.84 201.733 129.944 201.45 130.032C201.657 130.366 201.792 130.653 201.988 130.89C203.161 132.316 204.35 133.729 205.528 135.152C206.21 135.977 206.881 136.883 206.327 137.985C205.669 139.295 205.074 140.733 203.244 140.855C200.453 141.041 197.853 141.912 195.379 143.216C193.837 144.029 193.403 143.911 192.2 142.734C191.96 142.499 191.515 142.385 191.159 142.375C189.904 142.335 188.802 142.005 187.793 141.19C187.182 140.697 186.362 140.48 185.676 140.069C184.592 139.421 184.592 138.73 185.716 138.211C186.735 137.741 187.803 137.354 188.884 137.049C189.906 136.76 190.628 137.273 190.794 138.35C190.893 138.996 191.221 139.423 191.81 139.36C195.071 139.01 198.492 139.765 201.602 137.852C201.425 137.657 201.253 137.382 201.009 137.206C198.184 135.177 195.359 133.151 192.513 131.154C191.612 130.522 190.785 129.912 190.721 128.652C190.71 128.431 190.217 128.106 189.907 128.053C188.684 127.835 187.417 127.821 186.217 127.521C184.236 127.026 182.298 126.36 180.335 125.784C179.454 125.526 178.571 125.255 177.67 125.092C175.614 124.717 174.634 125.659 174.991 127.749C175.228 129.126 175.664 130.468 176.015 131.825C176.045 131.94 176.129 132.045 176.139 132.16C176.403 135.302 177.793 138.276 177.514 141.499C177.467 142.036 177.471 142.574 177.432 143.11C177.371 143.965 177.07 144.18 176.271 143.826C175.68 143.566 175.096 143.234 174.598 142.825C173.564 141.978 172.592 141.056 171.586 140.175C171.211 139.846 171.179 139.57 171.469 139.114C172.046 138.206 172.113 137.023 173.117 136.318C173.53 136.027 173.096 134.825 172.517 134.244C172.013 133.736 171.62 134.075 171.182 134.344C170.072 135.028 168.996 135.792 167.82 136.334C166.547 136.919 165.974 136.48 165.956 135.082C165.937 133.497 166.293 131.995 167.092 130.621C167.574 129.793 168.217 129.226 169.258 129.395C169.837 129.488 169.986 129.145 169.999 128.661C170.04 127.017 169.431 125.626 168.331 124.447C167.704 123.776 167.026 123.152 166.391 122.486C165.595 121.653 164.94 121.783 164.006 122.43C162.631 123.383 162.4 124.611 162.336 126.163C162.222 128.905 161.87 131.64 161.553 134.369C161.462 135.157 161.606 135.6 162.42 135.805C163.308 136.029 164.18 136.336 165.041 136.652C166.117 137.045 166.77 137.766 167.03 138.962C167.275 140.083 167.667 141.205 168.197 142.22C168.484 142.768 169.162 143.137 169.717 143.505C170.552 144.062 171.535 144.431 172.27 145.09C173.226 145.948 174.148 146.918 174.817 148.008C175.824 149.65 176.599 151.437 177.549 153.314C182.893 153.16 188.482 153 194.113 152.839C193.82 153.097 193.533 153.346 193.246 153.598C193.262 153.695 193.279 153.791 193.295 153.888C193.882 153.915 194.475 154.018 195.053 153.958C197.111 153.745 199.161 153.474 201.215 153.233C201.408 153.212 201.708 153.187 201.79 153.293C202.472 154.193 203.398 153.962 204.248 153.802C205.845 153.503 207.418 153.083 209.01 152.756C209.675 152.62 210.366 152.618 211.039 152.508C212.205 152.318 212.883 153.203 213.675 153.754C214.285 154.179 214.834 154.387 215.562 154.258C216.742 154.05 217.824 154.206 218.819 155.022C219.268 155.39 219.955 155.462 220.656 155.712C219.931 156.577 219.429 157.429 218.214 157.644C215.795 158.071 213.404 158.669 211.003 159.204C210.848 159.238 210.708 159.337 210.56 159.405C210.562 159.484 210.564 159.563 210.565 159.642C211.087 159.712 211.61 159.78 212.331 159.877C211.706 160.196 211.213 160.451 210.718 160.704C210.733 160.792 210.747 160.88 210.763 160.968C211.258 161.048 211.754 161.127 212.354 161.224C212.139 161.504 211.991 161.698 211.806 161.94C211.938 162.01 212.061 162.138 212.171 162.127C213.931 161.965 215.69 161.79 217.448 161.608C217.767 161.576 218.084 161.447 218.395 161.463C219.691 161.533 221.01 161.522 222.276 161.766C224.127 162.125 225.965 162.606 227.763 163.177C228.733 163.485 229.531 163.552 230.309 162.818C230.483 162.653 230.762 162.536 231.003 162.515C233.438 162.294 235.842 162.626 238.245 162.949C238.503 162.983 238.749 163.118 239 163.205C239 163.265 239 163.326 239 163.385C238.023 163.347 237.044 163.256 236.07 163.286C234.507 163.335 232.891 163.236 231.401 163.616C229.084 164.209 226.772 164.593 224.392 164.67C224.038 164.681 223.687 164.885 223.336 165C218.531 165 213.725 165 208.919 165C208.324 164.498 207.798 163.948 206.877 164.051C205.654 164.187 205.63 164.106 205.84 162.877C205.847 162.832 205.793 162.775 205.768 162.725C205.754 162.64 205.742 162.554 205.727 162.47C204.521 162.665 203.319 162.899 202.105 163.04C201.513 163.109 200.898 162.981 200.295 162.987C199.784 162.992 198.997 162.868 198.809 163.139C197.899 164.438 196.723 164.489 195.388 164.189C195.333 164.176 195.27 164.191 195.21 164.194C192.1 164.313 188.992 164.442 185.881 164.539C185.561 164.55 185.231 164.374 184.911 164.275C184.423 164.124 183.948 163.921 183.453 163.816C182.745 163.665 182.022 163.582 181.307 163.466C180.96 163.41 180.616 163.322 180.267 163.292C179.181 163.195 178.094 163.107 177.006 163.039C176.734 163.022 176.456 163.092 176.351 163.103C176.191 163.575 176.127 164.121 175.977 164.146C174.979 164.313 173.856 164.677 172.984 164.37C172.163 164.081 171.449 163.929 170.622 164.031C169.621 164.155 168.619 164.264 167.615 164.34C166.711 164.408 165.686 164.704 164.92 164.39C163.642 163.866 162.42 164.135 161.166 164.081C159.999 164.031 158.835 163.889 157.676 163.735C156.658 163.598 155.645 163.225 154.634 163.245C151.539 163.311 148.447 163.516 145.323 163.668C145.298 163.292 145.284 163.083 145.264 162.796C144.246 162.872 143.307 162.954 142.363 163.003C142.045 163.019 141.575 163.078 141.427 162.9C140.857 162.222 140.161 162.423 139.46 162.423C138.816 162.423 138.168 162.344 137.529 162.244C135.973 162 134.446 161.971 132.769 162.66C133.23 162.839 133.506 162.947 133.926 163.11C132.49 163.913 130.879 163.019 129.339 163.979C130.003 164.205 130.416 164.345 130.859 164.498C130.69 164.691 130.557 164.844 130.421 164.998C129.887 164.998 129.354 164.998 128.82 164.998C128.401 164.826 127.994 164.625 127.565 164.489C126.388 164.114 125.206 163.753 124.019 163.415C123.526 163.275 123.013 163.127 122.508 163.119C120.765 163.1 119.021 163.123 117.278 163.166C115.308 163.214 113.3 163.085 111.38 163.435C109.737 163.735 108.151 163.534 106.54 163.563C105.757 163.577 104.972 163.459 104.19 163.491C103.163 163.534 102.138 163.665 101.118 163.758C101.045 163.493 100.96 163.345 100.972 163.207C101.059 162.276 100.566 162.136 99.7797 162.197C97.6224 162.366 95.4616 162.488 93.3007 162.61C92.0316 162.681 90.6895 163.001 89.5058 162.703C87.8042 162.276 86.1026 162.202 84.433 162.333C82.217 162.509 80.0259 162.59 77.7991 162.522C74.3051 162.416 70.8039 162.649 67.3046 162.631C65.1758 162.62 65.5798 162.585 64.8251 160.46C65.9518 160.46 67.0678 160.426 68.1803 160.472C68.862 160.501 69.396 160.408 69.7128 159.704C69.9478 159.18 70.3091 158.956 70.9837 159.044C71.6868 159.134 72.4451 158.972 73.1499 158.8C73.8174 158.637 74.4386 158.29 75.099 158.077C75.6312 157.904 76.2506 157.921 76.724 157.657C77.8561 157.029 78.9614 157.318 79.8318 157.939C81.2451 158.943 82.6548 158.556 84.1037 158.337C84.2354 158.317 84.344 158.125 84.522 157.958C84.1696 157.752 83.8955 157.592 83.4522 157.334C84.7018 156.909 86.2717 157.583 86.7202 155.688C88.7796 155.688 90.8248 155.719 92.8682 155.67C93.5339 155.654 93.808 155.934 93.9717 156.474C92.8824 156.996 91.6809 157.197 90.9618 158.375C91.7557 158.525 92.5282 158.497 93.2971 158.54C93.6424 158.559 94.1871 158.628 94.2797 158.836C94.5128 159.363 94.8653 159.433 95.2711 159.281C97.0457 158.615 98.8701 158.037 100.54 157.162C101.36 156.731 102.104 156.419 103.005 156.41C103.539 156.404 104.093 156.435 104.598 156.298C104.997 156.191 105.337 155.855 105.7 155.618C105.949 155.455 106.193 155.148 106.442 155.143C108.334 155.112 110.23 155.109 112.122 155.168C112.75 155.188 113.403 155.329 113.991 155.559C115.101 155.993 115.205 156 115.845 154.935C119.318 154.935 122.842 154.935 126.474 154.935C126.337 154.721 126.304 154.631 126.24 154.581C124.897 153.497 123.987 152.219 124.229 150.353C124.254 150.156 123.978 149.842 123.766 149.7C122.059 148.566 121.333 147.245 121.299 145.093C121.37 145.264 121.429 145.4 121.486 145.537C121.883 146.493 122.155 147.532 122.707 148.388C123.517 149.646 124.98 149.515 125.754 148.248C125.906 148.001 126.064 147.719 126.292 147.559C127.447 146.748 127.615 146.551 126.894 145.345C125.552 143.098 124.06 140.941 122.613 138.761C122.533 138.64 122.253 138.552 122.107 138.594C121.321 138.816 120.546 139.084 119.639 139.376C119.963 140.494 120.306 141.682 120.65 142.87C119.153 138.253 116.49 134.432 113.049 131.112C112.216 130.31 111.867 129.287 111.704 128.157C111.638 127.704 111.383 127.281 111.177 126.744C110.871 126.981 110.73 127.048 110.648 127.159C109.874 128.212 109.075 129.251 108.357 130.342C108.072 130.777 107.934 131.324 107.793 131.837C107.551 132.727 107.32 133.626 107.154 134.534C106.944 135.697 106.673 136.873 106.656 138.045C106.597 141.897 107.834 145.436 109.381 148.901C109.735 149.696 109.74 150.651 109.906 151.532C108.98 151.529 108.046 151.6 107.129 151.5C106.234 151.403 105.743 150.796 105.623 149.87C105.575 149.495 105.363 149.147 105.265 148.776C105.08 148.072 104.895 147.367 104.769 146.653C104.692 146.219 104.797 145.748 104.699 145.321C103.817 141.481 102.957 137.634 101.98 133.817C101.553 132.15 101.729 130.71 102.512 129.169C103.454 127.319 104.174 125.346 104.876 123.385C105.276 122.26 104.988 121.985 103.838 121.774C101.131 121.273 98.4269 120.758 95.7303 120.198C95.0628 120.06 94.6962 120.171 94.6428 120.887C94.5698 121.847 94.0892 122.569 93.3808 123.17C92.4214 123.984 91.8963 125.034 91.8536 126.292C91.8038 127.757 92.1384 129.142 92.8895 130.407C93.4822 131.407 94.2512 132.329 94.6819 133.393C95.5185 135.45 97.229 136.621 98.7544 138.025C99.486 138.698 100.157 139.617 100.449 140.551C100.814 141.718 100.825 143.015 100.876 144.263C100.997 147.125 101.056 149.989 101.131 152.851C101.168 154.312 100.858 155.651 99.6747 156.634C98.9787 157.212 98.2062 157.312 97.4604 156.783C96.4743 156.083 95.4295 155.354 95.2711 154.028C95.1198 152.763 94.8065 151.487 95.9475 150.357C97.5103 148.806 97.3127 146.296 95.5968 144.788C94.6855 143.988 94.0501 143.058 93.8009 141.879C93.3167 139.591 91.9729 137.878 90.216 136.473C87.0905 133.975 84.4027 131.116 82.5516 127.514C82.427 127.272 82.1796 127.096 81.9251 126.822C81.4605 128.58 81.0386 130.158 80.6257 131.737C80.2394 133.212 79.604 134.54 78.4435 135.563C77.6105 136.297 76.571 136.695 75.6223 136.562C77.8757 135.442 79.709 134.093 80.0597 131.464C77.8258 133.443 74.6896 134.168 72.9844 136.839C72.9061 136.769 72.8295 136.697 72.7512 136.627C73.5629 135.715 74.3727 134.802 75.3339 133.722C74.4279 134.156 73.7017 134.502 72.9773 134.85C72.9417 134.777 72.9061 134.703 72.8705 134.63C74.0007 133.908 75.3535 133.442 75.9961 132.04C73.8014 132.236 71.7687 132.038 69.7645 131.425C71.8096 131.744 73.8263 131.92 75.4692 130.326C77.064 128.779 77.2883 126.768 77.2954 124.715C77.21 124.684 77.1263 124.652 77.0409 124.621C76.6831 125.714 76.3236 126.805 75.9658 127.898C75.9071 127.879 75.8465 127.859 75.7878 127.839C75.843 127.157 75.8982 126.475 75.9587 125.723C75.0812 126.062 75.0527 126.079 74.8925 127.295C74.7341 128.503 74.0719 129.327 73.0698 129.919C73.3582 129.379 73.7729 128.918 74.0577 128.386C74.3336 127.871 74.476 127.283 74.6985 126.669C72.9986 127.01 71.5177 127.308 70.035 127.606C70.0154 127.502 69.9976 127.396 69.9781 127.292C70.3501 127.229 70.7345 127.204 71.0923 127.096C72.0784 126.796 73.0574 126.473 74.031 126.138C74.5792 125.949 74.7412 125.515 74.5472 124.998C74.2446 124.194 74.0274 123.308 73.529 122.64C72.34 121.043 71.0229 119.539 69.7235 118.028C69.3017 117.537 68.7695 117.142 68.2871 116.702C68.223 117.921 68.9208 118.604 69.6577 119.276C68.1874 118.859 67.4594 117.792 67.1106 116.394C66.9593 115.785 66.8827 115.155 66.6887 114.563C66.5623 114.174 66.2882 113.831 66.08 113.469C65.9839 113.528 65.886 113.587 65.7898 113.646C65.441 117.616 68.1483 119.81 70.8235 122.027C67.0572 119.988 64.8643 116.815 64.9105 112.846C64.9248 111.561 65.0209 110.274 64.9657 108.993C64.8803 107.005 65.0387 105.059 65.6012 103.148C65.6741 102.902 65.6368 102.626 65.6635 102.143C64.0401 103.97 63.8426 105.962 63.8159 108.013C63.1146 105.994 63.6325 104.13 64.4762 102.292C62.1516 104.401 60.7401 106.759 62.4952 110.036C62.3901 110.03 62.2851 110.023 62.1801 110.018C61.7867 109.381 61.3934 108.744 61 108.108C61 107.331 61 106.552 61 105.775C61.1299 105.618 61.3151 105.479 61.3827 105.298C62.1196 103.285 63.5435 101.741 64.8821 100.153C65.9411 98.8952 66.7528 97.544 67.0892 95.9199C67.2583 95.1016 67.4114 94.278 67.6161 93.4686C68.1109 91.5018 68.9759 89.824 71.0816 89.169C72.6462 88.6808 74.1289 89.0039 75.5849 89.6194C76.0833 89.8293 76.5354 90.0088 77.0444 89.5314C78.8368 87.8464 80.8624 86.5149 83.1408 85.5745C83.5715 85.3969 83.9524 85.0828 84.3369 84.8029C86.3464 83.3368 88.4984 82.1631 90.9084 81.5117C92.2007 81.1618 93.2046 79.7675 92.9981 78.1129C92.6492 78.592 92.3004 79.0712 91.9497 79.5485C91.8856 79.4965 91.8216 79.4426 91.7575 79.3906C91.8874 78.9904 92.0174 78.5885 92.1989 78.0286C90.597 79.0461 89.351 80.3614 87.5301 80.5624C88.2545 80.0079 89.0662 79.579 89.7568 79.0048C90.4243 78.4503 90.9672 77.7432 91.5652 77.1044C91.4958 77.0362 91.4246 76.9662 91.3552 76.898C89.5041 78.3157 87.7152 79.8697 85.1895 79.8177C87.6405 79.0604 89.7141 77.7935 91.0971 75.5467C89.577 76.5212 88.057 77.4974 86.5369 78.4718C86.4604 78.3713 86.3838 78.2708 86.3055 78.1685C89.319 76.2394 91.8216 73.8617 93.331 70.3193C90.7927 72.1084 88.445 73.763 85.9976 75.4875C86.3785 74.9833 86.6544 74.4826 87.0549 74.1183C88.1299 73.1367 89.1837 72.1031 90.3816 71.2919C92.756 69.6822 94.164 67.3853 95.2818 64.8388C95.4099 64.5463 95.4562 64.2197 95.595 63.7101C94.3046 64.8191 93.2081 65.7594 92.1117 66.7015C92.0547 66.6334 91.9978 66.567 91.9408 66.4988C92.5531 65.8402 93.1654 65.1816 93.7795 64.5248C93.703 64.4494 93.6264 64.3759 93.5481 64.3005C92.6421 64.9914 91.7735 65.7415 90.8212 66.3606C89.2335 67.3942 88.0089 68.6468 87.7579 70.6369C87.7419 70.759 87.6618 70.872 87.5675 71.0927C86.8786 69.3216 88.0338 68.1802 88.6622 66.8649C87.3094 67.5432 86.4087 68.6145 85.7448 69.9245C86.1524 66.7374 88.8117 65.4203 91.0366 63.6598C90.5311 63.1933 90.0452 62.872 89.7337 62.4252C89.2584 61.7451 88.6871 61.8222 87.8078 62.4755C87.1261 62.9833 87.7099 63.4104 87.9876 63.8285C88.1602 64.0869 88.3738 64.3202 88.5678 64.5643C88.518 64.6199 88.4664 64.6755 88.4165 64.7294C88.0463 64.3848 87.5977 64.0941 87.3201 63.685C86.8235 62.9546 86.4087 63.1071 85.9175 63.6491C85.0578 64.5984 84.8887 65.6177 85.654 66.7572C84.6537 66.2942 84.6947 65.4723 84.6751 64.5589C84.3315 64.9842 83.9898 65.4113 83.6463 65.8366C83.8581 64.3687 84.6947 63.2938 85.7608 62.5239C87.0442 61.5979 87.0371 60.0708 87.9822 58.9115C86.4105 58.9223 86.1328 59.2794 86.0207 61.169C85.0845 60.6415 84.8993 60.0385 85.3176 59.1233C85.4689 58.7913 85.622 58.3678 85.5455 58.0394C85.2269 56.663 85.6914 55.4445 86.1578 54.2117C86.3002 53.8348 86.4248 53.4508 86.5618 53.056C86.617 53.1045 86.7541 53.248 86.7665 53.2373C88.073 52.1641 89.3724 51.0785 90.6699 49.9946C90.6397 49.9246 90.6094 49.8546 90.5809 49.7846C89.901 50.1238 89.1712 50.3894 88.5554 50.8218C87.9324 51.2579 87.4233 51.8573 86.8644 52.3849C86.9943 51.9416 87.2257 51.5755 87.5194 51.2723C88.8206 49.9228 90.4528 49.1834 92.2238 48.6864C92.9305 48.4872 93.6104 48.1929 94.3028 47.9416C94.2547 47.825 94.2049 47.7083 94.1568 47.5917C90.8782 47.9237 87.66 48.3921 85.533 51.5271C85.9353 50.7429 86.4319 50.0322 86.9427 49.3324C87.0976 49.1224 87.3735 48.9735 87.4607 48.7456C87.7971 47.8591 88.0801 46.9493 88.3578 46.122C87.5764 46.262 87.4233 46.4396 86.6562 48.3221C86.3215 47.2705 86.7772 46.5904 87.3628 46.0053C88.3062 45.0614 89.5308 44.6935 90.7981 44.4477C91.6169 44.288 92.4356 44.1355 93.2562 43.9793C93.2526 43.9004 93.2473 43.8232 93.2437 43.7442C92.8343 43.7084 92.425 43.6743 92.117 43.6473C94.9151 43.0031 97.7897 42.3391 100.792 41.6465C99.4771 40.3095 97.8627 39.572 96.1522 38.9744C97.8912 38.7124 99.26 39.6815 100.862 40.3203C100.598 39.6007 100.351 39.0318 100.182 38.4414C99.7014 36.7582 100.153 35.6348 101.617 34.6981C101.925 34.5007 102.19 34.2351 102.475 34C103.135 34.0072 103.786 34.0072 104.44 34.0072ZM132.182 134.457C133.985 135.748 135.827 136.988 137.564 138.366C137.967 138.685 138.009 139.468 138.212 140.038C138.397 140.553 138.435 141.219 138.785 141.558C139.702 142.445 140.526 143.329 140.654 144.675C140.66 144.724 140.791 144.758 140.864 144.801C141.359 143.76 141.252 142.791 140.451 142.03C139.312 140.946 138.874 139.695 138.985 138.095C139.06 136.997 138.887 135.814 138.542 134.764C137.717 132.273 136.292 130.113 134.553 128.155C133.214 126.648 131.933 125.086 130.621 123.556C130.498 123.414 130.329 123.312 130.171 123.182C129.793 123.73 129.501 124.259 129.11 124.7C128.07 125.872 127.828 127.297 127.784 128.776C127.728 130.691 128.405 132.184 130.226 133.068C130.947 133.418 131.555 134.01 132.214 134.491C131.707 134.21 131.196 133.931 130.69 133.644C129.891 133.189 129.512 133.323 129.199 134.165C129.117 134.384 129.056 134.649 128.896 134.791C128.241 135.369 128.223 135.782 128.923 136.385C130.544 137.781 132.153 139.193 133.821 140.53C134.245 140.869 134.87 140.957 135.405 141.153C135.64 141.239 135.982 141.226 136.103 141.389C136.808 142.335 137.337 142.516 138.202 142.175C137.956 141.341 137.557 140.544 137.532 139.737C137.513 139.064 137.397 138.588 136.886 138.195C135.873 137.416 134.857 136.643 133.855 135.853C133.285 135.401 132.739 134.922 132.182 134.457ZM124.601 134.615C124.523 134.701 124.443 134.786 124.364 134.872C124.779 135.294 125.156 135.762 125.616 136.128C127.586 137.702 127.67 137.957 126.858 140.284C126.379 141.659 126.337 143.001 127.024 144.354C127.328 144.952 127.383 145.671 127.623 146.308C127.759 146.669 127.978 147.179 128.268 147.272C129.708 147.733 130.55 148.844 131.331 150.001C131.824 150.732 132.212 151.545 132.557 152.359C132.944 153.271 132.556 154.053 131.849 154.71C133.164 154.62 134.371 154.538 135.578 154.455C135.589 154.574 135.598 154.69 135.608 154.809C133.693 155.374 131.708 155.493 129.736 155.511C129.556 156.749 129.726 156.934 130.838 156.849C131.132 156.828 131.443 156.79 131.719 156.864C131.906 156.914 132.153 157.131 132.178 157.302C132.203 157.474 132.032 157.756 131.867 157.858C131.655 157.991 131.352 158.075 131.109 158.037C129.192 157.747 127.495 158.854 125.626 158.915C125.329 158.924 124.864 159.457 124.813 159.799C124.761 160.139 125.046 160.654 125.342 160.891C125.662 161.145 126.16 161.249 126.589 161.275C129.745 161.465 132.903 161.621 136.059 161.784C136.621 161.813 137.192 161.775 137.744 161.867C141.356 162.461 144.958 162.1 148.563 161.802C148.753 161.786 148.938 161.678 149.125 161.614C149.111 161.563 149.097 161.515 149.082 161.465C147.876 161.355 146.671 161.246 145.464 161.136C145.471 161.022 145.476 160.907 145.483 160.79C145.985 160.79 146.485 160.781 146.987 160.792C147.742 160.806 148.522 160.97 149.248 160.833C151.475 160.413 153.678 160.293 155.953 160.501C158.659 160.749 161.393 160.716 164.114 160.756C164.481 160.761 164.851 160.474 165.426 160.237C164.208 159.582 162.934 159.604 162.254 158.265C163.354 158.114 164.351 157.976 165.453 157.826C165.294 157.382 165.17 157.036 165.017 156.607C166.179 156.35 167.263 155.782 168.37 156.79C168.665 157.059 169.26 157.158 169.682 157.095C171.727 156.795 173.76 156.415 175.794 156.058C175.915 156.036 176.025 155.95 176.344 155.796C175.653 155.554 175.118 155.455 174.687 155.186C174.299 154.942 173.838 154.554 173.745 154.152C173.583 153.438 173.219 153.131 172.571 153.022C172.161 152.952 171.752 152.882 171.35 152.781C170.481 152.564 170.127 151.963 170.367 151.094C170.525 150.52 170.812 149.969 170.88 149.388C170.921 149.041 170.753 148.483 170.495 148.322C169.502 147.699 168.434 147.198 167.38 146.646C167.179 146.988 167.049 147.211 166.926 147.421C165.67 147.096 164.913 146.436 164.536 145.102C164.255 144.108 163.714 143.398 162.847 142.911C160.467 141.574 158.103 140.205 155.688 138.933C154.495 138.305 153.685 137.569 153.945 136.087C154.102 135.193 153.652 134.726 152.849 134.411C151.637 133.933 150.446 133.393 149.276 132.817C148.532 132.451 148.362 131.821 148.828 131.1C149.492 130.073 150.166 129.056 150.862 128.053C151.484 127.157 152.137 126.285 152.826 125.334C152.087 124.873 151.443 124.508 150.839 124.085C148.748 122.619 146.434 121.372 144.657 119.584C142.997 117.914 141.32 117.382 139.136 117.643C138.045 117.772 136.925 117.666 135.865 117.666C136.534 119.211 137.271 120.517 137.675 121.921C138.771 125.72 139.916 129.468 142.118 132.817C142.771 133.811 143.061 135.046 143.545 136.158C143.695 136.503 143.889 136.86 144.15 137.119C145.241 138.192 145.581 139.444 145.065 140.883C144.786 141.662 144.983 142.247 145.483 142.854C146.685 144.304 147.806 145.806 148.187 147.728C148.244 148.013 148.44 148.268 148.525 148.551C148.897 149.8 149.369 151.037 149.558 152.315C149.636 152.848 149.237 153.614 148.815 154.023C148.285 154.54 147.539 154.872 146.836 155.157C145.118 155.855 143.378 155.76 141.794 154.827C141.252 154.507 140.713 153.761 140.637 153.151C140.482 151.9 140.576 150.604 140.688 149.337C140.79 148.18 140.665 147.896 139.567 147.649C137.292 147.136 135.891 145.553 134.882 143.588C134.66 143.154 135.085 142.351 134.836 141.967C134.537 141.508 133.714 141.424 133.325 140.988C130.939 138.321 127.894 136.573 124.92 134.723C124.827 134.662 124.708 134.649 124.601 134.615ZM100.13 85.0308C100.043 85.0685 99.9559 85.1062 99.8669 85.142C98.1938 83.274 97.2095 81.0218 96.5473 78.5867C95.7107 78.6889 95.4081 79.3081 95.3494 79.9002C95.1643 81.7612 94.9258 83.6418 95.0183 85.4992C95.1821 88.7329 95.7303 91.9092 97.537 94.7122C97.6099 94.8235 97.5779 95.0047 97.5939 95.1537C97.5281 95.1896 97.4622 95.2255 97.3964 95.2613C96.59 94.2331 95.7837 93.2066 95.0077 92.216C94.6641 94.059 97.3287 99.5233 98.9769 100.15C99.6035 98.8253 98.5391 97.7324 98.5231 96.4673C100.559 97.657 100.339 100.18 101.732 101.743C101.517 101.822 101.401 101.831 101.296 101.801C100.463 101.555 100.093 101.863 100.326 102.698C100.485 103.265 100.716 103.85 101.063 104.313C101.261 104.577 101.759 104.611 102.122 104.747C102.156 104.419 102.232 104.087 102.209 103.764C102.186 103.448 102.058 103.139 101.946 102.709C102.797 103.064 103.482 103.315 104.135 103.633C104.703 103.909 104.511 104.255 104.085 104.467C103.265 104.876 103.35 105.429 103.745 106.084C103.87 106.292 103.948 106.529 104.082 106.832C101.941 106.179 101.803 106.213 101.472 107.295C102.014 107.71 102.51 108.089 103.005 108.473C103.357 108.745 103.683 109.058 104.057 109.298C105.474 110.204 106.889 109.621 107.225 107.974C107.428 106.981 107.64 105.976 107.69 104.97C107.77 103.346 107.718 101.716 107.722 100.089C107.722 99.762 107.722 99.4354 107.722 98.9868C107.989 99.1501 108.186 99.1985 108.217 99.3008C108.647 100.706 109.21 102.097 109.415 103.538C109.561 104.566 109.181 105.664 109.121 106.736C109.107 107.005 109.365 107.468 109.589 107.538C110.39 107.787 111.232 107.904 111.899 108.038C113.61 107.089 114.907 105.862 115.192 103.715C115.717 104.04 116.095 104.255 116.451 104.498C117.33 105.097 118.131 105.815 119.304 105.813C120.605 105.811 120.776 105.68 120.797 104.338C120.801 104.076 120.833 103.816 120.86 103.446C122.627 103.861 122.009 102.07 122.679 101.456C124.38 102.283 125.206 102.02 125.233 100.534C125.26 99.1142 125.044 97.6857 124.85 96.2717C124.788 95.8141 124.457 95.3941 124.249 94.9563C124.19 94.9778 124.131 94.9976 124.072 95.0191C123.923 95.8535 123.773 96.6862 123.626 97.5206C123.531 97.5117 123.437 97.5027 123.343 97.4937C123.243 97.1564 123.092 96.8262 123.053 96.4834C122.882 94.9652 122.227 93.7127 121.208 92.5911C120.806 92.1496 120.516 91.5431 120.349 90.9617C120.053 89.937 119.966 88.8513 119.653 87.8338C119.293 86.6674 118.688 85.6212 117.592 84.8603C117.517 86.1954 117.789 87.4606 117.253 88.6414C116.962 87.1896 116.878 85.7163 115.824 84.4673C115.662 84.7185 115.548 84.8944 115.379 85.1546C114.754 83.5001 114.687 81.7091 113.201 80.4207C112.852 83.7459 113.176 87.003 112.115 90.1093C111.917 89.5261 111.919 88.9518 111.917 88.3776C111.915 87.195 112.028 85.9998 111.887 84.8334C111.421 80.9483 110.442 77.2049 108.43 73.8114C108.158 73.352 107.658 73.029 107.263 72.6414C107.131 72.6917 106.997 72.7437 106.866 72.7939C106.762 73.9729 106.657 75.152 106.554 76.3309C106.481 76.3615 106.406 76.392 106.333 76.4225C106.018 75.972 105.705 75.5198 105.315 74.9617C105.315 75.3063 105.28 75.5162 105.321 75.71C105.709 77.5135 106.102 79.317 106.511 81.1169C106.727 82.0662 106.86 83.0568 107.234 83.9415C108.218 86.2726 109.361 88.5373 110.344 90.8702C110.735 91.8015 110.872 92.8405 111.125 93.8311C111.033 93.8796 110.94 93.928 110.847 93.9765C110.636 93.8114 110.395 93.6714 110.216 93.4758C109.833 93.0595 109.496 92.6019 109.114 92.1855C106.627 89.483 105.299 86.3121 105.433 82.6064C105.513 80.3579 104.625 78.3803 103.907 76.3184C103.797 76.8442 103.688 77.37 103.578 77.894C103.233 77.7361 103.089 77.6086 103.058 77.4579C102.782 76.0546 102.391 74.6585 102.293 73.2408C102.133 70.9187 102.158 68.584 102.131 66.2529C102.129 66.0376 102.305 65.8204 102.4 65.6033C102.548 65.7612 102.772 65.894 102.829 66.0806C103.382 67.8411 103.911 69.6087 104.44 71.3763C104.518 71.6365 104.564 71.9075 104.625 72.173C104.735 72.1551 104.844 72.1372 104.954 72.1192C104.762 70.5598 104.632 68.9878 104.363 67.4427C103.984 65.2695 103.366 63.1322 103.099 60.9483C102.775 58.2924 103.292 55.7316 104.486 53.3001C105.07 52.1103 105.65 50.8811 105.369 49.4454C105.298 49.0794 105.419 48.5733 105.641 48.2718C106.104 47.6419 106.693 47.1054 107.231 46.5311C107.191 46.4558 107.152 46.3786 107.113 46.3032C106.519 46.4324 105.926 46.5598 105.298 46.6962C105.454 47.0892 105.55 47.3279 105.605 47.4679C105.228 47.9057 104.596 48.3382 104.657 48.6182C104.87 49.6034 104.246 49.781 103.626 50.0789C102.661 50.5401 102.104 51.8483 102.442 52.8514C103.797 52.5177 103.808 50.89 104.926 50.0107C104.982 51.2166 104.539 51.947 104.032 52.6415C103.297 53.6464 102.731 54.6944 102.742 56.0026C102.745 56.3346 102.492 56.6684 102.357 57.0022C102.259 56.9752 102.163 56.9501 102.065 56.9232C102.021 56.611 102.024 56.2826 101.921 55.9901C101.8 55.6491 101.588 55.3422 101.415 55.021C101.108 55.2238 100.679 55.353 100.513 55.6401C99.8153 56.8532 99.1692 58.1004 98.5569 59.3602C98.2596 59.9721 97.9837 60.6235 97.8591 61.2875C97.0493 65.6428 97.0546 70.0232 97.5067 74.4162C97.6633 75.9308 97.6171 77.4902 97.9748 78.951C98.3913 80.6468 99.1532 82.2565 99.7583 83.9074C99.899 84.2753 100.009 84.6557 100.13 85.0308ZM74.3603 99.1267C74.2588 99.1483 74.1556 99.168 74.0541 99.1896C74.2392 101.106 74.3104 103.042 74.6397 104.934C75.0278 107.164 75.2058 109.338 74.7839 111.597C74.4422 113.429 74.6807 115.299 75.4514 117.032C75.9569 118.168 76.8237 119.008 77.7564 119.764C77.8169 119.713 77.8792 119.665 77.9398 119.615C77.6372 119.024 77.3346 118.432 76.9608 117.702C78.488 118.064 79.4741 118.947 79.766 120.176C80.0045 121.181 80.5118 121.982 81.2665 122.655C81.4872 122.85 81.7275 123.058 81.8592 123.313C82.548 124.648 83.3668 125.734 85.145 125.169C85.2589 126.274 84.3582 126.342 83.8314 126.771C83.9079 127.001 83.9435 127.247 84.061 127.442C85.8409 130.438 87.8078 133.262 90.8889 135.08C92.0458 135.764 93.0907 136.544 93.7261 137.822C94.4826 139.34 95.3654 140.796 96.1931 142.278C96.7342 143.245 97.5103 143.911 98.6299 144.013C98.9627 144.044 99.4433 143.913 99.6302 143.676C99.8278 143.424 99.753 142.958 99.8135 142.461C98.6156 143.064 97.6687 142.892 96.8552 142.254C96.5028 141.98 96.3515 141.442 96.1095 141.023C96.2038 140.941 96.2963 140.858 96.3907 140.774C96.8357 140.964 97.27 141.183 97.7274 141.337C98.265 141.52 98.8844 141.533 99.0392 140.889C99.2511 140.001 98.1279 139.136 96.9798 139.424C97.3697 139.911 97.7007 140.325 98.1119 140.839C97.1525 140.901 96.3853 140.634 96.0489 139.922C95.8247 139.448 96.0383 138.764 96.0525 138.174C96.0596 137.854 96.1949 137.429 96.0436 137.235C95.4402 136.471 94.8047 135.708 94.0661 135.085C93.484 134.595 93.0479 134.222 93.2028 133.339C93.2776 132.916 92.9518 132.386 92.724 131.952C92.3235 131.188 91.8198 130.479 91.4246 129.713C90.4207 127.764 89.4524 125.797 88.4503 123.798C88.3631 123.81 88.146 123.843 87.7864 123.897C87.9466 123.329 88.0997 122.886 88.1958 122.43C88.299 121.939 88.502 121.395 88.3845 120.948C88.267 120.505 87.6832 119.769 87.5159 119.823C86.4248 120.178 86.5867 119.432 86.4817 118.831C86.2948 117.761 85.6113 117.05 84.6413 116.706C83.8403 116.422 83.0037 116.39 82.395 117.219C82.3131 117.33 82.0105 117.429 81.9607 117.381C81.8361 117.255 81.6865 116.988 81.7417 116.876C81.9785 116.408 82.2419 115.934 82.5801 115.538C83.1799 114.834 83.4042 114.089 83.0019 113.23C82.8008 112.799 82.5908 112.351 82.2864 111.997C80.542 109.966 79.1697 107.726 78.3224 105.165C77.6799 103.224 76.53 101.51 76.1295 99.4318C75.576 96.557 76.482 94.1362 77.8632 91.771C77.9718 91.5844 78.1872 91.4606 78.3527 91.308C78.4542 91.6597 78.3972 91.9253 78.3011 92.1784C78.1338 92.6234 77.9148 93.0523 77.7653 93.5027C76.6867 96.7795 77.0605 100.029 78.2566 103.15C78.908 104.851 79.8799 106.461 80.9069 107.974C81.7346 109.192 83.7798 110.039 84.8175 109.89C82.7563 107.873 80.8001 105.827 80.9176 102.436C81.4071 102.736 81.6972 102.924 81.998 103.094C83.9079 104.182 86.1364 102.98 86.1702 100.808C86.1862 99.7351 86.1168 98.6566 86.0154 97.587C85.7359 94.6799 85.2091 91.7764 86.4746 88.9357C86.6437 88.5552 86.5066 87.7459 86.2183 87.5252C85.9139 87.2937 85.2482 87.4785 84.7605 87.579C84.3992 87.6526 84.0681 87.8823 83.7246 88.042C83.6925 87.9882 83.6605 87.9325 83.6285 87.8787C83.8492 87.4857 84.0681 87.0927 84.3867 86.5238C82.4929 86.4879 81.1294 87.396 79.8621 88.2825C75.9088 91.0496 74.1538 94.8235 75.309 99.7871C75.1363 99.8697 74.9637 99.9522 74.7892 100.033C74.6415 99.7351 74.5009 99.4318 74.3603 99.1267ZM205.695 106.888C205.377 106.741 205.135 106.692 204.982 106.547C204.202 105.819 203.401 105.104 202.691 104.309C201.561 103.044 200.532 101.686 199.391 100.43C198.289 99.2183 196.963 98.3659 195.309 98.0429C193.216 97.6355 191.175 97.928 189.135 98.3461C184.938 99.2039 180.693 99.6615 176.419 99.6292C174.085 99.6113 171.755 99.2595 169.425 99.046C168.514 98.9634 168.179 99.3385 168.527 100.186C169.577 102.746 169.612 105.28 168.439 107.809C168.345 108.013 168.318 108.25 168.217 108.643C168.751 108.643 169.182 108.663 169.611 108.64C172.044 108.503 174.399 108.871 176.681 109.731C177.83 110.165 178.968 110.42 180.162 109.522C180.018 110.025 179.874 110.527 179.73 111.03C179.801 111.087 179.87 111.146 179.941 111.204C180.475 110.725 181.077 110.303 181.531 109.757C182.624 108.444 183.991 107.778 185.666 107.559C186.401 107.464 187.163 107.172 187.791 106.773C188.391 106.391 188.848 106.262 189.491 106.619C190.217 107.023 190.954 107.125 191.509 106.253C191.605 106.102 191.963 105.946 192.079 106.011C193.284 106.694 194.557 106.459 195.824 106.364C196.49 106.314 197.008 106.572 197.202 107.242C197.381 107.861 197.798 108.115 198.353 108.356C198.99 108.632 199.638 108.993 200.131 109.474C201.578 110.886 202.951 112.376 204.353 113.835C204.457 113.941 204.574 114.034 204.692 114.125C206.016 115.145 206.92 116.421 207.143 118.127C207.173 118.355 207.264 118.576 207.393 119.033C207.62 118.522 207.79 118.222 207.888 117.899C208.518 115.853 208.465 113.775 208.15 111.685C207.979 110.543 207.673 109.393 207.707 108.257C207.76 106.475 208.205 104.699 208.207 102.92C208.21 100.234 207.986 97.5458 207.835 94.8594C207.801 94.2456 207.666 93.6391 207.577 93.029C207.493 93.0397 207.41 93.0505 207.326 93.0613C206.5 96.6718 206.658 100.311 207.223 103.959C207.15 103.97 207.078 103.983 207.005 103.993C206.742 103.231 206.477 102.468 206.213 101.705C206.146 101.725 206.076 101.747 206.009 101.766C206.092 102.761 206.178 103.757 206.267 104.819C205.984 104.754 205.804 104.711 205.549 104.654C205.601 105.399 205.644 106.072 205.695 106.888ZM151.176 87.2075C150.339 87.4947 149.567 87.8643 148.757 88.0007C148.159 88.1012 147.897 88.2089 147.851 88.8818C147.79 89.7701 147.653 90.8055 146.607 91.0442C145.669 91.2578 144.665 91.1824 143.691 91.2362C143.67 91.1322 143.648 91.0281 143.627 90.924C144.168 90.2259 145.494 90.2923 145.528 89.291C144.636 89.7773 143.682 90.3121 142.712 90.8181C141.934 91.2237 141.185 91.6418 140.961 92.5929C140.754 93.474 141.085 94.2277 141.811 94.5453C142.568 94.8755 143.066 94.6799 143.579 93.7396C143.889 93.1707 144.227 93.1133 144.713 93.4704C145.893 94.3336 146.651 95.4623 146.911 96.9231C147.103 98.0106 147.288 99.0998 147.52 100.178C147.714 101.085 148.255 101.623 149.218 101.75C150.143 101.872 150.136 102.018 149.819 102.935C149.595 103.586 149.389 104.322 149.467 104.986C149.68 106.788 150.067 108.566 150.352 110.359C150.535 111.504 151.514 112.352 152.616 112.094C153.527 111.88 154.308 111.091 155.359 111.502C155.378 111.509 155.417 111.484 155.437 111.464C155.912 110.994 156.386 111.204 156.907 111.405C157.493 111.631 158.18 112.045 158.703 111.371C159.248 110.669 158.655 110.093 158.319 109.513C158.288 109.461 158.26 109.402 158.214 109.37C156.934 108.48 157.452 106.967 156.923 105.901C157.801 105.747 158.655 105.749 159.367 105.427C160.045 105.122 160.337 105.174 160.7 105.806C161.328 106.902 161.957 106.978 163.059 106.351C163.429 106.142 163.952 106.052 164.372 106.12C165.138 106.244 165.511 105.932 165.65 105.246C165.762 104.692 165.769 104.114 165.898 103.565C166.031 102.992 166.175 102.396 166.458 101.892C166.807 101.275 167.151 101.339 167.451 101.976C167.564 102.213 167.681 102.448 167.797 102.685C167.864 102.658 167.932 102.633 168 102.606C167.831 100.867 167.663 99.1285 167.494 97.3896C167.398 97.4578 167.302 97.5242 167.206 97.5924C166.925 97.4022 166.617 97.2407 166.369 97.011C166.133 96.7921 165.967 96.496 165.755 96.2483C165.294 95.7046 164.935 95.8212 164.593 96.4027C164.068 97.2963 163.1 97.5476 161.989 97.0756C162.361 96.4188 163.664 96.4027 163.276 95.1537C161.377 95.5 160.681 94.1936 160.266 92.8585C159.524 92.8172 158.959 92.7849 158.226 92.7436C158.897 93.5763 159.5 94.3282 160.15 95.1339C159.933 95.1788 159.867 95.2147 159.823 95.1985C159.575 95.1016 159.317 95.0155 159.089 94.8827C155.798 92.9518 152.238 91.3044 151.176 87.2075ZM111.94 66.567C111.855 66.7015 111.771 66.8379 111.686 66.9725C110.758 66.7105 109.831 66.4485 108.784 66.1524C108.877 66.5095 108.895 66.8128 109.027 67.0533C109.94 68.7222 110.92 70.3552 111.785 72.0492C112.223 72.9034 112.478 73.8563 112.789 74.7715C112.93 75.1878 113.008 75.6257 113.124 76.0833C114.187 75.326 114.359 76.7293 115.153 76.8729C114.87 76.182 114.633 75.6042 114.397 75.0281C114.48 74.9546 114.562 74.8792 114.646 74.8056C115.032 75.0389 115.418 75.2704 115.854 75.5342C115.99 75.2596 116.061 74.9276 116.264 74.7536C116.552 74.5077 116.924 74.3301 117.289 74.2224C117.426 74.1829 117.641 74.4216 117.823 74.5328C117.72 74.6908 117.65 74.9312 117.506 74.9904C116.946 75.2201 116.901 75.6042 117.143 76.069C117.462 76.6809 117.463 77.1277 116.486 77.2121C117.796 77.6194 118.523 78.2547 118.567 79.6006C118.578 79.9074 119.29 80.2915 119.742 80.426C119.902 80.4745 120.331 79.9236 120.488 79.5772C120.639 79.2417 120.625 78.8164 120.639 78.4305C120.674 77.422 121.077 76.706 122.111 76.4691C122.679 76.3399 122.983 75.9846 123.01 75.4032C123.033 74.8989 123.136 74.3695 123.026 73.8922C122.65 72.2664 122.351 70.5975 121.744 69.056C120.178 65.0793 119.24 60.9752 118.884 56.7258C118.863 56.4692 118.968 56.2036 118.978 55.9416C119 55.4338 119.037 54.9205 118.994 54.4163C118.957 53.9802 118.822 53.5513 118.722 53.1206C118.485 52.1103 118.321 51.0713 117.978 50.0986C117.714 49.3503 116.828 49.1099 116.299 49.4867C114.781 50.5706 114.719 50.8649 115.635 52.5697C115.748 52.7797 115.862 52.9896 115.986 53.1942C116.992 54.8452 117.809 56.541 117.657 58.5724C117.611 59.1861 117.837 59.816 117.852 60.4405C117.884 61.9174 117.862 63.3942 117.862 64.8711C117.656 64.8029 117.597 64.733 117.577 64.654C117.115 62.7787 116.889 60.8209 115.648 59.2202C115.527 59.0623 115.607 58.7608 115.523 58.5562C115.424 58.3158 115.255 57.9228 115.103 57.9174C114.373 57.8905 114.046 57.5208 113.891 56.846C113.85 56.6666 113.549 56.3938 113.427 56.4225C113.217 56.4728 112.917 56.7061 112.893 56.8945C112.791 57.6554 112.706 58.4324 112.752 59.1951C112.816 60.2592 112.999 61.318 113.144 62.3768C113.176 62.6065 113.249 62.8308 113.313 63.0551C113.642 64.1964 113.993 65.3341 114.292 66.4844C114.35 66.7087 114.215 66.9833 114.13 67.4499C113.879 67.0999 113.761 66.9743 113.686 66.8272C113.257 65.9819 112.78 65.1529 112.435 64.2736C112.173 63.606 112.04 62.8756 111.939 62.1596C111.89 61.824 112.045 61.458 112.122 61.1062C112.396 59.8375 112.173 59.4104 110.968 58.8756C110.561 58.6962 110.157 58.5096 109.76 58.3068C107.976 57.3916 107.117 55.1843 107.761 53.1942C108.71 54.3858 109.438 54.7823 110.434 54.6065C110.278 54.5096 110.148 54.445 110.038 54.3588C109.31 53.7828 109.35 53.4741 110.159 53.0058C110.321 52.9125 110.45 52.6522 110.474 52.4531C110.527 52.0098 110.463 51.5522 110.527 51.1126C110.559 50.8918 110.748 50.5491 110.906 50.5257C111.157 50.4863 111.625 50.6083 111.675 50.7662C111.798 51.152 111.789 51.6078 111.723 52.0152C111.677 52.3041 111.445 52.5607 111.278 52.8694C112.248 53.0273 112.654 52.7797 112.595 51.9972C112.528 51.082 112.312 50.1794 112.15 49.2714C112.077 48.8622 112.412 48.2377 111.6 48.2036C110.871 48.1731 110.087 47.956 109.822 49.0148C109.671 49.6177 109.482 50.2296 109.199 50.7788C108.717 51.7173 108.338 51.816 107.387 51.4086C106.155 53.3736 105.794 57.3934 106.736 58.5778C106.794 58.0968 106.853 57.6069 106.912 57.117C107.019 57.1116 107.124 57.1062 107.231 57.1027C107.371 57.4723 107.526 57.8384 107.651 58.2153C107.791 58.6388 107.948 58.8613 108.382 58.4593C108.526 58.3265 108.804 58.3409 109.019 58.287C109.003 58.5329 109.085 58.8756 108.955 59.0084C108.339 59.6419 108.756 59.9972 109.242 60.3597C109.552 60.5912 109.89 60.7904 110.169 61.0542C110.878 61.7271 111.364 62.5311 111.467 63.5378C111.082 63.2363 110.837 62.8236 110.493 62.5221C109.9 62.0017 109.279 61.4939 108.606 61.0883C108.074 60.7653 107.779 61.0793 107.763 61.6697C107.74 62.5006 108.071 62.689 109.374 62.4449C109.327 64.3364 110.746 65.3808 111.94 66.567ZM101.318 116.893C100.958 115.968 100.72 115.17 100.349 114.439C99.4522 112.666 99.1407 110.762 99.1158 108.817C99.0802 105.962 98.2276 103.358 96.93 100.869C96.8392 100.693 96.6879 100.548 96.5651 100.388C96.5972 101.02 96.7894 101.544 96.9816 102.068C97.1721 102.588 97.359 103.112 97.5476 103.633C97.464 103.658 97.3821 103.685 97.2985 103.71C94.2423 99.0711 91.875 94.1595 91.6489 88.4009C91.5012 88.4278 91.3517 88.4547 91.2039 88.4816C91.284 90.0716 91.3659 91.6633 91.4567 93.4471C90.4635 92.4404 90.063 91.3367 90.022 90.1506C89.9829 89.0056 90.1466 87.8536 90.2374 86.4718C89.3457 87.6992 88.5482 88.7975 87.7508 89.8939C87.8523 89.9783 87.952 90.0626 88.0534 90.147C88.3079 89.7342 88.5643 89.3197 88.8188 88.9069C88.9487 88.9805 89.0769 89.0523 89.2068 89.1259C89.2068 89.6158 89.2015 90.1075 89.2086 90.5974C89.2228 91.5503 89.0822 92.5426 89.2923 93.4507C89.885 96.0115 90.6539 98.5238 92.0725 100.778C92.2256 101.022 92.2772 101.329 92.4374 101.775C91.8732 101.522 91.5172 101.363 91.1594 101.203C91.0811 101.262 91.0028 101.32 90.9262 101.379C91.3356 102.22 91.7432 103.064 92.19 103.983C91.0882 104.108 91.0847 104.794 91.3517 105.487C92.1811 107.647 93.6709 109.194 95.7962 110.093C95.9332 110.152 96.2234 110.138 96.2714 110.057C96.3533 109.915 96.3604 109.67 96.2963 109.512C96.0685 108.961 95.7944 108.43 95.5416 107.889C95.1839 107.127 94.8297 106.364 94.4292 105.504C95.7944 105.774 98.1422 110.07 97.8841 111.376C97.5441 111.398 96.9959 111.353 96.9692 111.45C96.8552 111.877 96.8552 112.347 96.8855 112.797C96.9033 113.065 97.0582 113.323 97.1739 113.65C96.1361 113.399 95.2747 113.19 94.4114 112.982C94.3669 113.102 94.3224 113.223 94.2779 113.343C95.8852 115.726 98.2578 116.684 101.318 116.893ZM110.611 117.826C110.57 117.734 110.554 117.639 110.5 117.58C108.74 115.642 106.654 114.136 104.36 112.916C104.116 112.787 103.763 112.726 103.503 112.794C103.16 112.885 102.695 113.068 102.581 113.339C102.473 113.603 102.649 114.107 102.866 114.36C103.206 114.757 103.56 115.046 103.313 115.66C103.24 115.841 103.43 116.169 103.567 116.39C103.815 116.79 104.114 117.16 104.416 117.578C104.221 117.713 104.046 117.833 103.681 118.086C104.356 118.784 104.91 119.475 105.588 120.004C105.892 120.243 106.657 120.358 106.837 120.167C107.108 119.882 107.168 119.259 107.102 118.813C106.955 117.806 107.282 117.329 108.297 117.427C109.051 117.503 109.794 117.682 110.611 117.826ZM171.75 122.111C171.255 122.526 170.871 122.843 170.492 123.166C170.02 123.566 169.593 125.104 169.856 125.664C170.463 126.954 170.545 128.291 170.378 129.684C170.175 131.372 171.017 131.613 172.421 131.853C173.274 131.999 173.971 130.99 173.914 129.817C173.89 129.314 173.795 128.806 173.656 128.324C173.329 127.177 172.953 126.045 172.603 124.905C172.323 124.004 172.051 123.103 171.75 122.111ZM215.295 126.664C215.439 127.17 215.426 127.758 215.706 127.992C216.491 128.647 217.397 129.154 218.23 129.704C218.499 128.196 217.315 126.405 215.661 125.915C212.712 125.041 209.761 124.175 206.815 123.286C205.786 122.976 204.798 122.608 204.36 121.438C204.271 121.199 203.816 121.097 203.529 120.934C203.357 121.251 203.043 121.567 203.036 121.888C203.013 122.85 203.634 123.439 204.464 123.731C205.998 124.27 207.559 124.731 209.109 125.226C209.453 125.336 209.795 125.451 210.136 125.564C210.119 125.635 210.103 125.705 210.085 125.777C209.403 125.731 208.721 125.686 208.038 125.639C208.025 125.725 208.013 125.809 207.999 125.896C209.12 126.655 210.428 126.705 211.735 126.716C212.952 126.725 214.17 126.682 215.295 126.664ZM128.093 103.977C126.904 104.887 125.888 105.635 124.911 106.434C124.699 106.608 124.505 106.969 124.519 107.233C124.592 108.568 124.094 109.677 123.346 110.723C123.158 110.987 123.061 111.319 122.894 111.681C123.35 111.757 123.659 111.807 124.04 111.87C123.88 112.839 124.443 113.375 125.099 113.899C125.559 114.265 125.959 114.718 126.347 115.164C127.159 116.096 127.944 117.05 128.782 118.045C128.839 117.872 128.878 117.815 128.871 117.765C128.853 117.648 128.818 117.533 128.779 117.42C128.166 115.66 126.557 114.355 126.495 112.342C125.076 110.136 125.71 107.997 126.721 105.883C126.869 105.574 127.162 105.336 127.536 104.889C127.615 105.546 127.623 105.937 127.718 106.305C127.775 106.529 127.921 106.822 128.104 106.902C128.691 107.159 129.314 107.329 130.224 107.633C129.428 106.267 128.731 105.07 128.093 103.977ZM147.367 148.826C147.272 148.788 147.176 148.749 147.082 148.711C145.863 149.614 144.533 149.946 143.057 149.673C142.94 149.651 142.627 149.996 142.621 150.177C142.586 151.247 142.593 152.32 142.639 153.389C142.65 153.621 142.828 153.91 143.015 154.059C144.106 154.92 146.208 154.877 147.258 153.971C147.463 153.795 147.694 153.485 147.683 153.248C147.616 151.773 147.48 150.299 147.367 148.826ZM145.257 84.5588C145.304 84.6575 145.352 84.7544 145.398 84.8531C146.941 84.4709 148.522 84.2035 150.015 83.6795C151.772 83.064 153.42 82.0321 154.387 80.444C156.063 77.6894 157.47 74.7661 158.988 71.9128C158.936 71.8626 158.883 71.8123 158.831 71.7621C155.17 76.959 151.156 81.7773 145.257 84.5588ZM140.934 86.6566C139.526 87.0712 138.141 87.6849 136.703 87.8589C134.158 88.1676 131.582 88.2179 129.017 88.3578C128.488 88.3865 127.946 88.2663 127.429 88.3471C126.655 88.4691 126.303 89.0918 126.698 89.7145C127.187 90.4861 126.856 90.6961 126.173 90.8361C125.973 90.8773 125.778 90.9635 125.592 91.0532C124.824 91.4283 124.752 91.9343 125.439 92.4565C125.733 92.679 126.116 92.8405 126.481 92.8998C127.161 93.011 127.572 92.7239 127.479 91.954C127.431 91.5521 127.374 91.1519 127.331 90.8379C128.497 90.6656 129.615 90.583 130.688 90.321C132.374 89.9101 134.019 89.3251 135.704 88.9087C137.582 88.4458 139.398 87.8787 140.934 86.6566ZM121.415 124.772C122.716 123.06 122.499 119.945 121.103 118.276C119.806 116.724 119.742 116.733 117.951 117.607C117.346 117.901 117.22 118.185 117.595 118.759C118.508 120.153 119.389 121.569 120.281 122.976C120.642 123.545 121 124.115 121.415 124.772ZM213.264 81.169C213.662 81.6912 213.994 82.1613 214.364 82.5974C214.593 82.8666 214.835 83.3062 215.247 82.732C215.329 82.6172 215.656 82.5615 215.8 82.6297C217.11 83.2542 218.591 83.588 219.262 85.1779C219.695 86.2044 220.165 87.4121 220.992 88.0276C222.477 89.1313 224.242 89.8509 225.892 90.7302C225.962 90.6387 226.03 90.5489 226.099 90.4574C225.779 90.2008 225.439 89.9639 225.141 89.6822C223.272 87.8984 221.434 86.0824 219.542 84.3237C218.135 83.0155 216.713 81.7163 215.209 80.5265C214.147 79.6867 213.643 79.9451 213.264 81.169ZM176.875 136.824C176.636 136.16 176.332 135.511 176.177 134.827C176.015 134.106 176.04 133.343 175.897 132.616C175.787 132.053 175.705 131.444 174.977 131.22C174.219 130.988 174.007 131.599 173.624 131.968C173.518 132.072 173.402 132.166 173.302 132.277C172.499 133.172 172.473 133.479 173.08 134.518C173.215 134.75 173.393 134.985 173.43 135.238C173.628 136.607 174.667 137.092 175.744 137.542C176.652 137.922 176.782 137.827 176.875 136.824ZM105.264 139.372C105.098 139.859 104.942 140.096 104.952 140.322C105.063 142.38 105.201 144.437 105.342 146.495C105.354 146.667 105.445 146.836 105.504 147.005C105.922 148.214 106.004 148.246 107.156 147.701C107.261 147.651 107.38 147.609 107.494 147.606C108.436 147.575 108.364 147.076 108.094 146.402C107.567 145.079 107.077 143.74 106.588 142.402C106.383 141.842 106.257 141.253 106.033 140.702C105.876 140.311 105.613 139.963 105.264 139.372ZM140.393 104.453C141.514 105.472 142.607 106.456 143.687 107.452C144.371 108.081 145.167 108.32 146.058 108.114C146.471 108.019 146.909 107.785 146.569 107.238C145.482 105.492 142.997 103.708 140.393 104.453ZM66.8827 103.532C66.945 102.861 66.986 102.411 67.0376 101.836C65.5745 104.555 65.069 109.58 67.2868 111.658C67.091 111.137 66.9272 110.705 66.7635 110.274C66.8685 110.265 66.9735 110.256 67.0785 110.246C67.1123 109.883 67.2441 109.494 67.1586 109.162C66.9094 108.202 66.8845 107.272 67.0945 106.339C67.1782 106.317 67.2619 106.296 67.3473 106.273C67.5377 106.561 67.73 106.85 68.013 107.281C68.013 106.335 68.3423 105.172 67.9382 104.788C67.2797 104.159 67.4826 103.723 67.7424 103.08C67.4701 103.224 67.285 103.321 66.8827 103.532ZM154.289 83.0927C152.48 84.1963 151.77 85.6786 152.183 87.2668C152.487 88.4368 153.798 89.2515 155.777 89.3717C154.401 87.457 153.81 85.4274 154.289 83.0927ZM85.3586 113.187C88.3026 116.049 91.7183 118.063 95.6769 119.116C92.3484 116.939 89.1534 114.533 85.3586 113.187ZM144.131 102.4C142.395 100.128 139.8 99.1537 137.894 100.015C138.782 101.822 141.398 102.843 144.131 102.4ZM170.833 132.657C170.422 131.94 169.952 131.331 169.71 130.642C169.447 129.897 169.137 129.687 168.471 130.116C167.332 130.85 166.325 133.404 166.627 134.78C167.587 134.472 168.009 134.036 169.03 132.282C169.571 132.896 170.152 133.407 170.833 132.657ZM125.432 150.079C126.742 151.862 129.076 151.32 129.734 150.177C129.923 149.851 129.946 149.127 129.731 148.925C129.266 148.483 128.599 148.259 128.006 147.959C127.974 147.943 127.846 148.047 127.814 148.119C127.36 149.169 126.559 149.817 125.432 150.079ZM128.004 132.167C128.061 132.106 128.116 132.045 128.173 131.984C128.154 131.907 128.157 131.807 128.109 131.753C126.426 129.833 127.324 126.247 128.547 124.688C128.951 124.173 129.359 123.656 129.708 123.105C129.843 122.892 129.827 122.578 129.879 122.31C129.807 122.292 129.738 122.272 129.667 122.255C128.606 123.511 127.545 124.765 126.627 125.854C126.76 126.42 127.004 126.848 126.883 127.094C126.753 127.36 126.28 127.451 125.872 127.663C126.201 127.866 126.461 128.027 126.57 128.094C126.415 128.977 125.979 129.872 126.223 130.497C126.49 131.184 127.383 131.622 128.004 132.167ZM174.771 141.748C175.449 140.623 175.319 138.872 174.497 137.813C174.141 137.354 173.763 136.799 173.041 137.144C172.528 137.388 172.127 138.486 172.409 139.035C172.969 140.126 173.786 141.002 174.771 141.748ZM112.332 114.743C110.887 115.091 110.043 114.145 109.037 113.553C107.944 112.91 106.814 112.333 105.677 111.773C105.447 111.66 105.116 111.757 104.831 111.757C104.81 111.837 104.79 111.916 104.769 111.997C107.008 113.81 109.954 114.612 111.821 117.047C112.004 116.22 112.15 115.561 112.332 114.743ZM195.612 141.271C195.617 141.224 195.623 141.18 195.63 141.133C196.21 140.808 196.792 140.481 197.372 140.157C197.34 140.076 197.308 139.997 197.276 139.916C197.024 139.886 196.769 139.826 196.516 139.83C195.747 139.843 194.975 139.839 194.209 139.916C193.321 140.006 193.227 140.205 193.506 141.088C193.531 141.165 193.503 141.258 193.499 141.345C193.467 142.287 193.772 142.655 194.708 142.382C196.046 141.992 197.324 141.382 198.627 140.865C198.611 140.817 198.593 140.767 198.577 140.718C197.588 140.901 196.6 141.086 195.612 141.271ZM75.3962 133.711C78.6695 132.193 81.3715 129.544 80.453 127.24C78.8137 129.336 77.1423 131.475 75.3962 133.711ZM135.733 142.581C135.628 142.603 135.523 142.626 135.42 142.647C135.457 142.926 135.398 143.29 135.55 143.469C136.34 144.397 137.146 145.321 138.029 146.158C138.511 146.615 139.156 146.899 139.78 147.295C140.482 144.578 140.195 143.096 138.969 142.924C138.997 143.198 139.058 143.459 139.044 143.713C139.015 144.193 138.942 144.668 138.889 145.145C138.372 144.993 137.814 144.921 137.354 144.664C136.988 144.46 136.719 144.049 136.45 143.697C136.181 143.347 135.97 142.954 135.733 142.581ZM114.349 38.5204C113.104 38.0556 112.011 38.2907 110.952 38.5904C110.531 38.7088 110.18 39.0803 109.795 39.3369C110.109 39.6761 110.394 40.0475 110.744 40.3418C110.986 40.5446 111.305 40.681 111.611 40.7653C111.809 40.8192 112.124 40.8102 112.25 40.6882C112.942 40.0206 113.594 39.3082 114.349 38.5204ZM113.508 76.5858C113.857 78.2565 114.413 79.8482 115.377 81.2569C115.632 81.6302 116.04 81.9442 116.444 82.147C116.686 82.2672 117.17 82.2385 117.35 82.068C117.693 81.7414 117.898 81.2659 118.234 80.7383C115.276 80.9375 115.007 78.1309 113.508 76.5858ZM113.989 46.6909C113.955 46.5975 113.921 46.506 113.886 46.4127C112.709 46.1722 111.568 46.3786 110.44 46.7537C110.248 46.8183 110.045 46.9152 109.854 46.9008C108.573 46.8039 107.248 47.7604 106.978 49.0847C106.916 49.3916 107.117 49.7541 107.197 50.0897C107.503 49.8654 107.962 49.7092 108.09 49.4078C108.703 47.9865 109.892 47.1538 111.381 47.2238C111.766 47.2418 112.168 47.3153 112.533 47.2328C113.033 47.1179 113.505 46.8775 113.989 46.6909ZM206.646 86.6548C206.212 89.4991 205.703 92.3417 206 95.2506C206.641 92.4242 207.751 89.6409 206.646 86.6548ZM97.9873 45.318C96.412 45.318 94.8297 45.2355 93.2633 45.3557C92.5585 45.4096 92.1206 46.0592 91.8678 47.1036C94.0269 46.3086 96.1486 46.3876 97.9873 45.318ZM94.6072 59.9721C94.3402 60.06 94.0732 60.1426 93.808 60.2359C92.8593 60.5697 91.9159 60.9196 90.9601 61.2354C90.5489 61.3718 89.9989 61.3306 90.2036 62.0304C90.3727 62.6065 91.3232 63.3027 91.6774 63.0425C92.8094 62.2099 93.9201 61.3395 94.6072 59.9721ZM174.691 65.5261C175.686 67.606 176.88 69.3556 178.014 71.3063C178.471 69.3503 176.497 65.7666 174.691 65.5261ZM175.659 80.112C176.009 80.6019 176.246 80.9734 176.524 81.3089C176.859 81.7127 177.195 82.1308 177.604 82.4467C177.781 82.5831 178.22 82.5849 178.393 82.4539C178.535 82.3462 178.539 81.9245 178.468 81.684C178.3 81.1133 178.024 80.575 177.848 80.0079C177.702 79.5413 177.64 79.0586 178.229 78.7894C178.307 78.7535 178.315 78.5615 178.387 78.3408C177.914 78.4557 177.556 78.54 177.113 78.6477C177.514 79.8913 176.618 79.99 175.659 80.112ZM90.0078 59.6329C92.2701 59.6922 94.7264 58.1148 94.7389 56.8783C93.4822 57.3575 92.2131 57.7577 91.0313 58.3373C90.5881 58.5562 90.3442 59.1897 90.0078 59.6329ZM88.0552 48.2664C89.917 48.2575 91.7682 47.0372 91.923 45.7182C90.0487 45.4742 88.0267 46.8057 88.0552 48.2664ZM181.785 79.5647C181.924 79.4947 182.061 79.4247 182.2 79.3529C181.328 76.8226 179.37 74.8846 178.288 72.4673C178.455 75.3655 180.664 77.1762 181.785 79.5647ZM176.983 142.854C177.02 142.256 177.101 141.659 177.086 141.061C177.067 140.264 177.038 139.455 176.875 138.68C176.823 138.436 176.326 138.289 176.033 138.097C175.892 138.351 175.664 138.595 175.627 138.865C175.426 140.361 176.711 141.422 176.983 142.854ZM217.699 136.435C217.653 136.541 217.607 136.645 217.562 136.751C217.27 137.431 217.457 138.412 216.393 138.624C216.35 138.633 216.327 139.096 216.409 139.302C216.514 139.568 216.751 139.778 216.898 140.033C217.256 140.648 217.609 140.489 217.86 139.99C218.449 138.809 218.333 137.616 217.699 136.435ZM119.874 51.0462C119.558 49.7882 119.041 48.5572 117.903 47.6491C117.031 46.9546 116.937 46.9529 116.317 47.7424C117.52 48.8604 118.711 49.9658 119.874 51.0462ZM203.163 133.513C203.3 133.883 203.625 134.31 203.538 134.615C203.15 135.957 204.279 136.336 204.932 137.005C205.048 137.124 205.43 137.149 205.551 137.049C205.681 136.941 205.749 136.58 205.669 136.42C205.088 135.259 204.366 134.204 203.163 133.513ZM199.341 99.5646C199.386 97.5565 197.333 96.2196 195.518 97.0774C196.223 97.4668 196.881 97.7844 197.49 98.1792C198.102 98.5794 198.665 99.055 199.341 99.5646ZM170.917 145.727C170.63 144.7 167.047 142.258 166.003 142.298C166.887 143.11 167.656 143.83 168.445 144.53C168.559 144.63 168.756 144.634 168.915 144.684C169.265 144.795 169.634 144.873 169.961 145.031C170.237 145.165 170.468 145.395 170.917 145.727ZM122.405 131.672C121.548 133.571 122.186 135.211 124.008 135.778C123.462 134.382 122.971 133.122 122.405 131.672ZM107.204 148.853C107.134 149.002 107.067 149.151 106.997 149.302C107.339 149.533 107.734 149.712 108.007 150.009C108.3 150.328 108.421 150.813 108.731 151.105C108.857 151.223 109.279 151.021 109.568 150.965C109.286 150.202 109.101 149.379 108.667 148.718C108.539 148.523 107.711 148.795 107.204 148.853ZM173.007 66.2009C172.996 66.1004 172.985 65.9999 172.975 65.9012C172.599 65.8097 172.138 65.5333 171.868 65.6625C171.232 65.9694 170.687 66.4683 170.107 66.89C170.096 66.9833 170.084 67.0766 170.073 67.1699C170.57 67.3242 171.056 67.5557 171.563 67.6168C172.622 67.7442 172.248 66.4162 173.007 66.2009ZM114.137 111.242C115.319 110.626 116.038 109.095 115.584 107.984C115.231 108.686 114.865 109.417 114.455 110.229C113.756 109.465 113.243 108.905 112.731 108.345C112.711 108.379 112.691 108.412 112.67 108.446C113.149 109.357 113.626 110.269 114.137 111.242ZM212.449 87.0658C212.44 86.933 212.486 86.7122 212.4 86.5848C212.222 86.321 211.975 86.1039 211.754 85.8688C211.546 86.1129 211.258 86.3264 211.155 86.6082C211.048 86.8971 211.03 87.2937 211.146 87.5682C211.274 87.8751 211.598 88.0976 211.838 88.3578C212.034 88.0922 212.249 87.8374 212.417 87.5521C212.482 87.439 212.44 87.2614 212.449 87.0658ZM106.134 36.882C104.769 36.699 104.078 37.4042 103.441 38.1256C103.01 38.6137 102.836 39.2185 103.274 39.9381C103.37 38.1776 105.221 38.1489 106.134 36.882ZM122.049 53.6931C121.427 54.6872 120.881 54.0843 120.326 53.7972C120.276 53.8546 120.228 53.912 120.178 53.9676C120.555 54.6657 120.933 55.3656 121.315 56.0708C122.358 55.5486 122.353 54.8075 122.049 53.6931ZM105.454 38.2279C105.394 38.1866 105.333 38.1471 105.273 38.1059C105.006 38.3212 104.712 38.5114 104.475 38.7573C104.048 39.2005 103.706 39.703 104.096 40.3382C104.205 40.5159 104.477 40.7582 104.603 40.7205C104.813 40.6595 105.071 40.4226 105.123 40.2144C105.28 39.5648 105.349 38.8919 105.454 38.2279ZM77.4004 129.059C76.4019 130.018 75.3873 130.992 74.4368 131.902C75.8394 132.017 77.5232 130.461 77.4004 129.059ZM178.797 76.1784C178.473 76.0725 178.104 75.8249 177.937 75.9236C177.295 76.3022 177.099 75.9577 176.91 75.4427C176.826 75.2112 176.686 75.0012 176.572 74.7823C176.486 75.1968 176.586 75.5432 176.679 75.8931C177.165 77.7145 177.209 77.7289 178.617 76.5463C178.658 76.514 178.67 76.4458 178.797 76.1784ZM96.5705 42.9475C96.5936 43.0875 96.6167 43.2256 96.6399 43.3656C98.0567 43.3871 99.4344 43.1897 100.769 42.7555C100.746 42.6209 100.723 42.4845 100.702 42.3499C99.3223 42.5491 97.9464 42.7483 96.5705 42.9475ZM91.1665 82.61C91.1096 82.4933 91.0526 82.3767 90.9957 82.26C89.319 83.0586 87.6422 83.859 85.9655 84.6575C86.0154 84.767 86.0652 84.8747 86.115 84.9841C87.7971 84.1927 89.4827 83.4014 91.1665 82.61ZM87.644 60.8317C88.9914 61.0596 89.472 60.069 88.9309 58.3911C88.4468 59.3081 88.0623 60.0367 87.644 60.8317ZM162.236 84.0438C161.446 85.2048 161.72 87.6023 162.541 88.4027C162.446 87.0478 162.348 85.6391 162.236 84.0438ZM125.233 139.229C125.596 139.2 125.975 139.168 126.353 139.137C126.443 138.064 126.162 137.589 125.233 137.316C125.233 137.964 125.233 138.595 125.233 139.229ZM172.893 147.48C172.807 147.538 172.722 147.593 172.636 147.651C173.083 148.261 173.53 148.871 174.009 149.526C174.504 148.751 174.121 148.133 172.893 147.48ZM160.065 113.104C160.042 113.3 160.018 113.497 159.995 113.693C160.689 113.783 161.384 113.872 162.078 113.962C162.101 113.795 162.126 113.628 162.149 113.461C161.455 113.341 160.761 113.223 160.065 113.104ZM116.218 39.2902C115.454 38.6119 114.973 38.8255 114.263 40.1229C114.972 39.8214 115.541 39.5792 116.218 39.2902ZM108.464 36.4567C108.393 36.6272 108.322 36.7995 108.25 36.9699C108.603 37.1476 108.946 37.3683 109.32 37.467C109.393 37.4868 109.589 37.0309 109.73 36.7941C109.308 36.6828 108.886 36.5698 108.464 36.4567ZM101.195 110.827C102.069 110.718 102.649 110.646 103.227 110.572C103.243 110.481 103.261 110.389 103.277 110.298C102.834 110.165 102.389 109.941 101.946 109.942C101.747 109.942 101.549 110.391 101.195 110.827ZM175.289 78.8146C175.342 78.7482 175.395 78.6818 175.449 78.6136C175.091 77.7648 174.634 77.5279 173.891 77.9711C174.404 78.2816 174.847 78.549 175.289 78.8146Z" fill="#FFFEFF"/>
</svg>
