<svg width="196" height="74" viewBox="0 0 196 74" fill="none" xmlns="http://www.w3.org/2000/svg">
<path d="M24.4062 9.97266L17.0625 33H10.2656L20.793 4.5625H25.0898L24.4062 9.97266ZM30.5 33L23.1367 9.97266L22.375 4.5625H26.7305L37.2969 33H30.5ZM30.1875 22.4141V27.3359H15.3633V22.4141H30.1875ZM51.3711 23.1172H44.2227V18.1758H51.3711C52.4258 18.1758 53.2721 18 53.9102 17.6484C54.5612 17.2969 55.0365 16.8151 55.3359 16.2031C55.6484 15.5781 55.8047 14.875 55.8047 14.0938C55.8047 13.2865 55.6484 12.5378 55.3359 11.8477C55.0365 11.1445 54.5612 10.5781 53.9102 10.1484C53.2721 9.71875 52.4258 9.50391 51.3711 9.50391H46.5273V33H40.1602V4.5625H51.3711C53.6367 4.5625 55.5768 4.97266 57.1914 5.79297C58.819 6.61328 60.0625 7.73958 60.9219 9.17188C61.7943 10.5911 62.2305 12.2188 62.2305 14.0547C62.2305 15.8906 61.7943 17.4857 60.9219 18.8398C60.0625 20.194 58.819 21.2487 57.1914 22.0039C55.5768 22.7461 53.6367 23.1172 51.3711 23.1172ZM69.6445 4.5625H74.918L81.7539 24.8945L88.5703 4.5625H93.8438L83.8828 33H79.6055L69.6445 4.5625ZM66.5977 4.5625H71.9688L72.9648 25.6367V33H66.5977V4.5625ZM91.5195 4.5625H96.9102V33H90.5234V25.6367L91.5195 4.5625ZM114.305 9.97266L106.961 33H100.164L110.691 4.5625H114.988L114.305 9.97266ZM120.398 33L113.035 9.97266L112.273 4.5625H116.629L127.195 33H120.398ZM120.086 22.4141V27.3359H105.262V22.4141H120.086ZM153.066 28.0781V33H132.832V28.0781H153.066ZM134.824 28.0781V39.9727H128.906L128.516 28.0781H134.824ZM157.5 28.0781L156.895 39.9922H151.133V28.0781H157.5ZM149.961 4.5625V9.50391H135.977V4.5625H149.961ZM154.355 4.5625V33H148.027V4.5625H154.355ZM135.391 4.5625H141.738L140.938 16.1836C140.807 18.1367 140.586 19.849 140.273 21.3203C139.974 22.7786 139.616 24.0547 139.199 25.1484C138.783 26.2422 138.32 27.1862 137.812 27.9805C137.318 28.7747 136.79 29.4714 136.23 30.0703C135.684 30.6562 135.137 31.1836 134.59 31.6523C134.043 32.1081 133.509 32.5573 132.988 33H129.219V28.0781H130.566C130.957 27.7786 131.354 27.3685 131.758 26.8477C132.174 26.3268 132.572 25.6237 132.949 24.7383C133.327 23.8529 133.659 22.7135 133.945 21.3203C134.232 19.9271 134.44 18.2148 134.57 16.1836L135.391 4.5625ZM172.844 9.97266L165.5 33H158.703L169.23 4.5625H173.527L172.844 9.97266ZM178.938 33L171.574 9.97266L170.812 4.5625H175.168L185.734 33H178.938ZM178.625 22.4141V27.3359H163.801V22.4141H178.625Z" fill="black"/>
<path d="M9.6284 56V50.258H10.5964V52.623H11.2344L13.0384 50.258H14.1384L11.9934 53.041L14.3914 56H13.2694L11.2344 53.514H10.5964V56H9.6284ZM20.0507 56.11C19.6181 56.11 19.2257 56.033 18.8737 55.879C18.5217 55.7177 18.2174 55.5013 17.9607 55.23C17.7041 54.9513 17.5061 54.6323 17.3667 54.273C17.2274 53.9137 17.1577 53.536 17.1577 53.14C17.1577 52.7367 17.2274 52.3553 17.3667 51.996C17.5061 51.6367 17.7041 51.3213 17.9607 51.05C18.2174 50.7713 18.5217 50.555 18.8737 50.401C19.2331 50.2397 19.6254 50.159 20.0507 50.159C20.4834 50.159 20.8757 50.2397 21.2277 50.401C21.5797 50.555 21.8841 50.7713 22.1407 51.05C22.4047 51.3213 22.6064 51.6367 22.7457 51.996C22.8851 52.3553 22.9547 52.7367 22.9547 53.14C22.9547 53.536 22.8851 53.9137 22.7457 54.273C22.6064 54.6323 22.4084 54.9513 22.1517 55.23C21.8951 55.5013 21.5871 55.7177 21.2277 55.879C20.8757 56.033 20.4834 56.11 20.0507 56.11ZM18.1477 53.151C18.1477 53.547 18.2321 53.9063 18.4007 54.229C18.5767 54.5517 18.8077 54.8083 19.0937 54.999C19.3797 55.1823 19.6987 55.274 20.0507 55.274C20.4027 55.274 20.7217 55.1787 21.0077 54.988C21.3011 54.7973 21.5321 54.5407 21.7007 54.218C21.8767 53.888 21.9647 53.525 21.9647 53.129C21.9647 52.733 21.8767 52.3737 21.7007 52.051C21.5321 51.7283 21.3011 51.4717 21.0077 51.281C20.7217 51.0903 20.4027 50.995 20.0507 50.995C19.6987 50.995 19.3797 51.094 19.0937 51.292C18.8077 51.4827 18.5767 51.7393 18.4007 52.062C18.2321 52.3847 18.1477 52.7477 18.1477 53.151ZM26.6167 56V50.258H27.5847V52.634H30.5767V50.258H31.5447V56H30.5767V53.492H27.5847V56H26.6167ZM35.5942 56V50.258H36.5622V52.634H39.5542V50.258H40.5222V56H39.5542V53.492H36.5622V56H35.5942ZM47.0908 56.11C46.6581 56.11 46.2658 56.033 45.9138 55.879C45.5618 55.7177 45.2574 55.5013 45.0008 55.23C44.7441 54.9513 44.5461 54.6323 44.4068 54.273C44.2674 53.9137 44.1978 53.536 44.1978 53.14C44.1978 52.7367 44.2674 52.3553 44.4068 51.996C44.5461 51.6367 44.7441 51.3213 45.0008 51.05C45.2574 50.7713 45.5618 50.555 45.9138 50.401C46.2731 50.2397 46.6654 50.159 47.0908 50.159C47.5234 50.159 47.9158 50.2397 48.2678 50.401C48.6198 50.555 48.9241 50.7713 49.1808 51.05C49.4448 51.3213 49.6464 51.6367 49.7858 51.996C49.9251 52.3553 49.9948 52.7367 49.9948 53.14C49.9948 53.536 49.9251 53.9137 49.7858 54.273C49.6464 54.6323 49.4484 54.9513 49.1918 55.23C48.9351 55.5013 48.6271 55.7177 48.2678 55.879C47.9158 56.033 47.5234 56.11 47.0908 56.11ZM45.1878 53.151C45.1878 53.547 45.2721 53.9063 45.4408 54.229C45.6168 54.5517 45.8478 54.8083 46.1338 54.999C46.4198 55.1823 46.7388 55.274 47.0908 55.274C47.4428 55.274 47.7618 55.1787 48.0478 54.988C48.3411 54.7973 48.5721 54.5407 48.7408 54.218C48.9168 53.888 49.0048 53.525 49.0048 53.129C49.0048 52.733 48.9168 52.3737 48.7408 52.051C48.5721 51.7283 48.3411 51.4717 48.0478 51.281C47.7618 51.0903 47.4428 50.995 47.0908 50.995C46.7388 50.995 46.4198 51.094 46.1338 51.292C45.8478 51.4827 45.6168 51.7393 45.4408 52.062C45.2721 52.3847 45.1878 52.7477 45.1878 53.151ZM53.5907 53.437V52.557H56.8357V53.437H53.5907ZM63.3601 56.11C62.9274 56.11 62.5314 56.033 62.1721 55.879C61.8201 55.7177 61.5121 55.4977 61.2481 55.219C60.9914 54.9403 60.7898 54.6213 60.6431 54.262C60.5038 53.9027 60.4341 53.5213 60.4341 53.118C60.4341 52.5753 60.5551 52.0803 60.7971 51.633C61.0391 51.1857 61.3801 50.83 61.8201 50.566C62.2601 50.2947 62.7698 50.159 63.3491 50.159C63.9138 50.159 64.4051 50.2873 64.8231 50.544C65.2484 50.7933 65.5638 51.1307 65.7691 51.556L64.8231 51.853C64.6764 51.5817 64.4711 51.3727 64.2071 51.226C63.9431 51.072 63.6498 50.995 63.3271 50.995C62.9751 50.995 62.6524 51.0867 62.3591 51.27C62.0731 51.4533 61.8458 51.7063 61.6771 52.029C61.5084 52.3443 61.4241 52.7073 61.4241 53.118C61.4241 53.5213 61.5084 53.888 61.6771 54.218C61.8531 54.5407 62.0841 54.7973 62.3701 54.988C62.6634 55.1787 62.9861 55.274 63.3381 55.274C63.5654 55.274 63.7818 55.2337 63.9871 55.153C64.1998 55.0723 64.3831 54.966 64.5371 54.834C64.6984 54.6947 64.8084 54.5443 64.8671 54.383L65.8131 54.669C65.6958 54.9477 65.5161 55.197 65.2741 55.417C65.0394 55.6297 64.7571 55.7983 64.4271 55.923C64.1044 56.0477 63.7488 56.11 63.3601 56.11ZM69.3989 56V50.258H74.1619V56H73.1939V51.116H70.3669V56H69.3989ZM80.7343 56.11C80.3016 56.11 79.9093 56.033 79.5573 55.879C79.2053 55.7177 78.901 55.5013 78.6443 55.23C78.3876 54.9513 78.1896 54.6323 78.0503 54.273C77.911 53.9137 77.8413 53.536 77.8413 53.14C77.8413 52.7367 77.911 52.3553 78.0503 51.996C78.1896 51.6367 78.3876 51.3213 78.6443 51.05C78.901 50.7713 79.2053 50.555 79.5573 50.401C79.9166 50.2397 80.309 50.159 80.7343 50.159C81.167 50.159 81.5593 50.2397 81.9113 50.401C82.2633 50.555 82.5676 50.7713 82.8243 51.05C83.0883 51.3213 83.29 51.6367 83.4293 51.996C83.5686 52.3553 83.6383 52.7367 83.6383 53.14C83.6383 53.536 83.5686 53.9137 83.4293 54.273C83.29 54.6323 83.092 54.9513 82.8353 55.23C82.5786 55.5013 82.2706 55.7177 81.9113 55.879C81.5593 56.033 81.167 56.11 80.7343 56.11ZM78.8313 53.151C78.8313 53.547 78.9156 53.9063 79.0843 54.229C79.2603 54.5517 79.4913 54.8083 79.7773 54.999C80.0633 55.1823 80.3823 55.274 80.7343 55.274C81.0863 55.274 81.4053 55.1787 81.6913 54.988C81.9846 54.7973 82.2156 54.5407 82.3843 54.218C82.5603 53.888 82.6483 53.525 82.6483 53.129C82.6483 52.733 82.5603 52.3737 82.3843 52.051C82.2156 51.7283 81.9846 51.4717 81.6913 51.281C81.4053 51.0903 81.0863 50.995 80.7343 50.995C80.3823 50.995 80.0633 51.094 79.7773 51.292C79.4913 51.4827 79.2603 51.7393 79.0843 52.062C78.9156 52.3847 78.8313 52.7477 78.8313 53.151ZM90.4023 56.11C89.9329 56.11 89.5149 55.9927 89.1483 55.758C88.7816 55.5233 88.4919 55.2263 88.2793 54.867V58.343H87.3113V50.258H88.1693V51.336C88.3966 50.984 88.6936 50.7017 89.0603 50.489C89.4269 50.269 89.8266 50.159 90.2593 50.159C90.6553 50.159 91.0183 50.2397 91.3483 50.401C91.6783 50.5623 91.9643 50.7823 92.2063 51.061C92.4483 51.3397 92.6353 51.6587 92.7673 52.018C92.9066 52.37 92.9763 52.7403 92.9763 53.129C92.9763 53.6717 92.8663 54.1703 92.6463 54.625C92.4336 55.0797 92.1329 55.4427 91.7443 55.714C91.3556 55.978 90.9083 56.11 90.4023 56.11ZM90.1053 55.274C90.3913 55.274 90.6479 55.2153 90.8753 55.098C91.1099 54.9733 91.3079 54.812 91.4693 54.614C91.6379 54.4087 91.7663 54.1777 91.8543 53.921C91.9423 53.6643 91.9863 53.4003 91.9863 53.129C91.9863 52.843 91.9349 52.5717 91.8323 52.315C91.7369 52.0583 91.5976 51.831 91.4143 51.633C91.2383 51.435 91.0293 51.281 90.7873 51.171C90.5526 51.0537 90.2959 50.995 90.0173 50.995C89.8413 50.995 89.6579 51.028 89.4673 51.094C89.2839 51.16 89.1079 51.2553 88.9393 51.38C88.7706 51.4973 88.6276 51.633 88.5103 51.787C88.3929 51.941 88.3159 52.106 88.2793 52.282V53.921C88.3893 54.1703 88.5359 54.3977 88.7193 54.603C88.9026 54.8083 89.1153 54.9733 89.3573 55.098C89.5993 55.2153 89.8486 55.274 90.1053 55.274ZM98.0618 56V51.116H96.0818V50.258H101.01V51.116H99.0298V56H98.0618ZM104.471 56V50.269H105.439V54.702L108.651 50.258H109.531V56H108.563V51.655L105.395 56H104.471ZM113.567 56V50.258H116.537C116.882 50.258 117.168 50.3277 117.395 50.467C117.622 50.599 117.791 50.7713 117.901 50.984C118.018 51.1967 118.077 51.424 118.077 51.666C118.077 51.974 118.004 52.2527 117.857 52.502C117.71 52.744 117.498 52.9273 117.219 53.052C117.549 53.1473 117.817 53.3197 118.022 53.569C118.227 53.811 118.33 54.1117 118.33 54.471C118.33 54.7937 118.253 55.0687 118.099 55.296C117.945 55.5233 117.729 55.6993 117.45 55.824C117.171 55.9413 116.849 56 116.482 56H113.567ZM114.491 55.318H116.46C116.636 55.318 116.794 55.274 116.933 55.186C117.08 55.098 117.193 54.9807 117.274 54.834C117.355 54.6873 117.395 54.5333 117.395 54.372C117.395 54.196 117.355 54.0383 117.274 53.899C117.201 53.7523 117.094 53.6387 116.955 53.558C116.823 53.47 116.669 53.426 116.493 53.426H114.491V55.318ZM114.491 52.788H116.284C116.46 52.788 116.614 52.744 116.746 52.656C116.878 52.5607 116.981 52.4397 117.054 52.293C117.127 52.1463 117.164 51.9923 117.164 51.831C117.164 51.589 117.083 51.38 116.922 51.204C116.768 51.028 116.566 50.94 116.317 50.94H114.491V52.788ZM122.05 56V50.258H123.018V52.634H126.01V50.258H126.978V56H126.01V53.492H123.018V56H122.05ZM131.028 56V50.258H131.996V52.216H133.162C133.836 52.216 134.346 52.3883 134.691 52.733C135.043 53.0703 135.219 53.514 135.219 54.064C135.219 54.4307 135.142 54.7607 134.988 55.054C134.841 55.3473 134.621 55.5783 134.328 55.747C134.034 55.9157 133.668 56 133.228 56H131.028ZM131.996 55.241H133.096C133.367 55.241 133.583 55.1897 133.745 55.087C133.913 54.977 134.038 54.834 134.119 54.658C134.199 54.482 134.24 54.2913 134.24 54.086C134.24 53.888 134.203 53.7047 134.13 53.536C134.056 53.3673 133.935 53.2317 133.767 53.129C133.598 53.0263 133.367 52.975 133.074 52.975H131.996V55.241ZM136.209 56V50.269H137.177V56H136.209ZM141.23 56V50.269H142.198V54.702L145.41 50.258H146.29V56H145.322V51.655L142.154 56H141.23ZM143.771 49.609C143.243 49.609 142.843 49.4843 142.572 49.235C142.301 48.9783 142.165 48.663 142.165 48.289H142.847C142.847 48.4943 142.917 48.6667 143.056 48.806C143.203 48.938 143.441 49.004 143.771 49.004C144.094 49.004 144.321 48.9417 144.453 48.817C144.585 48.685 144.666 48.509 144.695 48.289H145.377C145.377 48.663 145.241 48.9783 144.97 49.235C144.699 49.4843 144.299 49.609 143.771 49.609ZM155.608 56V50.258H156.576V52.623H157.214L159.018 50.258H160.118L157.973 53.041L160.371 56H159.249L157.214 53.514H156.576V56H155.608ZM163.317 56.044V55.175C163.508 55.175 163.676 55.1273 163.823 55.032C163.977 54.9293 164.113 54.7607 164.23 54.526C164.347 54.284 164.439 53.954 164.505 53.536C164.578 53.1107 164.626 52.5717 164.648 51.919L164.714 50.258H168.619V56H167.651V51.116H165.572L165.55 52.007C165.521 52.7917 165.455 53.4443 165.352 53.965C165.249 54.4857 165.106 54.8963 164.923 55.197C164.74 55.4977 164.512 55.714 164.241 55.846C163.977 55.978 163.669 56.044 163.317 56.044ZM173.397 58.409C173.273 58.409 173.144 58.3907 173.012 58.354C172.888 58.3173 172.759 58.2623 172.627 58.189L172.957 57.529C173.023 57.5657 173.086 57.5913 173.144 57.606C173.21 57.628 173.273 57.639 173.331 57.639C173.507 57.639 173.672 57.5547 173.826 57.386C173.988 57.2247 174.138 56.9753 174.277 56.638L174.552 55.945L172.033 50.258H173.056L174.992 55.021L176.741 50.258H177.698L175.014 56.935C174.882 57.265 174.732 57.5363 174.563 57.749C174.395 57.969 174.211 58.134 174.013 58.244C173.815 58.354 173.61 58.409 173.397 58.409ZM183.883 56.11C182.937 56.11 182.222 55.824 181.738 55.252C181.254 54.68 181.012 53.8733 181.012 52.832C181.012 52.1207 181.07 51.523 181.188 51.039C181.305 50.5477 181.481 50.1443 181.716 49.829C181.95 49.5063 182.24 49.246 182.585 49.048C182.929 48.8427 183.325 48.674 183.773 48.542L186.204 47.805L186.259 48.641L183.894 49.356C183.49 49.488 183.153 49.6567 182.882 49.862C182.61 50.0673 182.398 50.3313 182.244 50.654C182.09 50.9767 181.987 51.391 181.936 51.897C182.126 51.5083 182.412 51.2077 182.794 50.995C183.175 50.775 183.619 50.665 184.125 50.665C184.667 50.665 185.133 50.7787 185.522 51.006C185.918 51.226 186.218 51.5377 186.424 51.941C186.636 52.337 186.743 52.7953 186.743 53.316C186.743 53.8733 186.633 54.361 186.413 54.779C186.193 55.197 185.87 55.5233 185.445 55.758C185.019 55.9927 184.499 56.11 183.883 56.11ZM183.883 55.274C184.477 55.274 184.935 55.1017 185.258 54.757C185.588 54.405 185.753 53.9393 185.753 53.36C185.753 52.7953 185.591 52.337 185.269 51.985C184.946 51.633 184.484 51.457 183.883 51.457C183.531 51.457 183.212 51.5303 182.926 51.677C182.647 51.8237 182.423 52.04 182.255 52.326C182.093 52.6047 182.013 52.9493 182.013 53.36C182.013 53.7267 182.082 54.0567 182.222 54.35C182.368 54.636 182.581 54.8633 182.86 55.032C183.138 55.1933 183.479 55.274 183.883 55.274Z" fill="black"/>
</svg>
