<svg width="124" height="102" viewBox="0 0 124 102" fill="none" xmlns="http://www.w3.org/2000/svg">
<rect width="124" height="102" rx="40" fill="#469597"/>
<path d="M37.1841 11.0038C37.0482 11.0796 36.92 11.1879 36.7746 11.2253C35.8113 11.4727 35.2613 11.9867 35.2271 12.7442C35.2081 13.1796 35.2689 13.6063 35.8332 13.823C35.8655 12.6138 36.6749 12.3444 37.6277 12.259C37.9554 12.2293 38.2385 12.1584 38.3848 11.7988C38.4418 11.6597 38.609 11.5667 38.7743 11.4047C39.2483 12.7442 40.1708 12.2188 41.0409 12.1123C40.8291 12.2974 40.6163 12.4815 40.3323 12.7289C40.6591 12.7701 40.9146 12.7979 41.1692 12.8344C41.5919 12.8938 42.0118 12.9859 42.4365 13.0108C42.6977 13.0262 42.9855 12.9936 43.223 12.8919C43.6486 12.7088 44.0457 12.4575 44.4542 12.2341C44.4789 12.2773 44.5045 12.3195 44.5292 12.3626C44.2499 12.5515 43.9536 12.7203 43.699 12.9389C43.5622 13.0559 43.4966 13.2573 43.3997 13.4203C43.6078 13.5085 43.813 13.6571 44.0248 13.6686C44.2727 13.6821 44.5273 13.5747 44.7781 13.52C44.7886 13.5612 44.799 13.6015 44.8095 13.6427C44.1521 13.8758 43.4938 14.1088 42.8364 14.3418C42.8297 14.3878 42.8231 14.4329 42.8164 14.4789C43.1841 14.6112 43.5698 14.7062 43.9137 14.8836C44.4095 15.1386 44.7021 14.8442 44.9767 14.5345C45.4479 14.0023 45.8848 13.4404 46.3475 12.9005C46.4605 12.7682 46.6163 12.6723 46.7522 12.5601C46.8491 12.7164 47.0172 12.867 47.0305 13.031C47.1198 14.1586 47.0752 15.271 46.451 16.2721C46.3921 16.367 46.3332 16.461 46.2753 16.5568C46.1233 16.8071 46.185 16.9989 46.4624 17.0699C46.9498 17.1945 47.4437 17.2904 47.9159 17.394C47.628 17.7958 47.0676 17.4822 46.5242 17.6251C47.0856 18.0575 47.6613 17.9473 48.2085 17.9655C48.218 18.0163 48.2284 18.0671 48.2379 18.1179C47.8731 18.1966 47.5083 18.2742 47.1436 18.3529C47.1312 18.3903 47.1179 18.4267 47.1056 18.4641C47.4827 18.5811 47.8598 18.6981 48.3595 18.8534C47.8228 18.8534 47.4095 18.8534 46.9697 18.8534C47.0239 18.9742 47.0818 19.1066 47.1483 19.2542C46.527 18.887 45.9295 18.5341 45.3215 18.1745C45.2826 18.2742 45.2531 18.3126 45.2626 18.3289C45.8611 19.3789 46.4482 20.4366 47.0685 21.4732C47.3848 22.0015 47.402 22.6344 47.0619 23.1378C46.7256 23.6364 46.4453 24.136 46.4225 24.791C46.3902 25.7134 46.1926 26.6292 46.1375 27.5516C46.1119 27.9841 46.2069 28.4405 46.3323 28.8605C46.623 29.8377 46.9621 30.8004 47.2899 31.767C47.3715 32.0077 47.4466 32.2599 47.5815 32.4699C48.2275 33.47 47.8722 35.0464 46.8624 35.6793C46.6562 35.8088 46.4472 35.9958 46.3389 36.2086C46.0701 36.737 45.7015 37.0726 45.0945 37.0995C45.0242 37.1023 44.9558 37.1579 44.8104 37.2241C45.0422 37.4725 45.2854 37.6604 45.4336 37.9068C46.0986 39.0038 47.0334 39.4123 48.3187 39.5169C50.1996 39.6693 52.0616 39.9081 53.9454 39.6099C55.5784 39.3519 57.0499 38.6442 58.5261 37.95C58.6012 37.9145 58.6563 37.833 58.8244 37.6748C58.1528 37.6748 57.6037 37.6748 57.0537 37.6748C57.0499 37.6374 57.047 37.599 57.0432 37.5616C57.6018 37.4264 58.1613 37.2903 58.7199 37.1551C58.7142 37.0966 58.7085 37.0381 58.7038 36.9796C58.3171 36.9307 57.9305 36.8818 57.5742 36.8367C58.167 36.5884 58.757 36.34 59.3478 36.0926C59.3421 36.037 59.3374 35.9814 59.3317 35.9267C58.2497 35.9267 57.1677 35.9267 56.0258 35.9267C56.8418 34.9716 58.0739 35.4118 59.0277 35.0263C59.022 34.9726 59.0163 34.9199 59.0106 34.8662C58.6335 34.8278 58.2573 34.7895 57.8801 34.7511C57.8763 34.7262 57.8725 34.7012 57.8678 34.6773C58.281 34.6399 58.6952 34.6025 59.1084 34.5651C59.1103 34.544 59.1132 34.5229 59.1151 34.5008C58.5746 34.4126 58.0331 34.3234 57.4925 34.2352C57.4944 34.2055 57.4973 34.1758 57.4992 34.146C58.1651 34.1144 58.8311 34.0827 59.497 34.0511C59.4979 33.9916 59.4998 33.9332 59.5008 33.8737C59.2642 33.8478 59.0267 33.8229 58.7902 33.797C58.7874 33.773 58.7836 33.75 58.7807 33.726C58.9869 33.6886 59.193 33.6522 59.3991 33.6148C59.4029 33.5841 59.4077 33.5534 59.4115 33.5227C59.1407 33.4834 58.871 33.4451 58.6002 33.4058C60.0204 33.2284 61.2677 32.7134 62.382 31.5752C61.2725 31.4678 60.5087 31.9127 59.8067 32.5341C59.7696 32.4929 59.7335 32.4526 59.6965 32.4114C60.0679 32.0192 60.4384 31.627 60.8098 31.2338C60.788 31.1974 60.7661 31.16 60.7443 31.1236C60.4052 31.3307 60.067 31.5388 59.7278 31.7459C59.7003 31.7229 59.6727 31.7008 59.6452 31.6778C59.8846 31.4333 60.0803 31.0948 60.37 30.9586C61.984 30.2001 63.3824 28.9938 65.1683 28.5959C65.307 28.5652 65.441 28.4808 65.5778 28.4799C66.5933 28.4751 67.3371 27.8038 68.1997 27.426C68.1902 27.3848 68.1797 27.3445 68.1702 27.3033C67.396 27.5238 66.6227 27.7453 65.8485 27.9659C65.8257 27.8911 65.8019 27.8163 65.7791 27.7415C66.8764 27.3675 67.9736 26.9926 69.0689 26.6196C69.0499 26.6023 68.9748 26.5352 68.8988 26.4671C68.9169 26.4182 68.935 26.3693 68.953 26.3195C69.4061 26.4633 69.8906 26.5467 70.3048 26.7663C70.8292 27.0434 71.327 26.9082 71.6785 26.6138C72.2741 26.1152 72.9144 25.6271 73.2013 24.8245C73.4188 24.2166 73.8995 23.8225 74.5968 23.5204C74.554 23.7889 74.5398 23.9797 74.4913 24.1619C74.3944 24.5321 74.2415 24.8907 74.1873 25.2656C74.1617 25.4411 74.3108 25.6415 74.3811 25.8314C74.5512 25.7518 74.7763 25.7163 74.8818 25.584C75.315 25.0374 75.7111 24.4601 76.1253 23.8982C76.1652 23.8436 76.2402 23.8148 76.3979 23.7055C76.4283 24.6241 76.3666 25.42 75.979 26.1785C75.637 26.8469 75.5468 27.5075 76.0331 28.1788C76.4521 28.7579 76.8064 29.3841 77.1959 29.9863C77.4258 30.3411 77.4714 30.7045 77.2415 31.0651C76.9869 31.463 77.004 31.8389 77.2482 32.2301C77.9388 33.3348 78.6104 34.45 79.3143 35.546C79.681 36.1175 79.8986 36.6392 79.6449 37.3699C79.4502 37.9299 79.3238 38.4832 78.8641 38.8878C78.8527 38.8984 78.8441 38.9127 78.8337 38.9252C78.5515 39.2599 76.834 39.5092 76.491 39.2378C76.34 39.1179 76.1794 38.9242 76.1519 38.744C76.0103 37.8158 75.2979 37.4638 74.5749 37.1992C73.7352 36.8914 72.9011 36.619 72.2637 35.9401C72.1744 35.8452 71.9863 35.8452 71.8438 35.8021C71.7963 35.9622 71.7117 36.1214 71.706 36.2834C71.6633 37.5588 71.7041 38.8408 71.5778 40.1066C71.4932 40.9523 71.2149 41.7866 70.9508 42.6016C70.794 43.0849 70.7589 43.527 70.927 43.9988C71.023 44.2692 71.1417 44.5463 71.1588 44.8253C71.1892 45.3316 71.4514 45.5263 71.9122 45.5627C74.7098 45.7881 77.5056 45.9032 80.2852 45.3652C80.4534 45.3326 80.6139 45.2588 80.7783 45.2032C80.7754 45.1495 80.7716 45.0958 80.7687 45.0421C80.2976 44.9864 79.8273 44.9299 79.3561 44.8742C79.3523 44.8129 79.3495 44.7515 79.3457 44.6901C80.2662 44.6499 81.1753 44.5693 81.9781 44.1042C81.9686 44.0573 81.96 44.0103 81.9505 43.9642C81.6038 44.0218 81.258 44.0793 80.9112 44.1368C80.897 44.0908 80.8818 44.0448 80.8675 43.9978C81.41 43.7792 81.9534 43.5615 82.568 43.3132C81.8888 43.1636 81.2618 43.0255 80.6348 42.8884C80.6367 42.8337 80.6386 42.779 80.6405 42.7244C81.2808 42.3715 82.1434 42.594 82.7684 41.9477C82.1842 41.8144 81.675 41.6984 81.1649 41.5823C81.1744 41.5238 81.1839 41.4653 81.1934 41.4078C81.8384 41.4059 82.5119 41.6571 83.252 41.1537C82.2621 40.9878 81.3957 40.8421 80.5284 40.6963C80.5284 40.6599 80.5275 40.6234 80.5275 40.587C81.219 40.587 81.9116 40.587 82.6031 40.587C82.6022 40.5362 82.6022 40.4853 82.6012 40.4345C81.5772 40.2859 80.5569 40.0462 79.5034 40.4038C79.9898 39.7825 80.6823 39.6348 81.3739 39.5341C82.056 39.4344 82.7485 39.4018 83.4543 39.2618C83.2273 39.2225 82.9993 39.1832 82.7722 39.1438C82.7713 39.1256 82.7703 39.1074 82.7694 39.0892C83.5047 38.9521 84.2409 38.8149 84.9762 38.6778C84.9667 38.6021 84.9572 38.5273 84.9477 38.4515C84.2276 38.5234 83.5085 38.5953 82.7884 38.6673C82.7855 38.6337 82.7836 38.6001 82.7808 38.5666C83.9055 38.0296 85.0313 37.4936 86.156 36.9566C86.1285 36.8866 86.1019 36.8166 86.0743 36.7466C85.4103 36.9758 84.7463 37.2049 84.0822 37.4341C84.9714 36.5759 86.0762 36.176 87.2343 35.8855C87.2295 35.8442 87.2248 35.803 87.22 35.7618C86.8628 35.8011 86.5056 35.8414 86.1484 35.8807C87.201 35.2018 88.3856 35.4223 89.5256 35.3533C89.5284 35.2881 89.5313 35.2238 89.5341 35.1586C88.8407 35.08 88.1462 35.0023 87.4527 34.9237C88.1025 34.5833 88.8074 34.5641 89.5037 34.5277C90.1355 34.4941 90.771 34.5325 91.4027 34.5008C91.7789 34.4826 92.1618 34.4279 92.5228 34.3244C93.05 34.1729 93.563 34.0501 94.0987 34.2678C94.4122 34.3953 94.5984 34.2199 94.7675 33.9782C95.1447 33.4412 95.6634 33.1133 96.4328 32.8448C96.3492 33.5045 96.3359 34.0434 96.201 34.5488C96.0756 35.0177 96.1431 35.314 96.544 35.6084C97.5186 36.3237 98.424 37.1167 99.1345 38.1188C99.3521 38.4256 99.6542 38.6759 99.9354 38.9319C100.862 39.7767 101.793 40.6167 102.73 41.449C102.978 41.6696 103.256 41.8566 103.524 42.0541C104.036 42.4319 104.208 42.8749 103.997 43.4742C103.838 43.923 103.695 44.4284 103.387 44.7573C103.109 45.0526 102.631 45.2319 102.215 45.3C101.692 45.3853 101.192 45.1495 100.926 44.6623C100.7 44.25 100.372 44.1723 99.962 44.0995C99.126 43.9499 98.3014 43.7293 97.4711 43.5471C97.1966 43.4867 96.9164 43.4311 96.6361 43.4158C96.258 43.3947 95.8676 43.4695 95.5 43.4033C94.9737 43.3084 94.6127 43.5164 94.4008 43.9432C94.1557 44.437 93.9686 44.9644 93.8014 45.4927C93.581 46.1908 93.3758 46.8975 93.2191 47.6119C93.0557 48.357 93.012 49.1318 92.8153 49.8653C92.5731 50.7667 92.7032 51.6163 92.8837 52.5023C93.2324 54.2149 93.1288 55.8748 92.0611 57.3592C91.8597 57.6392 91.7058 57.9556 91.4711 58.3564C92.0953 58.5885 92.651 58.8426 93.2324 59.0027C94.2992 59.2971 95.3774 59.5522 96.4575 59.7919C97.1482 59.9453 97.6127 60.3289 97.9119 60.9685C98.2663 61.726 98.3518 62.4692 98.2321 63.3274C98.0896 64.3553 98.2074 65.4216 98.2311 66.4707C98.2387 66.8034 98.3575 67.139 98.3309 67.466C98.309 67.7355 98.2074 68.0452 98.0354 68.2447C97.7096 68.6205 97.2945 68.9168 96.9449 69.2736C96.7824 69.4385 96.6741 69.6629 96.563 69.8719C96.2846 70.3936 95.8505 70.7167 95.3081 70.9085C94.9338 71.0408 94.6725 70.8951 94.6991 70.5077C94.7447 69.8451 94.834 69.1786 94.9822 68.5323C95.0269 68.3358 95.3309 68.2034 95.5047 68.0299C95.6615 67.8726 95.878 67.7211 95.935 67.5264C96.1146 66.9175 96.2561 66.2942 96.3654 65.669C96.4613 65.1205 96.5259 64.5625 96.5468 64.0073C96.5763 63.2296 95.6833 62.2927 94.9233 62.1729C93.0395 61.8756 91.1643 62.3263 89.2843 62.217C89.1988 62.2122 89.1105 62.2678 88.9594 62.3148C89.0696 62.4931 89.1418 62.6466 89.2463 62.7731C89.8723 63.5355 90.5069 64.2901 91.1358 65.0505C91.4996 65.4916 91.8578 65.9759 91.5623 66.5647C91.2108 67.2647 90.8935 68.0327 89.917 68.0979C88.4274 68.1977 87.0395 68.6627 85.719 69.3599C84.8964 69.7942 84.6646 69.731 84.0224 69.1019C83.8941 68.9763 83.6567 68.9159 83.4667 68.9101C82.7969 68.889 82.2089 68.7126 81.6703 68.2773C81.3444 68.0136 80.9065 67.8975 80.5408 67.6779C79.9622 67.3318 79.9622 66.9626 80.5617 66.6855C81.106 66.4342 81.676 66.2271 82.2526 66.0641C82.7979 65.9097 83.1836 66.184 83.2719 66.7593C83.3251 67.1045 83.4999 67.3327 83.8144 67.2992C85.5547 67.1122 87.3805 67.5159 89.0401 66.4937C88.9461 66.3892 88.854 66.2425 88.7238 66.1485C87.2162 65.064 85.7086 63.9814 84.1896 62.9141C83.7089 62.5766 83.2672 62.2505 83.233 61.5774C83.2273 61.4594 82.9641 61.2859 82.7988 61.2571C82.1462 61.1411 81.4698 61.1334 80.8295 60.9733C79.7722 60.7086 78.7377 60.3529 77.6899 60.0451C77.2197 59.907 76.7485 59.7622 76.2678 59.6749C75.1706 59.4745 74.6471 59.9779 74.8381 61.0951C74.9644 61.8305 75.1972 62.5478 75.3843 63.2727C75.4005 63.3341 75.4451 63.3907 75.4508 63.4521C75.5914 65.1311 76.3333 66.72 76.1842 68.4422C76.1595 68.7289 76.1614 69.0166 76.1405 69.3033C76.1082 69.7597 75.9476 69.8748 75.5211 69.6859C75.2057 69.5468 74.8941 69.3694 74.6281 69.1508C74.0762 68.6982 73.5575 68.2053 73.0208 67.7345C72.8203 67.559 72.8032 67.4114 72.9581 67.1678C73.2659 66.6826 73.302 66.0507 73.8378 65.6738C74.0582 65.5185 73.8264 64.876 73.5176 64.5653C73.2488 64.294 73.0388 64.4752 72.8051 64.619C72.2124 64.9844 71.6386 65.3929 71.0106 65.6825C70.3314 65.9951 70.0255 65.7601 70.016 65.0131C70.0056 64.1664 70.1956 63.3638 70.6221 62.6293C70.8795 62.1873 71.2225 61.8842 71.7782 61.9744C72.087 62.0242 72.1668 61.8411 72.1734 61.5822C72.1953 60.7038 71.8704 59.9607 71.2833 59.3307C70.9489 58.9721 70.587 58.6384 70.2478 58.2826C69.8232 57.8377 69.4736 57.9067 68.9749 58.2529C68.2415 58.7621 68.118 59.4179 68.0838 60.2474C68.023 61.7126 67.8349 63.174 67.6658 64.6325C67.6173 65.0534 67.6943 65.2903 68.1284 65.3996C68.6025 65.5195 69.0679 65.6834 69.5277 65.8522C70.1015 66.0622 70.4502 66.4477 70.5889 67.0863C70.72 67.6856 70.9289 68.2849 71.212 68.8277C71.365 69.1201 71.7269 69.3177 72.0233 69.5142C72.4688 69.8115 72.9932 70.009 73.3856 70.361C73.8957 70.8193 74.3878 71.3381 74.745 71.9201C75.2827 72.7975 75.6959 73.7526 76.2032 74.7556C79.055 74.6731 82.0379 74.5878 85.0436 74.5015C84.8869 74.6396 84.7339 74.7729 84.581 74.9071C84.5895 74.9589 84.5981 75.0107 84.6066 75.0625C84.9201 75.0768 85.2365 75.1315 85.5452 75.0999C86.6434 74.9857 87.7377 74.841 88.834 74.7125C88.9366 74.701 89.0971 74.6875 89.1408 74.7441C89.5047 75.2255 89.9987 75.1018 90.4528 75.0164C91.3049 74.8563 92.1447 74.6319 92.9939 74.4574C93.3492 74.3845 93.7178 74.3836 94.0769 74.3251C94.6991 74.2234 95.0611 74.6962 95.4838 74.9905C95.8096 75.2178 96.1022 75.329 96.4908 75.26C97.1206 75.1488 97.6982 75.2322 98.2292 75.6685C98.4686 75.8651 98.8353 75.9034 99.2096 76.0367C98.823 76.4989 98.5551 76.9544 97.9062 77.0695C96.6152 77.2977 95.3394 77.617 94.0579 77.9027C93.9753 77.921 93.9002 77.9737 93.8214 78.0101C93.8223 78.0523 93.8233 78.0945 93.8242 78.1367C94.1025 78.1741 94.3818 78.2105 94.7666 78.2623C94.4331 78.433 94.17 78.5692 93.9059 78.7044C93.9135 78.7514 93.9211 78.7984 93.9297 78.8453C94.1937 78.8885 94.4588 78.9307 94.7789 78.9825C94.664 79.132 94.5851 79.2356 94.4863 79.3651C94.5566 79.4025 94.6222 79.4705 94.6811 79.4648C95.6206 79.3785 96.5592 79.2845 97.4977 79.1877C97.6678 79.1704 97.8369 79.1014 98.0031 79.11C98.6947 79.1474 99.3986 79.1416 100.074 79.272C101.062 79.4638 102.043 79.7208 103.003 80.0257C103.521 80.1907 103.946 80.2262 104.361 79.834C104.454 79.7458 104.604 79.6834 104.732 79.6719C106.031 79.554 107.315 79.7314 108.597 79.904C108.735 79.9222 108.866 79.9941 109 80.0411C109 80.0727 109 80.1053 109 80.137C108.478 80.1169 107.956 80.0679 107.436 80.0842C106.602 80.1101 105.74 80.0574 104.945 80.2607C103.708 80.5771 102.474 80.7823 101.204 80.8236C101.015 80.8293 100.827 80.9386 100.64 81C98.0753 81 95.5104 81 92.9455 81C92.6282 80.7315 92.347 80.4381 91.8559 80.4927C91.2032 80.5656 91.1899 80.5225 91.302 79.8656C91.3058 79.8416 91.2773 79.811 91.264 79.7841C91.2564 79.739 91.2498 79.693 91.2422 79.6479C90.5981 79.7525 89.9569 79.8771 89.309 79.9529C88.9927 79.9893 88.6649 79.9212 88.3429 79.9241C88.0702 79.927 87.6503 79.8608 87.5496 80.0056C87.0642 80.6999 86.4363 80.7267 85.7238 80.5666C85.6944 80.5599 85.6611 80.5675 85.6288 80.5695C83.9692 80.6327 82.3105 80.7018 80.65 80.7536C80.479 80.7593 80.3033 80.6653 80.1323 80.6126C79.872 80.5321 79.6183 80.4237 79.3542 80.3671C78.9762 80.2866 78.5905 80.2425 78.2086 80.1801C78.0233 80.1504 77.84 80.1034 77.6538 80.0871C77.0743 80.0353 76.4939 79.9884 75.9134 79.9519C75.7681 79.9433 75.6199 79.9807 75.5639 79.9864C75.4784 80.2386 75.4442 80.5301 75.3644 80.5436C74.8314 80.6327 74.232 80.8274 73.7665 80.6634C73.3286 80.509 72.9476 80.4275 72.5059 80.4822C71.972 80.5484 71.4372 80.6068 70.9014 80.6471C70.4188 80.6836 69.8716 80.8418 69.4631 80.674C68.7811 80.394 68.1284 80.5378 67.4596 80.509C66.8365 80.4822 66.2152 80.4064 65.5968 80.324C65.0534 80.2511 64.5128 80.0516 63.9733 80.0622C62.3213 80.0977 60.6712 80.207 59.004 80.2885C58.9907 80.0871 58.983 79.9759 58.9726 79.8225C58.4292 79.8627 57.9276 79.9068 57.4241 79.9327C57.2541 79.9414 57.0033 79.973 56.9245 79.8781C56.6205 79.5156 56.249 79.623 55.8747 79.623C55.5309 79.623 55.1851 79.5808 54.844 79.5271C54.0138 79.3967 53.1987 79.3814 52.3038 79.7496C52.5498 79.8455 52.6971 79.903 52.9213 79.9903C52.1547 80.4189 51.2949 79.9414 50.4732 80.4544C50.8275 80.5752 51.0479 80.65 51.2845 80.7315C51.1942 80.8351 51.123 80.9166 51.0508 80.999C50.7658 80.999 50.4808 80.999 50.1958 80.999C49.9726 80.907 49.755 80.7996 49.5261 80.7267C48.8982 80.5263 48.2674 80.3336 47.6337 80.1533C47.3706 80.0785 47.097 79.9989 46.8272 79.9951C45.8972 79.9845 44.9662 79.997 44.0362 80.02C42.9846 80.0459 41.913 79.9768 40.888 80.1638C40.0112 80.324 39.1647 80.2166 38.305 80.2319C37.887 80.2396 37.4681 80.1763 37.0511 80.1936C36.5029 80.2166 35.9557 80.2866 35.4114 80.3364C35.3725 80.1945 35.3269 80.1159 35.3335 80.042C35.3801 79.5444 35.1169 79.4696 34.697 79.5022C33.5457 79.5923 32.3924 79.6575 31.2391 79.7227C30.5618 79.7611 29.8455 79.9318 29.2138 79.7726C28.3056 79.5444 27.3974 79.5051 26.5064 79.5751C25.3237 79.669 24.1542 79.7122 22.9658 79.6758C21.101 79.6192 19.2324 79.7438 17.3648 79.7342C16.2286 79.7285 16.4443 79.7093 16.0415 78.574C16.6428 78.574 17.2385 78.5557 17.8322 78.5807C18.196 78.596 18.481 78.5462 18.6501 78.1703C18.7755 77.8903 18.9684 77.7704 19.3284 77.8174C19.7036 77.8653 20.1083 77.779 20.4845 77.687C20.8407 77.5997 21.1723 77.4147 21.5247 77.3005C21.8088 77.2085 22.1394 77.2171 22.392 77.0762C22.9962 76.7405 23.5862 76.8949 24.0507 77.2267C24.805 77.7637 25.5574 77.5566 26.3306 77.4396C26.4009 77.429 26.4589 77.3264 26.5539 77.2373C26.3658 77.127 26.2195 77.0416 25.9829 76.9036C26.6498 76.6763 27.4877 77.0368 27.7271 76.0242C28.8262 76.0242 29.9177 76.0405 31.0083 76.0146C31.3636 76.006 31.5099 76.1556 31.5973 76.4442C31.0159 76.7233 30.3747 76.8307 29.9909 77.4597C30.4146 77.5403 30.8268 77.5249 31.2372 77.5479C31.4215 77.5585 31.7122 77.5949 31.7616 77.7062C31.8861 77.9881 32.0742 78.0255 32.2908 77.944C33.2379 77.5882 34.2116 77.2794 35.1027 76.8115C35.5406 76.5814 35.9377 76.4145 36.4184 76.4097C36.7034 76.4069 36.9988 76.4231 37.2686 76.3503C37.4814 76.2927 37.6628 76.1134 37.8566 75.9868C37.9896 75.8996 38.1198 75.7356 38.2528 75.7327C39.2626 75.7164 40.2743 75.7145 41.2841 75.7462C41.6195 75.7567 41.9681 75.8325 42.2816 75.9552C42.8744 76.1873 42.9295 76.1911 43.2715 75.6215C45.1249 75.6215 47.0058 75.6215 48.9438 75.6215C48.8706 75.5074 48.8535 75.4594 48.8193 75.4326C48.1021 74.8534 47.6166 74.1707 47.7458 73.1734C47.7591 73.0679 47.6119 72.9001 47.4988 72.8244C46.5878 72.2184 46.2002 71.5126 46.1822 70.3629C46.2202 70.454 46.2515 70.5268 46.2819 70.5997C46.4938 71.1108 46.6391 71.666 46.9336 72.1234C47.3658 72.7956 48.1467 72.7256 48.56 72.0486C48.6407 71.9163 48.7253 71.7658 48.8469 71.6804C49.4634 71.247 49.5527 71.1415 49.1679 70.4971C48.4517 69.2966 47.6556 68.144 46.8833 66.9789C46.8405 66.9147 46.6914 66.8677 46.6135 66.8897C46.1936 67.0086 45.7803 67.1515 45.2959 67.3078C45.4688 67.9052 45.6521 68.54 45.8354 69.1748C45.0365 66.7075 43.6154 64.666 41.7791 62.8921C41.3345 62.4634 41.1483 61.9169 41.0609 61.3127C41.0257 61.0711 40.8899 60.8448 40.7797 60.5581C40.6163 60.6847 40.5413 60.7201 40.4976 60.7796C40.0843 61.3425 39.6578 61.8977 39.2749 62.4807C39.1229 62.7127 39.0489 63.0052 38.9738 63.2794C38.8446 63.7551 38.7211 64.2355 38.6328 64.7207C38.5207 65.3421 38.3763 65.9701 38.3668 66.5963C38.3354 68.6551 38.9957 70.546 39.8212 72.3977C40.0102 72.8225 40.0131 73.3326 40.1014 73.8034C39.6074 73.8015 39.1087 73.8399 38.6195 73.7862C38.1416 73.7344 37.8794 73.4103 37.8158 72.9155C37.7901 72.7151 37.6771 72.529 37.6248 72.3305C37.526 71.9547 37.4272 71.5778 37.3598 71.1962C37.319 70.9641 37.375 70.7129 37.3228 70.4847C36.8516 68.4326 36.3927 66.3767 35.8712 64.3371C35.6432 63.4463 35.7372 62.6773 36.1552 61.8536C36.6578 60.8649 37.0425 59.8111 37.4168 58.763C37.6305 58.1618 37.4766 58.0151 36.863 57.9019C35.4181 57.6344 33.9751 57.3592 32.5358 57.06C32.1796 56.9862 31.9839 57.0456 31.9554 57.4282C31.9165 57.9412 31.66 58.3267 31.2819 58.6479C30.7698 59.0833 30.4896 59.6442 30.4668 60.3164C30.4402 61.0989 30.6188 61.8392 31.0197 62.5152C31.336 63.0493 31.7464 63.5422 31.9763 64.1108C32.4228 65.2097 33.3357 65.8359 34.1498 66.5858C34.5403 66.9453 34.8984 67.4363 35.0542 67.9359C35.249 68.5592 35.2547 69.2525 35.2822 69.9189C35.3468 71.4484 35.3782 72.9788 35.4181 74.5082C35.438 75.2888 35.2727 76.0041 34.641 76.5296C34.2695 76.8384 33.8573 76.8921 33.4592 76.6092C32.9329 76.2352 32.3753 75.8459 32.2908 75.1373C32.21 74.4612 32.0428 73.7794 32.6517 73.1753C33.4858 72.3468 33.3804 71.0053 32.4646 70.1999C31.9782 69.7722 31.6391 69.2755 31.5061 68.6455C31.2477 67.4229 30.5305 66.5071 29.5928 65.7563C27.9247 64.4215 26.4902 62.894 25.5023 60.9695C25.4358 60.84 25.3037 60.746 25.1679 60.5993C24.9199 61.539 24.6948 62.3819 24.4744 63.2257C24.2682 64.014 23.9291 64.7236 23.3097 65.2701C22.8651 65.6623 22.3104 65.8752 21.804 65.8042C23.0067 65.2059 23.9852 64.4848 24.1723 63.08C22.9801 64.1377 21.3062 64.5251 20.3962 65.9519C20.3544 65.9145 20.3135 65.8762 20.2717 65.8388C20.7049 65.3516 21.1371 64.8636 21.6501 64.2863C21.1666 64.5184 20.779 64.7034 20.3924 64.8895C20.3734 64.8501 20.3544 64.8108 20.3354 64.7715C20.9386 64.386 21.6606 64.1367 22.0035 63.3878C20.8322 63.4923 19.7473 63.3868 18.6777 63.0589C19.7692 63.2296 20.8455 63.3236 21.7223 62.472C22.5735 61.6455 22.6932 60.5705 22.697 59.4736C22.6514 59.4573 22.6067 59.44 22.5611 59.4237C22.3702 60.0077 22.1783 60.5907 21.9874 61.1747C21.956 61.1641 21.9237 61.1536 21.8924 61.143C21.9218 60.7786 21.9513 60.4142 21.9836 60.0125C21.5152 60.1937 21.5 60.2023 21.4145 60.8525C21.33 61.4978 20.9766 61.9379 20.4418 62.2544C20.5957 61.9657 20.817 61.7193 20.969 61.4355C21.1162 61.1603 21.1922 60.8457 21.311 60.5178C20.4038 60.7 19.6134 60.8592 18.8221 61.0184C18.8116 60.9627 18.8021 60.9062 18.7917 60.8505C18.9902 60.817 19.1954 60.8036 19.3863 60.746C19.9126 60.5859 20.4351 60.4133 20.9547 60.234C21.2473 60.1333 21.3338 59.9012 21.2302 59.6251C21.0687 59.1955 20.9528 58.7218 20.6868 58.3651C20.0523 57.5116 19.3493 56.7081 18.6558 55.9007C18.4307 55.6379 18.1466 55.427 17.8892 55.1921C17.855 55.8432 18.2274 56.2085 18.6207 56.5671C17.836 56.3447 17.4474 55.7741 17.2613 55.0271C17.1805 54.7021 17.1397 54.3655 17.0361 54.049C16.9687 53.841 16.8224 53.6578 16.7112 53.4641C16.6599 53.4958 16.6077 53.5274 16.5564 53.559C16.3702 55.6801 17.8151 56.8529 19.2429 58.0371C17.2328 56.9478 16.0624 55.2525 16.0871 53.1314C16.0947 52.4448 16.146 51.7573 16.1165 51.0726C16.0709 50.0101 16.1555 48.9707 16.4557 47.9495C16.4946 47.8181 16.4747 47.6704 16.4889 47.4125C15.6226 48.3886 15.5171 49.453 15.5029 50.549C15.1286 49.4703 15.405 48.474 15.8553 47.4921C14.6146 48.6188 13.8613 49.8788 14.798 51.6297C14.7419 51.6269 14.6859 51.623 14.6298 51.6201C14.4199 51.2797 14.2099 50.9393 14 50.5999C14 50.1847 14 49.7685 14 49.3533C14.0693 49.2689 14.1681 49.1951 14.2042 49.0982C14.5975 48.0223 15.3575 47.1977 16.0719 46.349C16.6371 45.6768 17.0703 44.9548 17.2499 44.087C17.3401 43.6497 17.4218 43.2096 17.531 42.7771C17.7951 41.7262 18.2568 40.8296 19.3806 40.4796C20.2157 40.2188 21.007 40.3914 21.7841 40.7203C22.0501 40.8325 22.2914 40.9284 22.563 40.6733C23.5197 39.7729 24.6007 39.0614 25.8167 38.5589C26.0466 38.464 26.2499 38.2962 26.4551 38.1466C27.5276 37.3632 28.6761 36.736 29.9624 36.3879C30.6521 36.201 31.1878 35.4559 31.0776 34.5718C30.8914 34.8278 30.7052 35.0838 30.5181 35.3389C30.4839 35.3111 30.4497 35.2823 30.4155 35.2545C30.4849 35.0407 30.5542 34.8259 30.6511 34.5267C29.7961 35.0704 29.1311 35.7733 28.1593 35.8807C28.546 35.5844 28.9792 35.3552 29.3477 35.0484C29.704 34.7521 29.9937 34.3742 30.3129 34.0329C30.2759 33.9964 30.2379 33.959 30.2008 33.9226C29.2128 34.6801 28.2581 35.5105 26.9101 35.4827C28.2182 35.0781 29.3249 34.4011 30.0631 33.2006C29.2518 33.7212 28.4405 34.2429 27.6292 34.7636C27.5884 34.7099 27.5475 34.6562 27.5057 34.6015C29.114 33.5707 30.4497 32.3001 31.2553 30.4073C29.9006 31.3633 28.6476 32.2474 27.3414 33.1689C27.5447 32.8995 27.6919 32.6319 27.9057 32.4373C28.4795 31.9127 29.0419 31.3604 29.6812 30.927C30.9484 30.0668 31.6999 28.8395 32.2965 27.4788C32.3648 27.3225 32.3895 27.1479 32.4636 26.8756C31.7749 27.4682 31.1897 27.9707 30.6046 28.4741C30.5742 28.4377 30.5438 28.4022 30.5134 28.3658C30.8401 28.0138 31.1669 27.6619 31.4947 27.311C31.4538 27.2707 31.413 27.2314 31.3712 27.1911C30.8876 27.5603 30.4241 27.9611 29.9158 28.2919C29.0684 28.8442 28.4149 29.5136 28.2809 30.577C28.2724 30.6422 28.2296 30.7026 28.1793 30.8205C27.8116 29.8741 28.4282 29.2642 28.7635 28.5614C28.0415 28.9238 27.5608 29.4963 27.2065 30.1963C27.424 28.4933 28.8433 27.7895 30.0308 26.8488C29.761 26.5995 29.5016 26.4278 29.3354 26.189C29.0817 25.8256 28.7768 25.8668 28.3075 26.2159C27.9437 26.4873 28.2553 26.7155 28.4035 26.9389C28.4956 27.077 28.6096 27.2016 28.7132 27.3321C28.6866 27.3618 28.659 27.3915 28.6324 27.4203C28.4348 27.2362 28.1954 27.0808 28.0472 26.8622C27.7822 26.4719 27.5608 26.5534 27.2987 26.843C26.8398 27.3503 26.7496 27.8949 27.1581 28.5038C26.6242 28.2564 26.646 27.8173 26.6356 27.3292C26.4522 27.5564 26.2698 27.7847 26.0865 28.0119C26.1995 27.2275 26.646 26.6532 27.2151 26.2418C27.9 25.747 27.8962 24.931 28.4006 24.3115C27.5618 24.3173 27.4136 24.5081 27.3538 25.5178C26.8541 25.2359 26.7553 24.9137 26.9785 24.4247C27.0593 24.2473 27.141 24.021 27.1001 23.8455C26.9301 23.11 27.178 22.4589 27.4269 21.8001C27.5029 21.5988 27.5694 21.3936 27.6425 21.1826C27.672 21.2085 27.7451 21.2852 27.7518 21.2795C28.4491 20.706 29.1425 20.1259 29.8351 19.5467C29.8189 19.5093 29.8028 19.4719 29.7876 19.4345C29.4247 19.6158 29.0352 19.7577 28.7065 19.9888C28.374 20.2218 28.1023 20.5421 27.804 20.824C27.8734 20.5871 27.9969 20.3915 28.1536 20.2295C28.8481 19.5084 29.7192 19.1133 30.6644 18.8477C31.0415 18.7412 31.4044 18.584 31.774 18.4497C31.7483 18.3874 31.7217 18.3251 31.6961 18.2627C29.9462 18.4401 28.2287 18.6904 27.0935 20.3656C27.3082 19.9466 27.5732 19.5668 27.8458 19.1929C27.9285 19.0807 28.0757 19.0011 28.1223 18.8793C28.3018 18.4056 28.4529 17.9195 28.6011 17.4774C28.184 17.5522 28.1023 17.6471 27.6929 18.653C27.5143 18.0911 27.7575 17.7277 28.07 17.4151C28.5735 16.9107 29.2271 16.7141 29.9035 16.5827C30.3405 16.4974 30.7774 16.4159 31.2154 16.3325C31.2135 16.2903 31.2106 16.249 31.2087 16.2068C30.9902 16.1877 30.7717 16.1695 30.6074 16.1551C32.1008 15.8108 33.635 15.456 35.2376 15.0859C34.5355 14.3715 33.6739 13.9774 32.761 13.6581C33.6891 13.5181 34.4196 14.0359 35.2746 14.3773C35.134 13.9927 35.002 13.6888 34.9117 13.3733C34.6552 12.4738 34.8965 11.8736 35.6774 11.373C35.8417 11.2675 35.9833 11.1256 36.1353 11C36.4877 11.0038 36.8354 11.0038 37.1841 11.0038ZM51.9903 64.6795C52.9526 65.3689 53.9358 66.0315 54.863 66.7679C55.0777 66.9386 55.1005 67.3567 55.2088 67.6616C55.3076 67.9368 55.3276 68.2926 55.5147 68.4738C56.0039 68.9475 56.4438 69.4203 56.5122 70.1395C56.515 70.1653 56.5853 70.1836 56.6243 70.2066C56.8884 69.6504 56.8314 69.1326 56.4039 68.726C55.7959 68.1469 55.5622 67.4785 55.6211 66.6231C55.661 66.0363 55.5689 65.4044 55.3846 64.8434C54.9447 63.5125 54.1838 62.3579 53.2557 61.3118C52.5413 60.5063 51.8573 59.6721 51.1572 58.8541C51.0916 58.7784 51.0014 58.7237 50.9168 58.6547C50.7154 58.9471 50.5597 59.23 50.3507 59.4659C49.7959 60.0921 49.6667 60.8534 49.6429 61.6436C49.6135 62.6667 49.9745 63.4645 50.9463 63.9373C51.331 64.1242 51.6559 64.4407 52.0074 64.6977C51.7367 64.5471 51.464 64.3985 51.1942 64.2451C50.7677 64.0015 50.5654 64.0734 50.3982 64.5231C50.3545 64.6401 50.3222 64.7821 50.2367 64.8578C49.8871 65.1666 49.8776 65.3871 50.2509 65.7093C51.1163 66.4553 51.9751 67.21 52.8652 67.9244C53.0913 68.1056 53.4248 68.1526 53.7107 68.2571C53.8361 68.3032 54.0185 68.2964 54.0831 68.3837C54.4593 68.889 54.7414 68.9859 55.2031 68.8037C55.072 68.3578 54.8592 67.9321 54.8459 67.5005C54.8355 67.141 54.7737 66.8868 54.5011 66.6768C53.9605 66.2607 53.4181 65.8474 52.8833 65.4255C52.5793 65.1838 52.2877 64.9278 51.9903 64.6795ZM47.9444 64.7638C47.9026 64.8099 47.8598 64.8549 47.818 64.901C48.0394 65.1263 48.2408 65.3766 48.4859 65.5722C49.5375 66.4132 49.5821 66.5493 49.1489 67.793C48.8934 68.5275 48.8706 69.2448 49.2373 69.9678C49.3997 70.2871 49.4292 70.6716 49.5574 71.0121C49.6296 71.2048 49.7465 71.4771 49.9013 71.527C50.6698 71.7734 51.1192 72.367 51.5362 72.9855C51.7994 73.3758 52.0065 73.8101 52.1908 74.2455C52.3969 74.7326 52.1898 75.1507 51.8127 75.5016C52.5147 75.4537 53.1588 75.4096 53.8029 75.3655C53.8086 75.4288 53.8133 75.4911 53.819 75.5544C52.7968 75.8564 51.7376 75.9197 50.685 75.9293C50.5891 76.591 50.6793 76.6897 51.2731 76.6447C51.4298 76.6331 51.5961 76.613 51.7433 76.6523C51.8431 76.6792 51.9751 76.7952 51.9884 76.8863C52.0017 76.9784 51.9105 77.1289 51.8222 77.1836C51.7091 77.2545 51.5476 77.2996 51.4175 77.2794C50.3944 77.1241 49.489 77.7158 48.4916 77.7484C48.3329 77.7531 48.085 78.0379 48.0574 78.2211C48.0299 78.4023 48.1819 78.6775 48.3396 78.8041C48.5106 78.9403 48.7766 78.9959 49.0055 79.0093C50.6898 79.111 52.375 79.1944 54.0593 79.2816C54.3595 79.297 54.6645 79.2768 54.959 79.3258C56.8865 79.6432 58.8092 79.4504 60.7329 79.2912C60.8345 79.2826 60.9333 79.2251 61.0331 79.1905C61.0255 79.1637 61.0179 79.1378 61.0103 79.111C60.3662 79.0525 59.7231 78.994 59.079 78.9355C59.0828 78.8741 59.0857 78.8127 59.0895 78.7504C59.3573 78.7504 59.6243 78.7456 59.8922 78.7514C60.295 78.759 60.711 78.8463 61.0986 78.7734C62.2871 78.549 63.4631 78.4848 64.6772 78.596C66.1211 78.7284 67.5803 78.7111 69.0328 78.7322C69.2285 78.7351 69.4261 78.5816 69.7329 78.4551C69.0831 78.1051 68.403 78.1166 68.0401 77.4012C68.6272 77.3207 69.1591 77.2468 69.7472 77.1663C69.6626 76.9295 69.5961 76.7444 69.5144 76.5152C70.1348 76.3781 70.7133 76.0741 71.3042 76.613C71.4619 76.7569 71.7792 76.8096 72.0043 76.776C73.0958 76.6159 74.1807 76.4126 75.2665 76.2218C75.3311 76.2103 75.39 76.1642 75.5601 76.0818C75.1915 75.9523 74.9055 75.8996 74.6756 75.7558C74.4685 75.6253 74.2225 75.4182 74.1731 75.2034C74.0866 74.8218 73.8919 74.6578 73.5461 74.5993C73.3276 74.5619 73.1091 74.5245 72.8944 74.4708C72.4308 74.3548 72.2418 74.0336 72.3701 73.5694C72.4546 73.2626 72.6075 72.9682 72.6436 72.6575C72.6655 72.4725 72.5762 72.1742 72.4384 72.0879C71.9084 71.7552 71.3384 71.4877 70.776 71.1923C70.6686 71.3755 70.5993 71.4944 70.5338 71.6066C69.8631 71.433 69.4593 71.0801 69.2579 70.3677C69.1078 69.8364 68.8191 69.4567 68.3564 69.1968C67.0863 68.4825 65.8247 67.7508 64.5356 67.071C63.8992 66.7353 63.4669 66.3422 63.6056 65.5501C63.6892 65.0726 63.4489 64.8233 63.0204 64.6545C62.3735 64.3994 61.738 64.1108 61.1138 63.803C60.7168 63.6074 60.6256 63.2708 60.8744 62.8853C61.2288 62.3368 61.5888 61.7931 61.9603 61.2571C62.2918 60.7786 62.6404 60.3126 63.0081 59.8044C62.6138 59.5579 62.27 59.3633 61.9479 59.137C60.8317 58.3536 59.5967 57.6871 58.6487 56.7321C57.7623 55.8393 56.8675 55.5555 55.7018 55.6945C55.1195 55.7636 54.522 55.707 53.9558 55.707C54.313 56.5326 54.7063 57.2307 54.9219 57.9805C55.5071 60.0106 56.1179 62.0137 57.293 63.803C57.6417 64.3342 57.7965 64.994 58.0549 65.5885C58.1347 65.7726 58.2383 65.9634 58.3779 66.1015C58.9603 66.6749 59.1417 67.3442 58.8662 68.1133C58.7171 68.5294 58.8225 68.8421 59.0895 69.1662C59.7307 69.941 60.3292 70.7436 60.5325 71.7705C60.5629 71.923 60.6674 72.0592 60.7129 72.2107C60.9115 72.8781 61.1632 73.5388 61.2639 74.2215C61.3057 74.5063 61.0929 74.9157 60.8678 75.1344C60.5847 75.4105 60.1867 75.5879 59.8114 75.7404C58.8947 76.1134 57.9656 76.0626 57.1202 75.564C56.8314 75.3933 56.5435 74.9944 56.5027 74.6684C56.42 74 56.4704 73.3077 56.5302 72.6307C56.5844 72.0122 56.5179 71.8607 55.9317 71.7284C54.7177 71.4541 53.9701 70.6084 53.4314 69.5584C53.3127 69.3263 53.5397 68.8977 53.4067 68.6925C53.2471 68.447 52.8082 68.4019 52.6002 68.1689C51.3272 66.744 49.7018 65.81 48.1144 64.8214C48.065 64.7888 48.0014 64.7821 47.9444 64.7638ZM34.8842 38.2684C34.8376 38.2885 34.7911 38.3086 34.7436 38.3278C33.8506 37.3296 33.3253 36.1262 32.9719 34.8249C32.5254 34.8796 32.3639 35.2104 32.3326 35.5268C32.2338 36.5212 32.1065 37.5262 32.1559 38.5186C32.2433 40.2466 32.5358 41.9438 33.5001 43.4416C33.539 43.5011 33.5219 43.5979 33.5305 43.6775C33.4953 43.6967 33.4602 43.7159 33.425 43.7351C32.9947 43.1856 32.5643 42.6371 32.1502 42.1078C31.9668 43.0926 33.3889 46.0125 34.2686 46.3471C34.603 45.6395 34.0349 45.0555 34.0264 44.3795C35.1131 45.0152 34.9953 46.3634 35.7391 47.1986C35.6242 47.2408 35.5625 47.2456 35.5064 47.2293C35.0618 47.0979 34.8642 47.2629 34.9887 47.7088C35.0732 48.0118 35.1967 48.3244 35.382 48.5718C35.4874 48.7127 35.7534 48.731 35.9472 48.8038C35.9652 48.6284 36.0061 48.451 35.9937 48.2784C35.9814 48.1096 35.913 47.9447 35.8531 47.7145C36.3072 47.9044 36.673 48.0386 37.0216 48.2084C37.3247 48.356 37.2221 48.5411 36.995 48.6542C36.5571 48.8729 36.6027 49.1682 36.8136 49.5182C36.8801 49.6295 36.9219 49.756 36.9931 49.9181C35.8503 49.569 35.7771 49.5873 35.6005 50.1655C35.8892 50.387 36.1543 50.5893 36.4184 50.7945C36.6065 50.9403 36.7803 51.1071 36.9798 51.2356C37.736 51.7199 38.4912 51.4082 38.6708 50.5279C38.7791 49.9977 38.8921 49.4607 38.9187 48.9227C38.9615 48.0549 38.9339 47.1842 38.9358 46.3145C38.9358 46.14 38.9358 45.9655 38.9358 45.7258C39.0783 45.813 39.1837 45.8389 39.1999 45.8936C39.4298 46.6444 39.73 47.3875 39.8392 48.1575C39.9171 48.707 39.7148 49.2938 39.6825 49.8663C39.6749 50.0101 39.8126 50.2575 39.9323 50.2949C40.3598 50.4282 40.8091 50.4906 41.1654 50.5625C42.0783 50.0552 42.7708 49.3993 42.9228 48.2525C43.2031 48.426 43.4045 48.5411 43.5945 48.6705C44.0638 48.9908 44.4912 49.3744 45.1173 49.3734C45.8117 49.3725 45.9029 49.3025 45.9143 48.5852C45.9162 48.4452 45.9333 48.3062 45.9475 48.1086C46.8909 48.3301 46.5612 47.3731 46.9184 47.0452C47.8266 47.4873 48.2674 47.3463 48.2816 46.5523C48.2959 45.7938 48.1809 45.0305 48.0774 44.2749C48.0441 44.0304 47.8674 43.806 47.7563 43.5721C47.7249 43.5836 47.6936 43.5941 47.6622 43.6056C47.5824 44.0515 47.5026 44.4964 47.4238 44.9423C47.3735 44.9375 47.3231 44.9327 47.2728 44.9279C47.2196 44.7477 47.1388 44.5712 47.1179 44.3881C47.0267 43.5769 46.6771 42.9075 46.1337 42.3082C45.919 42.0723 45.7642 41.7482 45.6749 41.4375C45.5172 40.89 45.4707 40.3099 45.3035 39.7662C45.1116 39.1429 44.7886 38.5838 44.2034 38.1773C44.1635 38.8907 44.3088 39.5667 44.0229 40.1977C43.8671 39.4219 43.8225 38.6347 43.2601 37.9673C43.1736 38.1015 43.1128 38.1955 43.0226 38.3345C42.6891 37.4504 42.653 36.4934 41.8598 35.8049C41.6736 37.5818 41.8465 39.3222 41.2803 40.9821C41.1749 40.6704 41.1758 40.3636 41.1749 40.0567C41.1739 39.4248 41.2338 38.7862 41.1587 38.1629C40.9098 36.0869 40.3874 34.0866 39.3139 32.2733C39.1685 32.0278 38.9016 31.8552 38.6907 31.6481C38.6204 31.6749 38.5492 31.7027 38.4789 31.7296C38.4238 32.3596 38.3677 32.9896 38.3126 33.6196C38.2737 33.6359 38.2338 33.6522 38.1948 33.6685C38.0267 33.4278 37.8595 33.1862 37.6514 32.8879C37.6514 33.0721 37.6324 33.1842 37.6543 33.2878C37.8614 34.2515 38.0713 35.2152 38.2898 36.177C38.4048 36.6842 38.476 37.2136 38.6755 37.6863C39.2008 38.9319 39.8107 40.1421 40.3351 41.3886C40.5441 41.8863 40.6173 42.4415 40.7521 42.9708C40.7027 42.9967 40.6534 43.0226 40.604 43.0485C40.4909 42.9603 40.3627 42.8855 40.2667 42.781C40.0625 42.5585 39.8829 42.314 39.6787 42.0915C38.3516 40.6474 37.6429 38.953 37.7141 36.9729C37.7569 35.7714 37.2829 34.7147 36.9 33.6129C36.8411 33.8938 36.7832 34.1748 36.7243 34.4548C36.54 34.3704 36.463 34.3023 36.4469 34.2218C36.2996 33.4719 36.0906 32.7259 36.0384 31.9684C35.9529 30.7275 35.9662 29.48 35.9519 28.2344C35.951 28.1193 36.045 28.0033 36.0954 27.8873C36.1742 27.9716 36.2939 28.0426 36.3243 28.1423C36.6198 29.083 36.9019 30.0275 37.1841 30.9721C37.2259 31.1111 37.2506 31.2559 37.2829 31.3978C37.3418 31.3882 37.3997 31.3786 37.4586 31.369C37.356 30.5358 37.2867 29.6958 37.1432 28.8701C36.9409 27.7089 36.6112 26.5669 36.4687 25.3999C36.2958 23.9807 36.5713 22.6123 37.2088 21.313C37.5203 20.6773 37.83 20.0204 37.6799 19.2533C37.6419 19.0577 37.7065 18.7873 37.8253 18.6262C38.0723 18.2896 38.3867 18.0029 38.6736 17.696C38.6527 17.6558 38.6318 17.6145 38.6109 17.5742C38.2936 17.6433 37.9773 17.7114 37.6419 17.7842C37.7255 17.9942 37.7768 18.1218 37.8063 18.1966C37.6049 18.4305 37.2677 18.6616 37.3 18.8112C37.4139 19.3377 37.0805 19.4326 36.7499 19.5918C36.235 19.8382 35.9377 20.5373 36.1182 21.0733C36.8411 20.8949 36.8468 20.0252 37.4434 19.5553C37.4738 20.1997 37.2373 20.59 36.9665 20.9611C36.5742 21.4981 36.2721 22.0581 36.2778 22.7571C36.2797 22.9345 36.1448 23.1129 36.0726 23.2912C36.0203 23.2768 35.969 23.2634 35.9168 23.249C35.893 23.0822 35.8949 22.9067 35.8398 22.7504C35.7752 22.5682 35.6622 22.4042 35.5701 22.2326C35.4057 22.341 35.1768 22.41 35.0884 22.5634C34.716 23.2116 34.3712 23.8781 34.0444 24.5512C33.8858 24.8782 33.7385 25.2263 33.672 25.5811C33.2398 27.9084 33.2426 30.249 33.4839 32.5964C33.5675 33.4058 33.5428 34.239 33.7338 35.0196C33.9561 35.9258 34.3626 36.7859 34.6856 37.6681C34.7607 37.8647 34.8196 38.0679 34.8842 38.2684ZM21.1305 45.8005C21.0763 45.8121 21.0212 45.8226 20.9671 45.8341C21.0659 46.8582 21.1039 47.8929 21.2796 48.9036C21.4867 50.0955 21.5817 51.2567 21.3566 52.464C21.1742 53.443 21.3015 54.4422 21.7128 55.3685C21.9826 55.9755 22.4452 56.4242 22.943 56.8279C22.9753 56.8011 23.0086 56.7752 23.0409 56.7484C22.8794 56.4329 22.7179 56.1164 22.5184 55.7262C23.3335 55.9199 23.8598 56.3916 24.0156 57.0485C24.1428 57.5855 24.4136 58.0131 24.8164 58.3727C24.9342 58.4773 25.0624 58.5885 25.1327 58.7247C25.5004 59.4381 25.9373 60.0182 26.8864 59.7162C26.9472 60.3069 26.4665 60.3433 26.1853 60.5725C26.2261 60.6952 26.2451 60.8266 26.3078 60.9311C27.2578 62.5315 28.3075 64.0408 29.9519 65.0122C30.5694 65.3775 31.127 65.7947 31.4662 66.4774C31.8699 67.2886 32.3411 68.0663 32.7828 68.8584C33.0716 69.3752 33.4858 69.731 34.0833 69.7856C34.261 69.8019 34.5175 69.7319 34.6172 69.6053C34.7227 69.4711 34.6828 69.2218 34.7151 68.9562C34.0758 69.2784 33.5704 69.1863 33.1362 68.8459C32.9481 68.6992 32.8674 68.4115 32.7382 68.1881C32.7885 68.144 32.8379 68.0999 32.8883 68.0548C33.1258 68.1564 33.3576 68.2734 33.6017 68.3559C33.8886 68.4537 34.2192 68.4604 34.3018 68.1162C34.4149 67.6415 33.8155 67.1793 33.2027 67.3337C33.4108 67.5936 33.5875 67.8151 33.8069 68.0893C33.2949 68.1229 32.8854 67.98 32.7059 67.5993C32.5862 67.3462 32.7002 66.9808 32.7078 66.6653C32.7116 66.4947 32.7838 66.2674 32.703 66.1638C32.381 65.7553 32.0419 65.3478 31.6476 65.0151C31.337 64.7533 31.1042 64.5538 31.1869 64.0821C31.2268 63.8558 31.0529 63.5729 30.9313 63.3408C30.7176 62.9323 30.4488 62.5536 30.2379 62.1441C29.7021 61.1027 29.1853 60.0518 28.6505 58.9836C28.6039 58.9903 28.488 59.0075 28.2961 59.0363C28.3816 58.7333 28.4633 58.4964 28.5146 58.2529C28.5697 57.9901 28.678 57.6996 28.6153 57.4608C28.5526 57.224 28.241 56.8308 28.1517 56.8596C27.5694 57.0495 27.6558 56.6505 27.5998 56.3293C27.5 55.7578 27.1353 55.3781 26.6175 55.194C26.19 55.0425 25.7435 55.0252 25.4187 55.4682C25.375 55.5277 25.2135 55.5804 25.1869 55.5545C25.1204 55.4874 25.0406 55.3445 25.07 55.2851C25.1964 55.0348 25.337 54.7816 25.5175 54.5697C25.8376 54.1938 25.9573 53.7959 25.7426 53.3366C25.6353 53.1064 25.5232 52.8667 25.3607 52.6778C24.4297 51.5923 23.6973 50.3956 23.2451 49.0273C22.9022 47.9897 22.2885 47.074 22.0748 45.9636C21.7793 44.4274 22.2629 43.1338 23 41.87C23.058 41.7703 23.1729 41.7041 23.2613 41.6226C23.3154 41.8105 23.285 41.9525 23.2337 42.0877C23.1444 42.3255 23.0276 42.5547 22.9478 42.7953C22.3721 44.5463 22.5716 46.2829 23.21 47.9504C23.5577 48.8595 24.0763 49.7196 24.6245 50.5279C25.0662 51.179 26.1577 51.6316 26.7116 51.5521C25.6115 50.4742 24.5675 49.3811 24.6302 47.5688C24.8914 47.7289 25.0463 47.8296 25.2068 47.9207C26.2261 48.5018 27.4155 47.8593 27.4335 46.699C27.4421 46.1256 27.405 45.5493 27.3509 44.9778C27.2018 43.4244 26.9206 41.8729 27.596 40.3549C27.6862 40.1516 27.6131 39.7192 27.4592 39.6012C27.2968 39.4775 26.9415 39.5763 26.6812 39.63C26.4883 39.6693 26.3116 39.7921 26.1283 39.8774C26.1112 39.8486 26.0941 39.8189 26.077 39.7901C26.1948 39.5801 26.3116 39.3701 26.4817 39.0662C25.4709 39.047 24.7432 39.5322 24.0668 40.0059C21.957 41.4845 21.0203 43.5011 21.6368 46.1534C21.5447 46.1975 21.4525 46.2416 21.3594 46.2848C21.2806 46.1256 21.2055 45.9636 21.1305 45.8005ZM91.2251 49.9478C91.055 49.8692 90.9258 49.8433 90.8441 49.7656C90.4281 49.3763 90.0006 48.9947 89.6215 48.5699C89.0183 47.8938 88.4692 47.1679 87.8603 46.4967C87.2723 45.8495 86.5645 45.394 85.682 45.2214C84.5648 45.0037 83.4752 45.16 82.3866 45.3834C80.1465 45.8418 77.8808 46.0863 75.6 46.069C74.3545 46.0595 73.111 45.8715 71.8675 45.7574C71.3811 45.7133 71.2025 45.9137 71.3878 46.3663C71.9483 47.7347 71.9673 49.0886 71.3412 50.4397C71.2909 50.549 71.2766 50.6756 71.2225 50.8856C71.5075 50.8856 71.7374 50.8962 71.9663 50.8837C73.2649 50.8108 74.5217 51.0074 75.7396 51.4667C76.3533 51.6988 76.9603 51.8349 77.5977 51.3555C77.5208 51.624 77.4438 51.8925 77.3669 52.161C77.4049 52.1916 77.4419 52.2233 77.4799 52.254C77.7649 51.9979 78.086 51.7726 78.3283 51.4811C78.9116 50.7792 79.6411 50.4234 80.5351 50.3064C80.9274 50.2556 81.334 50.0993 81.6693 49.8864C81.9895 49.6822 82.2336 49.6132 82.5765 49.804C82.9641 50.0197 83.3574 50.0744 83.6538 49.6084C83.7051 49.5278 83.8961 49.4444 83.9578 49.4789C84.6009 49.8442 85.2802 49.7186 85.9565 49.6678C86.3118 49.641 86.5883 49.779 86.6918 50.1367C86.7878 50.4675 87.0101 50.6037 87.3064 50.7322C87.6465 50.8799 87.9923 51.0726 88.2555 51.3296C89.0278 52.0842 89.7602 52.8801 90.5088 53.6597C90.5639 53.7163 90.6266 53.7662 90.6893 53.8151C91.3961 54.3597 91.8787 55.0415 91.9974 55.9534C92.0136 56.0752 92.062 56.1931 92.1314 56.4377C92.252 56.1644 92.3432 56.0042 92.3954 55.8316C92.7317 54.7385 92.7032 53.6281 92.5351 52.511C92.4439 51.9011 92.2805 51.2864 92.2986 50.6795C92.327 49.7273 92.5645 48.7779 92.5655 47.8277C92.5674 46.3922 92.4477 44.9558 92.367 43.5203C92.3489 43.1923 92.2767 42.8682 92.2292 42.5422C92.1846 42.5479 92.1399 42.5537 92.0953 42.5595C91.6545 44.4888 91.739 46.4334 92.0402 48.3829C92.0012 48.3886 91.9632 48.3953 91.9243 48.4011C91.7837 47.9936 91.6421 47.586 91.5015 47.1785C91.4654 47.189 91.4284 47.2005 91.3923 47.2111C91.4369 47.7423 91.4825 48.2745 91.53 48.8422C91.379 48.8077 91.283 48.7847 91.1472 48.754C91.1747 49.1519 91.1975 49.5115 91.2251 49.9478ZM62.1275 39.4315C61.681 39.5849 61.2687 39.7825 60.8364 39.8553C60.5173 39.909 60.3776 39.9666 60.3529 40.3262C60.3206 40.8008 60.2475 41.3541 59.6889 41.4816C59.1882 41.5958 58.6525 41.5555 58.1328 41.5842C58.1214 41.5286 58.11 41.473 58.0986 41.4174C58.3874 41.0444 59.0951 41.0799 59.1132 40.5448C58.6373 40.8047 58.1281 41.0904 57.6103 41.3608C57.1952 41.5775 56.7953 41.801 56.6756 42.3092C56.5654 42.78 56.7421 43.1827 57.1297 43.3525C57.5334 43.5289 57.7994 43.4244 58.073 42.9219C58.2383 42.6179 58.4188 42.5873 58.6781 42.7781C59.3079 43.2393 59.7126 43.8425 59.8513 44.623C59.9539 45.2041 60.0527 45.7862 60.1762 46.3625C60.2798 46.8467 60.5686 47.1344 61.0825 47.2025C61.5765 47.2677 61.5727 47.3453 61.4036 47.8353C61.2839 48.1834 61.1737 48.5766 61.2155 48.9314C61.3295 49.8941 61.5356 50.8444 61.6876 51.8023C61.7855 52.4141 62.3079 52.8677 62.896 52.7296C63.3824 52.6155 63.7994 52.1936 64.3599 52.4132C64.3703 52.417 64.3912 52.4036 64.4017 52.393C64.6553 52.1418 64.908 52.254 65.1864 52.3614C65.4989 52.4822 65.8656 52.7037 66.1449 52.3432C66.4356 51.9682 66.1192 51.6604 65.9397 51.3507C65.9235 51.3229 65.9083 51.2912 65.8836 51.274C65.2006 50.7984 65.4771 49.99 65.1949 49.4204C65.6632 49.3379 66.1192 49.3389 66.4992 49.1673C66.8612 49.0042 67.017 49.0321 67.2108 49.3696C67.5461 49.9555 67.8814 49.9958 68.4695 49.6611C68.6671 49.5489 68.9464 49.501 69.1705 49.5374C69.579 49.6036 69.7785 49.4367 69.8526 49.0704C69.9125 48.7741 69.9163 48.4653 69.9847 48.1719C70.0559 47.866 70.1329 47.5477 70.2839 47.2782C70.4701 46.9484 70.6535 46.9829 70.814 47.3233C70.8738 47.4499 70.9365 47.5755 70.9983 47.7021C71.0344 47.6877 71.0705 47.6742 71.1066 47.6599C71.0163 46.7307 70.927 45.8015 70.8368 44.8723C70.7855 44.9088 70.7342 44.9442 70.6829 44.9807C70.5328 44.879 70.3685 44.7927 70.2364 44.67C70.1101 44.553 70.0217 44.3948 69.9087 44.2625C69.6626 43.9719 69.4707 44.0342 69.2883 44.3449C69.0081 44.8225 68.4913 44.9567 67.8985 44.7045C68.0971 44.3536 68.7925 44.3449 68.5854 43.6775C67.5717 43.8626 67.2003 43.1645 66.979 42.4511C66.5828 42.429 66.2817 42.4118 65.8903 42.3897C66.2484 42.8347 66.5705 43.2364 66.9172 43.667C66.8013 43.691 66.7662 43.7101 66.7424 43.7015C66.6104 43.6497 66.4726 43.6037 66.351 43.5327C64.5945 42.501 62.6946 41.6207 62.1275 39.4315ZM41.1872 28.4022C41.1416 28.4741 41.097 28.547 41.0514 28.6189C40.5565 28.4789 40.0615 28.3389 39.5029 28.1807C39.5523 28.3715 39.5618 28.5336 39.6321 28.6621C40.1195 29.5538 40.6429 30.4264 41.1046 31.3316C41.3383 31.7881 41.4741 32.2973 41.6404 32.7863C41.7154 33.0088 41.7572 33.2427 41.819 33.4873C42.3861 33.0826 42.4782 33.8325 42.9019 33.9092C42.7509 33.54 42.6245 33.2312 42.4982 32.9234C42.5428 32.8841 42.5865 32.8438 42.6312 32.8045C42.8373 32.9292 43.0435 33.0529 43.2762 33.1938C43.3484 33.0471 43.3864 32.8697 43.4947 32.7767C43.6486 32.6453 43.8472 32.5504 44.0419 32.4929C44.115 32.4718 44.23 32.5993 44.3269 32.6588C44.2718 32.7432 44.2347 32.8716 44.1578 32.9033C43.8586 33.026 43.8348 33.2312 43.964 33.4796C44.134 33.8066 44.135 34.0453 43.6135 34.0904C44.3126 34.3081 44.7002 34.6475 44.724 35.3667C44.7297 35.5307 45.1097 35.7359 45.351 35.8078C45.4365 35.8337 45.6654 35.5393 45.749 35.3542C45.8297 35.1749 45.8221 34.9477 45.8297 34.7415C45.8487 34.2026 46.0634 33.82 46.6154 33.6934C46.9184 33.6244 47.0809 33.4345 47.0951 33.1238C47.1075 32.8544 47.1626 32.5715 47.1037 32.3164C46.9032 31.4477 46.7436 30.5559 46.4197 29.7322C45.5837 27.6073 45.0831 25.4142 44.8931 23.1436C44.8817 23.0064 44.9377 22.8645 44.9434 22.7245C44.9548 22.4532 44.9748 22.1789 44.952 21.9095C44.932 21.6764 44.8598 21.4473 44.8066 21.2171C44.6803 20.6773 44.5929 20.1221 44.4095 19.6023C44.2689 19.2025 43.7959 19.074 43.5137 19.2753C42.7034 19.8545 42.6701 20.0118 43.1594 20.9227C43.2192 21.0349 43.28 21.1471 43.3465 21.2564C43.8833 22.1386 44.3193 23.0448 44.2385 24.1303C44.2138 24.4582 44.3345 24.7948 44.3421 25.1285C44.3592 25.9177 44.3478 26.7068 44.3478 27.496C44.2376 27.4596 44.2062 27.4222 44.1958 27.38C43.9488 26.3779 43.8282 25.3318 43.166 24.4764C43.1014 24.3921 43.1442 24.231 43.0995 24.1216C43.0463 23.9931 42.9561 23.7832 42.8753 23.7803C42.4858 23.7659 42.3111 23.5684 42.2284 23.2078C42.2066 23.1119 42.046 22.9662 41.9805 22.9815C41.8684 23.0084 41.7088 23.133 41.6955 23.2337C41.6413 23.6403 41.5957 24.0555 41.6204 24.463C41.6546 25.0316 41.7525 25.5974 41.8294 26.1632C41.8465 26.2859 41.8855 26.4058 41.9197 26.5256C42.0954 27.1355 42.2826 27.7434 42.4422 28.3581C42.4735 28.4779 42.4013 28.6247 42.3557 28.874C42.2218 28.687 42.1591 28.6199 42.1192 28.5412C41.8902 28.0896 41.6356 27.6466 41.4513 27.1767C41.3117 26.82 41.2404 26.4297 41.1863 26.0471C41.1606 25.8678 41.2433 25.6722 41.2841 25.4842C41.4304 24.8063 41.3117 24.5781 40.6685 24.2923C40.451 24.1964 40.2354 24.0967 40.0235 23.9884C39.0716 23.4993 38.6128 22.3199 38.9567 21.2564C39.463 21.8932 39.8516 22.1051 40.3836 22.0111C40.3 21.9593 40.2306 21.9248 40.1717 21.8788C39.7832 21.571 39.805 21.406 40.2363 21.1558C40.3228 21.1059 40.3921 20.9668 40.4045 20.8604C40.433 20.6236 40.3988 20.379 40.433 20.1441C40.4501 20.0262 40.5508 19.843 40.6353 19.8305C40.7692 19.8095 41.0191 19.8747 41.0457 19.959C41.1112 20.1652 41.1065 20.4088 41.0713 20.6264C41.0466 20.7808 40.9231 20.9179 40.8338 21.0829C41.3516 21.1673 41.5682 21.0349 41.5368 20.6168C41.5007 20.1278 41.3858 19.6455 41.2993 19.1603C41.2604 18.9416 41.439 18.6079 41.0058 18.5897C40.6163 18.5734 40.1983 18.4574 40.0568 19.0232C39.976 19.3453 39.8753 19.6723 39.7243 19.9658C39.4668 20.4673 39.2645 20.52 38.7572 20.3023C38.0998 21.3523 37.907 23.5003 38.4095 24.1332C38.4409 23.8762 38.4722 23.6144 38.5036 23.3526C38.5606 23.3497 38.6166 23.3468 38.6736 23.3449C38.7487 23.5425 38.8313 23.7381 38.8978 23.9395C38.9729 24.1658 39.0564 24.2847 39.2882 24.0699C39.3652 23.9989 39.5134 24.0066 39.6283 23.9778C39.6198 24.1092 39.6635 24.2923 39.5941 24.3633C39.2654 24.7018 39.4877 24.8916 39.7471 25.0853C39.9124 25.209 40.0929 25.3155 40.242 25.4564C40.6201 25.816 40.8794 26.2456 40.9345 26.7836C40.7294 26.6225 40.5983 26.4019 40.4149 26.2408C40.0986 25.9627 39.767 25.6914 39.4079 25.4747C39.1239 25.3021 38.9662 25.4699 38.9577 25.7853C38.9453 26.2293 39.122 26.33 39.8174 26.1996C39.7927 27.2103 40.5498 27.7684 41.1872 28.4022ZM35.5178 55.2937C35.3259 54.7999 35.1986 54.3731 35.001 53.9829C34.5222 53.0355 34.356 52.0181 34.3427 50.9786C34.3237 49.453 33.8687 48.0616 33.1761 46.7316C33.1277 46.6377 33.0469 46.56 32.9814 46.4747C32.9985 46.8122 33.1011 47.0922 33.2037 47.3722C33.3053 47.6503 33.4051 47.9303 33.5058 48.2084C33.4611 48.2218 33.4174 48.2362 33.3728 48.2496C31.7417 45.7708 30.4782 43.1463 30.3576 40.0692C30.2787 40.0836 30.1989 40.0979 30.1201 40.1123C30.1628 40.9619 30.2065 41.8125 30.255 42.7656C29.7249 42.2277 29.5111 41.6379 29.4893 41.0041C29.4684 40.3923 29.5558 39.7767 29.6042 39.0384C29.1283 39.6942 28.7027 40.2811 28.2771 40.867C28.3313 40.9121 28.3845 40.9571 28.4386 41.0022C28.5745 40.7816 28.7113 40.5601 28.8471 40.3396C28.9165 40.3789 28.9849 40.4173 29.0542 40.4566C29.0542 40.7184 29.0513 40.9811 29.0551 41.2429C29.0627 41.7521 28.9877 42.2823 29.0998 42.7675C29.4161 44.1359 29.8265 45.4784 30.5837 46.6827C30.6653 46.8131 30.6929 46.9771 30.7784 47.2159C30.4773 47.0807 30.2873 46.9953 30.0963 46.91C30.0545 46.9416 30.0127 46.9723 29.9719 47.004C30.1904 47.4537 30.4079 47.9044 30.6464 48.3953C30.0583 48.4625 30.0564 48.8288 30.1989 49.1989C30.6416 50.3534 31.4367 51.18 32.571 51.6604C32.6441 51.6921 32.799 51.6844 32.8246 51.6412C32.8683 51.5655 32.8721 51.4341 32.8379 51.3497C32.7163 51.0553 32.57 50.7715 32.4351 50.4829C32.2442 50.0753 32.0552 49.6678 31.8414 49.2085C32.57 49.3523 33.8231 51.6479 33.6853 52.346C33.5039 52.3575 33.2113 52.3336 33.197 52.3853C33.1362 52.6136 33.1362 52.8648 33.1524 53.1055C33.1619 53.2484 33.2445 53.3864 33.3063 53.561C32.7524 53.4267 32.2927 53.3155 31.8319 53.2042C31.8082 53.2685 31.7844 53.3327 31.7607 53.397C32.6185 54.6704 33.8848 55.1825 35.5178 55.2937ZM40.4776 55.7923C40.4558 55.7434 40.4472 55.6926 40.4187 55.661C39.4792 54.6253 38.3658 53.8208 37.1413 53.1688C37.0112 53.0997 36.8231 53.0671 36.6844 53.1036C36.501 53.1525 36.2531 53.2503 36.1923 53.3951C36.1343 53.536 36.2284 53.8055 36.3443 53.9407C36.5257 54.1526 36.7148 54.307 36.5827 54.6349C36.5438 54.7318 36.6454 54.9073 36.7186 55.0252C36.8506 55.239 37.0102 55.4366 37.1717 55.66C37.0672 55.7319 36.9741 55.7962 36.7794 55.9314C37.1394 56.3044 37.4348 56.6736 37.7968 56.9564C37.9592 57.084 38.3677 57.1453 38.4637 57.0437C38.6081 56.8912 38.6404 56.5585 38.6052 56.3197C38.5264 55.7818 38.7012 55.5267 39.2426 55.5795C39.6454 55.6197 40.0416 55.7156 40.4776 55.7923ZM73.1082 58.0822C72.8441 58.3037 72.6389 58.4734 72.4366 58.646C72.1848 58.8599 71.9568 59.6816 72.0974 59.9808C72.4213 60.6703 72.465 61.3847 72.3758 62.1288C72.2675 63.0311 72.7168 63.1596 73.4663 63.2881C73.9214 63.3657 74.2937 62.8269 74.2633 62.1997C74.25 61.9312 74.1997 61.6599 74.1256 61.4019C73.9508 60.7892 73.7504 60.1841 73.5632 59.5752C73.4141 59.0938 73.2687 58.6125 73.1082 58.0822ZM96.3483 60.5149C96.4252 60.7853 96.4186 61.0999 96.5677 61.2245C96.9867 61.5745 97.4702 61.8459 97.9148 62.1393C98.0582 61.3338 97.4265 60.3768 96.544 60.1151C94.9699 59.6481 93.3948 59.1849 91.8226 58.7103C91.2735 58.5444 90.7463 58.3478 90.5126 57.7226C90.4651 57.5951 90.2219 57.5404 90.069 57.4532C89.9768 57.6229 89.8096 57.7916 89.8058 57.9633C89.7935 58.4773 90.125 58.7918 90.5677 58.9481C91.3866 59.2358 92.2197 59.4822 93.0471 59.7468C93.2305 59.8053 93.4129 59.8667 93.5953 59.9271C93.5858 59.9655 93.5772 60.0029 93.5677 60.0412C93.2039 60.0163 92.84 59.9923 92.4753 59.9674C92.4686 60.0134 92.4619 60.0585 92.4543 60.1045C93.0528 60.5101 93.7511 60.537 94.4483 60.5427C95.0981 60.5475 95.7479 60.5245 96.3483 60.5149ZM49.8082 48.3925C49.1736 48.8786 48.6312 49.2785 48.1097 49.7052C47.9966 49.7982 47.8931 49.991 47.9007 50.1319C47.9396 50.8453 47.6736 51.4379 47.2747 51.997C47.174 52.1379 47.1227 52.3153 47.0334 52.509C47.2766 52.5493 47.4418 52.5762 47.6451 52.6097C47.5596 53.1275 47.8598 53.4142 48.2104 53.6942C48.4555 53.8899 48.6692 54.1315 48.8763 54.3703C49.3095 54.8679 49.7284 55.3781 50.1759 55.9093C50.2063 55.8173 50.2272 55.7866 50.2234 55.7597C50.2139 55.6974 50.1949 55.636 50.174 55.5756C49.8472 54.6349 48.9884 53.9378 48.9552 52.8619C48.198 51.6834 48.5362 50.5404 49.0758 49.4108C49.1546 49.2459 49.3114 49.1184 49.5109 48.8796C49.5527 49.2305 49.5574 49.4396 49.6078 49.6362C49.6382 49.756 49.7161 49.9123 49.8139 49.9555C50.1274 50.0926 50.4599 50.1837 50.9453 50.3458C50.5207 49.616 50.1483 48.9764 49.8082 48.3925ZM60.0945 72.3574C60.0442 72.3373 59.9929 72.3162 59.9425 72.296C59.2918 72.7784 58.5822 72.9557 57.7946 72.81C57.7319 72.7985 57.5647 72.9826 57.5619 73.0794C57.5429 73.651 57.5467 74.2244 57.5714 74.7959C57.5771 74.9196 57.6721 75.074 57.7718 75.1536C58.3542 75.6138 59.4761 75.5908 60.0366 75.1066C60.1458 75.0126 60.2693 74.8467 60.2636 74.7201C60.2275 73.9319 60.1553 73.1447 60.0945 72.3574ZM58.9688 38.0162C58.9935 38.0689 59.0191 38.1207 59.0438 38.1734C59.8675 37.9692 60.711 37.8263 61.5081 37.5463C62.4457 37.2174 63.3254 36.666 63.8412 35.8174C64.7361 34.3455 65.4866 32.7834 66.2969 31.2588C66.2693 31.2319 66.2408 31.2051 66.2133 31.1782C64.2592 33.9552 62.117 36.5299 58.9688 38.0162ZM56.6613 39.1371C55.9099 39.3586 55.1708 39.6866 54.4032 39.7796C53.0448 39.9445 51.6702 39.9714 50.3013 40.0462C50.0191 40.0615 49.7294 39.9973 49.4539 40.0404C49.0407 40.1056 48.8526 40.4384 49.0634 40.7711C49.3247 41.1834 49.148 41.2956 48.7832 41.3704C48.6768 41.3925 48.5723 41.4385 48.4735 41.4864C48.0631 41.6869 48.0251 41.9573 48.3918 42.2363C48.5486 42.3552 48.7528 42.4415 48.9476 42.4732C49.3104 42.5326 49.5299 42.3792 49.4805 41.9678C49.4548 41.753 49.4244 41.5392 49.4016 41.3714C50.0239 41.2793 50.6205 41.2352 51.1933 41.0952C52.0929 40.8756 52.9707 40.563 53.8703 40.3405C54.8725 40.0932 55.8415 39.7901 56.6613 39.1371ZM46.2439 59.5042C46.9384 58.5895 46.8225 56.9248 46.0777 56.033C45.3852 55.2036 45.351 55.2084 44.3953 55.6753C44.0723 55.8326 44.0049 55.9841 44.2053 56.291C44.6926 57.036 45.1629 57.7926 45.6388 58.5444C45.8316 58.8484 46.0226 59.1533 46.2439 59.5042ZM95.2644 36.2048C95.4772 36.4838 95.6539 36.7351 95.8514 36.9681C95.974 37.1119 96.1032 37.3468 96.3226 37.04C96.3663 36.9786 96.5411 36.9489 96.6181 36.9853C97.3173 37.319 98.1076 37.4974 98.4658 38.347C98.6966 38.8955 98.9474 39.5408 99.3891 39.8697C100.181 40.4595 101.124 40.844 102.004 41.3138C102.041 41.2649 102.078 41.217 102.115 41.1681C101.944 41.031 101.762 40.9044 101.604 40.7538C100.606 39.8007 99.6247 38.8303 98.6149 37.8906C97.8644 37.1915 97.1054 36.4973 96.3027 35.8615C95.7355 35.4127 95.4667 35.5508 95.2644 36.2048ZM75.8431 65.9442C75.7159 65.5895 75.5534 65.2423 75.4708 64.877C75.3843 64.4915 75.3976 64.084 75.3216 63.6956C75.2627 63.3945 75.219 63.0694 74.8305 62.9496C74.4258 62.8259 74.3127 63.1519 74.1085 63.3494C74.0515 63.4051 73.9897 63.4549 73.9366 63.5144C73.5081 63.9929 73.4939 64.1568 73.8178 64.7121C73.89 64.8357 73.985 64.9614 74.0049 65.0966C74.1104 65.8282 74.6652 66.0871 75.2399 66.3278C75.7244 66.5311 75.7937 66.4803 75.8431 65.9442ZM37.6239 67.3059C37.5355 67.5658 37.4519 67.6923 37.4576 67.8131C37.5165 68.913 37.5906 70.0119 37.6657 71.1118C37.6723 71.2038 37.7208 71.294 37.7521 71.3841C37.9754 72.0304 38.0191 72.0477 38.6337 71.7562C38.6898 71.7293 38.7534 71.7073 38.8142 71.7053C39.3167 71.689 39.2787 71.4225 39.1343 71.0619C38.8532 70.3552 38.5919 69.6399 38.3307 68.9245C38.2214 68.6253 38.154 68.3108 38.0343 68.0164C37.9507 67.8074 37.8101 67.6214 37.6239 67.3059ZM56.3725 48.6466C56.971 49.1912 57.5543 49.7167 58.1309 50.2489C58.4957 50.5855 58.9204 50.713 59.3963 50.6027C59.6167 50.5519 59.8504 50.4273 59.6689 50.1348C59.0885 49.2018 57.7623 48.2486 56.3725 48.6466ZM17.1397 48.1547C17.1729 47.796 17.1948 47.5553 17.2223 47.2485C16.4414 48.7012 16.1716 51.3862 17.3553 52.4966C17.2508 52.2185 17.1634 51.9874 17.076 51.7573C17.1321 51.7525 17.1881 51.7477 17.2442 51.7419C17.2622 51.5482 17.3325 51.3401 17.2869 51.1627C17.1539 50.6497 17.1406 50.153 17.2527 49.6544C17.2974 49.6429 17.342 49.6314 17.3876 49.6189C17.4892 49.7733 17.5918 49.9277 17.7429 50.1578C17.7429 49.6525 17.9186 49.0311 17.703 48.8259C17.3515 48.4893 17.4598 48.2563 17.5985 47.913C17.4531 47.9897 17.3543 48.0415 17.1397 48.1547ZM63.789 37.2327C62.8238 37.8225 62.4447 38.6145 62.6651 39.4632C62.8276 40.0884 63.5268 40.5237 64.5831 40.5879C63.8488 39.5648 63.5334 38.4803 63.789 37.2327ZM27.0004 53.3136C28.5716 54.843 30.3946 55.9189 32.5073 56.4818C30.7309 55.3186 29.0257 54.0327 27.0004 53.3136ZM58.3675 47.5496C57.4412 46.3356 56.0562 45.8149 55.0388 46.2752C55.5128 47.2408 56.9093 47.7864 58.3675 47.5496ZM72.6189 63.7177C72.3995 63.3341 72.1487 63.009 72.0195 62.6408C71.8789 62.2429 71.7136 62.1307 71.3583 62.3599C70.7503 62.7521 70.2127 64.1166 70.3742 64.8521C70.8862 64.6871 71.1113 64.4541 71.6566 63.5173C71.9454 63.8452 72.2551 64.1185 72.6189 63.7177ZM48.388 73.0267C49.0872 73.9799 50.3326 73.6903 50.6841 73.0794C50.7848 72.9049 50.7971 72.5185 50.6822 72.4101C50.4343 72.1742 50.078 72.0544 49.7617 71.8942C49.7446 71.8856 49.6762 71.9412 49.6591 71.9796C49.4168 72.5405 48.9893 72.8867 48.388 73.0267ZM49.7607 63.4559C49.7911 63.4233 49.8206 63.3907 49.851 63.3581C49.8405 63.3168 49.8424 63.2631 49.8168 63.2344C48.9181 62.2084 49.3978 60.2925 50.0505 59.4592C50.2661 59.184 50.4837 58.9078 50.6699 58.6134C50.7421 58.4993 50.7335 58.3315 50.7611 58.1886C50.7231 58.179 50.686 58.1685 50.648 58.1589C50.0818 58.8301 49.5156 59.5004 49.0255 60.0825C49.0967 60.3845 49.2268 60.6137 49.1622 60.7451C49.0929 60.887 48.8402 60.9359 48.6227 61.049C48.7984 61.1574 48.9371 61.2437 48.9951 61.2792C48.9124 61.751 48.6797 62.2295 48.8098 62.5631C48.9523 62.9304 49.4292 63.1644 49.7607 63.4559ZM74.7203 68.5755C75.0822 67.9742 75.0129 67.0384 74.574 66.4726C74.384 66.2271 74.1826 65.9308 73.7969 66.1149C73.5233 66.2453 73.3096 66.8322 73.4597 67.1256C73.7589 67.7086 74.1949 68.1766 74.7203 68.5755ZM41.3962 54.1449C40.6249 54.331 40.1746 53.8256 39.6378 53.5092C39.0546 53.1659 38.4513 52.8571 37.8443 52.5579C37.7217 52.4975 37.545 52.5493 37.3931 52.5493C37.3817 52.5925 37.3712 52.6347 37.3598 52.6778C38.5549 53.6463 40.1271 54.0749 41.1236 55.3762C41.2214 54.9341 41.2993 54.5822 41.3962 54.1449ZM85.8435 68.3204C85.8463 68.2955 85.8492 68.2715 85.853 68.2466C86.1627 68.073 86.4733 67.8985 86.783 67.7249C86.7659 67.6818 86.7488 67.6396 86.7317 67.5964C86.5968 67.5801 86.461 67.5485 86.3261 67.5504C85.9157 67.5571 85.5034 67.5552 85.0949 67.5964C84.6209 67.6444 84.5705 67.7508 84.7197 68.2226C84.733 68.2638 84.7178 68.3137 84.7159 68.3597C84.6988 68.8631 84.8612 69.0597 85.3609 68.914C86.0753 68.7059 86.7574 68.3799 87.4527 68.1037C87.4442 68.0778 87.4347 68.051 87.4261 68.0251C86.898 68.1229 86.3707 68.2216 85.8435 68.3204ZM21.6834 64.2805C23.4304 63.4693 24.8724 62.054 24.3822 60.8227C23.5073 61.9427 22.6153 63.0857 21.6834 64.2805ZM53.8855 69.0204C53.8295 69.0319 53.7734 69.0444 53.7183 69.0559C53.7383 69.2045 53.7069 69.3992 53.7877 69.4951C54.2094 69.9908 54.6398 70.4847 55.111 70.9315C55.3684 71.176 55.7123 71.3275 56.0457 71.5394C56.42 70.0877 56.2671 69.2956 55.6125 69.2036C55.6278 69.3503 55.66 69.4893 55.6524 69.6255C55.6372 69.8815 55.5983 70.1356 55.5698 70.3907C55.2943 70.3092 54.996 70.2708 54.7509 70.1337C54.5552 70.0244 54.4118 69.8048 54.2683 69.6168C54.1249 69.4299 54.0118 69.2199 53.8855 69.0204ZM42.4725 13.4155C41.8085 13.1671 41.2252 13.2927 40.66 13.4529C40.4349 13.5162 40.2477 13.7147 40.0425 13.8518C40.2097 14.033 40.3617 14.2315 40.5489 14.3888C40.6781 14.4971 40.8481 14.57 41.0115 14.6151C41.1169 14.6438 41.2851 14.639 41.3525 14.5738C41.7221 14.2171 42.0698 13.8364 42.4725 13.4155ZM42.0242 33.7558C42.2104 34.6485 42.5067 35.499 43.0216 36.2518C43.1575 36.4512 43.375 36.619 43.5907 36.7274C43.7199 36.7916 43.9783 36.7763 44.0742 36.6852C44.2575 36.5107 44.3668 36.2566 44.5463 35.9747C42.9675 36.0811 42.824 34.5814 42.0242 33.7558ZM42.2807 17.7814C42.2626 17.7315 42.2446 17.6826 42.2256 17.6327C41.5976 17.5042 40.9887 17.6145 40.3864 17.8149C40.2838 17.8495 40.1755 17.9012 40.0739 17.8936C39.3899 17.8418 38.6831 18.3529 38.5387 19.0605C38.5055 19.2245 38.6128 19.4182 38.6556 19.5975C38.819 19.4777 39.064 19.3942 39.1324 19.2332C39.4592 18.4737 40.0938 18.0288 40.8889 18.0662C41.0941 18.0758 41.3088 18.1151 41.5036 18.071C41.7705 18.0096 42.0223 17.8811 42.2807 17.7814ZM91.7324 39.1362C91.5006 40.656 91.2289 42.1749 91.3875 43.7293C91.7295 42.219 92.3223 40.7318 91.7324 39.1362ZM33.7404 17.0478C32.8997 17.0478 32.0552 17.0037 31.2192 17.0679C30.843 17.0967 30.6093 17.4438 30.4744 18.0019C31.6267 17.5771 32.7591 17.6193 33.7404 17.0478ZM31.9364 24.8782C31.7939 24.9252 31.6514 24.9693 31.5099 25.0192C31.0035 25.1975 30.5001 25.3845 29.9899 25.5533C29.7705 25.6262 29.4769 25.6041 29.5862 25.9781C29.6764 26.2859 30.1837 26.6579 30.3728 26.5189C30.9769 26.074 31.5697 25.6089 31.9364 24.8782ZM74.6775 27.846C75.2086 28.9574 75.846 29.8923 76.4511 30.9347C76.6953 29.8895 75.6418 27.9745 74.6775 27.846ZM75.1943 35.64C75.3815 35.9018 75.5078 36.1003 75.656 36.2796C75.8346 36.4953 76.0141 36.7188 76.2326 36.8875C76.3267 36.9604 76.5613 36.9614 76.6535 36.8914C76.7295 36.8338 76.7314 36.6085 76.6934 36.48C76.6041 36.1751 76.4568 35.8874 76.3628 35.5844C76.2849 35.3351 76.2516 35.0771 76.5661 34.9333C76.6079 34.9141 76.6117 34.8115 76.6506 34.6936C76.3979 34.7549 76.207 34.8 75.9704 34.8575C76.1842 35.5221 75.7063 35.5748 75.1943 35.64ZM29.4817 24.697C30.6891 24.7286 32.0001 23.8858 32.0067 23.2251C31.336 23.4811 30.6587 23.6949 30.0279 24.0047C29.7914 24.1216 29.6612 24.4601 29.4817 24.697ZM28.4396 18.6233C29.4332 18.6185 30.4212 17.9664 30.5039 17.2616C29.5035 17.1312 28.4244 17.8427 28.4396 18.6233ZM78.4641 35.3475C78.5382 35.3101 78.6114 35.2727 78.6855 35.2344C78.22 33.8823 77.175 32.8467 76.5974 31.5551C76.6867 33.1037 77.8656 34.0712 78.4641 35.3475ZM75.9011 69.1662C75.921 68.8468 75.9638 68.5275 75.9562 68.2082C75.9457 67.7825 75.9305 67.35 75.8431 66.9357C75.8156 66.8053 75.5506 66.7267 75.3938 66.6241C75.3188 66.7603 75.1972 66.8907 75.1772 67.0345C75.0699 67.8342 75.7557 68.401 75.9011 69.1662ZM97.6317 65.7362C97.607 65.7927 97.5823 65.8484 97.5585 65.9049C97.4027 66.2684 97.5025 66.7929 96.9344 66.906C96.9116 66.9108 96.8993 67.1582 96.943 67.2685C96.999 67.4104 97.1254 67.5226 97.2042 67.6588C97.3951 67.9877 97.5832 67.9023 97.7172 67.6358C98.0316 67.0048 97.9699 66.3671 97.6317 65.7362ZM45.4213 20.1086C45.2531 19.4364 44.9767 18.7786 44.3696 18.2934C43.9042 17.9223 43.8538 17.9214 43.5232 18.3433C44.1654 18.9407 44.8009 19.5314 45.4213 20.1086ZM89.8733 64.1751C89.9464 64.3726 90.1203 64.6008 90.0737 64.7638C89.8666 65.4811 90.4689 65.6834 90.8176 66.0411C90.8793 66.1044 91.0835 66.1178 91.1481 66.0641C91.2175 66.0066 91.2536 65.8138 91.2108 65.7285C90.9011 65.1081 90.5155 64.5442 89.8733 64.1751ZM87.8337 46.0345C87.8574 44.9615 86.7621 44.2471 85.7931 44.7055C86.1693 44.9136 86.5208 45.0833 86.8457 45.2942C87.1725 45.5081 87.4727 45.7622 87.8337 46.0345ZM72.6636 70.7014C72.5106 70.1529 70.5984 68.8478 70.0407 68.8689C70.5129 69.3033 70.9232 69.6878 71.3441 70.0618C71.4049 70.1155 71.5103 70.1174 71.5949 70.1442C71.782 70.2037 71.9787 70.2449 72.1535 70.3293C72.3007 70.4012 72.4242 70.524 72.6636 70.7014ZM46.7721 63.1912C46.3152 64.2057 46.6553 65.0822 47.628 65.3852C47.3364 64.6392 47.0742 63.966 46.7721 63.1912ZM38.6594 72.3718C38.6223 72.4514 38.5862 72.531 38.5492 72.6115C38.7316 72.7352 38.9425 72.8311 39.0878 72.9893C39.2445 73.16 39.3091 73.4189 39.4744 73.5752C39.5419 73.6385 39.767 73.5301 39.9209 73.5004C39.7708 73.0929 39.672 72.6527 39.4402 72.2999C39.3718 72.1953 38.9301 72.3411 38.6594 72.3718ZM73.7789 28.2066C73.7732 28.1529 73.7675 28.0992 73.7618 28.0464C73.5613 27.9975 73.3153 27.8499 73.1709 27.9189C72.8317 28.0829 72.541 28.3495 72.2314 28.5748C72.2257 28.6247 72.219 28.6745 72.2133 28.7244C72.4783 28.8068 72.7377 28.9305 73.0084 28.9632C73.5737 29.0312 73.3742 28.3216 73.7789 28.2066ZM42.3595 52.2741C42.9903 51.9452 43.3741 51.1273 43.1318 50.5337C42.9437 50.9086 42.748 51.2989 42.5295 51.7333C42.1562 51.3248 41.8826 51.0256 41.609 50.7264C41.5986 50.7447 41.5881 50.7619 41.5767 50.7801C41.8323 51.2673 42.0869 51.7544 42.3595 52.2741ZM94.8293 39.3558C94.8245 39.2848 94.8492 39.1668 94.8036 39.0988C94.7086 38.9578 94.5766 38.8418 94.4588 38.7162C94.3476 38.8466 94.1937 38.9607 94.1386 39.1112C94.0816 39.2656 94.0722 39.4775 94.1339 39.6242C94.2023 39.7882 94.3752 39.9071 94.5034 40.0462C94.6079 39.9042 94.7229 39.7681 94.8122 39.6156C94.8473 39.5552 94.8245 39.4603 94.8293 39.3558ZM38.0884 12.54C37.3598 12.4422 36.9912 12.819 36.6511 13.2045C36.4212 13.4653 36.3281 13.7885 36.5618 14.173C36.6131 13.2323 37.6011 13.217 38.0884 12.54ZM46.5821 21.523C46.2506 22.0542 45.9589 21.7321 45.6625 21.5786C45.636 21.6093 45.6103 21.64 45.5837 21.6697C45.7851 22.0427 45.9865 22.4167 46.1907 22.7936C46.7474 22.5145 46.7446 22.1185 46.5821 21.523ZM37.7255 13.2592C37.6932 13.2371 37.6609 13.216 37.6286 13.194C37.4861 13.309 37.3294 13.4107 37.2031 13.5421C36.9751 13.7789 36.7927 14.0474 37.0007 14.3868C37.0587 14.4818 37.204 14.6112 37.2715 14.5911C37.3836 14.5585 37.5213 14.4319 37.5488 14.3207C37.6324 13.9736 37.6695 13.614 37.7255 13.2592ZM22.753 61.7951C22.2201 62.3071 21.6786 62.8278 21.1713 63.314C21.9199 63.3753 22.8186 62.544 22.753 61.7951ZM76.8691 33.5381C76.6962 33.4815 76.4996 33.3492 76.4103 33.4019C76.0673 33.6042 75.9628 33.4201 75.8621 33.1449C75.8175 33.0212 75.7424 32.909 75.6816 32.7921C75.6361 33.0136 75.6892 33.1986 75.7386 33.3856C75.998 34.3589 76.0217 34.3666 76.7732 33.7347C76.795 33.7174 76.8017 33.681 76.8691 33.5381ZM32.9842 15.7811C32.9966 15.8559 33.0089 15.9297 33.0213 16.0045C33.7775 16.016 34.5127 15.9105 35.2252 15.6785C35.2129 15.6066 35.2005 15.5337 35.1891 15.4618C34.4529 15.5682 33.7186 15.6747 32.9842 15.7811ZM30.1001 36.9748C30.0697 36.9125 30.0393 36.8501 30.0089 36.7878C29.114 37.2145 28.2192 37.6422 27.3243 38.0689C27.3509 38.1274 27.3775 38.1849 27.4041 38.2434C28.3018 37.8205 29.2014 37.3977 30.1001 36.9748ZM28.2201 25.3375C28.9393 25.4593 29.1957 24.93 28.907 24.0334C28.6486 24.5234 28.4434 24.9127 28.2201 25.3375ZM68.0306 37.741C67.6088 38.3614 67.7551 39.6425 68.193 40.0701C68.1427 39.3462 68.0904 38.5934 68.0306 37.741ZM48.2816 67.2292C48.4754 67.2138 48.6778 67.1966 48.8792 67.1803C48.9276 66.6068 48.7775 66.3527 48.2816 66.207C48.2816 66.5532 48.2816 66.8907 48.2816 67.2292ZM73.7181 71.6382C73.6725 71.6689 73.6269 71.6986 73.5813 71.7293C73.8197 72.0553 74.0581 72.3814 74.3137 72.7314C74.5778 72.3171 74.3735 71.9873 73.7181 71.6382ZM66.8716 53.2695C66.8593 53.374 66.8469 53.4795 66.8346 53.584C67.2051 53.6319 67.5755 53.6799 67.946 53.7278C67.9584 53.6386 67.9717 53.5495 67.984 53.4603C67.6135 53.396 67.2431 53.3327 66.8716 53.2695ZM43.47 13.8268C43.0625 13.4644 42.806 13.5785 42.4269 14.2718C42.805 14.1107 43.109 13.9812 43.47 13.8268ZM39.3319 12.3127C39.2939 12.4038 39.2559 12.4959 39.2179 12.587C39.406 12.6819 39.5894 12.7999 39.7889 12.8526C39.8278 12.8632 39.9323 12.6196 40.0074 12.493C39.7822 12.4336 39.5571 12.3732 39.3319 12.3127ZM35.4523 52.0526C35.9187 51.9941 36.2284 51.9558 36.5371 51.9164C36.5457 51.8675 36.5552 51.8186 36.5637 51.7697C36.3272 51.6988 36.0897 51.5789 35.8531 51.5799C35.7467 51.5799 35.6413 51.8196 35.4523 52.0526ZM74.9967 34.9467C75.0252 34.9112 75.0537 34.8758 75.0822 34.8393C74.8913 34.3858 74.6471 34.2592 74.251 34.496C74.5246 34.6619 74.7611 34.8048 74.9967 34.9467Z" fill="#FFFEFF"/>
</svg>
