<svg width="196" height="232" viewBox="0 0 196 232" fill="none" xmlns="http://www.w3.org/2000/svg">
<path d="M24.4062 167.973L17.0625 191H10.2656L20.793 162.562H25.0898L24.4062 167.973ZM30.5 191L23.1367 167.973L22.375 162.562H26.7305L37.2969 191H30.5ZM30.1875 180.414V185.336H15.3633V180.414H30.1875ZM51.3711 181.117H44.2227V176.176H51.3711C52.4258 176.176 53.2721 176 53.9102 175.648C54.5612 175.297 55.0365 174.815 55.3359 174.203C55.6484 173.578 55.8047 172.875 55.8047 172.094C55.8047 171.286 55.6484 170.538 55.3359 169.848C55.0365 169.145 54.5612 168.578 53.9102 168.148C53.2721 167.719 52.4258 167.504 51.3711 167.504H46.5273V191H40.1602V162.562H51.3711C53.6367 162.562 55.5768 162.973 57.1914 163.793C58.819 164.613 60.0625 165.74 60.9219 167.172C61.7943 168.591 62.2305 170.219 62.2305 172.055C62.2305 173.891 61.7943 175.486 60.9219 176.84C60.0625 178.194 58.819 179.249 57.1914 180.004C55.5768 180.746 53.6367 181.117 51.3711 181.117ZM69.6445 162.562H74.918L81.7539 182.895L88.5703 162.562H93.8438L83.8828 191H79.6055L69.6445 162.562ZM66.5977 162.562H71.9688L72.9648 183.637V191H66.5977V162.562ZM91.5195 162.562H96.9102V191H90.5234V183.637L91.5195 162.562ZM114.305 167.973L106.961 191H100.164L110.691 162.562H114.988L114.305 167.973ZM120.398 191L113.035 167.973L112.273 162.562H116.629L127.195 191H120.398ZM120.086 180.414V185.336H105.262V180.414H120.086ZM153.066 186.078V191H132.832V186.078H153.066ZM134.824 186.078V197.973H128.906L128.516 186.078H134.824ZM157.5 186.078L156.895 197.992H151.133V186.078H157.5ZM149.961 162.562V167.504H135.977V162.562H149.961ZM154.355 162.562V191H148.027V162.562H154.355ZM135.391 162.562H141.738L140.938 174.184C140.807 176.137 140.586 177.849 140.273 179.32C139.974 180.779 139.616 182.055 139.199 183.148C138.783 184.242 138.32 185.186 137.812 185.98C137.318 186.775 136.79 187.471 136.23 188.07C135.684 188.656 135.137 189.184 134.59 189.652C134.043 190.108 133.509 190.557 132.988 191H129.219V186.078H130.566C130.957 185.779 131.354 185.368 131.758 184.848C132.174 184.327 132.572 183.624 132.949 182.738C133.327 181.853 133.659 180.714 133.945 179.32C134.232 177.927 134.44 176.215 134.57 174.184L135.391 162.562ZM172.844 167.973L165.5 191H158.703L169.23 162.562H173.527L172.844 167.973ZM178.938 191L171.574 167.973L170.812 162.562H175.168L185.734 191H178.938ZM178.625 180.414V185.336H163.801V180.414H178.625Z" fill="white"/>
<path d="M9.6284 214V208.258H10.5964V210.623H11.2344L13.0384 208.258H14.1384L11.9934 211.041L14.3914 214H13.2694L11.2344 211.514H10.5964V214H9.6284ZM20.0507 214.11C19.6181 214.11 19.2257 214.033 18.8737 213.879C18.5217 213.718 18.2174 213.501 17.9607 213.23C17.7041 212.951 17.5061 212.632 17.3667 212.273C17.2274 211.914 17.1577 211.536 17.1577 211.14C17.1577 210.737 17.2274 210.355 17.3667 209.996C17.5061 209.637 17.7041 209.321 17.9607 209.05C18.2174 208.771 18.5217 208.555 18.8737 208.401C19.2331 208.24 19.6254 208.159 20.0507 208.159C20.4834 208.159 20.8757 208.24 21.2277 208.401C21.5797 208.555 21.8841 208.771 22.1407 209.05C22.4047 209.321 22.6064 209.637 22.7457 209.996C22.8851 210.355 22.9547 210.737 22.9547 211.14C22.9547 211.536 22.8851 211.914 22.7457 212.273C22.6064 212.632 22.4084 212.951 22.1517 213.23C21.8951 213.501 21.5871 213.718 21.2277 213.879C20.8757 214.033 20.4834 214.11 20.0507 214.11ZM18.1477 211.151C18.1477 211.547 18.2321 211.906 18.4007 212.229C18.5767 212.552 18.8077 212.808 19.0937 212.999C19.3797 213.182 19.6987 213.274 20.0507 213.274C20.4027 213.274 20.7217 213.179 21.0077 212.988C21.3011 212.797 21.5321 212.541 21.7007 212.218C21.8767 211.888 21.9647 211.525 21.9647 211.129C21.9647 210.733 21.8767 210.374 21.7007 210.051C21.5321 209.728 21.3011 209.472 21.0077 209.281C20.7217 209.09 20.4027 208.995 20.0507 208.995C19.6987 208.995 19.3797 209.094 19.0937 209.292C18.8077 209.483 18.5767 209.739 18.4007 210.062C18.2321 210.385 18.1477 210.748 18.1477 211.151ZM26.6167 214V208.258H27.5847V210.634H30.5767V208.258H31.5447V214H30.5767V211.492H27.5847V214H26.6167ZM35.5942 214V208.258H36.5622V210.634H39.5542V208.258H40.5222V214H39.5542V211.492H36.5622V214H35.5942ZM47.0908 214.11C46.6581 214.11 46.2658 214.033 45.9138 213.879C45.5618 213.718 45.2574 213.501 45.0008 213.23C44.7441 212.951 44.5461 212.632 44.4068 212.273C44.2674 211.914 44.1978 211.536 44.1978 211.14C44.1978 210.737 44.2674 210.355 44.4068 209.996C44.5461 209.637 44.7441 209.321 45.0008 209.05C45.2574 208.771 45.5618 208.555 45.9138 208.401C46.2731 208.24 46.6654 208.159 47.0908 208.159C47.5234 208.159 47.9158 208.24 48.2678 208.401C48.6198 208.555 48.9241 208.771 49.1808 209.05C49.4448 209.321 49.6464 209.637 49.7858 209.996C49.9251 210.355 49.9948 210.737 49.9948 211.14C49.9948 211.536 49.9251 211.914 49.7858 212.273C49.6464 212.632 49.4484 212.951 49.1918 213.23C48.9351 213.501 48.6271 213.718 48.2678 213.879C47.9158 214.033 47.5234 214.11 47.0908 214.11ZM45.1878 211.151C45.1878 211.547 45.2721 211.906 45.4408 212.229C45.6168 212.552 45.8478 212.808 46.1338 212.999C46.4198 213.182 46.7388 213.274 47.0908 213.274C47.4428 213.274 47.7618 213.179 48.0478 212.988C48.3411 212.797 48.5721 212.541 48.7408 212.218C48.9168 211.888 49.0048 211.525 49.0048 211.129C49.0048 210.733 48.9168 210.374 48.7408 210.051C48.5721 209.728 48.3411 209.472 48.0478 209.281C47.7618 209.09 47.4428 208.995 47.0908 208.995C46.7388 208.995 46.4198 209.094 46.1338 209.292C45.8478 209.483 45.6168 209.739 45.4408 210.062C45.2721 210.385 45.1878 210.748 45.1878 211.151ZM53.5907 211.437V210.557H56.8357V211.437H53.5907ZM63.3601 214.11C62.9274 214.11 62.5314 214.033 62.1721 213.879C61.8201 213.718 61.5121 213.498 61.2481 213.219C60.9914 212.94 60.7898 212.621 60.6431 212.262C60.5038 211.903 60.4341 211.521 60.4341 211.118C60.4341 210.575 60.5551 210.08 60.7971 209.633C61.0391 209.186 61.3801 208.83 61.8201 208.566C62.2601 208.295 62.7698 208.159 63.3491 208.159C63.9138 208.159 64.4051 208.287 64.8231 208.544C65.2484 208.793 65.5638 209.131 65.7691 209.556L64.8231 209.853C64.6764 209.582 64.4711 209.373 64.2071 209.226C63.9431 209.072 63.6498 208.995 63.3271 208.995C62.9751 208.995 62.6524 209.087 62.3591 209.27C62.0731 209.453 61.8458 209.706 61.6771 210.029C61.5084 210.344 61.4241 210.707 61.4241 211.118C61.4241 211.521 61.5084 211.888 61.6771 212.218C61.8531 212.541 62.0841 212.797 62.3701 212.988C62.6634 213.179 62.9861 213.274 63.3381 213.274C63.5654 213.274 63.7818 213.234 63.9871 213.153C64.1998 213.072 64.3831 212.966 64.5371 212.834C64.6984 212.695 64.8084 212.544 64.8671 212.383L65.8131 212.669C65.6958 212.948 65.5161 213.197 65.2741 213.417C65.0394 213.63 64.7571 213.798 64.4271 213.923C64.1044 214.048 63.7488 214.11 63.3601 214.11ZM69.3989 214V208.258H74.1619V214H73.1939V209.116H70.3669V214H69.3989ZM80.7343 214.11C80.3016 214.11 79.9093 214.033 79.5573 213.879C79.2053 213.718 78.901 213.501 78.6443 213.23C78.3876 212.951 78.1896 212.632 78.0503 212.273C77.911 211.914 77.8413 211.536 77.8413 211.14C77.8413 210.737 77.911 210.355 78.0503 209.996C78.1896 209.637 78.3876 209.321 78.6443 209.05C78.901 208.771 79.2053 208.555 79.5573 208.401C79.9166 208.24 80.309 208.159 80.7343 208.159C81.167 208.159 81.5593 208.24 81.9113 208.401C82.2633 208.555 82.5676 208.771 82.8243 209.05C83.0883 209.321 83.29 209.637 83.4293 209.996C83.5686 210.355 83.6383 210.737 83.6383 211.14C83.6383 211.536 83.5686 211.914 83.4293 212.273C83.29 212.632 83.092 212.951 82.8353 213.23C82.5786 213.501 82.2706 213.718 81.9113 213.879C81.5593 214.033 81.167 214.11 80.7343 214.11ZM78.8313 211.151C78.8313 211.547 78.9156 211.906 79.0843 212.229C79.2603 212.552 79.4913 212.808 79.7773 212.999C80.0633 213.182 80.3823 213.274 80.7343 213.274C81.0863 213.274 81.4053 213.179 81.6913 212.988C81.9846 212.797 82.2156 212.541 82.3843 212.218C82.5603 211.888 82.6483 211.525 82.6483 211.129C82.6483 210.733 82.5603 210.374 82.3843 210.051C82.2156 209.728 81.9846 209.472 81.6913 209.281C81.4053 209.09 81.0863 208.995 80.7343 208.995C80.3823 208.995 80.0633 209.094 79.7773 209.292C79.4913 209.483 79.2603 209.739 79.0843 210.062C78.9156 210.385 78.8313 210.748 78.8313 211.151ZM90.4023 214.11C89.9329 214.11 89.5149 213.993 89.1483 213.758C88.7816 213.523 88.4919 213.226 88.2793 212.867V216.343H87.3113V208.258H88.1693V209.336C88.3966 208.984 88.6936 208.702 89.0603 208.489C89.4269 208.269 89.8266 208.159 90.2593 208.159C90.6553 208.159 91.0183 208.24 91.3483 208.401C91.6783 208.562 91.9643 208.782 92.2063 209.061C92.4483 209.34 92.6353 209.659 92.7673 210.018C92.9066 210.37 92.9763 210.74 92.9763 211.129C92.9763 211.672 92.8663 212.17 92.6463 212.625C92.4336 213.08 92.1329 213.443 91.7443 213.714C91.3556 213.978 90.9083 214.11 90.4023 214.11ZM90.1053 213.274C90.3913 213.274 90.6479 213.215 90.8753 213.098C91.1099 212.973 91.3079 212.812 91.4693 212.614C91.6379 212.409 91.7663 212.178 91.8543 211.921C91.9423 211.664 91.9863 211.4 91.9863 211.129C91.9863 210.843 91.9349 210.572 91.8323 210.315C91.7369 210.058 91.5976 209.831 91.4143 209.633C91.2383 209.435 91.0293 209.281 90.7873 209.171C90.5526 209.054 90.2959 208.995 90.0173 208.995C89.8413 208.995 89.6579 209.028 89.4673 209.094C89.2839 209.16 89.1079 209.255 88.9393 209.38C88.7706 209.497 88.6276 209.633 88.5103 209.787C88.3929 209.941 88.3159 210.106 88.2793 210.282V211.921C88.3893 212.17 88.5359 212.398 88.7193 212.603C88.9026 212.808 89.1153 212.973 89.3573 213.098C89.5993 213.215 89.8486 213.274 90.1053 213.274ZM98.0618 214V209.116H96.0818V208.258H101.01V209.116H99.0298V214H98.0618ZM104.471 214V208.269H105.439V212.702L108.651 208.258H109.531V214H108.563V209.655L105.395 214H104.471ZM113.567 214V208.258H116.537C116.882 208.258 117.168 208.328 117.395 208.467C117.622 208.599 117.791 208.771 117.901 208.984C118.018 209.197 118.077 209.424 118.077 209.666C118.077 209.974 118.004 210.253 117.857 210.502C117.71 210.744 117.498 210.927 117.219 211.052C117.549 211.147 117.817 211.32 118.022 211.569C118.227 211.811 118.33 212.112 118.33 212.471C118.33 212.794 118.253 213.069 118.099 213.296C117.945 213.523 117.729 213.699 117.45 213.824C117.171 213.941 116.849 214 116.482 214H113.567ZM114.491 213.318H116.46C116.636 213.318 116.794 213.274 116.933 213.186C117.08 213.098 117.193 212.981 117.274 212.834C117.355 212.687 117.395 212.533 117.395 212.372C117.395 212.196 117.355 212.038 117.274 211.899C117.201 211.752 117.094 211.639 116.955 211.558C116.823 211.47 116.669 211.426 116.493 211.426H114.491V213.318ZM114.491 210.788H116.284C116.46 210.788 116.614 210.744 116.746 210.656C116.878 210.561 116.981 210.44 117.054 210.293C117.127 210.146 117.164 209.992 117.164 209.831C117.164 209.589 117.083 209.38 116.922 209.204C116.768 209.028 116.566 208.94 116.317 208.94H114.491V210.788ZM122.05 214V208.258H123.018V210.634H126.01V208.258H126.978V214H126.01V211.492H123.018V214H122.05ZM131.028 214V208.258H131.996V210.216H133.162C133.836 210.216 134.346 210.388 134.691 210.733C135.043 211.07 135.219 211.514 135.219 212.064C135.219 212.431 135.142 212.761 134.988 213.054C134.841 213.347 134.621 213.578 134.328 213.747C134.034 213.916 133.668 214 133.228 214H131.028ZM131.996 213.241H133.096C133.367 213.241 133.583 213.19 133.745 213.087C133.913 212.977 134.038 212.834 134.119 212.658C134.199 212.482 134.24 212.291 134.24 212.086C134.24 211.888 134.203 211.705 134.13 211.536C134.056 211.367 133.935 211.232 133.767 211.129C133.598 211.026 133.367 210.975 133.074 210.975H131.996V213.241ZM136.209 214V208.269H137.177V214H136.209ZM141.23 214V208.269H142.198V212.702L145.41 208.258H146.29V214H145.322V209.655L142.154 214H141.23ZM143.771 207.609C143.243 207.609 142.843 207.484 142.572 207.235C142.301 206.978 142.165 206.663 142.165 206.289H142.847C142.847 206.494 142.917 206.667 143.056 206.806C143.203 206.938 143.441 207.004 143.771 207.004C144.094 207.004 144.321 206.942 144.453 206.817C144.585 206.685 144.666 206.509 144.695 206.289H145.377C145.377 206.663 145.241 206.978 144.97 207.235C144.699 207.484 144.299 207.609 143.771 207.609ZM155.608 214V208.258H156.576V210.623H157.214L159.018 208.258H160.118L157.973 211.041L160.371 214H159.249L157.214 211.514H156.576V214H155.608ZM163.317 214.044V213.175C163.508 213.175 163.676 213.127 163.823 213.032C163.977 212.929 164.113 212.761 164.23 212.526C164.347 212.284 164.439 211.954 164.505 211.536C164.578 211.111 164.626 210.572 164.648 209.919L164.714 208.258H168.619V214H167.651V209.116H165.572L165.55 210.007C165.521 210.792 165.455 211.444 165.352 211.965C165.249 212.486 165.106 212.896 164.923 213.197C164.74 213.498 164.512 213.714 164.241 213.846C163.977 213.978 163.669 214.044 163.317 214.044ZM173.397 216.409C173.273 216.409 173.144 216.391 173.012 216.354C172.888 216.317 172.759 216.262 172.627 216.189L172.957 215.529C173.023 215.566 173.086 215.591 173.144 215.606C173.21 215.628 173.273 215.639 173.331 215.639C173.507 215.639 173.672 215.555 173.826 215.386C173.988 215.225 174.138 214.975 174.277 214.638L174.552 213.945L172.033 208.258H173.056L174.992 213.021L176.741 208.258H177.698L175.014 214.935C174.882 215.265 174.732 215.536 174.563 215.749C174.395 215.969 174.211 216.134 174.013 216.244C173.815 216.354 173.61 216.409 173.397 216.409ZM183.883 214.11C182.937 214.11 182.222 213.824 181.738 213.252C181.254 212.68 181.012 211.873 181.012 210.832C181.012 210.121 181.07 209.523 181.188 209.039C181.305 208.548 181.481 208.144 181.716 207.829C181.95 207.506 182.24 207.246 182.585 207.048C182.929 206.843 183.325 206.674 183.773 206.542L186.204 205.805L186.259 206.641L183.894 207.356C183.49 207.488 183.153 207.657 182.882 207.862C182.61 208.067 182.398 208.331 182.244 208.654C182.09 208.977 181.987 209.391 181.936 209.897C182.126 209.508 182.412 209.208 182.794 208.995C183.175 208.775 183.619 208.665 184.125 208.665C184.667 208.665 185.133 208.779 185.522 209.006C185.918 209.226 186.218 209.538 186.424 209.941C186.636 210.337 186.743 210.795 186.743 211.316C186.743 211.873 186.633 212.361 186.413 212.779C186.193 213.197 185.87 213.523 185.445 213.758C185.019 213.993 184.499 214.11 183.883 214.11ZM183.883 213.274C184.477 213.274 184.935 213.102 185.258 212.757C185.588 212.405 185.753 211.939 185.753 211.36C185.753 210.795 185.591 210.337 185.269 209.985C184.946 209.633 184.484 209.457 183.883 209.457C183.531 209.457 183.212 209.53 182.926 209.677C182.647 209.824 182.423 210.04 182.255 210.326C182.093 210.605 182.013 210.949 182.013 211.36C182.013 211.727 182.082 212.057 182.222 212.35C182.368 212.636 182.581 212.863 182.86 213.032C183.138 213.193 183.479 213.274 183.883 213.274Z" fill="white"/>
<path d="M52.4396 0.00717825C52.1851 0.148945 51.9448 0.351726 51.6724 0.421713C49.8676 0.884699 48.837 1.84656 48.7729 3.26423C48.7373 4.07895 48.8512 4.87751 49.9085 5.28307C49.969 3.02018 51.4855 2.51592 53.2708 2.35621C53.8849 2.30058 54.4153 2.16778 54.6895 1.49484C54.7962 1.23463 55.1095 1.06056 55.4192 0.757288C56.3074 3.26423 58.0358 2.28084 59.6662 2.08164C59.2693 2.42799 58.8705 2.77253 58.3383 3.23552C58.9506 3.31269 59.4295 3.36473 59.9065 3.43292C60.6986 3.54418 61.4853 3.71645 62.2809 3.76311C62.7704 3.79182 63.3097 3.73081 63.7547 3.54059C64.5521 3.19784 65.2962 2.72767 66.0615 2.30955C66.1078 2.3903 66.1559 2.46926 66.2021 2.55001C65.6788 2.90353 65.1235 3.21937 64.6465 3.62852C64.3902 3.84745 64.2673 4.2243 64.0858 4.52937C64.4756 4.69447 64.8601 4.97262 65.257 4.99415C65.7216 5.01927 66.1986 4.81829 66.6685 4.716C66.6881 4.79316 66.7077 4.86853 66.7272 4.9457C65.4955 5.38177 64.262 5.81784 63.0303 6.2539C63.0178 6.34004 63.0054 6.42438 62.9929 6.51052C63.6817 6.75816 64.4044 6.93582 65.0487 7.26781C65.9779 7.74515 66.5261 7.19423 67.0405 6.6146C67.9234 5.61864 68.7421 4.56705 69.609 3.55674C69.8208 3.3091 70.1127 3.12964 70.3672 2.91969C70.5488 3.21219 70.8638 3.49393 70.8887 3.80079C71.0561 5.91115 70.9724 7.9928 69.803 9.86627C69.6926 10.0439 69.5823 10.2198 69.4737 10.3992C69.1889 10.8676 69.3046 11.2265 69.8243 11.3593C70.7375 11.5926 71.663 11.7721 72.5477 11.9659C72.0083 12.7178 70.9582 12.131 69.94 12.3983C70.992 13.2077 72.0706 13.0013 73.0959 13.0354C73.1137 13.1305 73.1333 13.2256 73.1511 13.3207C72.4676 13.4679 71.7841 13.6132 71.1006 13.7604C71.0774 13.8304 71.0525 13.8986 71.0294 13.9685C71.736 14.1875 72.4426 14.4064 73.3789 14.6971C72.3732 14.6971 71.5989 14.6971 70.7748 14.6971C70.8763 14.9232 70.9849 15.1709 71.1095 15.4472C69.9454 14.7599 68.8258 14.0995 67.6866 13.4266C67.6136 13.6132 67.5585 13.685 67.5763 13.7155C68.6976 15.6805 69.7976 17.6599 70.9599 19.5998C71.5527 20.5885 71.5847 21.7729 70.9475 22.715C70.3174 23.6482 69.7923 24.5831 69.7496 25.8088C69.6891 27.5351 69.3188 29.2489 69.2156 30.9752C69.1675 31.7846 69.3455 32.6387 69.5805 33.4247C70.1251 35.2534 70.7606 37.0551 71.3747 38.8639C71.5277 39.3144 71.6684 39.7863 71.9211 40.1793C73.1315 42.051 72.4658 45.0012 70.5737 46.1856C70.1874 46.4278 69.7959 46.7778 69.5929 47.1762C69.0892 48.1649 68.3986 48.793 67.2612 48.8433C67.1295 48.8486 67.0013 48.9527 66.729 49.0766C67.1633 49.5413 67.619 49.8931 67.8967 50.3542C69.1426 52.4072 70.8941 53.1716 73.3024 53.3673C76.8267 53.6526 80.3153 54.0994 83.845 53.5413C86.9047 53.0586 89.6618 51.7342 92.4279 50.435C92.5685 50.3686 92.6717 50.2161 92.9868 49.92C91.7284 49.92 90.6995 49.92 89.669 49.92C89.6618 49.85 89.6565 49.7782 89.6494 49.7082C90.696 49.4552 91.7444 49.2004 92.791 48.9473C92.7803 48.8379 92.7696 48.7284 92.7607 48.6189C92.0363 48.5274 91.3119 48.4359 90.6444 48.3516C91.7551 47.8868 92.8604 47.422 93.9675 46.959C93.9569 46.8549 93.948 46.7509 93.9373 46.6486C91.9099 46.6486 89.8826 46.6486 87.7431 46.6486C89.272 44.8612 91.5806 45.6849 93.3677 44.9635C93.357 44.863 93.3463 44.7643 93.3357 44.6638C92.629 44.592 91.9241 44.5203 91.2175 44.4485C91.2104 44.4018 91.2033 44.3552 91.1944 44.3103C91.9687 44.2403 92.7447 44.1703 93.519 44.1003C93.5225 44.0609 93.5279 44.0214 93.5314 43.9801C92.5187 43.815 91.5041 43.6481 90.4913 43.483C90.4949 43.4274 90.5002 43.3718 90.5038 43.3161C91.7515 43.2569 92.9992 43.1977 94.247 43.1385C94.2488 43.0272 94.2523 42.9178 94.2541 42.8065C93.8109 42.758 93.3659 42.7114 92.9227 42.6629C92.9174 42.6181 92.9102 42.575 92.9049 42.5301C93.2912 42.4602 93.6774 42.392 94.0636 42.322C94.0708 42.2645 94.0797 42.2071 94.0868 42.1497C93.5795 42.0761 93.074 42.0043 92.5667 41.9308C95.2277 41.5988 97.5648 40.6351 99.6527 38.505C97.5737 38.304 96.1426 39.1367 94.8272 40.2995C94.7578 40.2224 94.6902 40.147 94.6208 40.0699C95.3167 39.3359 96.0109 38.6019 96.7069 37.8662C96.6659 37.798 96.625 37.728 96.5841 37.6598C95.9486 38.0474 95.3149 38.4368 94.6795 38.8245C94.6279 38.7814 94.5763 38.7401 94.5247 38.697C94.9732 38.2394 95.3399 37.606 95.8828 37.3512C98.9069 35.9317 101.527 33.6742 104.873 32.9295C105.133 32.872 105.384 32.7141 105.64 32.7123C107.543 32.7033 108.937 31.4472 110.553 30.7401C110.535 30.663 110.516 30.5876 110.498 30.5104C109.047 30.9232 107.598 31.3377 106.148 31.7505C106.105 31.6105 106.06 31.4705 106.018 31.3305C108.074 30.6307 110.129 29.929 112.182 29.2309C112.146 29.1986 112.006 29.073 111.863 28.9456C111.897 28.8541 111.931 28.7626 111.965 28.6693C112.814 28.9384 113.721 29.0946 114.497 29.5055C115.48 30.0241 116.413 29.7711 117.071 29.2202C118.187 28.287 119.387 27.3736 119.924 25.8716C120.332 24.7339 121.233 23.9963 122.539 23.4311C122.459 23.9335 122.432 24.2906 122.342 24.6316C122.16 25.3243 121.874 25.9954 121.772 26.6971C121.724 27.0255 122.003 27.4005 122.135 27.7559C122.454 27.6069 122.876 27.5405 123.073 27.2929C123.885 26.27 124.627 25.1897 125.403 24.1381C125.478 24.0358 125.619 23.982 125.914 23.7774C125.971 25.4965 125.855 26.986 125.129 28.4055C124.488 29.6562 124.319 30.8927 125.231 32.1488C126.015 33.2327 126.679 34.4045 127.409 35.5315C127.84 36.1955 127.925 36.8756 127.495 37.5503C127.018 38.2951 127.05 38.9985 127.507 39.7307C128.801 41.798 130.06 43.885 131.378 45.9361C132.066 47.0057 132.473 47.9819 131.998 49.3493C131.633 50.3973 131.396 51.4328 130.535 52.19C130.513 52.2098 130.497 52.2367 130.478 52.26C129.949 52.8863 126.731 53.3529 126.088 52.845C125.805 52.6207 125.505 52.2582 125.453 51.9209C125.188 50.1838 123.853 49.5252 122.498 49.0299C120.925 48.4538 119.362 47.9442 118.168 46.6737C118 46.496 117.648 46.496 117.381 46.4153C117.292 46.715 117.134 47.0129 117.123 47.3161C117.043 49.7028 117.119 52.1021 116.883 54.4709C116.724 56.0536 116.203 57.6149 115.708 59.1402C115.414 60.0447 115.348 60.8719 115.663 61.7548C115.843 62.2609 116.066 62.7795 116.098 63.3017C116.155 64.2492 116.646 64.6135 117.509 64.6817C122.751 65.1034 127.989 65.3188 133.198 64.312C133.513 64.251 133.813 64.1128 134.121 64.0088C134.116 63.9083 134.109 63.8078 134.104 63.7073C133.221 63.6032 132.34 63.4973 131.457 63.3932C131.45 63.2784 131.444 63.1635 131.437 63.0487C133.162 62.9733 134.865 62.8226 136.369 61.9522C136.352 61.8643 136.336 61.7764 136.318 61.6902C135.668 61.7979 135.02 61.9056 134.371 62.0132C134.344 61.9271 134.315 61.841 134.289 61.753C135.305 61.3439 136.323 60.9365 137.475 60.4718C136.202 60.1918 135.027 59.9334 133.853 59.6768C133.856 59.5745 133.86 59.4722 133.863 59.3699C135.063 58.7095 136.679 59.1259 137.85 57.9164C136.756 57.6669 135.802 57.4498 134.846 57.2327C134.864 57.1232 134.881 57.0137 134.899 56.906C136.108 56.9025 137.37 57.3726 138.756 56.4305C136.902 56.12 135.278 55.8473 133.653 55.5745C133.653 55.5063 133.651 55.4381 133.651 55.3699C134.947 55.3699 136.245 55.3699 137.541 55.3699C137.539 55.2748 137.539 55.1797 137.537 55.0846C135.618 54.8065 133.707 54.3578 131.733 55.0272C132.644 53.8643 133.942 53.588 135.237 53.3996C136.515 53.2129 137.813 53.1519 139.135 52.8899C138.71 52.8163 138.283 52.7428 137.857 52.6692C137.856 52.6351 137.854 52.601 137.852 52.5669C139.23 52.3103 140.609 52.0537 141.987 51.797C141.969 51.6553 141.951 51.5153 141.934 51.3735C140.584 51.5081 139.237 51.6427 137.888 51.7773C137.882 51.7145 137.879 51.6517 137.873 51.5889C139.981 50.584 142.09 49.5808 144.198 48.5759C144.146 48.4449 144.096 48.3139 144.045 48.1829C142.8 48.6118 141.556 49.0407 140.312 49.4696C141.978 47.8635 144.048 47.1151 146.218 46.5714C146.209 46.4942 146.2 46.4171 146.191 46.3399C145.522 46.4135 144.853 46.4888 144.183 46.5624C146.156 45.2919 148.375 45.7046 150.511 45.5754C150.516 45.4534 150.522 45.3332 150.527 45.2112C149.228 45.064 147.927 44.9186 146.627 44.7715C147.845 44.1344 149.165 44.0986 150.47 44.0304C151.654 43.9676 152.845 44.0393 154.028 43.9801C154.733 43.946 155.45 43.8437 156.127 43.6499C157.115 43.3664 158.076 43.1367 159.08 43.544C159.667 43.7827 160.016 43.4543 160.333 43.0021C161.039 41.9972 162.011 41.3834 163.453 40.881C163.296 42.1156 163.272 43.1241 163.019 44.0698C162.784 44.9474 162.91 45.5019 163.661 46.0528C165.488 47.3915 167.184 48.8756 168.515 50.7508C168.923 51.3251 169.489 51.7935 170.016 52.2726C171.751 53.8536 173.496 55.4256 175.252 56.9832C175.717 57.396 176.238 57.7459 176.74 58.1156C177.7 58.8226 178.022 59.6517 177.625 60.7732C177.328 61.6131 177.061 62.5588 176.482 63.1743C175.963 63.727 175.067 64.0626 174.288 64.19C173.307 64.3497 172.371 63.9083 171.872 62.9967C171.449 62.225 170.835 62.0797 170.066 61.9433C168.499 61.6633 166.954 61.2506 165.399 60.9096C164.884 60.7966 164.359 60.6925 163.834 60.6638C163.126 60.6243 162.394 60.7643 161.705 60.6404C160.719 60.4628 160.043 60.8522 159.646 61.6508C159.187 62.5749 158.836 63.5619 158.523 64.5507C158.11 65.8571 157.725 67.1797 157.432 68.5166C157.125 69.9109 157.044 71.3609 156.675 72.7337C156.221 74.4206 156.465 76.0105 156.803 77.6686C157.456 80.8737 157.262 83.98 155.262 86.7579C154.884 87.2819 154.596 87.8741 154.156 88.6242C155.326 89.0585 156.367 89.534 157.456 89.8337C159.455 90.3846 161.476 90.862 163.499 91.3106C164.793 91.5977 165.664 92.3155 166.224 93.5125C166.888 94.9301 167.049 96.3209 166.824 97.927C166.557 99.8507 166.778 101.846 166.823 103.809C166.837 104.432 167.059 105.06 167.009 105.672C166.968 106.176 166.778 106.756 166.456 107.129C165.845 107.833 165.068 108.387 164.412 109.055C164.108 109.363 163.905 109.783 163.697 110.175C163.175 111.151 162.362 111.756 161.346 112.114C160.644 112.362 160.155 112.089 160.205 111.364C160.29 110.124 160.457 108.877 160.735 107.668C160.819 107.3 161.388 107.052 161.714 106.727C162.008 106.433 162.414 106.149 162.52 105.785C162.857 104.646 163.122 103.479 163.327 102.309C163.506 101.283 163.628 100.238 163.667 99.1993C163.722 97.7439 162.049 95.9907 160.625 95.7664C157.095 95.2101 153.582 96.0535 150.059 95.8489C149.899 95.84 149.733 95.944 149.45 96.032C149.657 96.3657 149.792 96.6529 149.988 96.8898C151.161 98.3164 152.35 99.7287 153.528 101.152C154.21 101.977 154.881 102.883 154.327 103.985C153.669 105.295 153.074 106.733 151.244 106.855C148.453 107.041 145.853 107.912 143.379 109.216C141.837 110.029 141.403 109.911 140.2 108.734C139.96 108.499 139.515 108.385 139.159 108.375C137.904 108.335 136.802 108.005 135.793 107.19C135.182 106.697 134.362 106.48 133.676 106.069C132.592 105.421 132.592 104.73 133.716 104.211C134.735 103.741 135.803 103.354 136.884 103.049C137.906 102.76 138.628 103.273 138.794 104.35C138.893 104.996 139.221 105.423 139.81 105.36C143.071 105.01 146.492 105.765 149.602 103.852C149.425 103.657 149.253 103.382 149.009 103.206C146.184 101.177 143.359 99.1508 140.513 97.1535C139.612 96.5219 138.785 95.9117 138.721 94.652C138.71 94.4313 138.217 94.1065 137.907 94.0526C136.684 93.8355 135.417 93.8211 134.217 93.5214C132.236 93.0261 130.298 92.3604 128.335 91.7843C127.454 91.5259 126.571 91.255 125.67 91.0917C123.614 90.7166 122.634 91.6587 122.991 93.7493C123.228 95.1257 123.664 96.468 124.015 97.8247C124.045 97.9396 124.129 98.0454 124.139 98.1603C124.403 101.302 125.793 104.276 125.514 107.499C125.467 108.036 125.471 108.574 125.432 109.11C125.371 109.965 125.07 110.18 124.271 109.826C123.68 109.566 123.096 109.234 122.598 108.825C121.564 107.978 120.592 107.056 119.586 106.175C119.211 105.846 119.179 105.57 119.469 105.114C120.046 104.206 120.113 103.023 121.117 102.318C121.53 102.027 121.096 100.825 120.517 100.244C120.013 99.7359 119.62 100.075 119.182 100.344C118.072 101.028 116.996 101.792 115.82 102.334C114.547 102.919 113.974 102.48 113.956 101.082C113.937 99.4972 114.293 97.9952 115.092 96.6206C115.574 95.7933 116.217 95.2262 117.258 95.3949C117.837 95.4882 117.986 95.1455 117.999 94.661C118.04 93.0172 117.431 91.6264 116.331 90.4474C115.704 89.7763 115.026 89.1518 114.391 88.486C113.595 87.6534 112.94 87.7826 112.006 88.4304C110.631 89.3833 110.4 90.6107 110.336 92.163C110.222 94.905 109.87 97.6399 109.553 100.369C109.462 101.157 109.606 101.6 110.42 101.805C111.308 102.029 112.18 102.336 113.041 102.652C114.117 103.045 114.77 103.766 115.03 104.962C115.275 106.083 115.667 107.205 116.197 108.22C116.484 108.768 117.162 109.137 117.717 109.505C118.552 110.062 119.535 110.431 120.27 111.09C121.226 111.948 122.148 112.918 122.817 114.008C123.824 115.65 124.599 117.437 125.549 119.314C130.893 119.16 136.482 119 142.113 118.839C141.82 119.097 141.533 119.346 141.246 119.598C141.262 119.695 141.279 119.791 141.295 119.888C141.882 119.915 142.475 120.018 143.053 119.958C145.111 119.745 147.161 119.474 149.215 119.233C149.408 119.212 149.708 119.187 149.79 119.293C150.472 120.193 151.398 119.962 152.248 119.802C153.845 119.503 155.418 119.083 157.01 118.756C157.675 118.62 158.366 118.618 159.039 118.508C160.205 118.318 160.883 119.203 161.675 119.754C162.285 120.179 162.834 120.387 163.562 120.258C164.742 120.05 165.824 120.206 166.819 121.022C167.268 121.39 167.955 121.462 168.656 121.712C167.931 122.577 167.429 123.429 166.214 123.644C163.795 124.071 161.404 124.669 159.003 125.204C158.848 125.238 158.708 125.337 158.56 125.405C158.562 125.484 158.564 125.563 158.565 125.642C159.087 125.712 159.61 125.78 160.331 125.877C159.706 126.196 159.213 126.451 158.718 126.704C158.733 126.792 158.747 126.88 158.763 126.968C159.258 127.048 159.754 127.127 160.354 127.224C160.139 127.504 159.991 127.698 159.806 127.94C159.938 128.01 160.061 128.138 160.171 128.127C161.931 127.965 163.69 127.79 165.448 127.608C165.767 127.576 166.084 127.447 166.395 127.463C167.691 127.533 169.01 127.522 170.276 127.766C172.127 128.125 173.965 128.606 175.763 129.177C176.733 129.485 177.531 129.552 178.309 128.818C178.483 128.653 178.762 128.536 179.003 128.515C181.438 128.294 183.842 128.626 186.245 128.949C186.503 128.983 186.749 129.118 187 129.205C187 129.265 187 129.326 187 129.385C186.023 129.347 185.044 129.256 184.07 129.286C182.507 129.335 180.891 129.236 179.401 129.616C177.084 130.209 174.772 130.593 172.392 130.67C172.038 130.681 171.687 130.885 171.336 131C166.531 131 161.725 131 156.919 131C156.324 130.498 155.798 129.948 154.877 130.051C153.654 130.187 153.63 130.106 153.84 128.877C153.847 128.832 153.793 128.775 153.768 128.725C153.754 128.64 153.742 128.554 153.727 128.47C152.521 128.665 151.319 128.899 150.105 129.04C149.513 129.109 148.898 128.981 148.295 128.987C147.784 128.992 146.997 128.868 146.809 129.139C145.899 130.438 144.723 130.489 143.388 130.189C143.333 130.176 143.27 130.191 143.21 130.194C140.1 130.313 136.992 130.442 133.881 130.539C133.561 130.55 133.231 130.374 132.911 130.275C132.423 130.124 131.948 129.921 131.453 129.816C130.745 129.665 130.022 129.582 129.307 129.466C128.96 129.41 128.616 129.322 128.267 129.292C127.181 129.195 126.094 129.107 125.006 129.039C124.734 129.022 124.456 129.092 124.351 129.103C124.191 129.575 124.127 130.121 123.977 130.146C122.979 130.313 121.856 130.677 120.984 130.37C120.163 130.081 119.449 129.929 118.622 130.031C117.621 130.155 116.619 130.264 115.615 130.34C114.711 130.408 113.686 130.704 112.92 130.39C111.642 129.866 110.42 130.135 109.166 130.081C107.999 130.031 106.835 129.889 105.676 129.735C104.658 129.598 103.645 129.225 102.634 129.245C99.5388 129.311 96.447 129.516 93.3232 129.668C93.2983 129.292 93.284 129.083 93.2645 128.796C92.2463 128.872 91.3065 128.954 90.3631 129.003C90.0445 129.019 89.5746 129.078 89.4269 128.9C88.8573 128.222 88.1613 128.423 87.46 128.423C86.8157 128.423 86.1678 128.344 85.5288 128.244C83.9731 128 82.4459 127.971 80.7692 128.66C81.2302 128.839 81.5061 128.947 81.9262 129.11C80.4898 129.913 78.8789 129.019 77.3393 129.979C78.0032 130.205 78.4161 130.345 78.8593 130.498C78.6902 130.691 78.5568 130.844 78.4215 130.998C77.8875 130.998 77.3535 130.998 76.8195 130.998C76.4012 130.826 75.9936 130.625 75.5647 130.489C74.3881 130.114 73.2062 129.753 72.019 129.415C71.526 129.275 71.0133 129.127 70.5078 129.119C68.7653 129.1 67.0209 129.123 65.2784 129.166C63.308 129.214 61.3002 129.085 59.3796 129.435C57.7367 129.735 56.1508 129.534 54.5399 129.563C53.7568 129.577 52.9718 129.459 52.1904 129.491C51.1634 129.534 50.1381 129.665 49.1182 129.758C49.0452 129.493 48.9598 129.345 48.9723 129.207C49.0595 128.276 48.5664 128.136 47.7797 128.197C45.6224 128.366 43.4616 128.488 41.3007 128.61C40.0316 128.681 38.6895 129.001 37.5058 128.703C35.8042 128.276 34.1026 128.202 32.433 128.333C30.217 128.509 28.0259 128.59 25.7991 128.522C22.3051 128.416 18.8039 128.649 15.3046 128.631C13.1758 128.62 13.5798 128.585 12.8251 126.46C13.9518 126.46 15.0678 126.426 16.1803 126.472C16.862 126.501 17.396 126.408 17.7128 125.704C17.9478 125.18 18.3091 124.956 18.9837 125.044C19.6868 125.134 20.4451 124.972 21.1499 124.8C21.8174 124.637 22.4386 124.29 23.099 124.077C23.6312 123.904 24.2506 123.921 24.724 123.657C25.8561 123.029 26.9614 123.318 27.8318 123.939C29.2451 124.943 30.6548 124.556 32.1037 124.337C32.2354 124.317 32.344 124.125 32.522 123.958C32.1696 123.752 31.8955 123.592 31.4522 123.334C32.7018 122.909 34.2717 123.583 34.7202 121.688C36.7796 121.688 38.8248 121.719 40.8682 121.67C41.5339 121.654 41.808 121.934 41.9717 122.474C40.8824 122.996 39.6809 123.197 38.9618 124.375C39.7557 124.525 40.5282 124.497 41.2971 124.54C41.6424 124.559 42.1871 124.628 42.2797 124.836C42.5128 125.363 42.8653 125.433 43.2711 125.281C45.0457 124.615 46.8701 124.037 48.5397 123.162C49.3603 122.731 50.1043 122.419 51.005 122.41C51.5389 122.404 52.0925 122.435 52.598 122.298C52.9967 122.191 53.3367 121.855 53.6998 121.618C53.949 121.455 54.1928 121.148 54.442 121.143C56.3341 121.112 58.2298 121.109 60.1219 121.168C60.7502 121.188 61.4034 121.329 61.9908 121.559C63.1015 121.993 63.2047 122 63.8455 120.935C67.3182 120.935 70.8425 120.935 74.4736 120.935C74.3365 120.721 74.3045 120.631 74.2404 120.581C72.8965 119.497 71.987 118.219 72.229 116.353C72.254 116.156 71.9781 115.842 71.7663 115.7C70.0593 114.566 69.3331 113.245 69.2993 111.093C69.3705 111.264 69.4292 111.4 69.4861 111.537C69.8831 112.493 70.1554 113.532 70.7072 114.388C71.5171 115.646 72.9802 115.515 73.7545 114.248C73.9058 114.001 74.0642 113.719 74.292 113.559C75.4472 112.748 75.6145 112.551 74.8936 111.345C73.5516 109.098 72.06 106.941 70.6129 104.761C70.5328 104.64 70.2533 104.552 70.1073 104.594C69.3206 104.816 68.5463 105.084 67.6386 105.376C67.9625 106.494 68.306 107.682 68.6496 108.87C67.1526 104.253 64.4898 100.432 61.0492 97.1123C60.2162 96.3101 59.8673 95.2873 59.7036 94.1567C59.6377 93.7045 59.3832 93.281 59.1767 92.7444C58.8706 92.9813 58.7299 93.0477 58.6481 93.159C57.8738 94.2123 57.0746 95.2514 56.3573 96.3424C56.0725 96.7767 55.9336 97.324 55.793 97.8373C55.5509 98.7273 55.3195 99.6264 55.154 100.534C54.944 101.697 54.6734 102.873 54.6556 104.045C54.5969 107.897 55.834 111.436 57.3807 114.901C57.7349 115.696 57.7403 116.651 57.9058 117.532C56.9802 117.529 56.0458 117.6 55.1291 117.5C54.2338 117.403 53.7425 116.796 53.6233 115.87C53.5752 115.495 53.3634 115.147 53.2655 114.776C53.0804 114.072 52.8953 113.367 52.7689 112.653C52.6924 112.219 52.7974 111.748 52.6995 111.321C51.8166 107.481 50.9569 103.634 49.9797 99.8166C49.5525 98.1495 49.7287 96.7103 50.5119 95.1688C51.4535 93.3187 52.1744 91.3465 52.8757 89.3851C53.2762 88.2599 52.9878 87.9854 51.838 87.7736C49.1307 87.2729 46.4269 86.7579 43.7303 86.198C43.0628 86.0598 42.6962 86.1711 42.6428 86.8871C42.5698 87.8472 42.0892 88.5686 41.3808 89.1697C40.4214 89.9844 39.8963 91.0342 39.8536 92.2922C39.8038 93.7565 40.1384 95.1419 40.8895 96.407C41.4822 97.4066 42.2512 98.329 42.6819 99.3931C43.5185 101.45 45.229 102.621 46.7544 104.025C47.486 104.698 48.157 105.617 48.449 106.551C48.8138 107.718 48.8245 109.015 48.8761 110.263C48.9972 113.125 49.0559 115.989 49.1307 118.851C49.1681 120.312 48.8583 121.651 47.6747 122.634C46.9787 123.212 46.2062 123.312 45.4604 122.783C44.4743 122.083 43.4295 121.354 43.2711 120.028C43.1198 118.763 42.8065 117.487 43.9475 116.357C45.5103 114.806 45.3127 112.296 43.5968 110.788C42.6855 109.988 42.0501 109.058 41.8009 107.879C41.3167 105.591 39.9729 103.878 38.216 102.473C35.0905 99.9745 32.4027 97.1159 30.5516 93.5143C30.427 93.272 30.1796 93.0961 29.9251 92.8216C29.4605 94.5802 29.0386 96.1576 28.6257 97.7368C28.2394 99.2119 27.604 100.54 26.4435 101.563C25.6105 102.297 24.571 102.695 23.6223 102.562C25.8757 101.442 27.709 100.093 28.0597 97.464C25.8258 99.4434 22.6896 100.168 20.9844 102.839C20.9061 102.769 20.8295 102.697 20.7512 102.627C21.5629 101.715 22.3727 100.802 23.3339 99.7215C22.4279 100.156 21.7017 100.502 20.9773 100.85C20.9417 100.777 20.9061 100.703 20.8705 100.63C22.0007 99.9081 23.3535 99.4416 23.9961 98.04C21.8014 98.2356 19.7687 98.0382 17.7645 97.4245C19.8096 97.7439 21.8263 97.9198 23.4692 96.3263C25.064 94.7794 25.2883 92.7677 25.2954 90.7148C25.21 90.6843 25.1263 90.652 25.0409 90.6215C24.6831 91.7144 24.3236 92.8054 23.9658 93.8983C23.9071 93.8786 23.8465 93.8588 23.7878 93.8391C23.843 93.1572 23.8982 92.4752 23.9587 91.7233C23.0812 92.0625 23.0527 92.0786 22.8925 93.2953C22.7341 94.503 22.0719 95.3267 21.0698 95.9189C21.3582 95.3788 21.7729 94.9176 22.0577 94.3864C22.3336 93.8714 22.476 93.2828 22.6985 92.669C20.9986 93.01 19.5177 93.3079 18.035 93.6058C18.0154 93.5017 17.9976 93.3958 17.9781 93.2917C18.3501 93.2289 18.7345 93.2038 19.0923 93.0961C20.0784 92.7964 21.0574 92.4734 22.031 92.1379C22.5792 91.9494 22.7412 91.5152 22.5472 90.9983C22.2446 90.1944 22.0274 89.3079 21.529 88.6403C20.34 87.0432 19.0229 85.5394 17.7235 84.0284C17.3017 83.5367 16.7695 83.1419 16.2871 82.7023C16.223 83.9208 16.9208 84.6045 17.6577 85.2756C16.1874 84.8593 15.4594 83.7916 15.1106 82.3936C14.9593 81.7853 14.8827 81.1554 14.6887 80.5632C14.5623 80.1738 14.2882 79.831 14.08 79.4686C13.9839 79.5278 13.886 79.587 13.7898 79.6462C13.441 83.6157 16.1483 85.8104 18.8235 88.0266C15.0572 85.988 12.8643 82.8153 12.9105 78.8458C12.9248 77.561 13.0209 76.2743 12.9657 74.993C12.8803 73.0047 13.0387 71.0594 13.6012 69.1483C13.6741 68.9024 13.6368 68.6261 13.6635 68.1433C12.0401 69.9702 11.8426 71.9621 11.8159 74.0132C11.1146 71.9944 11.6325 70.1299 12.4762 68.2923C10.1516 70.4008 8.74013 72.7588 10.4952 76.0356C10.3901 76.0303 10.2851 76.0231 10.1801 76.0177C9.78674 75.3806 9.39337 74.7436 9 74.1083C9 73.3313 9 72.5525 9 71.7754C9.12994 71.6175 9.31505 71.4793 9.38269 71.2981C10.1196 69.2846 11.5435 67.7414 12.8821 66.1532C13.9411 64.8952 14.7528 63.544 15.0892 61.9199C15.2583 61.1016 15.4114 60.278 15.6161 59.4686C16.1109 57.5018 16.9759 55.824 19.0816 55.169C20.6462 54.6808 22.1289 55.0039 23.5849 55.6194C24.0833 55.8293 24.5354 56.0088 25.0444 55.5314C26.8368 53.8464 28.8624 52.5149 31.1408 51.5745C31.5715 51.3969 31.9524 51.0828 32.3369 50.8029C34.3464 49.3368 36.4984 48.1631 38.9084 47.5117C40.2007 47.1618 41.2046 45.7675 40.9981 44.1129C40.6492 44.592 40.3004 45.0712 39.9497 45.5485C39.8856 45.4965 39.8216 45.4426 39.7575 45.3906C39.8874 44.9904 40.0174 44.5885 40.1989 44.0286C38.597 45.0461 37.351 46.3614 35.5301 46.5624C36.2545 46.0079 37.0662 45.579 37.7568 45.0048C38.4243 44.4503 38.9672 43.7432 39.5652 43.1044C39.4958 43.0362 39.4246 42.9662 39.3552 42.898C37.5041 44.3157 35.7152 45.8697 33.1895 45.8177C35.6405 45.0604 37.7141 43.7935 39.0971 41.5467C37.577 42.5212 36.057 43.4974 34.5369 44.4718C34.4604 44.3713 34.3838 44.2708 34.3055 44.1685C37.319 42.2394 39.8216 39.8617 41.331 36.3193C38.7927 38.1084 36.445 39.763 33.9976 41.4875C34.3785 40.9833 34.6544 40.4826 35.0549 40.1183C36.1299 39.1367 37.1837 38.1031 38.3816 37.2919C40.756 35.6822 42.164 33.3853 43.2818 30.8388C43.4099 30.5463 43.4562 30.2197 43.595 29.7101C42.3046 30.8191 41.2081 31.7594 40.1117 32.7015C40.0547 32.6334 39.9978 32.567 39.9408 32.4988C40.5531 31.8402 41.1654 31.1816 41.7795 30.5248C41.703 30.4494 41.6264 30.3759 41.5481 30.3005C40.6421 30.9914 39.7735 31.7415 38.8212 32.3606C37.2335 33.3942 36.0089 34.6468 35.7579 36.6369C35.7419 36.759 35.6618 36.872 35.5675 37.0927C34.8786 35.3216 36.0338 34.1802 36.6622 32.8649C35.3094 33.5432 34.4087 34.6145 33.7448 35.9245C34.1524 32.7374 36.8117 31.4203 39.0366 29.6598C38.5311 29.1933 38.0452 28.872 37.7337 28.4252C37.2584 27.7451 36.6871 27.8222 35.8078 28.4755C35.1261 28.9833 35.7099 29.4104 35.9876 29.8285C36.1602 30.0869 36.3738 30.3202 36.5678 30.5643C36.518 30.6199 36.4664 30.6755 36.4165 30.7294C36.0463 30.3848 35.5977 30.0941 35.3201 29.685C34.8235 28.9546 34.4087 29.1071 33.9175 29.6491C33.0578 30.5984 32.8887 31.6177 33.654 32.7572C32.6537 32.2942 32.6947 31.4723 32.6751 30.5589C32.3315 30.9842 31.9898 31.4113 31.6463 31.8366C31.8581 30.3687 32.6947 29.2938 33.7608 28.5239C35.0442 27.5979 35.0371 26.0708 35.9822 24.9115C34.4105 24.9223 34.1328 25.2794 34.0207 27.169C33.0845 26.6415 32.8993 26.0385 33.3176 25.1233C33.4689 24.7913 33.622 24.3678 33.5455 24.0394C33.2269 22.663 33.6914 21.4445 34.1578 20.2117C34.3002 19.8348 34.4248 19.4508 34.5618 19.056C34.617 19.1045 34.7541 19.248 34.7665 19.2373C36.073 18.1641 37.3724 17.0785 38.6699 15.9946C38.6397 15.9246 38.6094 15.8546 38.5809 15.7846C37.901 16.1238 37.1712 16.3894 36.5554 16.8218C35.9324 17.2579 35.4233 17.8573 34.8644 18.3849C34.9943 17.9416 35.2257 17.5755 35.5194 17.2723C36.8206 15.9228 38.4528 15.1834 40.2238 14.6864C40.9305 14.4872 41.6104 14.1929 42.3028 13.9416C42.2547 13.825 42.2049 13.7083 42.1568 13.5917C38.8782 13.9237 35.66 14.3921 33.533 17.5271C33.9353 16.7429 34.4319 16.0322 34.9427 15.3324C35.0976 15.1224 35.3735 14.9735 35.4607 14.7456C35.7971 13.8591 36.0801 12.9493 36.3578 12.122C35.5764 12.262 35.4233 12.4396 34.6562 14.3221C34.3215 13.2705 34.7772 12.5904 35.3628 12.0053C36.3062 11.0614 37.5308 10.6935 38.7981 10.4477C39.6169 10.288 40.4356 10.1355 41.2562 9.97933C41.2526 9.90037 41.2473 9.82321 41.2437 9.74425C40.8343 9.70836 40.425 9.67426 40.117 9.64734C42.9151 9.00311 45.7897 8.33914 48.7925 7.64645C47.4771 6.30953 45.8627 5.57199 44.1522 4.97441C45.8912 4.71241 47.26 5.68145 48.8619 6.3203C48.5985 5.6007 48.3511 5.03184 48.182 4.44144C47.7014 2.75818 48.1535 1.63481 49.6166 0.698068C49.9245 0.500671 50.1897 0.235082 50.4745 0C51.1349 0.00717808 51.7864 0.00717825 52.4396 0.00717825ZM80.1818 100.457C81.9849 101.748 83.8272 102.988 85.5644 104.366C85.9667 104.685 86.0094 105.468 86.2123 106.038C86.3974 106.553 86.4348 107.219 86.7855 107.558C87.7021 108.445 88.5262 109.329 88.6544 110.675C88.6597 110.724 88.7915 110.758 88.8644 110.801C89.3593 109.76 89.2525 108.791 88.4515 108.03C87.3123 106.946 86.8745 105.695 86.9848 104.095C87.0596 102.997 86.8869 101.814 86.5416 100.764C85.7175 98.2733 84.2917 96.1127 82.5527 94.1549C81.2142 92.6475 79.9327 91.0863 78.6208 89.5556C78.498 89.4138 78.3289 89.3115 78.1705 89.1823C77.7932 89.7296 77.5013 90.259 77.1097 90.7005C76.0702 91.8723 75.8281 93.2971 75.7836 94.7758C75.7284 96.6906 76.4048 98.1836 78.2257 99.0683C78.9466 99.4182 79.5553 100.01 80.2139 100.491C79.7066 100.21 79.1958 99.9315 78.6903 99.6443C77.8911 99.1885 77.5119 99.3231 77.1987 100.165C77.1168 100.384 77.0563 100.649 76.8961 100.791C76.2411 101.369 76.2232 101.782 76.9228 102.385C78.5443 103.781 80.1534 105.193 81.8212 106.53C82.2448 106.869 82.8696 106.957 83.4053 107.153C83.6403 107.239 83.982 107.226 84.1031 107.389C84.8079 108.335 85.3366 108.516 86.2016 108.175C85.956 107.341 85.5573 106.544 85.5324 105.737C85.5128 105.064 85.3971 104.588 84.8862 104.195C83.8735 103.416 82.8571 102.643 81.855 101.853C81.2854 101.401 80.739 100.922 80.1818 100.457ZM72.6011 100.615C72.5227 100.701 72.4426 100.786 72.3643 100.872C72.779 101.294 73.1564 101.762 73.6156 102.128C75.586 103.702 75.6697 103.957 74.858 106.284C74.3792 107.659 74.3365 109.001 75.0236 110.354C75.3279 110.952 75.3831 111.671 75.6234 112.308C75.7587 112.669 75.9776 113.179 76.2677 113.272C77.7077 113.733 78.5496 114.844 79.331 116.001C79.8241 116.732 80.2121 117.545 80.5574 118.359C80.9437 119.271 80.5556 120.053 79.849 120.71C81.1644 120.62 82.3712 120.538 83.578 120.455C83.5887 120.574 83.5976 120.69 83.6082 120.809C81.693 121.374 79.7084 121.493 77.7362 121.511C77.5564 122.749 77.7255 122.934 78.838 122.849C79.1317 122.828 79.4432 122.79 79.7191 122.864C79.906 122.914 80.1534 123.131 80.1783 123.302C80.2032 123.474 80.0323 123.756 79.8668 123.858C79.655 123.991 79.3524 124.075 79.1085 124.037C77.1915 123.747 75.4953 124.854 73.6263 124.915C73.3291 124.924 72.8645 125.457 72.8129 125.799C72.7613 126.139 73.046 126.654 73.3415 126.891C73.6619 127.145 74.1603 127.249 74.5893 127.275C77.7451 127.465 80.9027 127.621 84.0586 127.784C84.621 127.813 85.1924 127.775 85.7442 127.867C89.3557 128.461 92.9583 128.1 96.5627 127.802C96.7532 127.786 96.9383 127.678 97.1252 127.614C97.1109 127.563 97.0967 127.515 97.0824 127.465C95.8756 127.355 94.6706 127.246 93.4638 127.136C93.4709 127.022 93.4763 126.907 93.4834 126.79C93.9853 126.79 94.4855 126.781 94.9874 126.792C95.7421 126.806 96.5218 126.97 97.248 126.833C99.4747 126.413 101.678 126.293 103.953 126.501C106.659 126.749 109.393 126.716 112.114 126.756C112.481 126.761 112.851 126.474 113.426 126.237C112.208 125.582 110.934 125.604 110.254 124.265C111.354 124.114 112.351 123.976 113.453 123.826C113.294 123.382 113.17 123.036 113.017 122.607C114.179 122.35 115.263 121.782 116.37 122.79C116.665 123.059 117.26 123.158 117.682 123.095C119.727 122.795 121.76 122.415 123.794 122.058C123.915 122.036 124.025 121.95 124.344 121.796C123.653 121.554 123.118 121.455 122.687 121.186C122.299 120.942 121.838 120.554 121.745 120.152C121.583 119.438 121.219 119.131 120.571 119.022C120.161 118.952 119.752 118.882 119.35 118.781C118.481 118.564 118.127 117.963 118.367 117.094C118.525 116.52 118.812 115.969 118.88 115.388C118.921 115.041 118.753 114.483 118.495 114.322C117.502 113.699 116.434 113.198 115.38 112.646C115.179 112.988 115.049 113.211 114.926 113.421C113.67 113.096 112.913 112.436 112.536 111.102C112.255 110.108 111.714 109.398 110.847 108.911C108.467 107.574 106.103 106.205 103.688 104.933C102.495 104.305 101.685 103.569 101.945 102.087C102.102 101.193 101.652 100.726 100.849 100.411C99.6367 99.9333 98.4459 99.3931 97.2765 98.8171C96.5324 98.451 96.3616 97.8211 96.8279 97.0997C97.4918 96.0732 98.1664 95.0558 98.8624 94.0526C99.4836 93.1572 100.137 92.285 100.826 91.3339C100.087 90.8727 99.4426 90.5084 98.8392 90.0849C96.7478 88.6188 94.4339 87.3716 92.6575 85.5843C90.9968 83.9136 89.3201 83.3824 87.1361 83.6426C86.045 83.7718 84.9254 83.6659 83.8646 83.6659C84.5338 85.211 85.2707 86.5174 85.6748 87.9207C86.7712 91.7197 87.9157 95.4685 90.1175 98.8171C90.7707 99.8112 91.0609 101.046 91.545 102.158C91.6945 102.503 91.8885 102.86 92.1502 103.119C93.2413 104.192 93.5813 105.444 93.0651 106.883C92.7856 107.662 92.9832 108.247 93.4834 108.854C94.6849 110.304 95.8062 111.806 96.1871 113.728C96.2441 114.013 96.4399 114.268 96.5253 114.551C96.8973 115.8 97.369 117.037 97.5577 118.315C97.636 118.848 97.2373 119.614 96.8154 120.023C96.285 120.54 95.5392 120.872 94.8361 121.157C93.1185 121.855 91.3777 121.76 89.7936 120.827C89.2524 120.507 88.7131 119.761 88.6366 119.151C88.4817 117.9 88.5761 116.604 88.6882 115.337C88.7897 114.18 88.6651 113.896 87.5668 113.649C85.2921 113.136 83.8913 111.553 82.882 109.588C82.6595 109.154 83.0849 108.351 82.8357 107.967C82.5367 107.508 81.7144 107.424 81.3246 106.988C78.9394 104.321 75.894 102.573 72.9197 100.723C72.8271 100.662 72.7079 100.649 72.6011 100.615ZM48.1303 51.0308C48.0431 51.0685 47.9559 51.1062 47.8669 51.142C46.1938 49.274 45.2095 47.0218 44.5473 44.5867C43.7107 44.6889 43.4081 45.3081 43.3494 45.9002C43.1643 47.7612 42.9258 49.6418 43.0183 51.4992C43.1821 54.7329 43.7303 57.9092 45.537 60.7122C45.6099 60.8235 45.5779 61.0047 45.5939 61.1537C45.5281 61.1896 45.4622 61.2255 45.3964 61.2613C44.59 60.2331 43.7837 59.2066 43.0077 58.216C42.6641 60.059 45.3287 65.5233 46.9769 66.1496C47.6035 64.8253 46.5391 63.7324 46.5231 62.4673C48.5593 63.657 48.3386 66.1801 49.7323 67.7432C49.5169 67.8221 49.4012 67.8311 49.2962 67.8006C48.4632 67.5547 48.093 67.8634 48.3261 68.6978C48.4846 69.2649 48.716 69.8499 49.063 70.3129C49.2606 70.5767 49.759 70.6108 50.1221 70.7472C50.1559 70.4188 50.2325 70.0868 50.2093 69.7638C50.1862 69.448 50.058 69.1393 49.9459 68.7086C50.7967 69.0639 51.482 69.3152 52.1352 69.6328C52.703 69.9091 52.5108 70.2555 52.0854 70.4672C51.2648 70.8764 51.3503 71.4291 51.7454 72.0841C51.87 72.2923 51.9483 72.5291 52.0818 72.8324C49.9406 72.1792 49.8035 72.2133 49.4724 73.2954C50.0135 73.7099 50.5101 74.0886 51.005 74.4726C51.3574 74.7454 51.6831 75.0576 52.0569 75.2981C53.4738 76.2043 54.8888 75.6211 55.2252 73.9737C55.4281 72.9814 55.6399 71.9764 55.6898 70.9697C55.7699 69.3457 55.7183 67.7162 55.7218 66.0886C55.7218 65.762 55.7218 65.4354 55.7218 64.9868C55.9888 65.1501 56.1864 65.1985 56.2166 65.3008C56.6474 66.7059 57.2099 68.0967 57.4146 69.5377C57.5605 70.5659 57.1814 71.6642 57.1209 72.7355C57.1066 73.0047 57.3647 73.4677 57.589 73.5377C58.39 73.7871 59.2319 73.9037 59.8994 74.0383C61.6099 73.089 62.9075 71.8616 63.1923 69.7153C63.7173 70.0401 64.0947 70.2555 64.4507 70.4977C65.33 71.0971 66.1309 71.8149 67.3039 71.8131C68.6051 71.8113 68.776 71.6803 68.7973 70.338C68.8009 70.076 68.8329 69.8158 68.8596 69.4462C70.6271 69.8607 70.0095 68.0698 70.6787 67.456C72.3803 68.2833 73.2062 68.0195 73.2329 66.5336C73.2596 65.1142 73.0443 63.6857 72.8503 62.2717C72.788 61.8141 72.4569 61.3941 72.2486 60.9563C72.1899 60.9778 72.1311 60.9976 72.0724 61.0191C71.9229 61.8535 71.7734 62.6862 71.6256 63.5206C71.5313 63.5117 71.437 63.5027 71.3426 63.4937C71.243 63.1564 71.0917 62.8262 71.0525 62.4834C70.8816 60.9652 70.2266 59.7127 69.2085 58.5911C68.8062 58.1496 68.5161 57.5431 68.3488 56.9617C68.0533 55.937 67.9661 54.8513 67.6528 53.8338C67.2933 52.6674 66.6881 51.6212 65.5916 50.8603C65.5169 52.1954 65.7892 53.4606 65.2534 54.6414C64.9615 53.1896 64.8779 51.7163 63.8241 50.4673C63.6622 50.7185 63.5482 50.8944 63.3792 51.1546C62.7544 49.5001 62.6868 47.7091 61.2005 46.4207C60.8516 49.7459 61.1756 53.003 60.1147 56.1093C59.9172 55.5261 59.9189 54.9518 59.9172 54.3776C59.9154 53.195 60.0275 51.9998 59.8869 50.8334C59.4206 46.9483 58.4416 43.2049 56.4302 39.8114C56.1579 39.352 55.6577 39.029 55.2626 38.6414C55.1309 38.6917 54.9974 38.7437 54.8657 38.7939C54.7624 39.9729 54.6574 41.152 54.5542 42.3309C54.4812 42.3615 54.4064 42.392 54.3335 42.4225C54.0184 41.972 53.7051 41.5198 53.3153 40.9617C53.3153 41.3063 53.2797 41.5162 53.3207 41.71C53.7087 43.5135 54.1021 45.317 54.5115 47.1169C54.7268 48.0662 54.8603 49.0568 55.2341 49.9415C56.2184 52.2726 57.3612 54.5373 58.3437 56.8702C58.7353 57.8015 58.8723 58.8405 59.1251 59.8311C59.0325 59.8796 58.94 59.928 58.8474 59.9765C58.6356 59.8114 58.3953 59.6714 58.2155 59.4758C57.8328 59.0595 57.4964 58.6019 57.1137 58.1855C54.6272 55.483 53.2993 52.3121 53.4328 48.6064C53.5129 46.3579 52.6247 44.3803 51.9074 42.3184C51.797 42.8442 51.6885 43.37 51.5781 43.894C51.2328 43.7361 51.0886 43.6086 51.0584 43.4579C50.7825 42.0546 50.3909 40.6585 50.293 39.2408C50.1328 36.9187 50.1577 34.584 50.131 32.2529C50.1292 32.0376 50.3054 31.8204 50.3998 31.6033C50.5475 31.7612 50.7718 31.894 50.8288 32.0806C51.3823 33.8411 51.911 35.6087 52.4396 37.3763C52.5179 37.6365 52.5642 37.9075 52.6247 38.173C52.7351 38.1551 52.8437 38.1372 52.954 38.1192C52.7618 36.5598 52.6318 34.9878 52.3631 33.4427C51.9839 31.2695 51.3663 29.1322 51.0993 26.9483C50.7753 24.2924 51.2915 21.7316 52.4859 19.3001C53.0697 18.1103 53.65 16.8811 53.3687 15.4454C53.2975 15.0794 53.4186 14.5733 53.6411 14.2718C54.1039 13.6419 54.693 13.1054 55.2306 12.5311C55.1914 12.4558 55.1522 12.3786 55.1131 12.3032C54.5186 12.4324 53.9259 12.5598 53.2975 12.6962C53.4542 13.0892 53.5503 13.3279 53.6055 13.4679C53.2281 13.9057 52.5962 14.3382 52.6568 14.6182C52.8703 15.6034 52.2456 15.781 51.6262 16.0789C50.6614 16.5401 50.1043 17.8483 50.4425 18.8514C51.797 18.5177 51.8077 16.89 52.9255 16.0107C52.9825 17.2166 52.5393 17.947 52.032 18.6415C51.2969 19.6464 50.7309 20.6944 50.7415 22.0026C50.7451 22.3346 50.4923 22.6684 50.3571 23.0022C50.2592 22.9752 50.163 22.9501 50.0652 22.9232C50.0207 22.611 50.0242 22.2826 49.921 21.9901C49.7999 21.6491 49.5881 21.3422 49.4155 21.021C49.1075 21.2238 48.6786 21.353 48.513 21.6401C47.8153 22.8532 47.1692 24.1004 46.5569 25.3602C46.2596 25.9721 45.9837 26.6235 45.8591 27.2875C45.0493 31.6428 45.0546 36.0232 45.5067 40.4162C45.6633 41.9308 45.6171 43.4902 45.9748 44.951C46.3913 46.6468 47.1532 48.2565 47.7583 49.9074C47.899 50.2753 48.0093 50.6557 48.1303 51.0308ZM22.3603 65.1267C22.2588 65.1483 22.1556 65.168 22.0541 65.1896C22.2392 67.1061 22.3104 69.0424 22.6397 70.9338C23.0278 73.1644 23.2058 75.3376 22.7839 77.5969C22.4422 79.4291 22.6807 81.299 23.4514 83.0325C23.9569 84.1684 24.8237 85.0082 25.7564 85.7637C25.8169 85.7135 25.8792 85.665 25.9398 85.6148C25.6372 85.0244 25.3346 84.4322 24.9608 83.7018C26.488 84.0643 27.4741 84.9472 27.766 86.1765C28.0045 87.1814 28.5118 87.9818 29.2665 88.6547C29.4872 88.8503 29.7275 89.0585 29.8592 89.3133C30.548 90.6484 31.3668 91.7341 33.145 91.1688C33.2589 92.2743 32.3582 92.3424 31.8314 92.7713C31.9079 93.001 31.9435 93.2469 32.061 93.4425C33.8409 96.4375 35.8078 99.2621 38.8889 101.08C40.0458 101.764 41.0907 102.544 41.7261 103.822C42.4826 105.34 43.3654 106.796 44.1931 108.278C44.7342 109.245 45.5103 109.911 46.6299 110.013C46.9627 110.044 47.4433 109.913 47.6302 109.676C47.8278 109.424 47.753 108.958 47.8135 108.461C46.6156 109.064 45.6687 108.892 44.8552 108.254C44.5028 107.98 44.3515 107.442 44.1095 107.023C44.2038 106.941 44.2963 106.858 44.3907 106.774C44.8357 106.964 45.27 107.183 45.7274 107.337C46.265 107.52 46.8844 107.533 47.0392 106.889C47.2511 106.001 46.1279 105.136 44.9798 105.424C45.3697 105.911 45.7007 106.325 46.1119 106.839C45.1525 106.901 44.3853 106.634 44.0489 105.922C43.8247 105.448 44.0383 104.764 44.0525 104.174C44.0596 103.854 44.1949 103.429 44.0436 103.235C43.4402 102.471 42.8047 101.708 42.0661 101.085C41.484 100.595 41.0479 100.222 41.2028 99.3393C41.2776 98.9158 40.9518 98.3864 40.724 97.9521C40.3235 97.1876 39.8198 96.4788 39.4246 95.7125C38.4207 93.7637 37.4524 91.7969 36.4503 89.7978C36.3631 89.8104 36.146 89.8427 35.7864 89.8965C35.9466 89.3294 36.0997 88.8862 36.1958 88.4304C36.299 87.9387 36.502 87.3949 36.3845 86.9481C36.267 86.5049 35.6832 85.7691 35.5159 85.823C34.4248 86.1783 34.5867 85.4317 34.4817 84.8306C34.2948 83.761 33.6113 83.0504 32.6413 82.7059C31.8403 82.4223 31.0037 82.39 30.395 83.2191C30.3131 83.3304 30.0105 83.4291 29.9607 83.3806C29.8361 83.255 29.6865 82.9876 29.7417 82.8764C29.9785 82.408 30.2419 81.9342 30.5801 81.5376C31.1799 80.8342 31.4042 80.0895 31.0019 79.2299C30.8008 78.7992 30.5908 78.3506 30.2864 77.997C28.542 75.9657 27.1697 73.7261 26.3224 71.1653C25.6799 69.2236 24.53 67.5099 24.1295 65.4318C23.576 62.557 24.482 60.1362 25.8632 57.771C25.9718 57.5844 26.1872 57.4606 26.3527 57.308C26.4542 57.6597 26.3972 57.9253 26.3011 58.1784C26.1338 58.6234 25.9148 59.0523 25.7653 59.5027C24.6867 62.7795 25.0605 66.0294 26.2566 69.1501C26.908 70.8513 27.8799 72.4609 28.9069 73.9737C29.7346 75.1922 31.7798 76.0392 32.8175 75.8903C30.7563 73.8732 28.8001 71.8275 28.9176 68.4358C29.4071 68.7355 29.6972 68.924 29.998 69.0944C31.9079 70.1819 34.1364 68.9796 34.1702 66.8082C34.1862 65.7351 34.1168 64.6566 34.0154 63.587C33.7359 60.6799 33.2091 57.7764 34.4746 54.9357C34.6437 54.5552 34.5066 53.7459 34.2183 53.5252C33.9139 53.2937 33.2482 53.4785 32.7605 53.579C32.3992 53.6526 32.0681 53.8823 31.7246 54.042C31.6925 53.9882 31.6605 53.9325 31.6285 53.8787C31.8492 53.4857 32.0681 53.0927 32.3867 52.5238C30.4929 52.4879 29.1294 53.396 27.8621 54.2825C23.9088 57.0496 22.1538 60.8235 23.309 65.7871C23.1363 65.8697 22.9637 65.9522 22.7892 66.033C22.6415 65.7351 22.5009 65.4318 22.3603 65.1267ZM153.695 72.888C153.377 72.7409 153.135 72.6924 152.982 72.5471C152.202 71.8185 151.401 71.1043 150.691 70.3093C149.561 69.0442 148.532 67.6857 147.391 66.4296C146.289 65.2183 144.963 64.3659 143.309 64.0429C141.216 63.6355 139.175 63.928 137.135 64.3461C132.938 65.2039 128.693 65.6615 124.419 65.6292C122.085 65.6113 119.755 65.2595 117.425 65.046C116.514 64.9634 116.179 65.3385 116.527 66.1855C117.577 68.7463 117.612 71.2802 116.439 73.8086C116.345 74.0132 116.318 74.2501 116.217 74.6431C116.751 74.6431 117.182 74.6628 117.611 74.6395C120.044 74.5031 122.399 74.871 124.681 75.7306C125.83 76.1648 126.968 76.4197 128.162 75.5224C128.018 76.0249 127.874 76.5273 127.73 77.0298C127.801 77.0872 127.87 77.1464 127.941 77.2039C128.475 76.7247 129.077 76.303 129.531 75.7575C130.624 74.4439 131.991 73.7781 133.666 73.5592C134.401 73.4641 135.163 73.1716 135.791 72.7732C136.391 72.391 136.848 72.2618 137.491 72.6189C138.217 73.0226 138.954 73.1249 139.509 72.2528C139.605 72.102 139.963 71.9459 140.079 72.0105C141.284 72.6942 142.557 72.4592 143.824 72.364C144.49 72.3138 145.008 72.5722 145.202 73.2416C145.381 73.8607 145.798 74.1155 146.353 74.356C146.99 74.6323 147.638 74.993 148.131 75.474C149.578 76.8862 150.951 78.3757 152.353 79.8346C152.457 79.9405 152.574 80.0338 152.692 80.1253C154.016 81.1446 154.92 82.4205 155.143 84.1271C155.173 84.355 155.264 84.5758 155.393 85.0334C155.62 84.5219 155.79 84.2222 155.888 83.8992C156.518 81.8535 156.465 79.7754 156.15 77.6848C155.979 76.5435 155.673 75.3932 155.707 74.2573C155.76 72.4753 156.205 70.6987 156.207 68.9204C156.21 66.234 155.986 63.5458 155.835 60.8594C155.801 60.2456 155.666 59.6391 155.577 59.029C155.493 59.0397 155.41 59.0505 155.326 59.0613C154.5 62.6718 154.658 66.3111 155.223 69.9594C155.15 69.9702 155.078 69.9827 155.005 69.9935C154.742 69.2308 154.477 68.4681 154.213 67.7055C154.146 67.7252 154.076 67.7467 154.009 67.7665C154.092 68.7607 154.178 69.7566 154.267 70.819C153.984 70.7544 153.804 70.7113 153.549 70.6539C153.601 71.3986 153.644 72.0715 153.695 72.888ZM99.1757 53.2075C98.3391 53.4947 97.5666 53.8643 96.7567 54.0007C96.1586 54.1012 95.897 54.2089 95.8507 54.8818C95.7902 55.7701 95.6531 56.8055 94.6065 57.0442C93.6685 57.2578 92.6646 57.1824 91.691 57.2362C91.6696 57.1322 91.6483 57.0281 91.6269 56.924C92.168 56.2259 93.4941 56.2923 93.5279 55.291C92.6361 55.7773 91.6821 56.3121 90.712 56.8181C89.9342 57.2237 89.1848 57.6418 88.9605 58.5929C88.7541 59.474 89.0851 60.2277 89.8114 60.5453C90.5678 60.8755 91.0662 60.6799 91.5788 59.7396C91.8886 59.1707 92.2267 59.1133 92.7127 59.4704C93.8928 60.3336 94.651 61.4623 94.9109 62.9231C95.1031 64.0106 95.2883 65.0998 95.5197 66.1783C95.7137 67.0846 96.2548 67.6229 97.2177 67.7503C98.1433 67.8724 98.1362 68.0177 97.8193 68.9347C97.5951 69.5861 97.3886 70.3219 97.4669 70.9859C97.6805 72.7876 98.0667 74.5659 98.3515 76.3587C98.5349 77.5036 99.5138 78.3524 100.616 78.094C101.527 77.8804 102.308 77.0908 103.359 77.5018C103.378 77.5089 103.417 77.4838 103.437 77.4641C103.912 76.9939 104.386 77.2039 104.907 77.4049C105.493 77.631 106.18 78.0455 106.703 77.3708C107.248 76.6691 106.655 76.0931 106.319 75.5134C106.288 75.4614 106.26 75.4022 106.214 75.3699C104.934 74.4798 105.452 72.967 104.923 71.9011C105.801 71.7467 106.655 71.7485 107.367 71.4273C108.045 71.1222 108.337 71.1743 108.7 71.806C109.328 72.9024 109.957 72.9778 111.059 72.3515C111.429 72.1415 111.952 72.0518 112.372 72.12C113.138 72.2438 113.511 71.9316 113.65 71.2461C113.762 70.6916 113.769 70.1137 113.898 69.5646C114.031 68.9921 114.175 68.3964 114.458 67.8921C114.807 67.2748 115.151 67.3394 115.451 67.9764C115.564 68.2133 115.681 68.4484 115.797 68.6853C115.864 68.6584 115.932 68.6332 116 68.6063C115.831 66.8674 115.663 65.1285 115.494 63.3896C115.398 63.4578 115.302 63.5242 115.206 63.5924C114.925 63.4022 114.617 63.2407 114.369 63.011C114.133 62.7921 113.967 62.496 113.755 62.2483C113.294 61.7046 112.935 61.8212 112.593 62.4027C112.068 63.2963 111.1 63.5476 109.989 63.0756C110.361 62.4188 111.664 62.4027 111.276 61.1537C109.377 61.5 108.681 60.1936 108.266 58.8585C107.524 58.8172 106.959 58.7849 106.226 58.7436C106.897 59.5763 107.5 60.3282 108.15 61.1339C107.933 61.1788 107.867 61.2147 107.823 61.1985C107.575 61.1016 107.317 61.0155 107.089 60.8827C103.798 58.9518 100.238 57.3044 99.1757 53.2075ZM59.9403 32.567C59.8549 32.7015 59.7712 32.8379 59.6858 32.9725C58.7584 32.7105 57.8311 32.4485 56.7845 32.1524C56.877 32.5095 56.8948 32.8128 57.0265 33.0533C57.9396 34.7222 58.9204 36.3552 59.7854 38.0492C60.2233 38.9034 60.4778 39.8563 60.7893 40.7715C60.9299 41.1878 61.0083 41.6257 61.124 42.0833C62.1866 41.326 62.3592 42.7293 63.1531 42.8729C62.8701 42.182 62.6334 41.6042 62.3966 41.0281C62.4803 40.9546 62.5622 40.8792 62.6458 40.8056C63.0321 41.0389 63.4183 41.2704 63.8544 41.5342C63.9897 41.2596 64.0609 40.9276 64.2638 40.7536C64.5521 40.5077 64.9241 40.3301 65.289 40.2224C65.4261 40.1829 65.6415 40.4216 65.823 40.5328C65.7198 40.6908 65.6504 40.9312 65.5062 40.9904C64.9455 41.2201 64.901 41.6042 65.1431 42.069C65.4617 42.6809 65.4635 43.1277 64.4863 43.2121C65.7963 43.6194 66.5225 44.2547 66.567 45.6006C66.5777 45.9074 67.2897 46.2915 67.7418 46.426C67.902 46.4745 68.331 45.9236 68.4876 45.5772C68.6389 45.2417 68.6247 44.8164 68.6389 44.4305C68.6745 43.422 69.0768 42.706 70.1109 42.4691C70.6787 42.3399 70.9831 41.9846 71.0098 41.4032C71.0329 40.8989 71.1362 40.3695 71.0258 39.8922C70.6502 38.2664 70.3512 36.5975 69.7442 35.056C68.1779 31.0793 67.2399 26.9752 66.8839 22.7258C66.8625 22.4692 66.9675 22.2036 66.9782 21.9416C66.9996 21.4338 67.0369 20.9205 66.9942 20.4163C66.9568 19.9802 66.8216 19.5513 66.7219 19.1206C66.4852 18.1103 66.3214 17.0713 65.9779 16.0986C65.7144 15.3503 64.828 15.1099 64.2994 15.4867C62.7811 16.5706 62.7188 16.8649 63.6355 18.5697C63.7476 18.7797 63.8615 18.9896 63.9861 19.1942C64.9918 20.8452 65.8088 22.541 65.6575 24.5724C65.6112 25.1861 65.8373 25.816 65.8515 26.4405C65.8835 27.9174 65.8622 29.3942 65.8622 30.8711C65.6557 30.8029 65.597 30.733 65.5774 30.654C65.1146 28.7787 64.8885 26.8209 63.6479 25.2202C63.5269 25.0623 63.607 24.7608 63.5233 24.5562C63.4237 24.3158 63.2546 23.9228 63.1033 23.9174C62.3735 23.8905 62.046 23.5208 61.8911 22.846C61.8502 22.6666 61.5494 22.3938 61.4265 22.4225C61.2165 22.4728 60.9175 22.7061 60.8926 22.8945C60.7911 23.6554 60.7057 24.4324 60.7519 25.1951C60.816 26.2592 60.9994 27.318 61.1435 28.3768C61.1756 28.6065 61.2486 28.8308 61.3126 29.0551C61.6419 30.1964 61.9926 31.3341 62.2916 32.4844C62.3503 32.7087 62.2151 32.9833 62.1296 33.4499C61.8787 33.0999 61.7612 32.9743 61.6864 32.8272C61.2575 31.9819 60.7804 31.1529 60.4351 30.2736C60.1735 29.606 60.04 28.8756 59.9385 28.1596C59.8905 27.824 60.0453 27.458 60.1219 27.1062C60.396 25.8375 60.1735 25.4104 58.9684 24.8756C58.5608 24.6962 58.1568 24.5096 57.7599 24.3068C55.9764 23.3916 55.1166 21.1843 55.761 19.1942C56.7097 20.3858 57.4377 20.7823 58.4345 20.6065C58.2778 20.5096 58.1479 20.445 58.0375 20.3588C57.3095 19.7828 57.3505 19.4741 58.1586 19.0058C58.3205 18.9125 58.4505 18.6522 58.4736 18.4531C58.527 18.0098 58.4629 17.5522 58.527 17.1126C58.5591 16.8918 58.7477 16.5491 58.9061 16.5257C59.1571 16.4863 59.6252 16.6083 59.6751 16.7662C59.7979 17.152 59.789 17.6078 59.7231 18.0152C59.6769 18.3041 59.4455 18.5607 59.2782 18.8694C60.2482 19.0273 60.6541 18.7797 60.5953 17.9972C60.5277 17.082 60.3123 16.1794 60.1503 15.2714C60.0774 14.8622 60.412 14.2377 59.6003 14.2036C58.8706 14.1731 58.0874 13.956 57.8222 15.0148C57.6709 15.6177 57.4822 16.2296 57.1992 16.7788C56.7168 17.7173 56.3377 17.816 55.3872 17.4086C54.1555 19.3736 53.7941 23.3934 54.7357 24.5778C54.7945 24.0968 54.8532 23.6069 54.9119 23.117C55.0187 23.1116 55.1238 23.1062 55.2306 23.1027C55.3712 23.4723 55.526 23.8384 55.6506 24.2153C55.7912 24.6388 55.9479 24.8613 56.3822 24.4593C56.5264 24.3265 56.804 24.3409 57.0194 24.287C57.0034 24.5329 57.0853 24.8756 56.9553 25.0084C56.3395 25.6419 56.756 25.9972 57.2419 26.3597C57.5516 26.5912 57.8898 26.7904 58.1692 27.0542C58.8777 27.7271 59.3636 28.5311 59.4668 29.5378C59.0824 29.2363 58.8367 28.8236 58.4932 28.5221C57.9005 28.0017 57.2793 27.4939 56.6065 27.0883C56.0743 26.7653 55.7788 27.0793 55.7628 27.6697C55.7396 28.5006 56.0707 28.689 57.3736 28.4449C57.3273 30.3364 58.7459 31.3808 59.9403 32.567ZM49.3176 82.8925C48.958 81.9683 48.7195 81.1698 48.3493 80.4394C47.4522 78.6664 47.1407 76.7624 47.1158 74.8172C47.0802 71.9621 46.2276 69.3582 44.93 66.8692C44.8392 66.6934 44.6879 66.548 44.5651 66.3883C44.5972 67.02 44.7894 67.544 44.9816 68.068C45.1721 68.5884 45.359 69.1124 45.5476 69.6328C45.464 69.6579 45.3821 69.6848 45.2985 69.71C42.2423 65.0711 39.875 60.1595 39.6489 54.4009C39.5012 54.4278 39.3517 54.4547 39.2039 54.4816C39.284 56.0716 39.3659 57.6633 39.4567 59.4471C38.4635 58.4404 38.063 57.3367 38.022 56.1506C37.9829 55.0056 38.1466 53.8536 38.2374 52.4718C37.3457 53.6992 36.5482 54.7975 35.7508 55.8939C35.8523 55.9783 35.952 56.0626 36.0534 56.147C36.3079 55.7342 36.5643 55.3197 36.8188 54.9069C36.9487 54.9805 37.0769 55.0523 37.2068 55.1259C37.2068 55.6158 37.2015 56.1075 37.2086 56.5974C37.2228 57.5503 37.0822 58.5426 37.2923 59.4507C37.885 62.0115 38.6539 64.5238 40.0725 66.7777C40.2256 67.0218 40.2772 67.3286 40.4374 67.7755C39.8732 67.5224 39.5172 67.3627 39.1594 67.203C39.0811 67.2622 39.0028 67.3196 38.9262 67.3789C39.3356 68.2205 39.7432 69.0639 40.19 69.9827C39.0882 70.1083 39.0847 70.7938 39.3517 71.4865C40.1811 73.6471 41.6709 75.194 43.7962 76.0931C43.9332 76.1523 44.2234 76.1379 44.2714 76.0572C44.3533 75.9154 44.3604 75.6696 44.2963 75.5116C44.0685 74.9607 43.7944 74.4295 43.5416 73.8894C43.1839 73.1267 42.8297 72.364 42.4292 71.5045C43.7944 71.7737 46.1422 76.0697 45.8841 77.3761C45.5441 77.3977 44.9959 77.3528 44.9692 77.4497C44.8552 77.8768 44.8552 78.347 44.8855 78.7974C44.9033 79.0648 45.0582 79.3232 45.1739 79.6498C44.1361 79.3986 43.2747 79.1904 42.4114 78.9822C42.3669 79.1025 42.3224 79.2227 42.2779 79.3429C43.8852 81.7261 46.2578 82.6843 49.3176 82.8925ZM58.6107 83.8256C58.5697 83.7341 58.5537 83.639 58.5003 83.5798C56.7399 81.6417 54.6539 80.1361 52.3595 78.9158C52.1156 78.7866 51.7632 78.7256 51.5033 78.7938C51.1598 78.8853 50.6953 79.0684 50.5813 79.3393C50.4728 79.6031 50.649 80.1074 50.8661 80.3604C51.2061 80.757 51.5603 81.0459 51.3129 81.6597C51.2399 81.8409 51.4304 82.1693 51.5674 82.39C51.8148 82.7902 52.1139 83.1599 52.4165 83.578C52.2207 83.7126 52.0462 83.8328 51.6813 84.0859C52.3559 84.7839 52.9095 85.4748 53.5877 86.0042C53.892 86.2429 54.6574 86.3577 54.8372 86.1675C55.1077 85.8822 55.1683 85.2595 55.1024 84.8126C54.9547 83.8059 55.2822 83.3286 56.2967 83.4273C57.0514 83.5026 57.7937 83.6821 58.6107 83.8256ZM119.75 88.111C119.255 88.5255 118.871 88.8431 118.492 89.1661C118.02 89.5663 117.593 91.1042 117.856 91.6641C118.463 92.9544 118.545 94.2913 118.378 95.6838C118.175 97.3725 119.017 97.6129 120.421 97.8534C121.274 97.9988 121.971 96.9902 121.914 95.8166C121.89 95.3142 121.795 94.8063 121.656 94.3236C121.329 93.1769 120.953 92.0446 120.603 90.905C120.323 90.0042 120.051 89.1033 119.75 88.111ZM163.295 92.6637C163.439 93.1697 163.426 93.7583 163.706 93.9916C164.491 94.6466 165.397 95.1545 166.23 95.7036C166.499 94.1962 165.315 92.4052 163.661 91.9153C160.712 91.0414 157.761 90.1747 154.815 89.2864C153.786 88.9759 152.798 88.608 152.36 87.438C152.271 87.1993 151.816 87.0971 151.529 86.9338C151.357 87.2514 151.043 87.5672 151.036 87.8884C151.013 88.8503 151.634 89.4389 152.464 89.7314C153.998 90.2698 155.559 90.731 157.109 91.2262C157.453 91.3357 157.795 91.4506 158.136 91.5636C158.119 91.6354 158.103 91.7054 158.085 91.7772C157.403 91.7305 156.721 91.6856 156.038 91.639C156.025 91.7251 156.013 91.8095 155.999 91.8956C157.12 92.6547 158.428 92.7049 159.735 92.7157C160.952 92.7247 162.17 92.6816 163.295 92.6637ZM76.0933 69.9773C74.9043 70.8872 73.888 71.6355 72.9108 72.434C72.699 72.6081 72.5049 72.9688 72.5192 73.2326C72.5922 74.5677 72.0938 75.6767 71.3462 76.7229C71.1575 76.9867 71.0614 77.3187 70.8941 77.6812C71.3498 77.7566 71.6595 77.8068 72.0404 77.8696C71.8802 78.8387 72.4426 79.3752 73.0994 79.8992C73.5587 80.2653 73.9592 80.7175 74.3472 81.1644C75.1588 82.0957 75.9438 83.0504 76.7822 84.0446C76.8391 83.8723 76.8783 83.8149 76.8711 83.7646C76.8533 83.648 76.8177 83.5331 76.7786 83.4201C76.1663 81.6597 74.5572 80.355 74.4949 78.3416C73.0763 76.1361 73.71 73.9971 74.721 71.8831C74.8687 71.5745 75.1624 71.3358 75.5362 70.8889C75.6145 71.5457 75.6234 71.937 75.7177 72.3048C75.7747 72.5291 75.9207 72.8216 76.104 72.9024C76.6914 73.159 77.3143 73.3295 78.2239 73.6328C77.4283 72.2671 76.7305 71.0702 76.0933 69.9773ZM95.3666 114.826C95.2722 114.788 95.1761 114.749 95.0818 114.711C93.8625 115.614 92.5329 115.946 91.0573 115.673C90.9398 115.651 90.6266 115.996 90.6212 116.177C90.5856 117.247 90.5928 118.32 90.639 119.389C90.6497 119.621 90.8277 119.91 91.0146 120.059C92.1057 120.92 94.2078 120.877 95.258 119.971C95.4627 119.795 95.6941 119.485 95.6834 119.248C95.6158 117.773 95.4805 116.299 95.3666 114.826ZM93.2573 50.5588C93.3036 50.6575 93.3517 50.7544 93.3979 50.8531C94.9412 50.4709 96.5218 50.2035 98.0151 49.6795C99.7719 49.064 101.42 48.0321 102.387 46.444C104.063 43.6894 105.47 40.7661 106.988 37.9128C106.936 37.8626 106.883 37.8123 106.831 37.7621C103.17 42.959 99.1561 47.7773 93.2573 50.5588ZM88.9338 52.6566C87.5259 53.0712 86.1411 53.6849 84.7029 53.8589C82.1576 54.1676 79.582 54.2179 77.0171 54.3578C76.4885 54.3865 75.9456 54.2663 75.4294 54.3471C74.6551 54.4691 74.3027 55.0918 74.6978 55.7145C75.1873 56.4861 74.8563 56.6961 74.1728 56.8361C73.9734 56.8773 73.7776 56.9635 73.5925 57.0532C72.8236 57.4283 72.7524 57.9343 73.4394 58.4565C73.7331 58.679 74.1158 58.8405 74.4807 58.8998C75.1606 59.011 75.5718 58.7239 75.4792 57.954C75.4312 57.5521 75.3742 57.1519 75.3315 56.8379C76.4974 56.6656 77.6152 56.583 78.6885 56.321C80.3741 55.9101 82.0188 55.3251 83.7044 54.9087C85.5822 54.4458 87.3978 53.8787 88.9338 52.6566ZM69.4149 90.7722C70.7161 89.0603 70.4989 85.945 69.1035 84.2761C67.8059 82.7238 67.7418 82.7328 65.9512 83.6067C65.346 83.901 65.2196 84.1846 65.5952 84.7588C66.5083 86.1531 67.3894 87.569 68.2811 88.9759C68.6425 89.5448 69.0002 90.1154 69.4149 90.7722ZM161.264 47.169C161.662 47.6912 161.994 48.1613 162.364 48.5974C162.593 48.8666 162.835 49.3062 163.247 48.732C163.329 48.6172 163.656 48.5615 163.8 48.6297C165.11 49.2542 166.591 49.588 167.262 51.1779C167.695 52.2044 168.165 53.4121 168.992 54.0276C170.477 55.1313 172.242 55.8509 173.892 56.7302C173.962 56.6387 174.03 56.5489 174.099 56.4574C173.779 56.2008 173.439 55.9639 173.141 55.6822C171.272 53.8984 169.434 52.0824 167.542 50.3237C166.135 49.0155 164.713 47.7163 163.209 46.5265C162.147 45.6867 161.643 45.9451 161.264 47.169ZM124.875 102.824C124.636 102.16 124.332 101.511 124.177 100.827C124.015 100.106 124.04 99.3429 123.897 98.6161C123.787 98.0526 123.705 97.4443 122.977 97.2199C122.219 96.9884 122.007 97.5986 121.624 97.9683C121.518 98.0723 121.402 98.1657 121.302 98.2769C120.499 99.1724 120.473 99.4792 121.08 100.518C121.215 100.75 121.393 100.985 121.43 101.238C121.628 102.607 122.667 103.092 123.744 103.542C124.652 103.922 124.782 103.827 124.875 102.824ZM53.2637 105.372C53.0982 105.859 52.9415 106.096 52.9522 106.322C53.0626 108.38 53.2014 110.437 53.342 112.495C53.3545 112.667 53.4453 112.836 53.504 113.005C53.9223 114.214 54.0042 114.246 55.1558 113.701C55.2608 113.651 55.3801 113.609 55.494 113.606C56.4356 113.575 56.3644 113.076 56.0938 112.402C55.567 111.079 55.0775 109.74 54.588 108.402C54.3833 107.842 54.2569 107.253 54.0327 106.702C53.876 106.311 53.6126 105.963 53.2637 105.372ZM88.3927 70.4529C89.5141 71.4722 90.607 72.4556 91.6874 73.4515C92.3709 74.0814 93.1666 74.3201 94.0583 74.1137C94.4713 74.0186 94.9091 73.7853 94.5692 73.238C93.4816 71.4919 90.9968 69.7082 88.3927 70.4529ZM14.8827 69.5323C14.945 68.8611 14.986 68.4107 15.0376 67.8365C13.5745 70.5552 13.069 75.5798 15.2868 77.6579C15.091 77.1375 14.9272 76.705 14.7635 76.2743C14.8685 76.2653 14.9735 76.2564 15.0785 76.2456C15.1123 75.8831 15.2441 75.4937 15.1586 75.1617C14.9094 74.2016 14.8845 73.2721 15.0945 72.3389C15.1782 72.3174 15.2619 72.2959 15.3473 72.2725C15.5377 72.5614 15.73 72.8504 16.013 73.281C16.013 72.3353 16.3423 71.1725 15.9382 70.7885C15.2797 70.1586 15.4826 69.7225 15.7424 69.0801C15.4701 69.2236 15.285 69.3205 14.8827 69.5323ZM102.289 49.0927C100.48 50.1963 99.7702 51.6786 100.183 53.2668C100.487 54.4368 101.798 55.2515 103.777 55.3717C102.401 53.457 101.81 51.4274 102.289 49.0927ZM33.3586 79.1868C36.3026 82.0491 39.7183 84.0625 43.6769 85.1159C40.3484 82.9392 37.1534 80.5327 33.3586 79.1868ZM92.1306 68.3999C90.3952 66.1281 87.8 65.1537 85.8937 66.015C86.7819 67.8221 89.3984 68.8432 92.1306 68.3999ZM118.833 98.6574C118.422 97.9395 117.952 97.3312 117.71 96.6421C117.447 95.8974 117.137 95.6874 116.471 96.1163C115.332 96.8503 114.325 99.4039 114.627 100.78C115.587 100.472 116.009 100.036 117.03 98.2823C117.571 98.896 118.152 99.4075 118.833 98.6574ZM73.4323 116.079C74.7423 117.862 77.0758 117.32 77.7344 116.177C77.9231 115.851 77.9462 115.127 77.7309 114.925C77.2663 114.483 76.5988 114.259 76.0061 113.959C75.9741 113.943 75.8459 114.047 75.8139 114.119C75.36 115.169 74.559 115.817 73.4323 116.079ZM76.0043 98.1674C76.0613 98.1064 76.1165 98.0454 76.1734 97.9844C76.1538 97.9072 76.1574 97.8068 76.1093 97.7529C74.4255 95.8328 75.3244 92.2473 76.5472 90.6879C76.9512 90.1729 77.3589 89.656 77.7077 89.1051C77.843 88.8916 77.827 88.5775 77.8786 88.3102C77.8074 88.2922 77.738 88.2725 77.6668 88.2545C76.6059 89.5107 75.5451 90.7651 74.6266 91.8543C74.7601 92.4196 75.004 92.8485 74.8829 93.0943C74.753 93.3599 74.2795 93.4515 73.8719 93.6632C74.2012 93.866 74.4611 94.0275 74.5697 94.0939C74.4148 94.9768 73.9787 95.8723 74.2226 96.4967C74.4896 97.1841 75.3831 97.6219 76.0043 98.1674ZM122.771 107.748C123.449 106.623 123.319 104.872 122.497 103.813C122.141 103.354 121.763 102.799 121.041 103.144C120.528 103.388 120.127 104.486 120.409 105.035C120.969 106.126 121.786 107.002 122.771 107.748ZM60.3319 80.7427C58.8866 81.0908 58.0429 80.1451 57.0372 79.5529C55.9443 78.9105 54.814 78.3326 53.6767 77.7727C53.4471 77.6597 53.116 77.7566 52.8312 77.7566C52.8098 77.8373 52.7902 77.9163 52.7689 77.997C55.0081 79.8095 57.9539 80.6117 59.821 83.0468C60.0044 82.2196 60.1503 81.561 60.3319 80.7427ZM143.612 107.271C143.617 107.224 143.623 107.18 143.63 107.133C144.21 106.808 144.792 106.481 145.372 106.157C145.34 106.076 145.308 105.997 145.276 105.916C145.024 105.886 144.769 105.826 144.516 105.83C143.747 105.843 142.975 105.839 142.209 105.916C141.321 106.006 141.227 106.205 141.506 107.088C141.531 107.165 141.503 107.258 141.499 107.345C141.467 108.287 141.772 108.655 142.708 108.382C144.046 107.992 145.324 107.382 146.627 106.865C146.611 106.817 146.593 106.767 146.577 106.718C145.588 106.901 144.6 107.086 143.612 107.271ZM23.3962 99.7107C26.6695 98.1926 29.3715 95.5439 28.453 93.2397C26.8137 95.3357 25.1423 97.4748 23.3962 99.7107ZM83.7328 108.581C83.6278 108.603 83.5228 108.626 83.4196 108.647C83.4569 108.926 83.3982 109.29 83.5495 109.469C84.3398 110.397 85.1461 111.321 86.029 112.158C86.5113 112.615 87.1557 112.899 87.7804 113.295C88.4817 110.578 88.1952 109.096 86.9688 108.924C86.9973 109.198 87.0578 109.459 87.0435 109.713C87.0151 110.193 86.9421 110.668 86.8887 111.145C86.3725 110.993 85.8136 110.921 85.3544 110.664C84.9877 110.46 84.7189 110.049 84.4502 109.697C84.1814 109.347 83.9696 108.954 83.7328 108.581ZM62.3486 4.5204C61.1044 4.05562 60.0115 4.2907 58.9524 4.59038C58.5306 4.70882 58.1799 5.08029 57.7955 5.3369C58.1087 5.67607 58.3935 6.04754 58.7442 6.34184C58.9862 6.54462 59.3049 6.681 59.611 6.76534C59.8086 6.81918 60.1236 6.81021 60.25 6.68818C60.9424 6.02062 61.5939 5.30819 62.3486 4.5204ZM61.5084 42.5858C61.8573 44.2565 62.4126 45.8482 63.3774 47.2569C63.6319 47.6302 64.0395 47.9442 64.4436 48.147C64.6856 48.2672 65.1698 48.2385 65.3496 48.068C65.6931 47.7414 65.8978 47.2659 66.2342 46.7383C63.2759 46.9375 63.0071 44.1309 61.5084 42.5858ZM61.989 12.6909C61.9552 12.5975 61.9214 12.506 61.8858 12.4127C60.7092 12.1722 59.5683 12.3786 58.4398 12.7537C58.2476 12.8183 58.0447 12.9152 57.8542 12.9008C56.5726 12.8039 55.2484 13.7604 54.9778 15.0847C54.9155 15.3916 55.1166 15.7541 55.1967 16.0897C55.5029 15.8654 55.9621 15.7092 56.0903 15.4078C56.7026 13.9865 57.8916 13.1538 59.3814 13.2238C59.7659 13.2418 60.1681 13.3153 60.533 13.2328C61.0332 13.1179 61.5049 12.8775 61.989 12.6909ZM154.646 52.6548C154.212 55.4991 153.703 58.3417 154 61.2506C154.641 58.4242 155.751 55.6409 154.646 52.6548ZM45.9873 11.318C44.412 11.318 42.8297 11.2355 41.2633 11.3557C40.5585 11.4096 40.1206 12.0592 39.8678 13.1036C42.0269 12.3086 44.1486 12.3876 45.9873 11.318ZM42.6072 25.9721C42.3402 26.06 42.0732 26.1426 41.808 26.2359C40.8593 26.5697 39.9159 26.9196 38.9601 27.2354C38.5489 27.3718 37.9989 27.3306 38.2036 28.0304C38.3727 28.6065 39.3232 29.3027 39.6774 29.0425C40.8094 28.2099 41.9201 27.3395 42.6072 25.9721ZM122.691 31.5261C123.686 33.606 124.88 35.3556 126.014 37.3063C126.471 35.3503 124.497 31.7666 122.691 31.5261ZM123.659 46.112C124.009 46.6019 124.246 46.9734 124.524 47.3089C124.859 47.7127 125.195 48.1308 125.604 48.4467C125.781 48.5831 126.22 48.5849 126.393 48.4539C126.535 48.3462 126.539 47.9245 126.468 47.684C126.3 47.1133 126.024 46.575 125.848 46.0079C125.702 45.5413 125.64 45.0586 126.229 44.7894C126.307 44.7535 126.315 44.5615 126.387 44.3408C125.914 44.4557 125.556 44.54 125.113 44.6477C125.514 45.8913 124.618 45.99 123.659 46.112ZM38.0078 25.6329C40.2701 25.6922 42.7264 24.1148 42.7389 22.8783C41.4822 23.3575 40.2131 23.7577 39.0313 24.3373C38.5881 24.5562 38.3442 25.1897 38.0078 25.6329ZM36.0552 14.2664C37.917 14.2575 39.7682 13.0372 39.923 11.7182C38.0487 11.4742 36.0267 12.8057 36.0552 14.2664ZM129.785 45.5647C129.924 45.4947 130.061 45.4247 130.2 45.3529C129.328 42.8226 127.37 40.8846 126.288 38.4673C126.455 41.3655 128.664 43.1762 129.785 45.5647ZM124.983 108.854C125.02 108.256 125.101 107.659 125.086 107.061C125.067 106.264 125.038 105.455 124.875 104.68C124.823 104.436 124.326 104.289 124.033 104.097C123.892 104.351 123.664 104.595 123.627 104.865C123.426 106.361 124.711 107.422 124.983 108.854ZM165.699 102.435C165.653 102.541 165.607 102.645 165.562 102.751C165.27 103.431 165.457 104.412 164.393 104.624C164.35 104.633 164.327 105.096 164.409 105.302C164.514 105.568 164.751 105.778 164.898 106.033C165.256 106.648 165.609 106.489 165.86 105.99C166.449 104.809 166.333 103.616 165.699 102.435ZM67.8735 17.0462C67.5585 15.7882 67.0405 14.5572 65.9031 13.6491C65.0309 12.9546 64.9366 12.9529 64.3172 13.7424C65.5204 14.8604 66.7112 15.9658 67.8735 17.0462ZM151.163 99.5133C151.3 99.883 151.625 100.31 151.538 100.615C151.15 101.957 152.279 102.336 152.932 103.005C153.048 103.124 153.43 103.149 153.551 103.049C153.681 102.941 153.749 102.58 153.669 102.42C153.088 101.259 152.366 100.204 151.163 99.5133ZM147.341 65.5646C147.386 63.5565 145.333 62.2196 143.518 63.0774C144.223 63.4668 144.881 63.7844 145.49 64.1792C146.102 64.5794 146.665 65.055 147.341 65.5646ZM118.917 111.727C118.63 110.7 115.047 108.258 114.003 108.298C114.887 109.11 115.656 109.83 116.445 110.53C116.559 110.63 116.756 110.634 116.915 110.684C117.265 110.795 117.634 110.873 117.961 111.031C118.237 111.165 118.468 111.395 118.917 111.727ZM70.4046 97.6722C69.5484 99.5708 70.1857 101.211 72.0083 101.778C71.4619 100.382 70.9706 99.1221 70.4046 97.6722ZM55.2039 114.853C55.1344 115.002 55.0668 115.151 54.9974 115.302C55.3391 115.533 55.7343 115.712 56.0066 116.009C56.3003 116.328 56.4213 116.813 56.731 117.105C56.8574 117.223 57.2793 117.021 57.5676 116.965C57.2864 116.202 57.1013 115.379 56.667 114.718C56.5388 114.523 55.7111 114.795 55.2039 114.853ZM121.007 32.2009C120.996 32.1004 120.985 31.9999 120.975 31.9012C120.599 31.8097 120.138 31.5333 119.868 31.6625C119.232 31.9694 118.687 32.4683 118.107 32.89C118.096 32.9833 118.084 33.0766 118.073 33.1699C118.57 33.3242 119.056 33.5557 119.563 33.6168C120.622 33.7442 120.248 32.4162 121.007 32.2009ZM62.1368 77.2416C63.3186 76.626 64.0377 75.0953 63.5838 73.9845C63.2314 74.6861 62.8647 75.4165 62.4554 76.2294C61.7558 75.465 61.2432 74.9051 60.7306 74.3452C60.711 74.3793 60.6914 74.4116 60.6701 74.4457C61.1489 75.3573 61.6259 76.2689 62.1368 77.2416ZM160.449 53.0658C160.44 52.933 160.486 52.7122 160.4 52.5848C160.222 52.321 159.975 52.1039 159.754 51.8688C159.546 52.1129 159.258 52.3264 159.155 52.6082C159.048 52.8971 159.03 53.2937 159.146 53.5682C159.274 53.8751 159.598 54.0976 159.838 54.3578C160.034 54.0922 160.249 53.8374 160.417 53.5521C160.482 53.439 160.44 53.2614 160.449 53.0658ZM54.1341 2.882C52.7689 2.69896 52.0783 3.40421 51.4411 4.1256C51.0103 4.61371 50.8359 5.21847 51.2737 5.93807C51.3699 4.17764 53.221 4.14893 54.1341 2.882ZM70.0486 19.6931C69.4274 20.6872 68.881 20.0843 68.3256 19.7972C68.2758 19.8546 68.2277 19.912 68.1779 19.9676C68.5552 20.6657 68.9326 21.3656 69.3153 22.0708C70.3583 21.5486 70.353 20.8075 70.0486 19.6931ZM53.4542 4.22789C53.3937 4.18662 53.3331 4.14714 53.2726 4.10586C53.0056 4.32121 52.7119 4.51143 52.4752 4.75727C52.048 5.20052 51.7063 5.70299 52.0961 6.33825C52.2046 6.5159 52.477 6.75817 52.6034 6.72048C52.8134 6.65947 53.0715 6.42259 53.1231 6.21442C53.2797 5.56481 53.3492 4.89186 53.4542 4.22789ZM25.4004 95.0593C24.4019 96.0176 23.3873 96.992 22.4368 97.9019C23.8394 98.0167 25.5232 96.4609 25.4004 95.0593ZM126.797 42.1784C126.473 42.0725 126.104 41.8249 125.937 41.9236C125.295 42.3022 125.099 41.9577 124.91 41.4427C124.826 41.2112 124.686 41.0012 124.572 40.7823C124.486 41.1968 124.586 41.5432 124.679 41.8931C125.165 43.7145 125.209 43.7289 126.617 42.5463C126.658 42.514 126.67 42.4458 126.797 42.1784ZM44.5705 8.94748C44.5936 9.08745 44.6167 9.22563 44.6399 9.3656C46.0567 9.38714 47.4344 9.18974 48.7694 8.75547C48.7462 8.62088 48.7231 8.48449 48.7017 8.3499C47.3223 8.5491 45.9464 8.74829 44.5705 8.94748ZM39.1665 48.61C39.1096 48.4933 39.0526 48.3767 38.9957 48.26C37.319 49.0586 35.6422 49.859 33.9655 50.6575C34.0154 50.767 34.0652 50.8747 34.115 50.9841C35.7971 50.1927 37.4827 49.4014 39.1665 48.61ZM35.644 26.8317C36.9914 27.0596 37.472 26.069 36.9309 24.3911C36.4468 25.3081 36.0623 26.0367 35.644 26.8317ZM110.236 50.0438C109.446 51.2048 109.72 53.6023 110.541 54.4027C110.446 53.0478 110.348 51.6391 110.236 50.0438ZM73.2329 105.229C73.596 105.2 73.9752 105.168 74.3525 105.137C74.4433 104.064 74.1621 103.589 73.2329 103.316C73.2329 103.964 73.2329 104.595 73.2329 105.229ZM120.893 113.48C120.807 113.538 120.722 113.593 120.636 113.651C121.083 114.261 121.53 114.871 122.009 115.526C122.504 114.751 122.121 114.133 120.893 113.48ZM108.065 79.1043C108.042 79.2999 108.018 79.4973 107.995 79.6929C108.689 79.7826 109.384 79.8723 110.078 79.962C110.101 79.7952 110.126 79.6283 110.149 79.4614C109.455 79.3411 108.761 79.2227 108.065 79.1043ZM64.2175 5.29025C63.4539 4.61192 62.9733 4.82547 62.2631 6.1229C62.9715 5.82143 63.5411 5.57916 64.2175 5.29025ZM56.4641 2.4567C56.3929 2.62718 56.3217 2.79945 56.2505 2.96993C56.6029 3.14759 56.9464 3.36832 57.3202 3.46701C57.3932 3.48675 57.589 3.03095 57.7296 2.79407C57.3078 2.68281 56.8859 2.56975 56.4641 2.4567ZM49.1948 76.827C50.0687 76.7176 50.649 76.6458 51.2275 76.5722C51.2435 76.4807 51.2613 76.3892 51.2773 76.2976C50.8341 76.1648 50.3891 75.9405 49.9459 75.9423C49.7465 75.9423 49.549 76.3909 49.1948 76.827ZM123.289 44.8146C123.342 44.7482 123.395 44.6818 123.449 44.6136C123.091 43.7648 122.634 43.5279 121.891 43.9711C122.404 44.2816 122.847 44.549 123.289 44.8146Z" fill="#FFFEFF"/>
</svg>
