<svg width="52" height="59" viewBox="0 0 52 59" fill="none" xmlns="http://www.w3.org/2000/svg">
<g filter="url(#filter0_d_948_1449)">
<path fill-rule="evenodd" clip-rule="evenodd" d="M18.4168 6.33065C16.6219 6.33065 15.1668 7.78572 15.1668 9.58065V42.4192C15.1668 44.2141 16.6219 45.6692 18.4168 45.6692H33.5835C35.3784 45.6692 36.8335 44.2141 36.8335 42.4192V9.58065C36.8335 7.78572 35.3784 6.33065 33.5835 6.33065H33.4028L32.8751 7.59696C32.5387 8.40429 31.7498 8.93016 30.8752 8.93016H21.1252C20.2505 8.93016 19.4617 8.40429 19.1252 7.59696L18.5975 6.33065H18.4168ZM10.8335 9.58065C10.8335 5.39249 14.2287 1.99731 18.4168 1.99731H33.5835C37.7717 1.99731 41.1668 5.39249 41.1668 9.58065V42.4192C41.1668 46.6073 37.7717 50.0025 33.5835 50.0025H18.4168C14.2287 50.0025 10.8335 46.6073 10.8335 42.4192V9.58065Z" fill="#1C1E22"/>
</g>
<defs>
<filter id="filter0_d_948_1449" x="-4" y="0" width="60" height="60" filterUnits="userSpaceOnUse" color-interpolation-filters="sRGB">
<feFlood flood-opacity="0" result="BackgroundImageFix"/>
<feColorMatrix in="SourceAlpha" type="matrix" values="0 0 0 0 0 0 0 0 0 0 0 0 0 0 0 0 0 0 127 0" result="hardAlpha"/>
<feOffset dy="4"/>
<feGaussianBlur stdDeviation="2"/>
<feComposite in2="hardAlpha" operator="out"/>
<feColorMatrix type="matrix" values="0 0 0 0 0 0 0 0 0 0 0 0 0 0 0 0 0 0 0.25 0"/>
<feBlend mode="normal" in2="BackgroundImageFix" result="effect1_dropShadow_948_1449"/>
<feBlend mode="normal" in="SourceGraphic" in2="effect1_dropShadow_948_1449" result="shape"/>
</filter>
</defs>
</svg>
