<svg width="48" height="48" viewBox="0 0 48 48" fill="none" xmlns="http://www.w3.org/2000/svg">
<g clip-path="url(#clip0_948_1447)">
<g filter="url(#filter0_d_948_1447)">
<path fill-rule="evenodd" clip-rule="evenodd" d="M45.5 36V14C45.5 10.6863 42.8137 8 39.5 8L8.49999 8.00003C5.18629 8.00003 2.5 10.6863 2.5 14V36C2.5 39.3137 5.18629 42 8.5 42L39.5 42C42.8137 42 45.5 39.3137 45.5 36ZM41.5 18.5189V36C41.5 37.1046 40.6046 38 39.5 38L8.5 38C7.39543 38 6.5 37.1046 6.5 36L6.5 18.5187L20.6263 28.1246C22.6625 29.5092 25.3379 29.5092 27.3741 28.1246L41.5 18.5189ZM41.4772 13.6972C41.3313 12.7363 40.5016 12 39.5 12L8.5 12C7.49845 12 6.66885 12.7362 6.52281 13.697L22.8756 24.8169C23.5543 25.2784 24.4461 25.2784 25.1248 24.8169L41.4772 13.6972Z" fill="#1C1E22"/>
</g>
</g>
<defs>
<filter id="filter0_d_948_1447" x="-1.5" y="8" width="51" height="42" filterUnits="userSpaceOnUse" color-interpolation-filters="sRGB">
<feFlood flood-opacity="0" result="BackgroundImageFix"/>
<feColorMatrix in="SourceAlpha" type="matrix" values="0 0 0 0 0 0 0 0 0 0 0 0 0 0 0 0 0 0 127 0" result="hardAlpha"/>
<feOffset dy="4"/>
<feGaussianBlur stdDeviation="2"/>
<feComposite in2="hardAlpha" operator="out"/>
<feColorMatrix type="matrix" values="0 0 0 0 0 0 0 0 0 0 0 0 0 0 0 0 0 0 0.25 0"/>
<feBlend mode="normal" in2="BackgroundImageFix" result="effect1_dropShadow_948_1447"/>
<feBlend mode="normal" in="SourceGraphic" in2="effect1_dropShadow_948_1447" result="shape"/>
</filter>
<clipPath id="clip0_948_1447">
<rect width="48" height="48" fill="white"/>
</clipPath>
</defs>
</svg>
