<svg width="43" height="52" viewBox="0 0 43 52" fill="none" xmlns="http://www.w3.org/2000/svg">
<g filter="url(#filter0_d_948_1452)">
<path fill-rule="evenodd" clip-rule="evenodd" d="M21.5 13.3024C19.2259 13.3024 17.3824 15.135 17.3824 17.3955C17.3824 19.656 19.2259 21.4886 21.5 21.4886C23.7741 21.4886 25.6176 19.656 25.6176 17.3955C25.6176 15.135 23.7741 13.3024 21.5 13.3024ZM13.2647 17.3955C13.2647 12.8744 16.9518 9.20938 21.5 9.20938C26.0482 9.20938 29.7353 12.8744 29.7353 17.3955C29.7353 21.9166 26.0482 25.5816 21.5 25.5816C16.9518 25.5816 13.2647 21.9166 13.2647 17.3955Z" fill="#1C1E22"/>
<path fill-rule="evenodd" clip-rule="evenodd" d="M21.5 4.09306C14.048 4.09306 8.11765 9.89714 8.11765 16.9232C8.11765 22.6511 11.5806 28.4362 15.366 32.9864C17.2243 35.2202 19.0879 37.0705 20.488 38.3625C20.8625 38.7081 21.2029 39.0128 21.5 39.2733C21.7971 39.0128 22.1375 38.7081 22.512 38.3625C23.9121 37.0705 25.7757 35.2202 27.634 32.9864C31.4194 28.4362 34.8824 22.6511 34.8824 16.9232C34.8824 9.89714 28.952 4.09306 21.5 4.09306ZM21.5 41.9539C20.2259 43.5615 20.2255 43.5611 20.2249 43.5607L20.2198 43.5567L20.2081 43.5474L20.1682 43.5158C20.1344 43.4889 20.0864 43.4504 20.0251 43.4006C19.9024 43.3011 19.7265 43.1567 19.5049 42.9699C19.062 42.5965 18.4355 42.0533 17.6866 41.3623C16.1915 39.9826 14.1948 38.0013 12.1928 35.5948C8.25763 30.8645 4 24.1343 4 16.9232C4 7.51697 11.8961 0 21.5 0C31.1039 0 39 7.51697 39 16.9232C39 24.1343 34.7424 30.8645 30.8072 35.5948C28.8052 38.0013 26.8085 39.9826 25.3134 41.3623C24.5645 42.0533 23.938 42.5965 23.4951 42.9699C23.2735 43.1567 23.0976 43.3011 22.9749 43.4006C22.9136 43.4504 22.8656 43.4889 22.8318 43.5158L22.7919 43.5474L22.7802 43.5567L22.7764 43.5596C22.7759 43.56 22.7741 43.5615 21.5 41.9539ZM21.5 41.9539L22.7741 43.5615C22.0267 44.1467 20.9723 44.1459 20.2249 43.5607L21.5 41.9539Z" fill="#1C1E22"/>
</g>
<defs>
<filter id="filter0_d_948_1452" x="0" y="0" width="43" height="52" filterUnits="userSpaceOnUse" color-interpolation-filters="sRGB">
<feFlood flood-opacity="0" result="BackgroundImageFix"/>
<feColorMatrix in="SourceAlpha" type="matrix" values="0 0 0 0 0 0 0 0 0 0 0 0 0 0 0 0 0 0 127 0" result="hardAlpha"/>
<feOffset dy="4"/>
<feGaussianBlur stdDeviation="2"/>
<feComposite in2="hardAlpha" operator="out"/>
<feColorMatrix type="matrix" values="0 0 0 0 0 0 0 0 0 0 0 0 0 0 0 0 0 0 0.25 0"/>
<feBlend mode="normal" in2="BackgroundImageFix" result="effect1_dropShadow_948_1452"/>
<feBlend mode="normal" in="SourceGraphic" in2="effect1_dropShadow_948_1452" result="shape"/>
</filter>
</defs>
</svg>
